<svg id="icons_Flip_Chart_Filled" data-name="icons/Flip Chart/Filled" xmlns="http://www.w3.org/2000/svg" width="24" height="24" viewBox="0 0 24 24">
  <g id="Shape" transform="translate(6 19)">
    <path id="_63B57CF9-8AA0-4EE6-8036-A1D40E00A623" data-name="63B57CF9-8AA0-4EE6-8036-A1D40E00A623" d="M2.895,1.447A1,1,0,0,0,1.106.553l-1,2a1,1,0,1,0,1.789.894Z" transform="translate(0 0)" fill="#777e90"/>
    <path id="_66CE3E31-494E-4672-AF1E-C56C4DF2E535" data-name="66CE3E31-494E-4672-AF1E-C56C4DF2E535" d="M.106,1.447A1,1,0,0,1,1.895.553l1,2a1,1,0,0,1-1.789.894Z" transform="translate(9 0)" fill="#777e90"/>
  </g>
  <path id="Shape-2" data-name="Shape" d="M8,1a1,1,0,0,1,2,0V2h5a3,3,0,0,1,3,3v8a3,3,0,0,1-3,3H3a3,3,0,0,1-3-3V5A3,3,0,0,1,3,2H8Zm6.781,5.625a1,1,0,0,0-1.562-1.249L9.792,9.659,7.555,8.168a1,1,0,0,0-1.262.125l-3,3a1,1,0,1,0,1.414,1.414l2.42-2.42,2.318,1.545a1,1,0,0,0,1.336-.207Z" transform="translate(3 1)" fill="#777e90" fill-rule="evenodd"/>
</svg>
