<svg id="icons_Petri_Dish_Filled" data-name="icons/Petri Dish/Filled" xmlns="http://www.w3.org/2000/svg" width="24" height="24" viewBox="0 0 24 24">
  <path id="Shape" d="M20,10A10,10,0,1,1,10,0,10,10,0,0,1,20,10ZM12.293,5.293a1,1,0,0,1,1.414,1.414l-3,3A1,1,0,0,1,9.293,8.293Zm-8,3a1,1,0,0,1,1.414,0l1,1a1,1,0,1,1-1.414,1.414l-1-1A1,1,0,0,1,4.293,8.293ZM9,6A1,1,0,1,1,8,5,1,1,0,0,1,9,6ZM8,14a1,1,0,1,1-1-1A1,1,0,0,1,8,14Zm7-5.5a1,1,0,0,1,1,1V10a3,3,0,0,1-3,3,1,1,0,0,0-1,1v.5a1,1,0,0,1-2,0V14a3,3,0,0,1,3-3,1,1,0,0,0,1-1V9.5A1,1,0,0,1,15,8.5Z" transform="translate(2 2)" fill="#777e90" fill-rule="evenodd"/>
</svg>
