<svg id="icons_Weight_Line" data-name="icons/Weight/Line" xmlns="http://www.w3.org/2000/svg" width="24" height="24" viewBox="0 0 24 24">
  <path id="Shape" d="M9,16A7,7,0,1,0,2,9,7,7,0,0,0,9,16Zm0,2A9,9,0,1,0,0,9,9,9,0,0,0,9,18Z" transform="translate(3 6)" fill="#777e90" fill-rule="evenodd"/>
  <path id="Shape-2" data-name="Shape" d="M4.005,2A2,2,0,0,0,2.216,4.894l.829,1.658a1,1,0,1,1-1.789.894L.427,5.789A4,4,0,0,1,4.005,0H10.3a4,4,0,0,1,3.578,5.789l-.829,1.658a1,1,0,1,1-1.789-.894l.829-1.658A2,2,0,0,0,10.3,2Z" transform="translate(4.849 1)" fill="#777e90"/>
</svg>
