<svg id="icons_Hourglass_Filled" data-name="icons/Hourglass/Filled" xmlns="http://www.w3.org/2000/svg" width="24" height="24" viewBox="0 0 24 24">
  <path id="Shape" d="M0,5.5A17.578,17.578,0,0,0,.3,8.415,4.773,4.773,0,0,0,3.105,12,4.773,4.773,0,0,0,.3,15.585,17.578,17.578,0,0,0,0,18.5V24H12V18.5a17.578,17.578,0,0,0-.3-2.915A4.773,4.773,0,0,0,8.895,12a4.773,4.773,0,0,0,2.8-3.585A17.577,17.577,0,0,0,12,5.5V0H0ZM2.894,20.553A1.618,1.618,0,0,0,2,22h8a1.618,1.618,0,0,0-.894-1.447L6.894,19.447a2,2,0,0,0-1.789,0Z" transform="translate(6)" fill="#777e90" fill-rule="evenodd"/>
  <path id="Shape-2" data-name="Shape" d="M0,1A1,1,0,0,1,1,0H15a1,1,0,0,1,0,2H1A1,1,0,0,1,0,1Z" transform="translate(4)" fill="#777e90"/>
  <path id="Shape-3" data-name="Shape" d="M0,1A1,1,0,0,1,1,0H15a1,1,0,0,1,0,2H1A1,1,0,0,1,0,1Z" transform="translate(4 22)" fill="#777e90"/>
</svg>
