<svg id="icons_Sort_Filled" data-name="icons/Sort/Filled" xmlns="http://www.w3.org/2000/svg" width="24" height="24" viewBox="0 0 24 24">
  <path id="Shape" d="M0,2A2,2,0,0,1,2,0H18a2,2,0,0,1,0,4H2A2,2,0,0,1,0,2Z" transform="translate(2 3)" fill="#777e90"/>
  <path id="Shape-2" data-name="Shape" d="M0,2A2,2,0,0,1,2,0H12a2,2,0,0,1,0,4H2A2,2,0,0,1,0,2Z" transform="translate(5 10)" fill="#777e90"/>
  <path id="Shape-3" data-name="Shape" d="M0,2A2,2,0,0,1,2,0H6A2,2,0,0,1,6,4H2A2,2,0,0,1,0,2Z" transform="translate(8 17)" fill="#777e90"/>
</svg>
