<svg id="icons_Stretch_Height_Filled" data-name="icons/Stretch Height/Filled" xmlns="http://www.w3.org/2000/svg" width="24" height="24" viewBox="0 0 24 24">
  <path id="Shape" d="M0,18a2,2,0,0,0,2,2H18a2,2,0,0,0,2-2V2a2,2,0,0,0-2-2H2A2,2,0,0,0,0,2Zm9.293-2.293a1,1,0,0,0,1.414,0l2-2a1,1,0,0,0-1.414-1.414L11,12.586V7.414l.293.293a1,1,0,0,0,1.414-1.414l-2-2a1,1,0,0,0-1.414,0l-2,2A1,1,0,0,0,8.707,7.707L9,7.414v5.172l-.293-.293a1,1,0,0,0-1.414,1.414Z" transform="translate(2 2)" fill="#777e90" fill-rule="evenodd"/>
</svg>
