<svg id="Icons_Behance_Line" data-name="Icons/Behance/Line" xmlns="http://www.w3.org/2000/svg" width="24" height="24" viewBox="0 0 24 24">
  <path id="Vector" d="M1,0A1,1,0,0,0,1,2H5A1,1,0,0,0,5,0Z" transform="translate(16 4)" fill="#777e90"/>
  <path id="Vector-2" data-name="Vector" d="M0,5A5,5,0,0,1,10,5V6A1,1,0,0,1,9,7H2A3,3,0,0,0,6.849,9.363,1.516,1.516,0,0,1,7.767,9c.857,0,1.405.885.806,1.5A5,5,0,0,1,0,7ZM5,2A3,3,0,0,0,2,5H8A3,3,0,0,0,5,2Z" transform="translate(14 8)" fill="#777e90" fill-rule="evenodd"/>
  <path id="Vector-3" data-name="Vector" d="M2,2V6H7A2,2,0,0,0,7,2ZM9.8,6.857A4,4,0,0,0,7,0H1.6A1.6,1.6,0,0,0,0,1.6V14.286A1.714,1.714,0,0,0,1.714,16H7A5,5,0,0,0,9.8,6.857ZM2,8v6H7A3,3,0,0,0,7,8Z" transform="translate(0 4)" fill="#777e90" fill-rule="evenodd"/>
</svg>
