<svg id="icons_Line_02_Up_Line" data-name="icons/Line 02 Up/Line" xmlns="http://www.w3.org/2000/svg" width="24" height="24" viewBox="0 0 24 24">
  <path id="Shape" d="M1,0A1,1,0,0,1,2,1V15a1,1,0,0,0,1,1H21a1,1,0,0,1,0,2H3a3,3,0,0,1-3-3V1A1,1,0,0,1,1,0Z" transform="translate(1 3)" fill="#777e90"/>
  <path id="Shape-2" data-name="Shape" d="M14.383.076A1,1,0,0,0,14,0H14a1,1,0,0,0-.7.286l-.007.007-2,2a1,1,0,1,0,1.414,1.414l.282-.282A8,8,0,0,1,5,11H1a1,1,0,1,0,0,2H5a10,10,0,0,0,9.992-9.594l.3.3a1,1,0,1,0,1.414-1.414l-2-2L14.7.286A1,1,0,0,0,14.383.076Z" transform="translate(5 4)" fill="#777e90"/>
</svg>
