<svg id="icons_Computer_Mouse_Line" data-name="icons/Computer Mouse/Line" xmlns="http://www.w3.org/2000/svg" width="24" height="24" viewBox="0 0 24 24">
  <path id="Shape" d="M11.864,15.864l4-4A5.778,5.778,0,0,0,7.692,3.692l-4,4a5.778,5.778,0,0,0,8.172,8.172Zm1.414,1.414,4-4a7.778,7.778,0,0,0-11-11l-4,4a7.778,7.778,0,0,0,11,11Z" transform="translate(2.222 2.222)" fill="#777e90" fill-rule="evenodd"/>
  <path id="Shape-2" data-name="Shape" d="M3.707.293a1,1,0,0,1,0,1.414l-2,2A1,1,0,0,1,.293,2.293l2-2A1,1,0,0,1,3.707.293Z" transform="translate(13 7)" fill="#777e90"/>
</svg>
