<svg id="icons_Image_Filled" data-name="icons/Image/Filled" xmlns="http://www.w3.org/2000/svg" width="24" height="24" viewBox="0 0 24 24">
  <g id="Shape" transform="translate(2 2)">
    <path id="_2C0365CD-8DBB-4158-B0D2-1E155642DFDA" data-name="2C0365CD-8DBB-4158-B0D2-1E155642DFDA" d="M3.948.452a4.108,4.108,0,0,0-3.5,3.5A42.4,42.4,0,0,0,0,10a39.472,39.472,0,0,0,.32,5.158.487.487,0,0,0,.832.275L4.586,12a2,2,0,0,1,2.828,0l1.232,1.232a.5.5,0,0,0,.707,0L12.586,10a2,2,0,0,1,2.828,0l3.609,3.609a.49.49,0,0,0,.838-.3C19.945,12.285,20,11.17,20,10a42.407,42.407,0,0,0-.451-6.052,4.108,4.108,0,0,0-3.5-3.5A42.4,42.4,0,0,0,10,0,42.4,42.4,0,0,0,3.948.452ZM8,6A2,2,0,1,1,6,4,2,2,0,0,1,8,6Z" fill="#777e90" fill-rule="evenodd"/>
    <path id="F996D244-DA30-47F0-AA75-A5AB714B3FA2" d="M17.752,5.456a.466.466,0,0,0-.11-.509l-4.8-4.8a.5.5,0,0,0-.707,0L8.9,3.379a2,2,0,0,1-2.828,0L4.842,2.146a.5.5,0,0,0-.707,0L.145,6.137a.459.459,0,0,0-.015.653A4.131,4.131,0,0,0,2.437,7.927a42.407,42.407,0,0,0,6.052.452,42.407,42.407,0,0,0,6.052-.452A4.1,4.1,0,0,0,17.752,5.456Z" transform="translate(1.512 11.621)" fill="#777e90"/>
  </g>
</svg>
