<svg id="icons_Line_02_Down_Line" data-name="icons/Line 02 Down/Line" xmlns="http://www.w3.org/2000/svg" width="24" height="24" viewBox="0 0 24 24">
  <path id="Shape" d="M1,0A1,1,0,0,1,2,1V15a1,1,0,0,0,1,1H21a1,1,0,0,1,0,2H3a3,3,0,0,1-3-3V1A1,1,0,0,1,1,0Z" transform="translate(1 3)" fill="#777e90"/>
  <path id="Shape-2" data-name="Shape" d="M14.383,12.924A1,1,0,0,1,14,13H14a1,1,0,0,1-.7-.286l-.007-.007-2-2a1,1,0,0,1,1.414-1.414l.282.282A8,8,0,0,0,5,2H1A1,1,0,1,1,1,0H5a10,10,0,0,1,9.992,9.594l.3-.3a1,1,0,0,1,1.414,1.414l-2,2-.007.007A1,1,0,0,1,14.383,12.924Z" transform="translate(5 4)" fill="#777e90"/>
</svg>
