<svg id="icons_Video_Filled" data-name="icons/Video/Filled" xmlns="http://www.w3.org/2000/svg" width="24" height="24" viewBox="0 0 24 24">
  <path id="Shape" d="M4.545.394a4.817,4.817,0,0,0-4.2,4.143A32.626,32.626,0,0,0,0,9a32.625,32.625,0,0,0,.341,4.463,4.817,4.817,0,0,0,4.2,4.143A52.343,52.343,0,0,0,11,18a52.34,52.34,0,0,0,6.455-.394,4.817,4.817,0,0,0,4.2-4.143A32.621,32.621,0,0,0,22,9a32.622,32.622,0,0,0-.341-4.463,4.817,4.817,0,0,0-4.2-4.143,53.126,53.126,0,0,0-12.909,0Zm10.1,7.758L9.53,4.956A1,1,0,0,0,8,5.8V12.2a1,1,0,0,0,1.53.848l5.113-3.2A1,1,0,0,0,14.643,8.152Z" transform="translate(1 3)" fill="#777e90" fill-rule="evenodd"/>
</svg>
