<svg id="icons_Virus_Filled" data-name="icons/Virus/Filled" xmlns="http://www.w3.org/2000/svg" width="24" height="24" viewBox="0 0 24 24">
  <path id="Shape" d="M17.071,2.929a1,1,0,0,0-1.414,0L14.192,4.394A6.964,6.964,0,0,0,11,3.071V1A1,1,0,0,0,9,1V3.071A6.964,6.964,0,0,0,5.808,4.394L4.343,2.929A1,1,0,1,0,2.929,4.343L4.394,5.808A6.964,6.964,0,0,0,3.071,9H1a1,1,0,0,0,0,2H3.071a6.964,6.964,0,0,0,1.323,3.192L2.929,15.657a1,1,0,0,0,1.414,1.414l1.465-1.465A6.963,6.963,0,0,0,9,16.929V19a1,1,0,0,0,2,0V16.929a6.964,6.964,0,0,0,3.192-1.323l1.465,1.465a1,1,0,0,0,1.414-1.414l-1.465-1.465A6.963,6.963,0,0,0,16.929,11H19a1,1,0,0,0,0-2H16.929a6.963,6.963,0,0,0-1.323-3.192l1.465-1.465A1,1,0,0,0,17.071,2.929Z" transform="translate(2 2)" fill="#777e90"/>
  <g id="Shape-2" data-name="Shape" transform="translate(1 1)">
    <path id="_07564DE6-DB66-4F53-9719-0E57E9D04C9E" data-name="07564DE6-DB66-4F53-9719-0E57E9D04C9E" d="M6,1A1,1,0,0,0,5,0H1A1,1,0,0,0,1,2H5A1,1,0,0,0,6,1Z" transform="translate(8)" fill="#777e90"/>
    <path id="_459D0723-FDE3-47D7-B522-27B408155C11" data-name="459D0723-FDE3-47D7-B522-27B408155C11" d="M1,6A1,1,0,0,0,2,5V1A1,1,0,1,0,0,1V5A1,1,0,0,0,1,6Z" transform="translate(0 8)" fill="#777e90"/>
    <path id="_73064AD6-4CF5-4DEF-A6E0-382C8C540C6D" data-name="73064AD6-4CF5-4DEF-A6E0-382C8C540C6D" d="M1,6A1,1,0,0,0,2,5V1A1,1,0,0,0,0,1V5A1,1,0,0,0,1,6Z" transform="translate(20 8)" fill="#777e90"/>
    <path id="_5C93E139-0375-47F1-8E9E-2B69E0250B95" data-name="5C93E139-0375-47F1-8E9E-2B69E0250B95" d="M5,0A1,1,0,0,1,5,2H1A1,1,0,0,1,1,0Z" transform="translate(8 20)" fill="#777e90"/>
    <path id="FAE543F0-2E23-4416-ADBE-8C46B752E2E0" d="M1.707,4.536A1,1,0,0,1,.293,3.121L3.121.293A1,1,0,0,1,4.536,1.707Z" transform="translate(1.515 1.515)" fill="#777e90"/>
    <path id="_5610911B-7F71-4FE2-BFF5-A1C92A4FEB3F" data-name="5610911B-7F71-4FE2-BFF5-A1C92A4FEB3F" d="M.293,4.536a1,1,0,0,0,1.414,0L4.536,1.707A1,1,0,0,0,3.121.293L.293,3.121A1,1,0,0,0,.293,4.536Z" transform="translate(15.657 15.657)" fill="#777e90"/>
    <path id="_50B7B759-597D-4CD4-B9CD-211CB8F9584B" data-name="50B7B759-597D-4CD4-B9CD-211CB8F9584B" d="M4.536,3.121A1,1,0,0,1,3.121,4.536L.293,1.707A1,1,0,1,1,1.707.293Z" transform="translate(1.515 15.657)" fill="#777e90"/>
    <path id="E47670C4-4D29-4582-88BC-21BCC32B19A5" d="M4.536,4.536a1,1,0,0,0,0-1.414L1.707.293A1,1,0,0,0,.293,1.707L3.121,4.536A1,1,0,0,0,4.536,4.536Z" transform="translate(15.657 1.515)" fill="#777e90"/>
  </g>
</svg>
