<svg id="icons_Standings_Line" data-name="icons/Standings/Line" xmlns="http://www.w3.org/2000/svg" width="24" height="24" viewBox="0 0 24 24">
  <g id="Shape" transform="translate(1 3)">
    <path id="EC1BA624-CC46-4DE0-AC46-CCCAE6D654FC" d="M3,0A3,3,0,0,0,0,3V5A3,3,0,0,0,3,8H5A3,3,0,0,0,8,5V3A3,3,0,0,0,5,0ZM5,2H3A1,1,0,0,0,2,3V5A1,1,0,0,0,3,6H5A1,1,0,0,0,6,5V3A1,1,0,0,0,5,2Z" fill="#777e90" fill-rule="evenodd"/>
    <path id="_4E98463A-BE2F-4B5E-BEAF-093BC1A021BB" data-name="4E98463A-BE2F-4B5E-BEAF-093BC1A021BB" d="M3,10a3,3,0,0,0-3,3v2a3,3,0,0,0,3,3H5a3,3,0,0,0,3-3V13a3,3,0,0,0-3-3Zm2,2H3a1,1,0,0,0-1,1v2a1,1,0,0,0,1,1H5a1,1,0,0,0,1-1V13A1,1,0,0,0,5,12Z" fill="#777e90" fill-rule="evenodd"/>
    <path id="_0C07F41F-13B1-45F2-88D5-933D81D563DF" data-name="0C07F41F-13B1-45F2-88D5-933D81D563DF" d="M14,8a3,3,0,0,1,3-3h2a3,3,0,0,1,3,3v2a3,3,0,0,1-3,3H17a3,3,0,0,1-3-3Zm3-1h2a1,1,0,0,1,1,1v2a1,1,0,0,1-1,1H17a1,1,0,0,1-1-1V8A1,1,0,0,1,17,7Z" fill="#777e90" fill-rule="evenodd"/>
  </g>
  <path id="Shape-2" data-name="Shape" d="M0,2H1A1,1,0,0,1,2,3V9a1,1,0,0,1-1,1H0v2H1A3,3,0,0,0,4,9V7H6V5H4V3A3,3,0,0,0,1,0H0Z" transform="translate(9 6)" fill="#777e90"/>
</svg>
