<svg id="icons_Library_Video_Filled" data-name="icons/Library Video/Filled" xmlns="http://www.w3.org/2000/svg" width="24" height="24" viewBox="0 0 24 24">
  <path id="Shape" d="M2,0A2,2,0,0,0,0,2V16a2,2,0,0,0,2,2H16a2,2,0,0,0,2-2V2a2,2,0,0,0-2-2Zm9.752,8.168-3.2-2.131A1,1,0,0,0,7,6.869v4.263a1,1,0,0,0,1.555.832l3.2-2.131A1,1,0,0,0,11.752,8.168Z" transform="translate(3 5)" fill="#777e90" fill-rule="evenodd"/>
  <path id="Shape-2" data-name="Shape" d="M0,1A1,1,0,0,0,1,2H11a1,1,0,0,0,0-2H1A1,1,0,0,0,0,1Z" transform="translate(6 1)" fill="#777e90"/>
</svg>
