<svg id="icons_Barcode_Line" data-name="icons/Barcode/Line" xmlns="http://www.w3.org/2000/svg" width="24" height="24" viewBox="0 0 24 24">
  <g id="Shape" transform="translate(0 4)">
    <path id="_74B1A546-57B7-4BD6-9F72-78AEE0905AE5" data-name="74B1A546-57B7-4BD6-9F72-78AEE0905AE5" d="M2,3A1,1,0,0,1,3,2H5A1,1,0,0,0,5,0H3A3,3,0,0,0,0,3V5A1,1,0,0,0,2,5Z" fill="#777e90"/>
    <path id="_50996621-5279-4D9C-9675-ED9DAED6955D" data-name="50996621-5279-4D9C-9675-ED9DAED6955D" d="M4,3A1,1,0,0,1,3,4H1A1,1,0,0,0,1,6H3A3,3,0,0,0,6,3V1A1,1,0,0,0,4,1Z" transform="translate(18 10)" fill="#777e90"/>
    <path id="_53689BA7-48FB-4E7D-903A-D8BCB9E24F84" data-name="53689BA7-48FB-4E7D-903A-D8BCB9E24F84" d="M2,3A1,1,0,0,0,3,4H5A1,1,0,0,1,5,6H3A3,3,0,0,1,0,3V1A1,1,0,0,1,2,1Z" transform="translate(0 10)" fill="#777e90"/>
    <path id="_0E8EC44B-0CFB-4C68-9883-BA417F7C111E" data-name="0E8EC44B-0CFB-4C68-9883-BA417F7C111E" d="M3,2A1,1,0,0,1,4,3V5A1,1,0,0,0,6,5V3A3,3,0,0,0,3,0H1A1,1,0,0,0,1,2Z" transform="translate(18)" fill="#777e90"/>
  </g>
  <g id="Shape-2" data-name="Shape" transform="translate(4 8)">
    <path id="F15D4023-2360-4929-9CB7-6B785719A9FB" d="M1,0A1,1,0,0,0,0,1V7A1,1,0,0,0,2,7V1A1,1,0,0,0,1,0Z" fill="#777e90"/>
    <path id="_8C55DD52-A285-4EAC-96E2-CFFE9DF68456" data-name="8C55DD52-A285-4EAC-96E2-CFFE9DF68456" d="M1,0A1,1,0,0,0,0,1V7A1,1,0,0,0,1,8H2A1,1,0,0,0,3,7V1A1,1,0,0,0,2,0Z" transform="translate(13)" fill="#777e90"/>
    <path id="_6BBA41A9-8624-493A-A216-6F4DFD75DD18" data-name="6BBA41A9-8624-493A-A216-6F4DFD75DD18" d="M0,1A1,1,0,0,1,1,0H2A1,1,0,0,1,3,1V7A1,1,0,0,1,2,8H1A1,1,0,0,1,0,7Z" transform="translate(4)" fill="#777e90"/>
    <path id="_2CC58173-F7CA-402B-AE5E-751A2DADF795" data-name="2CC58173-F7CA-402B-AE5E-751A2DADF795" d="M1,0A1,1,0,0,0,0,1V7A1,1,0,0,0,2,7V1A1,1,0,0,0,1,0Z" transform="translate(9)" fill="#777e90"/>
  </g>
</svg>
