<svg id="Icons_Figma_Filled" data-name="Icons/Figma/Filled" xmlns="http://www.w3.org/2000/svg" width="24" height="24" viewBox="0 0 24 24">
  <path id="Vector" d="M0,3A3,3,0,0,1,3,0H6.364A.636.636,0,0,1,7,.636V5.364A.636.636,0,0,1,6.364,6H3A3,3,0,0,1,0,3Z" transform="translate(4 1)" fill="#777e90"/>
  <path id="Vector-2" data-name="Vector" d="M0,3A3,3,0,0,1,3,0H6.364A.636.636,0,0,1,7,.636V5.364A.636.636,0,0,1,6.364,6H3A3,3,0,0,1,0,3Z" transform="translate(4 9)" fill="#777e90"/>
  <path id="Vector-3" data-name="Vector" d="M0,.636A.636.636,0,0,1,.636,0H4A3,3,0,0,1,4,6H.636A.636.636,0,0,1,0,5.364Z" transform="translate(13 1)" fill="#777e90"/>
  <path id="Vector-4" data-name="Vector" d="M0,3A3,3,0,1,1,3,6,3,3,0,0,1,0,3Z" transform="translate(13 9)" fill="#777e90"/>
  <path id="Vector-5" data-name="Vector" d="M0,3.5A3.5,3.5,0,0,1,3.5,0H6.364A.636.636,0,0,1,7,.636V3.5a3.5,3.5,0,0,1-7,0Z" transform="translate(4 17)" fill="#777e90"/>
</svg>
