<svg id="icons_Route_Line" data-name="icons/Route/Line" xmlns="http://www.w3.org/2000/svg" width="24" height="24" viewBox="0 0 24 24">
  <path id="Shape" d="M3,4A1,1,0,1,0,2,3,1,1,0,0,0,3,4ZM3,6A3,3,0,1,0,0,3,3,3,0,0,0,3,6Z" transform="translate(16 16)" fill="#777e90" fill-rule="evenodd"/>
  <path id="Shape-2" data-name="Shape" d="M11.5,2A2.5,2.5,0,0,0,9,4.5v11a4.5,4.5,0,0,1-9,0V8A1,1,0,0,1,2,8v7.5a2.5,2.5,0,0,0,5,0V4.5a4.5,4.5,0,0,1,9,0V11a1,1,0,0,1-2,0V4.5A2.5,2.5,0,0,0,11.5,2Z" transform="translate(4 2)" fill="#777e90"/>
  <path id="Shape-3" data-name="Shape" d="M1.9.5A1,1,0,0,1,3.624.5L5.383,3.511a1,1,0,0,1-.864,1.5H1a1,1,0,0,1-.864-1.5Z" transform="translate(2.24 1.985)" fill="#777e90"/>
</svg>
