<svg id="icons_Football_Ball_Filled" data-name="icons/Football Ball/Filled" xmlns="http://www.w3.org/2000/svg" width="24" height="24" viewBox="0 0 24 24">
  <g id="Shape" transform="translate(0 4)">
    <path id="_043AC8B2-CDBC-4528-8C41-BF0CDE96B84A" data-name="043AC8B2-CDBC-4528-8C41-BF0CDE96B84A" d="M18,14.376a.489.489,0,0,1-.293.451,14.469,14.469,0,0,1-11.414,0A.489.489,0,0,1,6,14.376V1.624a.489.489,0,0,1,.293-.451,14.469,14.469,0,0,1,11.414,0A.489.489,0,0,1,18,1.624ZM10,5A1,1,0,0,0,9,6V7A1,1,0,0,0,9,9v1a1,1,0,0,0,2,0V9h2v1a1,1,0,0,0,2,0V9a1,1,0,0,0,0-2V6a1,1,0,0,0-2,0V7H11V6A1,1,0,0,0,10,5Z" fill="#777e90" fill-rule="evenodd"/>
    <path id="D04F77AA-3860-486A-8607-8B75C502A005" d="M0,9.754a.472.472,0,0,0,.761.387C2.8,8.535,4,6.589,4,5.121S2.8,1.707.761.1A.472.472,0,0,0,0,.488Z" transform="translate(20 2.879)" fill="#777e90"/>
    <path id="F028DF73-6C88-4BC9-A6AB-905E55C4D9F5" d="M0,5.121C0,3.654,1.2,1.707,3.239.1A.472.472,0,0,1,4,.488V9.754a.472.472,0,0,1-.761.387C1.2,8.535,0,6.589,0,5.121Z" transform="translate(0 2.879)" fill="#777e90"/>
  </g>
</svg>
