<svg id="icons_Burger_Filled" data-name="icons/Burger/Filled" xmlns="http://www.w3.org/2000/svg" width="24" height="24" viewBox="0 0 24 24">
  <path id="Subtract" d="M.8,3C0,4.392,0,6.262,0,10s0,5.608.8,7A6,6,0,0,0,3,19.2c1.392.8,3.262.8,7,.8s5.608,0,7-.8A6,6,0,0,0,19.2,17c.8-1.392.8-3.262.8-7s0-5.608-.8-7A6,6,0,0,0,17,.8C15.608,0,13.738,0,10,0S4.392,0,3,.8A6,6,0,0,0,.8,3ZM5,7A1,1,0,0,1,6,6h7.9a1,1,0,1,1,0,2H6A1,1,0,0,1,5,7Zm0,6a1,1,0,0,1,1-1h7.9a1,1,0,1,1,0,2H6A1,1,0,0,1,5,13Z" transform="translate(2 2)" fill="#777e90" fill-rule="evenodd"/>
</svg>
