<svg id="icons_File_Document_Line" data-name="icons/File Document/Line" xmlns="http://www.w3.org/2000/svg" width="24" height="24" viewBox="0 0 24 24">
  <path id="Shape" d="M0,4A4,4,0,0,1,4,0h8.343a4,4,0,0,1,2.829,1.172l1.657,1.657A4,4,0,0,1,18,5.657V18a4,4,0,0,1-4,4H4a4,4,0,0,1-4-4ZM16,7V18a2,2,0,0,1-2,2H4a2,2,0,0,1-2-2V4A2,2,0,0,1,4,2h7V4a3,3,0,0,0,3,3Zm-.111-2a2,2,0,0,0-.475-.757L13.757,2.586A2,2,0,0,0,13,2.111V4a1,1,0,0,0,1,1Z" transform="translate(3 1)" fill="#777e90" fill-rule="evenodd"/>
  <g id="Shape-2" data-name="Shape" transform="translate(8 12)">
    <path id="_0BC3AE2A-FBB8-4CCE-8587-030930CA0B9E" data-name="0BC3AE2A-FBB8-4CCE-8587-030930CA0B9E" d="M1,0A1,1,0,0,0,1,2H7A1,1,0,0,0,7,0Z" fill="#777e90"/>
    <path id="_9E44BCFB-D73B-4F31-B80D-940D050349FE" data-name="9E44BCFB-D73B-4F31-B80D-940D050349FE" d="M1,0A1,1,0,0,0,1,2H4A1,1,0,0,0,4,0Z" transform="translate(0 4)" fill="#777e90"/>
  </g>
</svg>
