<svg id="icons_Smile_Filled" data-name="icons/Smile/Filled" xmlns="http://www.w3.org/2000/svg" width="24" height="24" viewBox="0 0 24 24">
  <path id="Subtract" d="M20,10A10,10,0,1,1,10,0,10,10,0,0,1,20,10ZM6.972,11.765a1,1,0,0,0-1.944.47,4.832,4.832,0,0,0,1.813,2.723,5.309,5.309,0,0,0,6.318,0,4.833,4.833,0,0,0,1.813-2.723,1,1,0,0,0-1.944-.47,2.832,2.832,0,0,1-1.069,1.593,3.31,3.31,0,0,1-3.918,0A2.833,2.833,0,0,1,6.972,11.765ZM8.178,8.984a1,1,0,0,1-1.162-.805A.536.536,0,0,0,7,8.113a.532.532,0,0,0-.016.065,1,1,0,0,1-1.968-.357,2.358,2.358,0,0,1,.637-1.248,1.868,1.868,0,0,1,2.694,0,2.358,2.358,0,0,1,.637,1.248A1,1,0,0,1,8.178,8.984Zm4.838-.805a1,1,0,0,0,1.968-.357,2.358,2.358,0,0,0-.637-1.248,1.868,1.868,0,0,0-2.694,0,2.358,2.358,0,0,0-.637,1.248,1,1,0,0,0,1.968.357A.531.531,0,0,1,13,8.113.53.53,0,0,1,13.016,8.179Z" transform="translate(2 2)" fill="#777e90" fill-rule="evenodd"/>
</svg>
