<svg id="icons_Close_Circle_Line" data-name="icons/Close Circle/Line" xmlns="http://www.w3.org/2000/svg" width="24" height="24" viewBox="0 0 24 24">
  <path id="Shape" d="M10,18a8,8,0,1,0-8-8A8,8,0,0,0,10,18Zm0,2A10,10,0,1,0,0,10,10,10,0,0,0,10,20Z" transform="translate(2 2)" fill="#777e90" fill-rule="evenodd"/>
  <path id="Shape-2" data-name="Shape" d="M.293.293a1,1,0,0,1,1.414,0L4,2.586,6.293.293A1,1,0,1,1,7.707,1.707L5.414,4,7.707,6.293A1,1,0,0,1,6.293,7.707L4,5.414,1.707,7.707A1,1,0,0,1,.293,6.293L2.586,4,.293,1.707A1,1,0,0,1,.293.293Z" transform="translate(8 8)" fill="#777e90"/>
</svg>
