<svg id="icons_Eject_Line" data-name="icons/Eject/Line" xmlns="http://www.w3.org/2000/svg" width="24" height="24" viewBox="0 0 24 24">
  <path id="Shape" d="M15,2H3A1,1,0,0,0,3,4H15a1,1,0,0,0,0-2ZM0,3A3,3,0,0,0,3,6H15a3,3,0,0,0,0-6H3A3,3,0,0,0,0,3Z" transform="translate(3 17)" fill="#777e90" fill-rule="evenodd"/>
  <path id="Shape-2" data-name="Shape" d="M8.205,2.4l-6,8a1,1,0,0,0,.8,1.6h12a1,1,0,0,0,.8-1.6l-6-8A1,1,0,0,0,8.205,2.4ZM.605,9.2a3,3,0,0,0,2.4,4.8h12a3,3,0,0,0,2.4-4.8l-6-8a3,3,0,0,0-4.8,0Z" transform="translate(2.995 1)" fill="#777e90" fill-rule="evenodd"/>
</svg>
