<svg id="icons_Umbrella_Line" data-name="icons/Umbrella/Line" xmlns="http://www.w3.org/2000/svg" width="24" height="24" viewBox="0 0 24 24">
  <path id="Shape" d="M2,1A1,1,0,0,0,0,1V6A3,3,0,0,0,6,6,1,1,0,0,0,4,6,1,1,0,0,1,2,6Z" transform="translate(11 13)" fill="#777e90"/>
  <path id="Shape-2" data-name="Shape" d="M4.453,8.427l1.2.4a1,1,0,0,0,.559.021l2.425-.606a5,5,0,0,1,2.425,0l2.425.606a1,1,0,0,0,.559-.021l1.2-.4a5.079,5.079,0,0,1,1.508-.26.529.529,0,0,0,.525-.671A7.765,7.765,0,0,0,2.42,7.5a.529.529,0,0,0,.525.671A5.079,5.079,0,0,1,4.453,8.427Zm15.222.446a1.365,1.365,0,0,1-1.854,1.452,3.079,3.079,0,0,0-1.947,0l-1.2.4A3,3,0,0,1,13,10.788l-2.425-.606a3,3,0,0,0-1.455,0l-2.425.606a3,3,0,0,1-1.676-.064l-1.2-.4a3.079,3.079,0,0,0-1.947,0A1.365,1.365,0,0,1,.019,8.873C.844,3.863,4.573,0,9.847,0S18.849,3.863,19.674,8.873Z" transform="translate(2.154 4)" fill="#777e90" fill-rule="evenodd"/>
  <path id="Shape-3" data-name="Shape" d="M0,1A1,1,0,0,1,2,1V2A1,1,0,0,1,0,2Z" transform="translate(11 2)" fill="#777e90"/>
</svg>
