<svg id="icons_Line_01_Up_Line" data-name="icons/Line 01 Up/Line" xmlns="http://www.w3.org/2000/svg" width="24" height="24" viewBox="0 0 24 24">
  <g id="Shape" transform="translate(3.831 8.721)">
    <path id="_34CFE7F9-7ECE-4DA2-B817-380A6F5EA270" data-name="34CFE7F9-7ECE-4DA2-B817-380A6F5EA270" d="M1.711,0,0,2.4A3.005,3.005,0,0,1,1.627,3.559l1.711-2.4A3.005,3.005,0,0,1,1.711,0Z" transform="translate(13)" fill="#777e90"/>
    <path id="_3F012CA0-45AC-4BA0-AC9F-80764615BB4D" data-name="3F012CA0-45AC-4BA0-AC9F-80764615BB4D" d="M3.835,1.47A2.992,2.992,0,0,0,2.94,3.259L0,1.789A2.992,2.992,0,0,0,.895,0Z" transform="translate(6.252 1.65)" fill="#777e90"/>
    <path id="_7DF7562C-34B7-41F1-9935-776253986FF3" data-name="7DF7562C-34B7-41F1-9935-776253986FF3" d="M1.711,0,0,2.4A3.005,3.005,0,0,1,1.627,3.559l1.711-2.4A3.005,3.005,0,0,1,1.711,0Z" transform="translate(0 3)" fill="#777e90"/>
  </g>
  <g id="Shape-2" data-name="Shape" transform="translate(0 4)">
    <path id="CF58900E-4A54-4E97-AD53-04565A072D40" d="M24,3a3,3,0,1,1-3-3A3,3,0,0,1,24,3ZM22,3a1,1,0,1,1-1-1A1,1,0,0,1,22,3Z" fill="#777e90" fill-rule="evenodd"/>
    <path id="_231A6B6B-3AB0-4FA0-95D7-48DE1378A6C8" data-name="231A6B6B-3AB0-4FA0-95D7-48DE1378A6C8" d="M11,6A3,3,0,1,1,8,3,3,3,0,0,1,11,6ZM9,6A1,1,0,1,1,8,5,1,1,0,0,1,9,6Z" fill="#777e90" fill-rule="evenodd"/>
    <path id="CA2050AE-D0AB-4823-AB31-87F7C5E45138" d="M6,13a3,3,0,1,1-3-3A3,3,0,0,1,6,13ZM4,13a1,1,0,1,1-1-1A1,1,0,0,1,4,13Z" fill="#777e90" fill-rule="evenodd"/>
    <path id="_93F02903-9D0E-4C1B-B66F-3F2925F0FED0" data-name="93F02903-9D0E-4C1B-B66F-3F2925F0FED0" d="M16,13a3,3,0,1,0-3-3A3,3,0,0,0,16,13Zm0-2a1,1,0,1,0-1-1A1,1,0,0,0,16,11Z" fill="#777e90" fill-rule="evenodd"/>
  </g>
</svg>
