<svg id="icons_Carrot_Filled" data-name="icons/Carrot/Filled" xmlns="http://www.w3.org/2000/svg" width="24" height="24" viewBox="0 0 24 24">
  <path id="Shape" d="M6.573,2.008A.484.484,0,0,0,5.9,1.991,18.417,18.417,0,0,0,2.844,5.926a.493.493,0,0,0,.077.6l.765.765A1,1,0,0,1,2.272,8.707l-.09-.09a.49.49,0,0,0-.8.145A16.269,16.269,0,0,0,0,13.5a.433.433,0,0,0,.474.474,21.272,21.272,0,0,0,8.7-3.552.489.489,0,0,0,.067-.753l-.965-.965A1,1,0,0,1,9.686,7.293l1.2,1.2a.487.487,0,0,0,.684.011A6.673,6.673,0,0,0,13.979,4a4.3,4.3,0,0,0-4-4A4.244,4.244,0,0,0,8.56.257a.457.457,0,0,0-.147.763l.273.273A1,1,0,1,1,7.272,2.707Z" transform="translate(2.021 8)" fill="#777e90"/>
  <path id="Shape-2" data-name="Shape" d="M2,1A1,1,0,0,0,0,1V4.354a1.091,1.091,0,0,0,.455.865A6.478,6.478,0,0,1,1.782,6.545,1.091,1.091,0,0,0,2.646,7H6A1,1,0,0,0,6,5H3.414L5.707,2.707A1,1,0,1,0,4.293,1.293L2,3.586Z" transform="translate(15 2)" fill="#777e90"/>
</svg>
