<svg id="icons_Sticky_Note_Filled" data-name="icons/Sticky Note/Filled" xmlns="http://www.w3.org/2000/svg" width="24" height="24" viewBox="0 0 24 24">
  <path id="Shape" d="M3,0A3,3,0,0,0,0,3V17a3,3,0,0,0,3,3h7a1,1,0,0,0,1-1V14a3,3,0,0,1,3-3h5a1,1,0,0,0,1-1V3a3,3,0,0,0-3-3Z" transform="translate(2 2)" fill="#777e90"/>
  <path id="Shape-2" data-name="Shape" d="M6.711,1.042A.771.771,0,0,0,5.906,0H1A1,1,0,0,0,0,1V5.906a.771.771,0,0,0,1.042.805,3,3,0,0,0,.837-.59L6.121,1.879A3,3,0,0,0,6.711,1.042Z" transform="translate(15 15)" fill="#777e90"/>
</svg>
