<svg id="icons_Medical_Chart_Filled" data-name="icons/Medical Chart/Filled" xmlns="http://www.w3.org/2000/svg" width="24" height="24" viewBox="0 0 24 24">
  <path id="Shape" d="M6.164.982A1.33,1.33,0,0,0,5,0H4A4,4,0,0,0,0,4V17a4,4,0,0,0,4,4H14a4,4,0,0,0,4-4V4a4,4,0,0,0-4-4H13a1.33,1.33,0,0,0-1.164.982A3,3,0,0,1,9,3,3,3,0,0,1,6.164.982ZM4,7A1,1,0,0,1,5,6h8a1,1,0,0,1,0,2H5A1,1,0,0,1,4,7Zm1,3a1,1,0,0,0,0,2h8a1,1,0,0,0,0-2ZM4,15a1,1,0,0,1,1-1H9a1,1,0,0,1,0,2H5A1,1,0,0,1,4,15Z" transform="translate(3 2)" fill="#777e90" fill-rule="evenodd"/>
  <path id="Shape-2" data-name="Shape" d="M0,1A1,1,0,1,1,1,2,1,1,0,0,1,0,1Z" transform="translate(11 1)" fill="#777e90"/>
</svg>
