<svg id="icons_Globe_Filled" data-name="icons/Globe/Filled" xmlns="http://www.w3.org/2000/svg" width="24" height="24" viewBox="0 0 24 24">
  <path id="Shape" d="M13.439.625A10.009,10.009,0,0,1,19.9,9H15.93A15.6,15.6,0,0,0,13.445.627ZM9.951,0C6.908,1.442,6.062,6.085,5.929,9h8C13.789,5.952,12.924,1.648,9.951,0ZM6.4.65A15.628,15.628,0,0,0,3.927,9H0A10.009,10.009,0,0,1,6.4.65Zm7.042,18.725A10.009,10.009,0,0,0,19.9,11H15.93a15.606,15.606,0,0,1-2.485,8.373ZM9.951,20c-3.043-1.442-3.889-6.085-4.022-9h8C13.79,14.048,12.924,18.353,9.951,20ZM6.4,19.35A15.628,15.628,0,0,1,3.927,11H0A10.009,10.009,0,0,0,6.4,19.35Z" transform="translate(2.049 2)" fill="#777e90" fill-rule="evenodd"/>
</svg>
