<svg id="icons_Shopping_Bag_Line" data-name="icons/Shopping Bag/Line" xmlns="http://www.w3.org/2000/svg" width="24" height="24" viewBox="0 0 24 24">
  <path id="Shape" d="M15.484,2H4A2,2,0,0,0,2,4.125l.5,8A2,2,0,0,0,4.5,14H14.984a2,2,0,0,0,2-1.875l.5-8A2,2,0,0,0,15.484,2ZM4,0A4,4,0,0,0,.008,4.25l.5,8A4,4,0,0,0,4.5,16H14.984a4,4,0,0,0,3.992-3.75l.5-8A4,4,0,0,0,15.484,0Z" transform="translate(2.258 6)" fill="#777e90" fill-rule="evenodd"/>
  <path id="Shape-2" data-name="Shape" d="M0,5A5,5,0,0,1,10,5V7A1,1,0,0,1,8,7V5A3,3,0,0,0,2,5V7A1,1,0,0,1,0,7Z" transform="translate(7 2)" fill="#777e90"/>
</svg>
