<svg id="icons_Column_and_Line_Down_Line" data-name="icons/Column and Line Down/Line" xmlns="http://www.w3.org/2000/svg" width="24" height="24" viewBox="0 0 24 24">
  <g id="Shape" transform="translate(23 7) rotate(180)">
    <path id="B664B0EA-AFA9-4056-A222-C877C4BC22E4" d="M1,0A1,1,0,0,1,0-1V-13a1,1,0,0,1,1-1,1,1,0,0,1,1,1V-1A1,1,0,0,1,1,0Z" transform="translate(20)" fill="#777e90"/>
    <path id="CE908921-5B8B-4143-88C4-23A57C58FC56" d="M0-1A1,1,0,0,0,1,0,1,1,0,0,0,2-1V-9a1,1,0,0,0-1-1A1,1,0,0,0,0-9Z" transform="translate(15 -4)" fill="#777e90"/>
    <path id="_763E54A5-1A07-41FC-B5B5-8C20A1E362CA" data-name="763E54A5-1A07-41FC-B5B5-8C20A1E362CA" d="M0-1A1,1,0,0,0,1,0,1,1,0,0,0,2-1V-8A1,1,0,0,0,1-9,1,1,0,0,0,0-8Z" transform="translate(5 -5)" fill="#777e90"/>
    <path id="B9132229-0E3B-4132-A1AB-2586C839E24F" d="M0-1A1,1,0,0,0,1,0,1,1,0,0,0,2-1V-6A1,1,0,0,0,1-7,1,1,0,0,0,0-6Z" transform="translate(0 -7)" fill="#777e90"/>
    <path id="_2187A433-6829-4F72-AA50-FA6FDFC11057" data-name="2187A433-6829-4F72-AA50-FA6FDFC11057" d="M1,0A1,1,0,0,1,0-1V-7A1,1,0,0,1,1-8,1,1,0,0,1,2-7v6A1,1,0,0,1,1,0Z" transform="translate(10 -6)" fill="#777e90"/>
  </g>
  <path id="Shape-2" data-name="Shape" d="M21.781-.375a1,1,0,0,0-.156-1.406L16.856-5.6a3,3,0,0,0-.76-.443L11.924-7.708a3,3,0,0,0-1.7-.156L6.387-7.1a1,1,0,0,1-.568-.052L1.372-8.929a1,1,0,0,0-1.3.557,1,1,0,0,0,.557,1.3L5.077-5.292a3,3,0,0,0,1.7.156L10.613-5.9a1,1,0,0,1,.568.052l4.173,1.669a1,1,0,0,1,.253.148L20.376-.219A1,1,0,0,0,21.781-.375Z" transform="translate(23.001 3) rotate(180)" fill="#777e90"/>
</svg>
