<svg id="icons_File_Erase_Filled" data-name="icons/File Erase/Filled" xmlns="http://www.w3.org/2000/svg" width="24" height="24" viewBox="0 0 24 24">
  <g id="Shape" transform="translate(3 17)">
    <path id="EC8DA3D6-F46F-4E97-8C95-CB75811B4B5E" d="M1,0A1,1,0,1,0,2,1,1,1,0,0,0,1,0Z" fill="#777e90"/>
    <path id="DA0B25A0-7326-4995-92C0-14697F17A701" d="M1,0A1,1,0,1,0,2,1,1,1,0,0,0,1,0Z" transform="translate(4 4)" fill="#777e90"/>
    <path id="D791EB74-16D0-4131-9F2E-E1CAC5F94E77" d="M0,1A1,1,0,1,1,1,2,1,1,0,0,1,0,1Z" transform="translate(0 4)" fill="#777e90"/>
    <path id="E5DF0FC9-ACA5-47F7-B2A1-32C95505E377" d="M1,0A1,1,0,1,0,2,1,1,1,0,0,0,1,0Z" transform="translate(8 4)" fill="#777e90"/>
    <path id="BBA60CBC-EC80-41DD-BE96-19770C8FB270" d="M0,1A1,1,0,1,1,1,2,1,1,0,0,1,0,1Z" transform="translate(16 4)" fill="#777e90"/>
    <path id="_6F022B52-F1FD-4384-AAEF-6F56AD933C46" data-name="6F022B52-F1FD-4384-AAEF-6F56AD933C46" d="M1,0A1,1,0,1,0,2,1,1,1,0,0,0,1,0Z" transform="translate(12 4)" fill="#777e90"/>
    <path id="B65D3E46-F597-4C28-A75A-BE39623316D3" d="M0,1A1,1,0,1,1,1,2,1,1,0,0,1,0,1Z" transform="translate(16)" fill="#777e90"/>
    <path id="_002F31AC-E80A-4C4B-8CC9-5F6009D49B5E" data-name="002F31AC-E80A-4C4B-8CC9-5F6009D49B5E" d="M1,0A1,1,0,1,0,2,1,1,1,0,0,0,1,0Z" transform="translate(12)" fill="#777e90"/>
    <path id="_63BF4482-7B1B-4AA9-BE31-1194F33614D8" data-name="63BF4482-7B1B-4AA9-BE31-1194F33614D8" d="M0,1A1,1,0,1,1,1,2,1,1,0,0,1,0,1Z" transform="translate(8)" fill="#777e90"/>
    <path id="EF93854A-B85A-4EB1-8246-AA386646175C" d="M1,0A1,1,0,1,0,2,1,1,1,0,0,0,1,0Z" transform="translate(4)" fill="#777e90"/>
  </g>
  <path id="Shape-2" data-name="Shape" d="M10,0a1,1,0,0,1,1,1V4a3,3,0,0,0,3,3h3a1,1,0,0,1,1,1v5a1,1,0,0,1-1,1H1a1,1,0,0,1-1-1V3A3,3,0,0,1,3,0Z" transform="translate(3 1)" fill="#777e90"/>
  <path id="Shape-3" data-name="Shape" d="M1,.053C.48-.166,0,.33,0,.9V3.974A1.026,1.026,0,0,0,1.026,5H4.1c.567,0,1.063-.48.844-1a1.929,1.929,0,0,0-.419-.624l-2.9-2.9A1.929,1.929,0,0,0,1,.053Z" transform="translate(16 1)" fill="#777e90"/>
</svg>
