<svg id="Icons_Apple_Filled" data-name="Icons/Apple/Filled" xmlns="http://www.w3.org/2000/svg" width="24" height="24" viewBox="0 0 24 24">
  <path id="Vector" d="M7.308.554A5.058,5.058,0,0,0,5,0C1,0,0,4,0,8s3,9,5,9a6.545,6.545,0,0,0,2.686-.627A3.589,3.589,0,0,1,9,16a3.589,3.589,0,0,1,1.314.373A6.545,6.545,0,0,0,13,17c1.428,0,3.365-2.548,4.357-5.461a.543.543,0,0,0-.4-.677,4,4,0,0,1-.283-7.636.526.526,0,0,0,.339-.708A4.194,4.194,0,0,0,13,0a5.058,5.058,0,0,0-2.308.554A3.831,3.831,0,0,1,9,1,3.831,3.831,0,0,1,7.308.554Z" transform="translate(3 6)" fill="#777e90"/>
  <path id="Vector-2" data-name="Vector" d="M0,3.75A3.75,3.75,0,0,1,3.75,0,.25.25,0,0,1,4,.25,3.75,3.75,0,0,1,.25,4,.25.25,0,0,1,0,3.75Z" transform="translate(12 1)" fill="#777e90"/>
</svg>
