<svg id="icons_Exit_Full_Screen_Filled" data-name="icons/Exit Full Screen/Filled" xmlns="http://www.w3.org/2000/svg" width="24" height="24" viewBox="0 0 24 24">
  <path id="Shape" d="M.369,4.542A4.811,4.811,0,0,1,4.542.369,42.089,42.089,0,0,1,10,0a42.091,42.091,0,0,1,5.458.369,4.811,4.811,0,0,1,4.173,4.173A42.082,42.082,0,0,1,20,10a42.084,42.084,0,0,1-.369,5.458,4.811,4.811,0,0,1-4.173,4.173A42.084,42.084,0,0,1,10,20a42.082,42.082,0,0,1-5.458-.369A4.811,4.811,0,0,1,.369,15.458,42.091,42.091,0,0,1,0,10,42.089,42.089,0,0,1,.369,4.542ZM7,18a1,1,0,0,1-1-1V15a1,1,0,0,0-1-1H3a1,1,0,0,1,0-2H5a3,3,0,0,1,3,3v2A1,1,0,0,1,7,18Zm7-1a1,1,0,0,1-2,0V15a3,3,0,0,1,3-3h2a1,1,0,0,1,0,2H15a1,1,0,0,0-1,1ZM7,2A1,1,0,0,0,6,3V5A1,1,0,0,1,5,6H3A1,1,0,0,0,3,8H5A3,3,0,0,0,8,5V3A1,1,0,0,0,7,2Zm7,1a1,1,0,0,0-2,0V5a3,3,0,0,0,3,3h2a1,1,0,0,0,0-2H15a1,1,0,0,1-1-1Z" transform="translate(2 2)" fill="#777e90" fill-rule="evenodd"/>
</svg>
