<svg id="icons_Column_and_Line_Up_Filled" data-name="icons/Column and Line Up/Filled" xmlns="http://www.w3.org/2000/svg" width="24" height="24" viewBox="0 0 24 24">
  <path id="Shape" d="M22,1.874C22,0,20-.5,18.5.505L14.445,3.173l-.045.032L11.389,5.463a1,1,0,0,1-1.047.094l-2-1a3,3,0,0,0-2.683,0l-4,2A3,3,0,0,0,0,9.241v7.764a1,1,0,0,0,1,1H21a1,1,0,0,0,1-1ZM3,9.005a1,1,0,0,0-1,1v5a1,1,0,0,0,2,0v-5A1,1,0,0,0,3,9.005Zm3-1a1,1,0,0,1,2,0v7a1,1,0,0,1-2,0Zm5,0a1,1,0,0,0-1,1v6a1,1,0,0,0,2,0v-6A1,1,0,0,0,11,8.005Zm3-1a1,1,0,0,1,2,0v8a1,1,0,0,1-2,0Zm5-4a1,1,0,0,0-1,1v11a1,1,0,0,0,2,0v-11A1,1,0,0,0,19,3.005Z" transform="translate(1 2.995)" fill="#777e90" fill-rule="evenodd"/>
</svg>
