<svg id="icons_Cup_Line" data-name="icons/Cup/Line" xmlns="http://www.w3.org/2000/svg" width="24" height="24" viewBox="0 0 24 24">
  <path id="Shape" d="M11,2H3A1,1,0,0,0,2,3V7A5,5,0,0,0,12,7V3A1,1,0,0,0,11,2ZM3,0A3,3,0,0,0,0,3V7A7,7,0,0,0,14,7V3a3,3,0,0,0-3-3Z" transform="translate(5 3)" fill="#777e90" fill-rule="evenodd"/>
  <g id="Shape-2" data-name="Shape" transform="translate(1 5)">
    <path id="_9ECB118F-F64B-4268-9EA4-33F92B329E16" data-name="9ECB118F-F64B-4268-9EA4-33F92B329E16" d="M0,3A3,3,0,0,1,3,0H6V8H4A4,4,0,0,1,0,4ZM3,2H4V6A2,2,0,0,1,2,4V3A1,1,0,0,1,3,2Z" fill="#777e90" fill-rule="evenodd"/>
    <path id="CA77385F-858D-4A75-91E9-68CC0C9B6CA3" d="M22,3a3,3,0,0,0-3-3H16V8h2a4,4,0,0,0,4-4ZM19,2H18V6a2,2,0,0,0,2-2V3A1,1,0,0,0,19,2Z" fill="#777e90" fill-rule="evenodd"/>
  </g>
  <path id="Shape-3" data-name="Shape" d="M4,0A1,1,0,0,0,3,1V4H1A1,1,0,0,0,1,6H7A1,1,0,0,0,7,4H5V1A1,1,0,0,0,4,0Z" transform="translate(8 15)" fill="#777e90"/>
</svg>
