<svg id="icons_Building_Filled" data-name="icons/Building/Filled" xmlns="http://www.w3.org/2000/svg" width="24" height="24" viewBox="0 0 24 24">
  <path id="Shape" d="M0,2A2,2,0,0,1,2,0H6A2,2,0,0,1,8,2v8a2,2,0,0,1-2,2H2a2,2,0,0,1-2-2ZM4,4A1,1,0,1,1,3,5,1,1,0,0,1,4,4ZM5,8A1,1,0,1,0,4,9,1,1,0,0,0,5,8Z" transform="translate(14 10)" fill="#777e90" fill-rule="evenodd"/>
  <path id="Shape-2" data-name="Shape" d="M2,0A2,2,0,0,0,0,2V18a2,2,0,0,0,2,2,1,1,0,0,0,1-1V17a1,1,0,0,1,1-1H6a1,1,0,0,1,1,1v2a1,1,0,0,0,1,1,2,2,0,0,0,2-2V2A2,2,0,0,0,8,0ZM6,4A1,1,0,0,1,6,6H4A1,1,0,0,1,4,4ZM6,8a1,1,0,0,1,0,2H4A1,1,0,0,1,4,8Zm0,4a1,1,0,0,1,0,2H4a1,1,0,0,1,0-2Z" transform="translate(2 2)" fill="#777e90" fill-rule="evenodd"/>
</svg>
