<svg id="icons_Сalculator_Filled" data-name="icons/Сalculator/Filled" xmlns="http://www.w3.org/2000/svg" width="24" height="24" viewBox="0 0 24 24">
  <path id="Shape" d="M3,0A3,3,0,0,0,0,3V17a3,3,0,0,0,3,3H13a3,3,0,0,0,3-3V3a3,3,0,0,0-3-3ZM3,4A1,1,0,0,1,4,3h8a1,1,0,0,1,0,2H4A1,1,0,0,1,3,4ZM5,8A1,1,0,1,1,4,7,1,1,0,0,1,5,8ZM8,9A1,1,0,1,0,7,8,1,1,0,0,0,8,9Zm4,0a1,1,0,1,0-1-1A1,1,0,0,0,12,9ZM4,13a1,1,0,1,0-1-1A1,1,0,0,0,4,13Zm4,0a1,1,0,1,0-1-1A1,1,0,0,0,8,13Zm4,0a1,1,0,1,0-1-1A1,1,0,0,0,12,13ZM4,17a1,1,0,1,0-1-1A1,1,0,0,0,4,17Zm4,0a1,1,0,1,0-1-1A1,1,0,0,0,8,17Zm4,0a1,1,0,1,0-1-1A1,1,0,0,0,12,17Z" transform="translate(4 2)" fill="#777e90" fill-rule="evenodd"/>
</svg>
