<svg id="Icons_Windows_Line" data-name="Icons/Windows/Line" xmlns="http://www.w3.org/2000/svg" width="24" height="24" viewBox="0 0 24 24">
  <path id="Vector" d="M0,13.934A3,3,0,0,0,2.555,16.9l14,2.1A3,3,0,0,0,20,16.034V3A3,3,0,0,0,16.555.034l-14,2.1A3,3,0,0,0,0,5.1ZM8,3.339l-5.148.772A1,1,0,0,0,2,5.1V8.517H8Zm2-.3V8.517h8V3a1,1,0,0,0-1.148-.989ZM8,10.517H2v3.416a1,1,0,0,0,.852.989L8,15.695Zm2,5.478V10.517h8v5.516a1,1,0,0,1-1.148.989Z" transform="translate(2 2.483)" fill="#777e90" fill-rule="evenodd"/>
</svg>
