<svg id="icons_Cup_To_Go_Filled" data-name="icons/Cup To Go/Filled" xmlns="http://www.w3.org/2000/svg" width="24" height="24" viewBox="0 0 24 24">
  <path id="Shape" d="M.5,0A.5.5,0,0,0,0,.533l.84,12.6a2,2,0,0,0,2,1.867h8.258a2,2,0,0,0,2-1.867l.84-12.6a.5.5,0,0,0-.5-.533ZM6.966,9a2,2,0,1,0-2-2A2,2,0,0,0,6.966,9Z" transform="translate(5.034 9)" fill="#777e90" fill-rule="evenodd"/>
  <path id="Shape-2" data-name="Shape" d="M13.228.684A1,1,0,0,0,12.279,0H3.721a1,1,0,0,0-.949.684L2.228,2.316A1,1,0,0,1,1.279,3H1A1,1,0,0,0,0,4V6A1,1,0,0,0,1,7H15a1,1,0,0,0,1-1V4a1,1,0,0,0-1-1h-.279a1,1,0,0,1-.949-.684Z" transform="translate(4)" fill="#777e90"/>
</svg>
