<svg id="icons_Whistle_Line" data-name="icons/Whistle/Line" xmlns="http://www.w3.org/2000/svg" width="24" height="24" viewBox="0 0 24 24">
  <path id="Shape" d="M14.147,7.216l6.977-.872A1,1,0,0,0,22,5.352V3a1,1,0,0,0-1-1H17.465a4,4,0,0,1-6.93,0H8a6,6,0,1,0,5.953,6.758ZM11.5,0a.615.615,0,0,1,.562.495A2,2,0,0,0,14,2,2,2,0,0,0,15.938.495.615.615,0,0,1,16.5,0H21a3,3,0,0,1,3,3V5.352a3,3,0,0,1-2.628,2.977l-5.435.679A8,8,0,1,1,8,0Z" transform="translate(0 4)" fill="#777e90" fill-rule="evenodd"/>
  <path id="Shape-2" data-name="Shape" d="M3,4A1,1,0,1,0,2,3,1,1,0,0,0,3,4ZM3,6A3,3,0,1,0,0,3,3,3,0,0,0,3,6Z" transform="translate(5 9)" fill="#777e90" fill-rule="evenodd"/>
</svg>
