<svg id="icons_Receipt_Line" data-name="icons/Receipt/Line" xmlns="http://www.w3.org/2000/svg" width="24" height="24" viewBox="0 0 24 24">
  <path id="Shape" d="M14,2.5a.5.5,0,0,0-.5-.5H2.5a.5.5,0,0,0-.5.5V16.028a.455.455,0,0,0,.658.407,3,3,0,0,1,2.683,0L7.553,17.54a1,1,0,0,0,.894,0l2.211-1.106a3,3,0,0,1,2.683,0A.455.455,0,0,0,14,16.028Zm2,16.691a.5.5,0,0,1-.724.447l-2.829-1.415a1,1,0,0,0-.894,0L9.342,19.329a3,3,0,0,1-2.683,0L4.447,18.224a1,1,0,0,0-.894,0L.724,19.638A.5.5,0,0,1,0,19.191V0H16Z" transform="translate(4 2)" fill="#777e90" fill-rule="evenodd"/>
  <g id="Shape-2" data-name="Shape" transform="translate(8 6)">
    <path id="_5D20F028-8654-4138-BE2C-2596CB0A8C99" data-name="5D20F028-8654-4138-BE2C-2596CB0A8C99" d="M1,0A1,1,0,0,0,1,2H3A1,1,0,0,0,3,0Z" fill="#777e90"/>
    <path id="CB5AF5FF-CA28-49F3-8207-42C293893700" d="M1,0A1,1,0,1,0,2,1,1,1,0,0,0,1,0Z" transform="translate(6)" fill="#777e90"/>
    <path id="ECA14E2E-A90F-4909-9E68-1DC1F5104902" d="M0,1A1,1,0,0,1,1,0H3A1,1,0,0,1,3,2H1A1,1,0,0,1,0,1Z" transform="translate(0 4)" fill="#777e90"/>
    <path id="_841F264B-A82E-487A-AEC1-CFCDCADF7975" data-name="841F264B-A82E-487A-AEC1-CFCDCADF7975" d="M1,0A1,1,0,1,0,2,1,1,1,0,0,0,1,0Z" transform="translate(6 4)" fill="#777e90"/>
    <path id="AD528B39-E6BD-4596-94B4-DC58311EEB90" d="M0,1A1,1,0,0,1,1,0H3A1,1,0,0,1,3,2H1A1,1,0,0,1,0,1Z" transform="translate(0 8)" fill="#777e90"/>
    <path id="_6CF152B9-DFD7-4CE1-B45B-12E7F5ED6D14" data-name="6CF152B9-DFD7-4CE1-B45B-12E7F5ED6D14" d="M1,0A1,1,0,1,0,2,1,1,1,0,0,0,1,0Z" transform="translate(6 8)" fill="#777e90"/>
  </g>
  <path id="Shape-3" data-name="Shape" d="M0,1A1,1,0,0,1,1,0H19a1,1,0,0,1,0,2H1A1,1,0,0,1,0,1Z" transform="translate(2 2)" fill="#777e90"/>
</svg>
