<svg id="icons_Bubble_Race_Line" data-name="icons/Bubble Race/Line" xmlns="http://www.w3.org/2000/svg" width="24" height="24" viewBox="0 0 24 24">
  <path id="Shape" d="M5.5,9A3.5,3.5,0,1,0,2,5.5,3.5,3.5,0,0,0,5.5,9Zm0,2A5.5,5.5,0,1,0,0,5.5,5.5,5.5,0,0,0,5.5,11Z" transform="translate(12 3)" fill="#777e90" fill-rule="evenodd"/>
  <path id="Shape-2" data-name="Shape" d="M3.5,5A1.5,1.5,0,1,0,2,3.5,1.5,1.5,0,0,0,3.5,5Zm0,2A3.5,3.5,0,1,0,0,3.5,3.5,3.5,0,0,0,3.5,7Z" transform="translate(1 5)" fill="#777e90" fill-rule="evenodd"/>
  <path id="Shape-3" data-name="Shape" d="M4,6A2,2,0,1,0,2,4,2,2,0,0,0,4,6ZM4,8A4,4,0,1,0,0,4,4,4,0,0,0,4,8Z" transform="translate(5 13)" fill="#777e90" fill-rule="evenodd"/>
</svg>
