<svg id="icons_Brush_Line" data-name="icons/Brush/Line" xmlns="http://www.w3.org/2000/svg" width="24" height="24" viewBox="0 0 24 24">
  <path id="Shape" d="M0,5.257l10,10,4.379-4.379a3,3,0,0,0,0-4.243L8.621.879a3,3,0,0,0-4.243,0Zm2.914-.086L5.793,2.293a1,1,0,0,1,1.414,0L12.965,8.05a1,1,0,0,1,0,1.414l-2.879,2.879Z" transform="translate(6.5 2.243)" fill="#777e90" fill-rule="evenodd"/>
  <path id="Shape-2" data-name="Shape" d="M13.872,11.879a3,3,0,0,1-4.243,0L9.153,11.4a.5.5,0,0,0-.75.049L6.121,14.417A3.415,3.415,0,1,1,1.333,9.629L4.3,7.347a.5.5,0,0,0,.049-.75l-.476-.476a3,3,0,0,1,0-4.243L5.75,0l10,10ZM6.818,10.232,4.536,13.2a1.415,1.415,0,1,1-1.984-1.984L5.518,8.932a2.5,2.5,0,0,0,.243-3.749l-.476-.476a1,1,0,0,1,0-1.414l.379-.379,7.172,7.172-.379.379a1,1,0,0,1-1.414,0l-.476-.476A2.5,2.5,0,0,0,6.818,10.232Z" transform="translate(2.25 6)" fill="#777e90" fill-rule="evenodd"/>
</svg>
