<svg id="Icons_Netflix_Filled" data-name="Icons/Netflix/Filled" xmlns="http://www.w3.org/2000/svg" width="24" height="24" viewBox="0 0 24 24">
  <path id="Vector" d="M5,10.723a.5.5,0,0,0-.034-.182L.966.318A.5.5,0,0,0,0,.5V15.143a1,1,0,0,0,1.2.981l3-.6a1,1,0,0,0,.8-.981Z" transform="translate(5 7.638)" fill="#777e90"/>
  <path id="Vector-2" data-name="Vector" d="M5,15.546a.5.5,0,0,1-.968.176l-4-10.667A.5.5,0,0,1,0,4.88V1A1,1,0,0,1,1,0H4A1,1,0,0,1,5,1Z" transform="translate(14)" fill="#777e90"/>
  <path id="Vector-3" data-name="Vector" d="M3.382,0H.5A.5.5,0,0,0,.035.682l8.335,21.3a2,2,0,0,0,1.47,1.232l3.046.609a.5.5,0,0,0,.566-.666L5.255,1.3A2,2,0,0,0,3.382,0Z" transform="translate(5.232)" fill="#777e90"/>
</svg>
