<svg id="icons_Earphones_Filled" data-name="icons/Earphones/Filled" xmlns="http://www.w3.org/2000/svg" width="24" height="24" viewBox="0 0 24 24">
  <path id="Shape" d="M0,1A1,1,0,0,1,1,0H3A1,1,0,0,1,4,1V3A2,2,0,0,1,0,3Z" transform="translate(2 17)" fill="#777e90"/>
  <path id="Shape-2" data-name="Shape" d="M4.5,0A4.5,4.5,0,0,0,0,4.5V11a1,1,0,0,0,1,1H3a1,1,0,0,0,1-1V9h.5a4.5,4.5,0,0,0,0-9Z" transform="translate(2 3)" fill="#777e90"/>
  <path id="Shape-3" data-name="Shape" d="M0-1A1,1,0,0,0,1,0H3A1,1,0,0,0,4-1V-3A2,2,0,0,0,2-5,2,2,0,0,0,0-3Z" transform="translate(22 17) rotate(180)" fill="#777e90"/>
  <path id="Shape-4" data-name="Shape" d="M4.5,0A4.5,4.5,0,0,1,0-4.5V-11a1,1,0,0,1,1-1H3a1,1,0,0,1,1,1v2h.5A4.5,4.5,0,0,1,9-4.5,4.5,4.5,0,0,1,4.5,0Z" transform="translate(22 3) rotate(180)" fill="#777e90"/>
</svg>
