<svg id="icons_Pizza_Slice_Line" data-name="icons/Pizza Slice/Line" xmlns="http://www.w3.org/2000/svg" width="24" height="24" viewBox="0 0 24 24">
  <path id="Shape" d="M7.126,1.554.564,13.485c-1.072,1.949-.633,4.333,1.458,5.093a22.574,22.574,0,0,0,7.732,1.2,22.574,22.574,0,0,0,7.733-1.2c2.091-.76,2.53-3.144,1.458-5.093L12.383,1.554A3,3,0,0,0,7.126,1.554ZM3.262,12.729,8.878,2.518a1,1,0,0,1,1.752,0l5.616,10.211c-.082.043-.173.087-.274.132a15.752,15.752,0,0,1-6.219.914,15.752,15.752,0,0,1-6.219-.914C3.435,12.816,3.344,12.772,3.262,12.729Zm13.949,1.753q-.2.1-.425.207a17.6,17.6,0,0,1-7.031,1.086,17.6,17.6,0,0,1-7.031-1.086q-.23-.1-.425-.206a2.165,2.165,0,0,0-.253,1.5.958.958,0,0,0,.66.713,20.6,20.6,0,0,0,7.049,1.077A20.6,20.6,0,0,0,16.8,16.7a.958.958,0,0,0,.66-.713A2.165,2.165,0,0,0,17.211,14.482Z" transform="translate(2.245 2.225)" fill="#777e90" fill-rule="evenodd"/>
  <path id="Shape-2" data-name="Shape" d="M4.78,5.244,5.747,7A4,4,0,0,1,1.9,0l.966,1.757A2,2,0,0,0,4.78,5.244Z" transform="translate(12 6.598)" fill="#777e90"/>
  <path id="Shape-3" data-name="Shape" d="M2,1A1,1,0,1,1,1,0,1,1,0,0,1,2,1Z" transform="translate(9 12)" fill="#777e90"/>
</svg>
