<svg id="icons_Wi-Fi_Filled" data-name="icons/Wi-Fi/Filled" xmlns="http://www.w3.org/2000/svg" width="24" height="24" viewBox="0 0 24 24">
  <path id="Shape" d="M4,2A2,2,0,1,1,2,0,2,2,0,0,1,4,2Z" transform="translate(10 18)" fill="#777e90"/>
  <path id="Shape-2" data-name="Shape" d="M11,0A18,18,0,0,0,.412,3.444,1,1,0,0,0,.163,4.8l5.493,8.392a1,1,0,0,0,1.481.217,6,6,0,0,1,7.725,0,1,1,0,0,0,1.481-.217L21.837,4.8a1,1,0,0,0-.248-1.356A18,18,0,0,0,11,0Z" transform="translate(1 3)" fill="#777e90"/>
</svg>
