<svg id="icons_Bank_Note_Filled" data-name="icons/Bank Note/Filled" xmlns="http://www.w3.org/2000/svg" width="24" height="24" viewBox="0 0 24 24">
  <g id="Shape" transform="translate(0 4)">
    <path id="B9FADA44-1DAC-4B43-B71A-EDF06DF7A798" d="M3,0A3,3,0,0,0,0,3v.5a.455.455,0,0,0,.5.469A4,4,0,0,0,3.969.5.455.455,0,0,0,3.5,0Z" fill="#777e90"/>
    <path id="_801BDE5B-45F8-4AAE-9B0C-A011D0E4353B" data-name="801BDE5B-45F8-4AAE-9B0C-A011D0E4353B" d="M6.5,0a.534.534,0,0,0-.521.5A6,6,0,0,1,.5,5.979.534.534,0,0,0,0,6.5v3a.534.534,0,0,0,.5.521,6,6,0,0,1,5.48,5.48A.534.534,0,0,0,6.5,16h11a.534.534,0,0,0,.521-.5,6,6,0,0,1,5.48-5.48A.534.534,0,0,0,24,9.5v-3a.534.534,0,0,0-.5-.521A6,6,0,0,1,18.021.5.534.534,0,0,0,17.5,0ZM12,11A3,3,0,1,0,9,8,3,3,0,0,0,12,11Z" fill="#777e90" fill-rule="evenodd"/>
    <path id="_2D1C2E04-F1C0-4894-8D03-7A86C5B27E5C" data-name="2D1C2E04-F1C0-4894-8D03-7A86C5B27E5C" d="M3.973,3v.5a.456.456,0,0,1-.5.469A4,4,0,0,1,0,.5.456.456,0,0,1,.473,0h.5A3,3,0,0,1,3.973,3Z" transform="translate(20.027)" fill="#777e90"/>
    <path id="F7FC5751-4567-45AE-B76F-925605678528" d="M3.973.473A.456.456,0,0,0,3.474,0,4,4,0,0,0,0,3.474a.456.456,0,0,0,.469.5h.5a3,3,0,0,0,3-3Z" transform="translate(20.027 12.027)" fill="#777e90"/>
    <path id="FA7FE19A-F1ED-4F02-9B4C-5B5E04837A39" d="M0,.973v-.5A.456.456,0,0,1,.5,0a4,4,0,0,1,3.47,3.47.456.456,0,0,1-.469.5H3A3,3,0,0,1,0,.973Z" transform="translate(0 12.027)" fill="#777e90"/>
  </g>
</svg>
