<svg id="Icons_TikTok_Line" data-name="Icons/TikTok/Line" xmlns="http://www.w3.org/2000/svg" width="24" height="24" viewBox="0 0 24 24">
  <path id="Vector" d="M16,2H4A2,2,0,0,0,2,4V16a2,2,0,0,0,2,2H16a2,2,0,0,0,2-2V4A2,2,0,0,0,16,2ZM4,0A4,4,0,0,0,0,4V16a4,4,0,0,0,4,4H16a4,4,0,0,0,4-4V4a4,4,0,0,0-4-4Z" transform="translate(2 2)" fill="#777e90" fill-rule="evenodd"/>
  <path id="Vector-2" data-name="Vector" d="M7,1A1,1,0,0,0,5,1V8.5a1.5,1.5,0,0,1-3,0A1.635,1.635,0,0,1,3.2,6.98a1,1,0,1,0-.4-1.96A3.629,3.629,0,0,0,0,8.5a3.5,3.5,0,0,0,7,0V4.465A3.982,3.982,0,0,0,9,5,1,1,0,0,0,9,3,2,2,0,0,1,7,1Z" transform="translate(7 6)" fill="#777e90"/>
</svg>
