<svg id="icons_Pie_01_Filled" data-name="icons/Pie 01/Filled" xmlns="http://www.w3.org/2000/svg" width="24" height="24" viewBox="0 0 24 24">
  <path id="Shape" d="M17,9a.919.919,0,0,0,.944-1A9,9,0,1,0,8,17.945.919.919,0,0,0,9,17V10a1,1,0,0,1,1-1Z" transform="translate(2 22) rotate(-90)" fill="#777e90"/>
  <path id="Shape-2" data-name="Shape" d="M8,8.95a.919.919,0,0,0,.944-1,9,9,0,0,0-.63-2.446,9,9,0,0,0-1.951-2.92A9,9,0,0,0,3.444.635,9,9,0,0,0,1,.006.919.919,0,0,0,0,.95v7a1,1,0,0,0,1,1Z" transform="translate(13 2.05)" fill="#777e90"/>
</svg>
