<svg id="icons_Pen_Line" data-name="icons/Pen/Line" xmlns="http://www.w3.org/2000/svg" width="24" height="24" viewBox="0 0 24 24">
  <path id="Shape" d="M10.958,1.177a6,6,0,0,1,4.9,4.05l1.608,4.824,1.5,1.5a3,3,0,0,1,0,4.243l-3.172,3.172a3,3,0,0,1-4.243,0l-1.5-1.5L5.227,15.857a6,6,0,0,1-4.05-4.9L.018,2.265A2,2,0,0,1,2.265.018Zm.921,15.288,1.086,1.086a1,1,0,0,0,1.414,0l3.172-3.172a1,1,0,0,0,0-1.414L16.465,11.88Zm-1.747-1.081,5.252-5.252L13.96,5.86a4,4,0,0,0-3.266-2.7L2,2,3.16,10.694a4,4,0,0,0,2.7,3.266Z" transform="translate(2.328 2.328)" fill="#777e90" fill-rule="evenodd"/>
  <path id="Shape-2" data-name="Shape" d="M8.087,6.673,1.414,0A2.01,2.01,0,0,0,0,1.414L6.673,8.087A2,2,0,1,0,8.087,6.673Z" transform="translate(2.395 2.395)" fill="#777e90"/>
</svg>
