<svg id="Icons_YouTube_Line" data-name="Icons/YouTube/Line" xmlns="http://www.w3.org/2000/svg" width="24" height="24" viewBox="0 0 24 24">
  <path id="Vector" d="M12,2c-3.417,0-6.226.121-8.188.242A1.715,1.715,0,0,0,2.2,3.841C2.092,5.215,2,6.761,2,8s.092,2.785.2,4.158a1.715,1.715,0,0,0,1.613,1.6C5.774,13.879,8.583,14,12,14s6.226-.121,8.188-.242a1.715,1.715,0,0,0,1.613-1.6c.107-1.373.2-2.919.2-4.158s-.092-2.785-.2-4.159a1.715,1.715,0,0,0-1.613-1.6C18.226,2.121,15.417,2,12,2ZM3.688.246A3.715,3.715,0,0,0,.2,3.686C.1,5.074,0,6.682,0,8s.1,2.926.2,4.314a3.715,3.715,0,0,0,3.484,3.44c2,.124,4.848.246,8.312.246s6.315-.122,8.312-.246a3.715,3.715,0,0,0,3.484-3.44c.108-1.388.2-3,.2-4.314s-.1-2.926-.2-4.314A3.715,3.715,0,0,0,20.312.246C18.315.122,15.463,0,12,0S5.685.122,3.688.246Z" transform="translate(0 4)" fill="#777e90" fill-rule="evenodd"/>
  <path id="Vector-2" data-name="Vector" d="M1.555.17,4.752,2.3a1,1,0,0,1,0,1.664L1.555,6.1A1,1,0,0,1,0,5.265V1A1,1,0,0,1,1.555.17Z" transform="translate(10 8.867)" fill="#777e90"/>
</svg>
