<svg id="icons_Bell_Line" data-name="icons/Bell/Line" xmlns="http://www.w3.org/2000/svg" width="24" height="24" viewBox="0 0 24 24">
  <g id="notification-2-line_1" data-name="notification-2-line 1">
    <g id="Group">
      <path id="Vector" d="M18,15.023a.884.884,0,0,1-.884.884H.884a.884.884,0,0,1,0-1.767H.9V7.981A8.041,8.041,0,0,1,9,0a8.041,8.041,0,0,1,8.1,7.981v6.159h.016A.884.884,0,0,1,18,15.023ZM2.7,14.139H15.3V7.981a6.3,6.3,0,0,0-12.6,0Zm4.276,3.616c-.245-.5.222-.965.774-.965h2.5c.552,0,1.019.47.774.965a2.21,2.21,0,0,1-.433.6,2.279,2.279,0,0,1-3.182,0A2.209,2.209,0,0,1,6.976,17.756Z" transform="translate(3 3)" fill="#777e90"/>
    </g>
  </g>
</svg>
