<svg id="icons_Shop_Line" data-name="icons/Shop/Line" xmlns="http://www.w3.org/2000/svg" width="24" height="24" viewBox="0 0 24 24">
  <path id="Shape" d="M2,8V0H0V8a4,4,0,0,0,4,4H14a4,4,0,0,0,4-4V0H16V8a2,2,0,0,1-2,2H12V7A3,3,0,0,0,6,7v3H4A2,2,0,0,1,2,8Zm6,2h2V7A1,1,0,0,0,8,7Z" transform="translate(3 10)" fill="#777e90" fill-rule="evenodd"/>
  <path id="Shape-2" data-name="Shape" d="M5.606,0A4.82,4.82,0,0,0,1.427,2.35C1.14,2.839.816,3.424.557,3.982A8.154,8.154,0,0,0,.2,4.866,3.709,3.709,0,0,0,0,6,4.12,4.12,0,0,0,.9,8.655,3.908,3.908,0,0,0,4,10,4.149,4.149,0,0,0,6.655,8.969a.539.539,0,0,1,.689,0A4.149,4.149,0,0,0,10,10a4.149,4.149,0,0,0,2.655-1.031.539.539,0,0,1,.689,0A4.149,4.149,0,0,0,16,10a3.907,3.907,0,0,0,3.1-1.345A4.12,4.12,0,0,0,20,6a3.708,3.708,0,0,0-.2-1.134,8.149,8.149,0,0,0-.355-.884c-.259-.558-.583-1.143-.87-1.632A4.82,4.82,0,0,0,14.394,0Zm0,2A2.821,2.821,0,0,0,3.152,3.363,7.825,7.825,0,0,0,2,6,1.831,1.831,0,0,0,4,8,3.057,3.057,0,0,0,6.245,6.429a.878.878,0,0,1,1.509,0A3.057,3.057,0,0,0,10,8a3.057,3.057,0,0,0,2.245-1.571.878.878,0,0,1,1.509,0A3.057,3.057,0,0,0,16,8a1.831,1.831,0,0,0,2-2,7.826,7.826,0,0,0-1.152-2.637A2.821,2.821,0,0,0,14.394,2Z" transform="translate(2 2)" fill="#777e90" fill-rule="evenodd"/>
</svg>
