<svg id="Icons_Twitter_Line" data-name="Icons/Twitter/Line" xmlns="http://www.w3.org/2000/svg" width="24" height="24" viewBox="0 0 24 24">
  <path id="Vector" d="M2.1,11A2.1,2.1,0,0,0,.4,14.316C1.857,16.36,4.5,18,8.92,18c6.845,0,12.34-5.578,11.571-12.169l1.127-2.254a2.1,2.1,0,0,0-2.29-3l-1.489.3A7.451,7.451,0,0,0,16.687.4,7.625,7.625,0,0,0,14.42,0a5.688,5.688,0,0,0-3.49,1.056A5.062,5.062,0,0,0,9.191,3.509a6.641,6.641,0,0,0-.277,1.149,10.1,10.1,0,0,1-1.6-.667A8.681,8.681,0,0,1,4.586,1.886a2.1,2.1,0,0,0-3.557.435A8.488,8.488,0,0,0,1.2,9.013,9.852,9.852,0,0,0,2.327,11ZM8.92,16c-3.863,0-5.861-1.4-6.894-2.846A.1.1,0,0,1,2.106,13a10.017,10.017,0,0,0,4.63-.885.1.1,0,0,0-.023-.179C3.4,10.821,1.512,6.1,2.851,3.146a.1.1,0,0,1,.168-.018A11.383,11.383,0,0,0,10.8,7a.1.1,0,0,0,.1-.119C10.783,6.121,10.335,2,14.42,2a5.479,5.479,0,0,1,2.962.963.1.1,0,0,0,.091.026L19.72,2.54a.1.1,0,0,1,.109.143L18.435,5.47a.1.1,0,0,0-.009.063C19.4,11.02,14.908,16,8.92,16Z" transform="translate(1.08 3)" fill="#777e90" fill-rule="evenodd"/>
</svg>
