<svg id="Icons_Pinterest_Line" data-name="Icons/Pinterest/Line" xmlns="http://www.w3.org/2000/svg" width="24" height="24" viewBox="0 0 24 24">
  <path id="Vector" d="M10,18a8,8,0,1,0-8-8A8,8,0,0,0,10,18Zm0,2A10,10,0,1,0,0,10,10,10,0,0,0,10,20Z" transform="translate(2 2)" fill="#777e90" fill-rule="evenodd"/>
  <path id="Vector-2" data-name="Vector" d="M2.44,3.854a4.035,4.035,0,0,0,.017,3.7,1,1,0,0,1-1.789.894A6.032,6.032,0,0,1,.685,2.9,5.818,5.818,0,0,1,6.062,0a5.212,5.212,0,0,1,4.369,2.17,6.3,6.3,0,0,1,1.085,4.35,5.261,5.261,0,0,1-2.224,3.855,5.488,5.488,0,0,1-4.355.611l-.912,3.282A1,1,0,1,1,2.1,13.732L3.278,9.487l.005-.019L4.6,4.732a1,1,0,1,1,1.927.535L5.474,9.056a3.47,3.47,0,0,0,2.716-.35,3.27,3.27,0,0,0,1.34-2.414,4.306,4.306,0,0,0-.721-2.954A3.216,3.216,0,0,0,6.062,2,3.833,3.833,0,0,0,2.44,3.854Z" transform="translate(6.438 6)" fill="#777e90"/>
</svg>
