<svg id="icons_Soup_Line" data-name="icons/Soup/Line" xmlns="http://www.w3.org/2000/svg" width="24" height="24" viewBox="0 0 24 24">
  <path id="Shape" d="M0,3A3,3,0,0,1,3,0H17a3,3,0,0,1,3,3,9,9,0,0,1-9,9H9A9,9,0,0,1,0,3ZM3,2H17a1,1,0,0,1,1,1,7.062,7.062,0,0,1-.071,1H2.071A7.059,7.059,0,0,1,2,3,1,1,0,0,1,3,2ZM2.674,6A7,7,0,0,0,9,10h2a7,7,0,0,0,6.326-4Z" transform="translate(2 10)" fill="#777e90" fill-rule="evenodd"/>
  <g id="Shape-2" data-name="Shape" transform="translate(7 2)">
    <path id="_1ECACA51-BF04-447B-A401-F4AC1824BC54" data-name="1ECACA51-BF04-447B-A401-F4AC1824BC54" d="M2,0A1,1,0,0,1,3,1a4.852,4.852,0,0,1-.606,2.447l-.008.016A2.884,2.884,0,0,0,2,5,1,1,0,0,1,0,5,4.852,4.852,0,0,1,.606,2.553l.008-.016A2.884,2.884,0,0,0,1,1,1,1,0,0,1,2,0Z" fill="#777e90"/>
    <path id="_5F17E7DE-18B0-43A3-A882-A36906C5B1DA" data-name="5F17E7DE-18B0-43A3-A882-A36906C5B1DA" d="M2,0A1,1,0,0,1,3,1a4.852,4.852,0,0,1-.606,2.447l-.008.016A2.884,2.884,0,0,0,2,5,1,1,0,0,1,0,5,4.852,4.852,0,0,1,.606,2.553l.008-.016A2.884,2.884,0,0,0,1,1,1,1,0,0,1,2,0Z" transform="translate(4)" fill="#777e90"/>
    <path id="_3B30EAE2-D36E-414B-80AF-DE82CD09A764" data-name="3B30EAE2-D36E-414B-80AF-DE82CD09A764" d="M3,1A1,1,0,0,0,1,1,2.884,2.884,0,0,1,.614,2.537l-.008.016A4.852,4.852,0,0,0,0,5,1,1,0,0,0,2,5a2.883,2.883,0,0,1,.386-1.537l.008-.016A4.852,4.852,0,0,0,3,1Z" transform="translate(8)" fill="#777e90"/>
  </g>
</svg>
