<svg id="icons_Circle_and_Square_Filled" data-name="icons/Circle and Square/Filled" xmlns="http://www.w3.org/2000/svg" width="24" height="24" viewBox="0 0 24 24">
  <path id="Shape" d="M1,10a9,9,0,0,0,9-9q0-.223-.011-.444A.524.524,0,0,1,10.5,0H12a2,2,0,0,1,2,2V12a2,2,0,0,1-2,2H2a2,2,0,0,1-2-2V10.5a.524.524,0,0,1,.556-.514Q.777,10,1,10Z" transform="translate(8 8)" fill="#777e90"/>
  <path id="Shape-2" data-name="Shape" d="M14,7A7,7,0,1,1,7,0,7,7,0,0,1,14,7Z" transform="translate(2 2)" fill="#777e90"/>
</svg>
