<svg id="icons_Comment_Line" data-name="icons/Comment/Line" xmlns="http://www.w3.org/2000/svg" width="24" height="24" viewBox="0 0 24 24">
  <path id="Shape" d="M5,13.9V17L10.062,14,10.591,14A40.888,40.888,0,0,0,16,13.533a1.9,1.9,0,0,0,1.649-1.542A23.708,23.708,0,0,0,18,8a23.709,23.709,0,0,0-.346-3.991A1.9,1.9,0,0,0,16,2.467,40.515,40.515,0,0,0,10,2a40.514,40.514,0,0,0-6,.467A1.9,1.9,0,0,0,2.346,4.009,23.7,23.7,0,0,0,2,8a23.7,23.7,0,0,0,.346,3.991,1.859,1.859,0,0,0,1.285,1.455ZM.375,3.67A3.9,3.9,0,0,1,3.695.489,42.513,42.513,0,0,1,10,0a42.512,42.512,0,0,1,6.305.489,3.9,3.9,0,0,1,3.319,3.18A25.7,25.7,0,0,1,20,8a25.694,25.694,0,0,1-.375,4.33,3.9,3.9,0,0,1-3.319,3.18,42.9,42.9,0,0,1-5.681.484L4.509,19.608A1,1,0,0,1,3,18.748v-3.4A3.859,3.859,0,0,1,.375,12.33,25.7,25.7,0,0,1,0,8,25.7,25.7,0,0,1,.375,3.67Z" transform="translate(2 2)" fill="#777e90" fill-rule="evenodd"/>
  <path id="Shape-2" data-name="Shape" d="M1,0A1,1,0,0,0,1,2H11a1,1,0,0,0,0-2ZM1,4A1,1,0,0,0,1,6H5A1,1,0,0,0,5,4Z" transform="translate(6 7)" fill="#777e90" fill-rule="evenodd"/>
</svg>
