<svg id="icons_Column_and_Line_Up_Line" data-name="icons/Column and Line Up/Line" xmlns="http://www.w3.org/2000/svg" width="24" height="24" viewBox="0 0 24 24">
  <g id="Shape" transform="translate(1 7)">
    <path id="_8699044C-2CC4-46F5-BD85-D62061F055EB" data-name="8699044C-2CC4-46F5-BD85-D62061F055EB" d="M1,0A1,1,0,0,0,0,1V13a1,1,0,0,0,2,0V1A1,1,0,0,0,1,0Z" transform="translate(20)" fill="#777e90"/>
    <path id="_4C069FDD-97E7-402E-843F-9E325B1B2536" data-name="4C069FDD-97E7-402E-843F-9E325B1B2536" d="M0,1A1,1,0,0,1,2,1V9A1,1,0,0,1,0,9Z" transform="translate(15 4)" fill="#777e90"/>
    <path id="_94CB4754-5011-41A0-82CB-A7DC8A393949" data-name="94CB4754-5011-41A0-82CB-A7DC8A393949" d="M0,1A1,1,0,0,1,2,1V8A1,1,0,0,1,0,8Z" transform="translate(5 5)" fill="#777e90"/>
    <path id="_79BE7A33-BE24-4B6A-8E7F-E1ED7F572AB0" data-name="79BE7A33-BE24-4B6A-8E7F-E1ED7F572AB0" d="M0,1A1,1,0,0,1,2,1V6A1,1,0,0,1,0,6Z" transform="translate(0 7)" fill="#777e90"/>
    <path id="_0754CE1D-27C7-49F3-8922-29FB2F829069" data-name="0754CE1D-27C7-49F3-8922-29FB2F829069" d="M1,0A1,1,0,0,0,0,1V7A1,1,0,0,0,2,7V1A1,1,0,0,0,1,0Z" transform="translate(10 6)" fill="#777e90"/>
  </g>
  <path id="Shape-2" data-name="Shape" d="M21.781.375a1,1,0,0,1-.156,1.406L16.856,5.6a3,3,0,0,1-.76.443L11.924,7.708a3,3,0,0,1-1.7.156L6.387,7.1a1,1,0,0,0-.568.052L1.372,8.929A1,1,0,1,1,.629,7.072L5.077,5.292a3,3,0,0,1,1.7-.156l3.834.767a1,1,0,0,0,.568-.052l4.173-1.669a1,1,0,0,0,.253-.148L20.376.219A1,1,0,0,1,21.781.375Z" transform="translate(1 3)" fill="#777e90"/>
</svg>
