<svg id="icons_AirPlay_Filled" data-name="icons/AirPlay/Filled" xmlns="http://www.w3.org/2000/svg" width="24" height="24" viewBox="0 0 24 24">
  <path id="Shape" d="M20,0H2A2,2,0,0,0,0,2V13a2,2,0,0,0,2,2H4.482a1,1,0,0,0,.817-.423l3.25-4.6a3,3,0,0,1,4.9,0l3.25,4.6a1,1,0,0,0,.817.423H20a2,2,0,0,0,2-2V2A2,2,0,0,0,20,0Z" transform="translate(1 3)" fill="#777e90"/>
  <path id="Shape-2" data-name="Shape" d="M.2,5.733,4.2.4A1,1,0,0,1,5.8.4l4,5.333a1,1,0,0,1-.8,1.6H1A1,1,0,0,1,.2,5.733Z" transform="translate(6.998 13.667)" fill="#777e90"/>
</svg>
