<svg id="icons_Virus_Line" data-name="icons/Virus/Line" xmlns="http://www.w3.org/2000/svg" width="24" height="24" viewBox="0 0 24 24">
  <path id="Shape" d="M17.071,2.929a1,1,0,0,0-1.414,0L14.192,4.394A6.964,6.964,0,0,0,11,3.071V1A1,1,0,0,0,9,1V3.071A6.964,6.964,0,0,0,5.808,4.394L4.343,2.929A1,1,0,1,0,2.929,4.343L4.394,5.808A6.964,6.964,0,0,0,3.071,9H1a1,1,0,0,0,0,2H3.071a6.964,6.964,0,0,0,1.323,3.192L2.929,15.657a1,1,0,0,0,1.414,1.414l1.465-1.465A6.963,6.963,0,0,0,9,16.929V19a1,1,0,0,0,2,0V16.929a6.964,6.964,0,0,0,3.192-1.323l1.465,1.465a1,1,0,0,0,1.414-1.414l-1.465-1.465A6.963,6.963,0,0,0,16.929,11H19a1,1,0,0,0,0-2H16.929a6.963,6.963,0,0,0-1.323-3.192l1.465-1.465A1,1,0,0,0,17.071,2.929ZM10,15a5,5,0,1,0-5-5A5,5,0,0,0,10,15Z" transform="translate(2 2)" fill="#777e90" fill-rule="evenodd"/>
  <g id="Shape-2" data-name="Shape" transform="translate(1 1)">
    <path id="_4A32B9E9-9A5A-4EF2-AE6F-A05B237E1F3A" data-name="4A32B9E9-9A5A-4EF2-AE6F-A05B237E1F3A" d="M6,1A1,1,0,0,0,5,0H1A1,1,0,0,0,1,2H5A1,1,0,0,0,6,1Z" transform="translate(8)" fill="#777e90"/>
    <path id="_1E151497-A725-4D5C-B8E3-9A4BCE7B979D" data-name="1E151497-A725-4D5C-B8E3-9A4BCE7B979D" d="M1,6A1,1,0,0,0,2,5V1A1,1,0,1,0,0,1V5A1,1,0,0,0,1,6Z" transform="translate(0 8)" fill="#777e90"/>
    <path id="C30BE3E4-98C1-40A9-9DB9-D03538D29382" d="M1,6A1,1,0,0,0,2,5V1A1,1,0,0,0,0,1V5A1,1,0,0,0,1,6Z" transform="translate(20 8)" fill="#777e90"/>
    <path id="_8EF14978-CDDB-4F9C-ADE6-3678791B3928" data-name="8EF14978-CDDB-4F9C-ADE6-3678791B3928" d="M5,0A1,1,0,0,1,5,2H1A1,1,0,0,1,1,0Z" transform="translate(8 20)" fill="#777e90"/>
    <path id="_8EFF2CCA-D19D-481F-8B66-2998EB78CA7F" data-name="8EFF2CCA-D19D-481F-8B66-2998EB78CA7F" d="M1.707,4.536A1,1,0,0,1,.293,3.121L3.121.293A1,1,0,0,1,4.536,1.707Z" transform="translate(1.515 1.515)" fill="#777e90"/>
    <path id="_27C6C563-E7EB-4769-8C85-B69AED477AAD" data-name="27C6C563-E7EB-4769-8C85-B69AED477AAD" d="M.293,4.536a1,1,0,0,0,1.414,0L4.536,1.707A1,1,0,0,0,3.121.293L.293,3.121A1,1,0,0,0,.293,4.536Z" transform="translate(15.657 15.657)" fill="#777e90"/>
    <path id="CD69FDB8-2958-4D8E-8A1E-34DEB99577D1" d="M4.536,3.121A1,1,0,0,1,3.121,4.536L.293,1.707A1,1,0,1,1,1.707.293Z" transform="translate(1.515 15.657)" fill="#777e90"/>
    <path id="D7498AB7-3E9B-4D39-83BF-60F997BC8927" d="M4.536,4.536a1,1,0,0,0,0-1.414L1.707.293A1,1,0,0,0,.293,1.707L3.121,4.536A1,1,0,0,0,4.536,4.536Z" transform="translate(15.657 1.515)" fill="#777e90"/>
  </g>
</svg>
