<svg id="icons_Carrot_Line" data-name="icons/Carrot/Line" xmlns="http://www.w3.org/2000/svg" width="24" height="24" viewBox="0 0 24 24">
  <path id="Shape" d="M2.408,13.572A27.571,27.571,0,0,0,8.858,10.8,15.894,15.894,0,0,0,12.67,7.783,4.405,4.405,0,0,0,13.98,5a3.016,3.016,0,0,0-.789-2.211A3.016,3.016,0,0,0,10.98,2,4.4,4.4,0,0,0,8.2,3.31,15.894,15.894,0,0,0,5.182,7.121,27.57,27.57,0,0,0,2.408,13.572ZM0,15.5C.366,11.1,5.21,0,10.98,0a4.724,4.724,0,0,1,5,5c0,5.769-11.1,10.614-15.5,10.978A.434.434,0,0,1,0,15.5Z" transform="translate(2.02 6)" fill="#777e90" fill-rule="evenodd"/>
  <path id="Shape-2" data-name="Shape" d="M1,0A1,1,0,0,1,2,1V3.586L4.293,1.293A1,1,0,1,1,5.707,2.707L3.414,5H6A1,1,0,0,1,6,7H1a1,1,0,0,1-.7-.291l0,0A1,1,0,0,1,0,6V1A1,1,0,0,1,1,0Z" transform="translate(15 2)" fill="#777e90"/>
  <g id="Shape-3" data-name="Shape" transform="translate(4.5 7.5)">
    <path id="B2C0A77C-8CCC-4C19-80B4-FD3FDE3F643A" d="M.293.293a1,1,0,0,1,1.414,0l1.5,1.5A1,1,0,0,1,1.793,3.207l-1.5-1.5A1,1,0,0,1,.293.293Z" transform="translate(5 0)" fill="#777e90"/>
    <path id="_5B60D439-3965-43B0-BA72-6F42C231411E" data-name="5B60D439-3965-43B0-BA72-6F42C231411E" d="M.293.293a1,1,0,0,1,1.414,0l1.5,1.5A1,1,0,0,1,1.793,3.207l-1.5-1.5A1,1,0,0,1,.293.293Z" transform="translate(0 6)" fill="#777e90"/>
    <path id="_321012F0-5C21-441E-8366-B83D4B5FABD6" data-name="321012F0-5C21-441E-8366-B83D4B5FABD6" d="M1.707.293A1,1,0,0,0,.293,1.707l2,2A1,1,0,0,0,3.707,2.293Z" transform="translate(5.5 5.5)" fill="#777e90"/>
  </g>
</svg>
