<svg id="icons_Stacked_Area_Down_Line" data-name="icons/Stacked Area Down/Line" xmlns="http://www.w3.org/2000/svg" width="24" height="24" viewBox="0 0 24 24">
  <path id="Shape" d="M0,3.006A3,3,0,0,1,4.921.7L6.936,2.38a1,1,0,0,0,.8.218l4.315-.719a3,3,0,0,1,2.157.463L18.664,5.31A3,3,0,0,1,20,7.806v8.93a3,3,0,0,1-3,3H3a3,3,0,0,1-3-3Zm3.64-.768A1,1,0,0,0,2,3.006V8.118L6.865,10.55a1,1,0,0,0,.612.092l4.717-.786a3,3,0,0,1,1.835.276L18,12.118V7.806a1,1,0,0,0-.445-.832L13.1,4.006a1,1,0,0,0-.719-.154l-4.315.719a3,3,0,0,1-2.414-.655ZM18,14.354l-4.866-2.433a1,1,0,0,0-.612-.092l-4.717.786a3,3,0,0,1-1.835-.276L2,10.354v6.382a1,1,0,0,0,1,1H17a1,1,0,0,0,1-1Z" transform="translate(2 2.264)" fill="#777e90" fill-rule="evenodd"/>
</svg>
