<svg id="icons_Receipt_Filled" data-name="icons/Receipt/Filled" xmlns="http://www.w3.org/2000/svg" width="24" height="24" viewBox="0 0 24 24">
  <path id="Shape" d="M1,0A1,1,0,0,0,0,1V15.066a.5.5,0,0,0,.777.416l1.74-1.16a1,1,0,0,1,1-.062l2.139,1.07a3,3,0,0,0,2.683,0l2.139-1.07a1,1,0,0,1,1,.062l1.74,1.16A.5.5,0,0,0,14,15.066V1a1,1,0,0,0-1-1ZM3,3A1,1,0,0,1,4,2H6A1,1,0,0,1,6,4H4A1,1,0,0,1,3,3ZM9,3a1,1,0,1,1,1,1A1,1,0,0,1,9,3ZM3,7A1,1,0,0,1,4,6H6A1,1,0,0,1,6,8H4A1,1,0,0,1,3,7ZM9,7a1,1,0,1,1,1,1A1,1,0,0,1,9,7ZM3,11a1,1,0,0,1,1-1H6a1,1,0,0,1,0,2H4A1,1,0,0,1,3,11Zm6,0a1,1,0,1,1,1,1A1,1,0,0,1,9,11Z" transform="translate(5 6)" fill="#777e90" fill-rule="evenodd"/>
  <path id="Shape-2" data-name="Shape" d="M0,1A1,1,0,0,1,1,0H19a1,1,0,0,1,0,2H1A1,1,0,0,1,0,1Z" transform="translate(2 2)" fill="#777e90"/>
</svg>
