<svg id="icons_Keyboard_Line" data-name="icons/Keyboard/Line" xmlns="http://www.w3.org/2000/svg" width="24" height="24" viewBox="0 0 24 24">
  <path id="Shape" d="M20,2H4A2,2,0,0,0,2,4v8a2,2,0,0,0,2,2H20a2,2,0,0,0,2-2V4A2,2,0,0,0,20,2ZM4,0A4,4,0,0,0,0,4v8a4,4,0,0,0,4,4H20a4,4,0,0,0,4-4V4a4,4,0,0,0-4-4Z" transform="translate(0 4)" fill="#777e90" fill-rule="evenodd"/>
  <g id="Shape-2" data-name="Shape" transform="translate(4 9)">
    <path id="_81C9EBFF-4645-48E6-81E2-3A285E36C39C" data-name="81C9EBFF-4645-48E6-81E2-3A285E36C39C" d="M0,1A1,1,0,0,1,1,0H3A1,1,0,0,1,3,2H1A1,1,0,0,1,0,1Z" transform="translate(12)" fill="#777e90"/>
    <path id="_858E3A7C-B571-4450-A620-BEDCAA77943C" data-name="858E3A7C-B571-4450-A620-BEDCAA77943C" d="M0,1A1,1,0,1,1,1,2,1,1,0,0,1,0,1Z" transform="translate(0 4)" fill="#777e90"/>
    <path id="B138C28E-05F9-45DA-8CFD-C953C9ADFF9B" d="M0,1A1,1,0,0,1,1,0H7A1,1,0,0,1,7,2H1A1,1,0,0,1,0,1Z" transform="translate(4 4)" fill="#777e90"/>
    <path id="_55CD3038-69F7-42C4-9312-A3F23D1B0128" data-name="55CD3038-69F7-42C4-9312-A3F23D1B0128" d="M1,0A1,1,0,1,0,2,1,1,1,0,0,0,1,0Z" transform="translate(14 4)" fill="#777e90"/>
    <path id="F0674137-6ABE-47DD-9A7E-2CF076485045" d="M1,0A1,1,0,1,0,2,1,1,1,0,0,0,1,0Z" transform="translate(8)" fill="#777e90"/>
    <path id="_482AEB03-C0A5-4E12-BC26-536CC3820F27" data-name="482AEB03-C0A5-4E12-BC26-536CC3820F27" d="M0,1A1,1,0,1,1,1,2,1,1,0,0,1,0,1Z" transform="translate(4)" fill="#777e90"/>
    <path id="_7C9665EE-ACBC-4AA4-8537-CA49B30FCDA6" data-name="7C9665EE-ACBC-4AA4-8537-CA49B30FCDA6" d="M1,0A1,1,0,1,0,2,1,1,1,0,0,0,1,0Z" fill="#777e90"/>
  </g>
</svg>
