<svg id="icons_Sign_Out_Line" data-name="icons/Sign Out/Line" xmlns="http://www.w3.org/2000/svg" width="24" height="24" viewBox="0 0 24 24">
  <path id="Shape" d="M7,.962A1,1,0,0,1,6.038,2c-1.244.047-2.152.113-2.8.178a1.118,1.118,0,0,0-1.093.991A23.062,23.062,0,0,0,2,5.933,23.062,23.062,0,0,0,2.141,8.7a1.118,1.118,0,0,0,1.093.99c1.209.12,3.3.244,6.765.244s5.557-.124,6.765-.244a1.118,1.118,0,0,0,1.093-.99A23.081,23.081,0,0,0,18,5.933a23.081,23.081,0,0,0-.141-2.765,1.118,1.118,0,0,0-1.093-.991c-.651-.065-1.559-.131-2.8-.178a1,1,0,1,1,.075-2c1.277.048,2.227.117,2.926.186a3.113,3.113,0,0,1,2.88,2.738A25.033,25.033,0,0,1,20,5.933a25.034,25.034,0,0,1-.156,3.008,3.114,3.114,0,0,1-2.88,2.738c-1.294.129-3.452.254-6.964.254s-5.669-.125-6.964-.254A3.114,3.114,0,0,1,.156,8.941,25.024,25.024,0,0,1,0,5.933,25.025,25.025,0,0,1,.156,2.925,3.113,3.113,0,0,1,3.036.187C3.735.117,4.685.049,5.962,0A1,1,0,0,1,7,.962Z" transform="translate(10.066 22) rotate(-90)" fill="#777e90"/>
  <path id="Shape-2" data-name="Shape" d="M5.207,7.293A1,1,0,1,1,3.793,8.707l-3.5-3.5a1,1,0,0,1,0-1.414l3.5-3.5A1,1,0,0,1,5.207,1.707L3.414,3.5H13a1,1,0,0,1,0,2H3.414Z" transform="translate(2 7.5)" fill="#777e90"/>
</svg>
