<svg id="icons_Light_Bulb_Filled" data-name="icons/Light Bulb/Filled" xmlns="http://www.w3.org/2000/svg" width="24" height="24" viewBox="0 0 24 24">
  <path id="Shape" d="M0,1A1,1,0,0,1,1,0H7A1,1,0,0,1,8,1V2A3,3,0,0,1,5,5H3A3,3,0,0,1,0,2Z" transform="translate(8 19)" fill="#777e90"/>
  <path id="Shape-2" data-name="Shape" d="M16,8a7.985,7.985,0,0,1-3,6.245V15a2,2,0,0,1-2,2H9V11.414l1.707-1.707A1,1,0,1,0,9.293,8.293L8,9.586,6.707,8.293A1,1,0,0,0,5.293,9.707L7,11.414V17H5a2,2,0,0,1-2-2v-.755A8,8,0,1,1,16,8Z" transform="translate(4)" fill="#777e90"/>
</svg>
