<svg id="icons_Pill_Line" data-name="icons/Pill/Line" xmlns="http://www.w3.org/2000/svg" width="24" height="24" viewBox="0 0 24 24">
  <path id="Shape" d="M8.243,16.243l8-8a3.657,3.657,0,0,0-5.171-5.172l-8,8a3.657,3.657,0,0,0,5.172,5.171Zm1.414,1.414,8-8a5.657,5.657,0,0,0-8-8l-8,8a5.657,5.657,0,0,0,8,8Z" transform="translate(2.343 2.343)" fill="#777e90" fill-rule="evenodd"/>
  <path id="Shape-2" data-name="Shape" d="M8.293,8.293a1,1,0,0,1-1.414,0L.293,1.707A1,1,0,0,1,1.707.293L8.293,6.879A1,1,0,0,1,8.293,8.293Z" transform="translate(7.707 7.707)" fill="#777e90"/>
</svg>
