<svg id="icons_Ice_Cream_Filled" data-name="icons/Ice Cream/Filled" xmlns="http://www.w3.org/2000/svg" width="24" height="24" viewBox="0 0 24 24">
  <path id="Shape" d="M.052,1.316A1,1,0,0,1,1,0h9.225a1,1,0,0,1,.949,1.316L8.246,10.1a2.775,2.775,0,0,1-5.265,0Z" transform="translate(6.387 12)" fill="#777e90"/>
  <path id="Shape-2" data-name="Shape" d="M12.975,4.5A.541.541,0,0,0,13.5,5a2.5,2.5,0,0,1,0,5H2.5a2.5,2.5,0,0,1,0-5,.541.541,0,0,0,.525-.5,5,5,0,0,1,9.951,0Z" transform="translate(4)" fill="#777e90"/>
</svg>
