<svg id="icons_Stop_Filled" data-name="icons/Stop/Filled" xmlns="http://www.w3.org/2000/svg" width="24" height="24" viewBox="0 0 24 24">
  <path id="Shape" d="M.452,3.948a4.108,4.108,0,0,1,3.5-3.5A42.4,42.4,0,0,1,10,0a42.4,42.4,0,0,1,6.052.452,4.108,4.108,0,0,1,3.5,3.5A42.407,42.407,0,0,1,20,10a42.407,42.407,0,0,1-.451,6.052,4.108,4.108,0,0,1-3.5,3.5A42.407,42.407,0,0,1,10,20a42.407,42.407,0,0,1-6.052-.451,4.108,4.108,0,0,1-3.5-3.5A42.4,42.4,0,0,1,0,10,42.4,42.4,0,0,1,.452,3.948Z" transform="translate(2 2)" fill="#777e90"/>
</svg>
