<svg id="icons_Paint_Bucket_Line" data-name="icons/Paint Bucket/Line" xmlns="http://www.w3.org/2000/svg" width="24" height="24" viewBox="0 0 24 24">
  <path id="Shape" d="M3.257,1.45a4.951,4.951,0,0,1,6.562-.39,8.339,8.339,0,0,1,.76.71l.128.13,8.729,8.729a1,1,0,0,1-.511,1.688l-2.871.574a1,1,0,0,0-.511.273L9.879,18.828a3,3,0,0,1-4.243,0L.879,14.071a3,3,0,0,1,0-4.243L2.793,7.914A4.951,4.951,0,0,1,3.257,1.45Zm.974,5.025L8.283,2.424A2.951,2.951,0,0,0,4.232,6.475ZM7.05,17.414,2.293,12.657a1,1,0,0,1,0-1.414L9.757,3.778,16.7,10.721l-1.039.208a3,3,0,0,0-1.533.82L8.464,17.414A1,1,0,0,1,7.05,17.414Z" transform="translate(2.243 2.05)" fill="#777e90" fill-rule="evenodd"/>
  <path id="Shape-2" data-name="Shape" d="M8.343,2H2L0,0H10.343Z" transform="translate(4.829 15)" fill="#777e90"/>
  <path id="Shape-3" data-name="Shape" d="M4,2.872a2,2,0,1,1-4,0C0,1.731,1.157.59,1.711.109a.437.437,0,0,1,.578,0C2.843.59,4,1.731,4,2.872Z" transform="translate(18 17.128)" fill="#777e90"/>
</svg>
