<svg id="icons_Heart_Line" data-name="icons/Heart/Line" xmlns="http://www.w3.org/2000/svg" width="24" height="24" viewBox="0 0 24 24">
  <path id="Shape" d="M11.692,3.917a1,1,0,0,1-1.385,0l-.692-.664A4.5,4.5,0,0,0,2,6.5a7.946,7.946,0,0,0,3.152,5.967,20.423,20.423,0,0,0,5.423,3.238,1.1,1.1,0,0,0,.851,0,20.422,20.422,0,0,0,5.423-3.238A7.946,7.946,0,0,0,20,6.5a4.5,4.5,0,0,0-7.615-3.247ZM11,1.81A6.5,6.5,0,0,0,0,6.5c0,6.368,6.97,9.885,9.814,11.055a3.1,3.1,0,0,0,2.372,0C15.03,16.385,22,12.868,22,6.5A6.5,6.5,0,0,0,11,1.81Z" transform="translate(1 3)" fill="#777e90" fill-rule="evenodd"/>
</svg>
