<svg id="icons_Forward_15_sec_Filled" data-name="icons/Forward 15 sec/Filled" xmlns="http://www.w3.org/2000/svg" width="24" height="24" viewBox="0 0 24 24">
  <path id="Shape" d="M14.657,2A9,9,0,0,1,9,18H8.911A8.955,8.955,0,0,1,0,9.126Q0,9.063,0,9t0-.116A8.955,8.955,0,0,1,8.911,0H19a1,1,0,0,1,0,2ZM5,6A1,1,0,0,1,7,6v6a1,1,0,0,1-2,0ZM9.5,5A1.5,1.5,0,0,0,8,6.5v2A1.5,1.5,0,0,0,9.5,10H11v1H9a1,1,0,0,0,0,2h2.5A1.5,1.5,0,0,0,13,11.5v-2A1.5,1.5,0,0,0,11.5,8H10V7h2a1,1,0,0,0,0-2Z" transform="translate(1 3)" fill="#777e90" fill-rule="evenodd"/>
  <path id="Shape-2" data-name="Shape" d="M2.293.293a1,1,0,0,1,1.414,0l2,2A1,1,0,1,1,4.293,3.707L3,2.414,1.707,3.707A1,1,0,0,1,.293,2.293Z" transform="translate(23 1) rotate(90)" fill="#777e90"/>
</svg>
