<svg id="icons_Bookmark_Line" data-name="icons/Bookmark/Line" xmlns="http://www.w3.org/2000/svg" width="24" height="24" viewBox="0 0 24 24">
  <path id="Shape" d="M15.786,19.342C15.9,17.395,16,14.614,16,11c0-3.189-.08-5.478-.174-7.067a1.825,1.825,0,0,0-1.765-1.788C12.8,2.064,11.133,2,9,2s-3.8.064-5.061.145A1.825,1.825,0,0,0,2.174,3.934C2.08,5.522,2,7.811,2,11c0,3.614.1,6.395.214,8.342L7.27,15.773a3,3,0,0,1,3.46,0ZM3.811.149A3.823,3.823,0,0,0,.178,3.815C.081,5.449,0,7.778,0,11c0,5.026.2,8.473.344,10.341a.955.955,0,0,0,1.518.7l6.561-4.631a1,1,0,0,1,1.153,0l6.561,4.631a.955.955,0,0,0,1.518-.7C17.8,19.473,18,16.026,18,11c0-3.222-.081-5.551-.178-7.185A3.823,3.823,0,0,0,14.189.149C12.887.066,11.173,0,9,0S5.113.066,3.811.149Z" transform="translate(3 1)" fill="#777e90" fill-rule="evenodd"/>
</svg>
