<svg id="icons_Edit_Line" data-name="icons/Edit/Line" xmlns="http://www.w3.org/2000/svg" width="24" height="24" viewBox="0 0 24 24">
  <path id="Shape" d="M0,1A1,1,0,0,1,1,0H17a1,1,0,0,1,0,2H1A1,1,0,0,1,0,1Z" transform="translate(3 21)" fill="#777e90"/>
  <path id="Shape-2" data-name="Shape" d="M13.707,2.293a1,1,0,0,0-1.414,0l-.879.879L15,6.757l.879-.879a1,1,0,0,0,0-1.414ZM3.914,10.672,10,4.586l3.586,3.586L7.5,14.257ZM2.5,12.086l-.5.5v3.586H5.586l.5-.5ZM10.879.879a3,3,0,0,1,4.243,0L17.293,3.05a3,3,0,0,1,0,4.243L7,17.586a2,2,0,0,1-1.414.586H2a2,2,0,0,1-2-2V12.586a2,2,0,0,1,.586-1.414Z" transform="translate(3 0.828)" fill="#777e90" fill-rule="evenodd"/>
</svg>
