<svg id="icons_Bar_02_Down_Filled" data-name="icons/Bar 02 Down/Filled" xmlns="http://www.w3.org/2000/svg" width="24" height="24" viewBox="0 0 24 24">
  <path id="Shape" d="M0-2A2,2,0,0,0,2,0H18a2,2,0,0,0,2-2V-18a2,2,0,0,0-2-2H2a2,2,0,0,0-2,2ZM3-4A1,1,0,0,0,4-3H8A1,1,0,0,0,9-4,1,1,0,0,0,8-5H4A1,1,0,0,0,3-4ZM4-15a1,1,0,0,1-1-1,1,1,0,0,1,1-1H16a1,1,0,0,1,1,1,1,1,0,0,1-1,1ZM3-12a1,1,0,0,0,1,1h8a1,1,0,0,0,1-1,1,1,0,0,0-1-1H4A1,1,0,0,0,3-12ZM4-7A1,1,0,0,1,3-8,1,1,0,0,1,4-9H14a1,1,0,0,1,1,1,1,1,0,0,1-1,1Z" transform="translate(2 22)" fill="#777e90" fill-rule="evenodd"/>
</svg>
