<svg id="icons_Cog_Line" data-name="icons/Cog/Line" xmlns="http://www.w3.org/2000/svg" width="24" height="24" viewBox="0 0 24 24">
  <path id="Shape" d="M17.949,5.09a3,3,0,0,0-3.04-3.04h0a2.988,2.988,0,0,0-1.673.537.181.181,0,0,1-.283-.117,2.986,2.986,0,0,0-.8-1.562h0a3,3,0,0,0-4.3,0h0a2.988,2.988,0,0,0-.8,1.563.18.18,0,0,1-.283.117,2.988,2.988,0,0,0-1.673-.537h0A3,3,0,0,0,2.051,5.09s0,0,0,0a2.988,2.988,0,0,0,.537,1.673.18.18,0,0,1-.117.283,2.988,2.988,0,0,0-1.562.8h0a3,3,0,0,0,0,4.3h0a2.986,2.986,0,0,0,1.563.8.181.181,0,0,1,.117.283,2.988,2.988,0,0,0-.537,1.672h0a3,3,0,0,0,3.04,3.041h0a2.988,2.988,0,0,0,1.673-.537.181.181,0,0,1,.283.117,2.988,2.988,0,0,0,.8,1.562h0a3,3,0,0,0,4.3,0h0a2.986,2.986,0,0,0,.8-1.563.181.181,0,0,1,.283-.117,2.988,2.988,0,0,0,1.672.537h0a3,3,0,0,0,3.041-3.04h0a2.987,2.987,0,0,0-.537-1.673.181.181,0,0,1,.117-.283,2.986,2.986,0,0,0,1.562-.8h0a3,3,0,0,0,0-4.3h0a2.988,2.988,0,0,0-1.563-.8.181.181,0,0,1-.117-.283,2.988,2.988,0,0,0,.537-1.673Zm-2.293-.747a1,1,0,0,0-1.277-.116,2.18,2.18,0,0,1-3.4-1.407,1,1,0,0,0-1.969,0,2.18,2.18,0,0,1-3.4,1.407A1,1,0,0,0,4.228,5.62a2.18,2.18,0,0,1-1.407,3.4,1,1,0,0,0,0,1.969,2.18,2.18,0,0,1,1.407,3.4A1,1,0,0,0,5.62,15.772a2.18,2.18,0,0,1,3.4,1.407,1,1,0,0,0,1.969,0,2.18,2.18,0,0,1,3.4-1.407,1,1,0,0,0,1.392-1.392,2.18,2.18,0,0,1,1.407-3.4,1,1,0,0,0,0-1.969,2.18,2.18,0,0,1-1.407-3.4A1,1,0,0,0,15.657,4.343Z" transform="translate(2 2)" fill="#777e90" fill-rule="evenodd"/>
  <path id="Shape-2" data-name="Shape" d="M4,6A2,2,0,1,0,2,4,2,2,0,0,0,4,6ZM4,8A4,4,0,1,0,0,4,4,4,0,0,0,4,8Z" transform="translate(8 8)" fill="#777e90" fill-rule="evenodd"/>
</svg>
