<svg id="icons_Stacked_Column_01_Up_Filled" data-name="icons/Stacked Column 01 Up/Filled" xmlns="http://www.w3.org/2000/svg" width="24" height="24" viewBox="0 0 24 24">
  <path id="Shape" d="M0,2A2,2,0,0,1,2,0H18a2,2,0,0,1,2,2V18a2,2,0,0,1-2,2H2a2,2,0,0,1-2-2ZM3,15a1,1,0,0,1,2,0v1a1,1,0,0,1-2,0ZM4,3A1,1,0,0,0,3,4v7a1,1,0,0,0,2,0V4A1,1,0,0,0,4,3ZM7,13a1,1,0,0,1,2,0v3a1,1,0,0,1-2,0ZM8,3A1,1,0,0,0,7,4V9A1,1,0,0,0,9,9V4A1,1,0,0,0,8,3Zm3,1a1,1,0,0,1,2,0V7a1,1,0,0,1-2,0Zm1,6a1,1,0,0,0-1,1v5a1,1,0,0,0,2,0V11A1,1,0,0,0,12,10Zm3-6a1,1,0,0,1,2,0V5a1,1,0,0,1-2,0Zm1,4a1,1,0,0,0-1,1v7a1,1,0,0,0,2,0V9A1,1,0,0,0,16,8Z" transform="translate(2 2)" fill="#777e90" fill-rule="evenodd"/>
</svg>
