<svg id="icons_Settings_02_Filled" data-name="icons/Settings 02/Filled" xmlns="http://www.w3.org/2000/svg" width="24" height="24" viewBox="0 0 24 24">
  <path id="Shape" d="M4.5,0a4.5,4.5,0,0,0,0,9h11a4.5,4.5,0,0,0,0-9Zm0,7A2.5,2.5,0,1,0,2,4.5,2.5,2.5,0,0,0,4.5,7Z" transform="translate(2 13)" fill="#777e90" fill-rule="evenodd"/>
  <path id="Shape-2" data-name="Shape" d="M4.5,0a4.5,4.5,0,0,0,0,9h11a4.5,4.5,0,0,0,0-9Zm11,7A2.5,2.5,0,1,0,13,4.5,2.5,2.5,0,0,0,15.5,7Z" transform="translate(2 2)" fill="#777e90" fill-rule="evenodd"/>
</svg>
