<svg id="icons_Scoreboard_Filled" data-name="icons/Scoreboard/Filled" xmlns="http://www.w3.org/2000/svg" width="24" height="24" viewBox="0 0 24 24">
  <path id="Shape" d="M3,0A3,3,0,0,0,0,3V13a3,3,0,0,0,3,3H21a3,3,0,0,0,3-3V3a3,3,0,0,0-3-3ZM16,4a1,1,0,0,0,0,2h2V7H16.5A1.5,1.5,0,0,0,15,8.5v2A1.5,1.5,0,0,0,16.5,12H19a1,1,0,0,0,0-2H17V9h1.5A1.5,1.5,0,0,0,20,7.5v-2A1.5,1.5,0,0,0,18.5,4ZM12,5a1,1,0,1,0,1,1A1,1,0,0,0,12,5Zm0,4a1,1,0,1,0,1,1A1,1,0,0,0,12,9ZM8,5A1,1,0,0,0,7,4H6A1,1,0,0,0,6,6v4a1,1,0,0,0,0,2H8a1,1,0,0,0,0-2Z" transform="translate(0 4)" fill="#777e90" fill-rule="evenodd"/>
</svg>
