<svg id="icons_Grid_Horizontal_Filled" data-name="icons/Grid Horizontal/Filled" xmlns="http://www.w3.org/2000/svg" width="24" height="24" viewBox="0 0 24 24">
  <path id="Shape" d="M.262,2.483A2.537,2.537,0,0,1,2.472.172,16.085,16.085,0,0,1,4.5,0,16.085,16.085,0,0,1,6.528.172a2.537,2.537,0,0,1,2.21,2.311C8.867,3.973,9,6.387,9,10s-.133,6.027-.262,7.517a2.537,2.537,0,0,1-2.21,2.31A16.077,16.077,0,0,1,4.5,20a16.077,16.077,0,0,1-2.028-.172,2.537,2.537,0,0,1-2.21-2.31C.133,16.027,0,13.613,0,10S.133,3.973.262,2.483Z" transform="translate(22 2) rotate(90)" fill="#777e90"/>
  <path id="Shape-2" data-name="Shape" d="M.262,2.483A2.537,2.537,0,0,1,2.472.172,16.085,16.085,0,0,1,4.5,0,16.085,16.085,0,0,1,6.528.172a2.537,2.537,0,0,1,2.21,2.311C8.867,3.973,9,6.387,9,10s-.133,6.027-.262,7.517a2.537,2.537,0,0,1-2.21,2.31A16.077,16.077,0,0,1,4.5,20a16.077,16.077,0,0,1-2.028-.172,2.537,2.537,0,0,1-2.21-2.31C.133,16.027,0,13.613,0,10S.133,3.973.262,2.483Z" transform="translate(22 13) rotate(90)" fill="#777e90"/>
</svg>
