<svg id="icons_T-shirt_Filled" data-name="icons/T-shirt/Filled" xmlns="http://www.w3.org/2000/svg" width="24" height="24" viewBox="0 0 24 24">
  <path id="Shape" d="M6,0A1,1,0,0,1,7,1a3,3,0,0,0,6,0,1,1,0,0,1,1-1h2a2,2,0,0,1,2,2V3a9.233,9.233,0,0,0,1.149,5.119A4.094,4.094,0,0,1,20,10.236V18a2,2,0,0,1-2,2H2a2,2,0,0,1-2-2V10.236A4.094,4.094,0,0,1,.85,8.119,9.232,9.232,0,0,0,2,3V2A2,2,0,0,1,4,0Zm5,9a1,1,0,0,0-1-1H9a1,1,0,0,0,0,2v4a1,1,0,0,0,0,2h2a1,1,0,0,0,0-2Z" transform="translate(2 2)" fill="#777e90" fill-rule="evenodd"/>
</svg>
