<svg id="icons_Ice_Cream_Line" data-name="icons/Ice Cream/Line" xmlns="http://www.w3.org/2000/svg" width="24" height="24" viewBox="0 0 24 24">
  <path id="Shape" d="M1,0A1,1,0,0,0,.059,1.336l3.85,10.78a2.838,2.838,0,0,0,5.345,0L13.1,1.336A1,1,0,0,0,12.163,0ZM2.42,2l3.373,9.444a.838.838,0,0,0,1.578,0L10.744,2Z" transform="translate(5.418 10)" fill="#777e90" fill-rule="evenodd"/>
  <path id="Shape-2" data-name="Shape" d="M3.9,6.664l-1.025.472A1.5,1.5,0,0,0,3.5,10h9a1.5,1.5,0,0,0,.625-2.864L12.1,6.664l-.127-1.121a4,4,0,0,0-7.949,0ZM13.962,5.319a6,6,0,0,0-11.924,0A3.5,3.5,0,0,0,3.5,12h9a3.5,3.5,0,0,0,1.462-6.681Z" transform="translate(4)" fill="#777e90" fill-rule="evenodd"/>
</svg>
