<svg id="icons_Medical_Case_Filled" data-name="icons/Medical Case/Filled" xmlns="http://www.w3.org/2000/svg" width="24" height="24" viewBox="0 0 24 24">
  <path id="Shape" d="M0,4A4,4,0,0,1,4,0H16a4,4,0,0,1,4,4v8a4,4,0,0,1-4,4H4a4,4,0,0,1-4-4ZM9,5a1,1,0,0,1,2,0V7h2a1,1,0,0,1,0,2H11v2a1,1,0,0,1-2,0V9H7A1,1,0,0,1,7,7H9Z" transform="translate(2 6)" fill="#777e90" fill-rule="evenodd"/>
  <path id="Shape-2" data-name="Shape" d="M3,2A1,1,0,0,0,2,3V4A1,1,0,0,1,0,4V3A3,3,0,0,1,3,0H7a3,3,0,0,1,3,3V4A1,1,0,0,1,8,4V3A1,1,0,0,0,7,2Z" transform="translate(7 2)" fill="#777e90"/>
</svg>
