<svg id="icons_Baseball_Ball_Filled" data-name="icons/Baseball Ball/Filled" xmlns="http://www.w3.org/2000/svg" width="24" height="24" viewBox="0 0 24 24">
  <g id="Shape" transform="translate(2 2)">
    <path id="_99136E29-6FC6-4B0D-8954-ABCBEEF08AFC" data-name="99136E29-6FC6-4B0D-8954-ABCBEEF08AFC" d="M.213,18.383a.5.5,0,0,1-.026-.8A9.977,9.977,0,0,0,3.668,10,9.977,9.977,0,0,0,.186,2.416a.5.5,0,0,1,.026-.8,10.007,10.007,0,0,1,10.91,0,.5.5,0,0,1,.026.8,10,10,0,0,0,0,15.167.5.5,0,0,1-.026.8,10.007,10.007,0,0,1-10.91,0Z" transform="translate(4.332)" fill="#777e90"/>
    <path id="FAC2EED1-921C-4DA3-B20A-94158CE3C73D" d="M2.858.1a.463.463,0,0,0-.642.079,10,10,0,0,0,0,12.556.463.463,0,0,0,.642.079A7.987,7.987,0,0,0,6,6.452,7.987,7.987,0,0,0,2.858.1Z" transform="translate(0 3.548)" fill="#777e90"/>
    <path id="_0D210E02-1392-4DDE-B713-F5C8576D517E" data-name="0D210E02-1392-4DDE-B713-F5C8576D517E" d="M3.142.1a.463.463,0,0,1,.642.079A9.958,9.958,0,0,1,6,6.452,9.958,9.958,0,0,1,3.784,12.73a.463.463,0,0,1-.642.079A8,8,0,0,1,3.142.1Z" transform="translate(14 3.548)" fill="#777e90"/>
  </g>
</svg>
