<svg id="icons_Smart_Watch_Line" data-name="icons/Smart Watch/Line" xmlns="http://www.w3.org/2000/svg" width="24" height="24" viewBox="0 0 24 24">
  <g id="Shape" transform="translate(7)">
    <path id="_9D06F0DD-CA17-4BCA-8A5A-C7D03304876C" data-name="9D06F0DD-CA17-4BCA-8A5A-C7D03304876C" d="M2,5V3A1,1,0,0,1,3,2H7A1,1,0,0,1,8,3V5h2V3A3,3,0,0,0,7,0H3A3,3,0,0,0,0,3V5Z" fill="#777e90"/>
    <path id="_87A8F3D0-779D-417D-B4C0-818399F1E3AB" data-name="87A8F3D0-779D-417D-B4C0-818399F1E3AB" d="M2,0V2A1,1,0,0,0,3,3H7A1,1,0,0,0,8,2V0h2V2A3,3,0,0,1,7,5H3A3,3,0,0,1,0,2V0Z" transform="translate(0 19)" fill="#777e90"/>
  </g>
  <path id="Shape-2" data-name="Shape" d="M12,2H4A2,2,0,0,0,2,4v8a2,2,0,0,0,2,2h8a2,2,0,0,0,2-2V4A2,2,0,0,0,12,2ZM4,0A4,4,0,0,0,0,4v8a4,4,0,0,0,4,4h8a4,4,0,0,0,4-4V4a4,4,0,0,0-4-4Z" transform="translate(4 20) rotate(-90)" fill="#777e90" fill-rule="evenodd"/>
  <path id="Shape-3" data-name="Shape" d="M0,0A1,1,0,0,1,1,1V3A1,1,0,0,1,0,4Z" transform="translate(20 10)" fill="#777e90"/>
</svg>
