<svg id="icons_Loading_Filled" data-name="icons/Loading/Filled" xmlns="http://www.w3.org/2000/svg" width="24" height="24" viewBox="0 0 24 24">
  <path id="Shape" d="M20,10A10,10,0,1,1,10,0,10,10,0,0,1,20,10ZM9,3a1,1,0,0,1,2,0V5A1,1,0,0,1,9,5Zm1,11a1,1,0,0,0-1,1v2a1,1,0,0,0,2,0V15A1,1,0,0,0,10,14Zm7-5a1,1,0,0,1,0,2H15a1,1,0,0,1,0-2ZM6,10A1,1,0,0,0,5,9H3a1,1,0,0,0,0,2H5A1,1,0,0,0,6,10Zm8.243-5.657a1,1,0,0,1,1.414,1.414L14.243,7.172a1,1,0,0,1-1.414-1.414ZM7.172,12.828a1,1,0,0,0-1.414,0L4.343,14.243a1,1,0,0,0,1.414,1.414l1.414-1.414A1,1,0,0,0,7.172,12.828Zm8.485,1.414a1,1,0,0,1-1.414,1.414l-1.414-1.414a1,1,0,1,1,1.414-1.414ZM7.172,7.171a1,1,0,0,0,0-1.414L5.757,4.343A1,1,0,1,0,4.343,5.757L5.757,7.171A1,1,0,0,0,7.172,7.171Z" transform="translate(2 2)" fill="#777e90" fill-rule="evenodd"/>
</svg>
