<svg id="icons_Lock_Filled" data-name="icons/Lock/Filled" xmlns="http://www.w3.org/2000/svg" width="24" height="24" viewBox="0 0 24 24">
  <path id="Shape" d="M.111,4.229A4.381,4.381,0,0,1,4.232.151C5.558.066,7.179,0,9,0s3.442.066,4.769.151a4.381,4.381,0,0,1,4.12,4.078C17.954,5.123,18,6.085,18,7s-.046,1.877-.111,2.771a4.381,4.381,0,0,1-4.12,4.078C12.442,13.934,10.821,14,9,14s-3.442-.066-4.768-.151A4.381,4.381,0,0,1,.111,9.771C.047,8.877,0,7.915,0,7S.047,5.123.111,4.229ZM11,6a2,2,0,0,1-1,1.732V9A1,1,0,0,1,8,9V7.732A2,2,0,1,1,11,6Z" transform="translate(3 9)" fill="#777e90" fill-rule="evenodd"/>
  <path id="Shape-2" data-name="Shape" d="M0,5A5,5,0,0,1,10,5V9A1,1,0,0,1,8,9V5A3,3,0,0,0,2,5V9A1,1,0,0,1,0,9Z" transform="translate(7 1)" fill="#777e90"/>
</svg>
