<svg id="Icons_Netflix_Line" data-name="Icons/Netflix/Line" xmlns="http://www.w3.org/2000/svg" width="24" height="24" viewBox="0 0 24 24">
  <path id="Vector" d="M3,0A3,3,0,0,0,0,3V21a3,3,0,0,0,6,0V10.182L4,6.545V21a1,1,0,0,1-2,0V3a1,1,0,0,1,.686-.95A.937.937,0,0,1,3,2Z" transform="translate(4)" fill="#777e90"/>
  <path id="Vector-2" data-name="Vector" d="M3,24a3,3,0,0,0,3-3V3A3,3,0,0,0,0,3V13.818l2,3.636V3A1,1,0,0,1,4,3V21a1,1,0,0,1-.685.949A.938.938,0,0,1,3,22Z" transform="translate(14)" fill="#777e90"/>
  <path id="Vector-3" data-name="Vector" d="M12.149,21.546a.876.876,0,1,0,1.536-.844L3.648,2.454A.876.876,0,0,0,2.113,3.3ZM5.4,1.49,15.437,19.738A2.876,2.876,0,1,1,10.4,22.51L.36,4.262A2.876,2.876,0,0,1,5.4,1.49Z" transform="translate(4.102)" fill="#777e90" fill-rule="evenodd"/>
</svg>
