<svg id="icons_File_Image_Line" data-name="icons/File Image/Line" xmlns="http://www.w3.org/2000/svg" width="24" height="24" viewBox="0 0 24 24">
  <path id="Shape" d="M0,4A4,4,0,0,1,4,0h8.343a4,4,0,0,1,2.829,1.172l1.657,1.657A4,4,0,0,1,18,5.657V18a4,4,0,0,1-4,4H4a4,4,0,0,1-4-4ZM16,7V18a2,2,0,0,1-2,2H4a2,2,0,0,1-2-2V4A2,2,0,0,1,4,2h7V4a3,3,0,0,0,3,3Zm-.111-2a2,2,0,0,0-.475-.757L13.757,2.586A2,2,0,0,0,13,2.111V4a1,1,0,0,0,1,1Z" transform="translate(3 1)" fill="#777e90" fill-rule="evenodd"/>
  <g id="Shape-2" data-name="Shape" transform="translate(7 9)">
    <path id="_3F421D85-61F8-489F-93FF-5C5AC0AC6F10" data-name="3F421D85-61F8-489F-93FF-5C5AC0AC6F10" d="M2,4A2,2,0,1,0,0,2,2,2,0,0,0,2,4Z" fill="#777e90"/>
    <path id="_667A1868-7598-4BDA-A65C-756282266BB8" data-name="667A1868-7598-4BDA-A65C-756282266BB8" d="M3.7.375l1.919,2.4A1,1,0,0,1,4.841,4.4H1A1,1,0,0,1,.221,2.775L2.14.375A1,1,0,0,1,3.7.375Z" transform="translate(4.079 4.601)" fill="#777e90"/>
  </g>
</svg>
