<svg id="icons_Serving_Plate_Line" data-name="icons/Serving Plate/Line" xmlns="http://www.w3.org/2000/svg" width="24" height="24" viewBox="0 0 24 24">
  <path id="Shape" d="M18,2H2A2,2,0,0,0,4,4H16A2,2,0,0,0,18,2ZM2,0A2,2,0,0,0,0,2,4,4,0,0,0,4,6H16a4,4,0,0,0,4-4,2,2,0,0,0-2-2Z" transform="translate(2 16)" fill="#777e90" fill-rule="evenodd"/>
  <path id="Shape-2" data-name="Shape" d="M11.655,4.4a3,3,0,1,0-5.31,0A9,9,0,0,0,0,13v2a1,1,0,0,0,1,1H17a1,1,0,0,0,1-1V13A9,9,0,0,0,11.655,4.4ZM10,3A1,1,0,1,1,9,2,1,1,0,0,1,10,3ZM9,6a7,7,0,0,0-7,7v1H16V13A7,7,0,0,0,9,6Z" transform="translate(3 2)" fill="#777e90" fill-rule="evenodd"/>
</svg>
