<svg id="icons_Microphone_Line" data-name="icons/Microphone/Line" xmlns="http://www.w3.org/2000/svg" width="24" height="24" viewBox="0 0 24 24">
  <path id="Shape" d="M1,0A1,1,0,0,1,2,1V2A6,6,0,0,0,14,2V1a1,1,0,0,1,2,0V2A8,8,0,0,1,9,9.938V13h3a1,1,0,0,1,0,2H4a1,1,0,0,1,0-2H7V9.938A8,8,0,0,1,0,2V1A1,1,0,0,1,1,0Z" transform="translate(4 9)" fill="#777e90"/>
  <path id="Shape-2" data-name="Shape" d="M6,11V4A2,2,0,0,0,2,4v7a2,2,0,0,0,4,0ZM4,0A4,4,0,0,0,0,4v7a4,4,0,0,0,8,0V4A4,4,0,0,0,4,0Z" transform="translate(8)" fill="#777e90" fill-rule="evenodd"/>
</svg>
