<svg id="icons_Printer_Filled" data-name="icons/Printer/Filled" xmlns="http://www.w3.org/2000/svg" width="24" height="24" viewBox="0 0 24 24">
  <path id="Shape" d="M0,2A2,2,0,0,1,2,0H8a2,2,0,0,1,2,2V5A1,1,0,0,1,9,6H1A1,1,0,0,1,0,5Z" transform="translate(7 2)" fill="#777e90"/>
  <path id="Shape-2" data-name="Shape" d="M2,0A2,2,0,0,0,0,2V7A2,2,0,0,0,2,9H3V8A3,3,0,0,1,6,5h8a3,3,0,0,1,3,3V9h1a2,2,0,0,0,2-2V2a2,2,0,0,0-2-2Z" transform="translate(2 10)" fill="#777e90"/>
  <path id="Shape-3" data-name="Shape" d="M0,1A1,1,0,0,1,1,0H9a1,1,0,0,1,1,1V3A2,2,0,0,1,8,5H2A2,2,0,0,1,0,3Z" transform="translate(7 17)" fill="#777e90"/>
</svg>
