<svg id="icons_Line_03_Down_Filled" data-name="icons/Line 03 Down/Filled" xmlns="http://www.w3.org/2000/svg" width="24" height="24" viewBox="0 0 24 24">
  <path id="Shape" d="M2,0A2,2,0,0,1,0-2V-16a2,2,0,0,1,2-2H20a2,2,0,0,1,2,2V-2a2,2,0,0,1-2,2ZM19.868-3.5A1,1,0,0,1,19.5-2.132,1,1,0,0,1,18.132-2.5L14.883-8.189a1,1,0,0,0-1.111-.474L8.712-7.4A3,3,0,0,1,5.38-8.819L2.132-14.5A1,1,0,0,1,2.5-15.868a1,1,0,0,1,1.364.372L7.117-9.812a1,1,0,0,0,1.111.474l5.06-1.265A3,3,0,0,1,16.62-9.181Z" transform="translate(1 21)" fill="#777e90" fill-rule="evenodd"/>
</svg>
