<svg id="icons_Map_Marker_Line" data-name="icons/Map Marker/Line" xmlns="http://www.w3.org/2000/svg" width="24" height="24" viewBox="0 0 24 24">
  <path id="Shape" d="M13.642,15.245A10.952,10.952,0,0,0,16,9,7,7,0,0,0,2,9a10.952,10.952,0,0,0,2.358,6.245,24.79,24.79,0,0,0,4.318,4.5.487.487,0,0,0,.646,0A24.788,24.788,0,0,0,13.642,15.245ZM10.59,21.3C13.175,19.179,18,14.492,18,9A9,9,0,0,0,0,9c0,5.492,4.825,10.179,7.41,12.3A2.485,2.485,0,0,0,10.59,21.3Z" transform="translate(3 1)" fill="#777e90" fill-rule="evenodd"/>
  <path id="Shape-2" data-name="Shape" d="M4,2A2,2,0,1,0,6,4,2,2,0,0,0,4,2ZM0,4A4,4,0,1,1,4,8,4,4,0,0,1,0,4Z" transform="translate(8 6)" fill="#777e90" fill-rule="evenodd"/>
</svg>
