<svg id="Icons_Messenger_Line" data-name="Icons/Messenger/Line" xmlns="http://www.w3.org/2000/svg" width="24" height="24" viewBox="0 0 24 24">
  <path id="Vector" d="M3.8,15.066a1,1,0,0,1,.2.6v1.261a.5.5,0,0,0,.6.49l1.3-.271a1,1,0,0,1,.6.063l.292.128A8.006,8.006,0,1,0,3.6,14.8Zm2.2,4.1A10.006,10.006,0,1,0,2,16v2.771a1,1,0,0,0,1.2.979Z" transform="translate(2 2)" fill="#777e90" fill-rule="evenodd"/>
  <path id="Vector-2" data-name="Vector" d="M2.828.427.077,4.356a.426.426,0,0,0,.586.6L2.835,3.507a1,1,0,0,1,1.085-.016L6.567,5.146a1,1,0,0,0,1.349-.274L10.667.942a.426.426,0,0,0-.586-.6L7.909,1.791a1,1,0,0,1-1.085.016L4.177.152A1,1,0,0,0,2.828.427Z" transform="translate(6.628 9.351)" fill="#777e90"/>
</svg>
