<svg id="icons_Filter_Line" data-name="icons/Filter/Line" xmlns="http://www.w3.org/2000/svg" width="24" height="24" viewBox="0 0 24 24">
  <path id="Shape" d="M11.4,11.7a1,1,0,0,1,.168-.555l5.059-7.588A1,1,0,0,0,15.794,2H3.005a1,1,0,0,0-.832,1.555l5.059,7.588A1,1,0,0,1,7.4,11.7v5.89a1,1,0,0,0,1.53.848l2-1.25a1,1,0,0,0,.47-.848Zm2,.606a1,1,0,0,1,.168-.555L18.29,4.664A3,3,0,0,0,15.794,0H3.005a3,3,0,0,0-2.5,4.664l4.723,7.084A1,1,0,0,1,5.4,12.3v5.284a3,3,0,0,0,4.59,2.544l2-1.25a3,3,0,0,0,1.41-2.544Z" transform="translate(2.601 2)" fill="#777e90" fill-rule="evenodd"/>
</svg>
