<svg id="icons_Stacked_Area_Up_Line" data-name="icons/Stacked Area Up/Line" xmlns="http://www.w3.org/2000/svg" width="24" height="24" viewBox="0 0 24 24">
  <path id="Shape" d="M20,3.006A3,3,0,0,0,15.079.7L13.064,2.38a1,1,0,0,1-.8.218L7.945,1.879a3,3,0,0,0-2.157.463L1.336,5.31A3,3,0,0,0,0,7.806v8.93a3,3,0,0,0,3,3H17a3,3,0,0,0,3-3Zm-3.64-.768A1,1,0,0,1,18,3.006V8.118L13.134,10.55a1,1,0,0,1-.612.092L7.806,9.856a3,3,0,0,0-1.835.276L2,12.118V7.806a1,1,0,0,1,.445-.832L6.9,4.006a1,1,0,0,1,.719-.154l4.315.719a3,3,0,0,0,2.414-.655ZM2,14.354v2.382a1,1,0,0,0,1,1H17a1,1,0,0,0,1-1V10.354l-3.971,1.986a3,3,0,0,1-1.835.276l-4.717-.786a1,1,0,0,0-.612.092Z" transform="translate(2 2.264)" fill="#777e90" fill-rule="evenodd"/>
</svg>
