<svg id="icons_Scoreboard_Line" data-name="icons/Scoreboard/Line" xmlns="http://www.w3.org/2000/svg" width="24" height="24" viewBox="0 0 24 24">
  <path id="Shape" d="M20,2H4A2,2,0,0,0,2,4v8a2,2,0,0,0,2,2H20a2,2,0,0,0,2-2V4A2,2,0,0,0,20,2ZM4,0A4,4,0,0,0,0,4v8a4,4,0,0,0,4,4H20a4,4,0,0,0,4-4V4a4,4,0,0,0-4-4Z" transform="translate(0 4)" fill="#777e90" fill-rule="evenodd"/>
  <path id="Shape-2" data-name="Shape" d="M0,1A1,1,0,0,1,1,0H3.5A1.5,1.5,0,0,1,5,1.5v2A1.5,1.5,0,0,1,3.5,5H2V6H4A1,1,0,0,1,4,8H1.5A1.5,1.5,0,0,1,0,6.5v-2A1.5,1.5,0,0,1,1.5,3H3V2H1A1,1,0,0,1,0,1Z" transform="translate(15 8)" fill="#777e90"/>
  <g id="Shape-3" data-name="Shape" transform="translate(11 9)">
    <path id="_93CCC4BA-42AF-42D5-AF4E-25D6C05554AB" data-name="93CCC4BA-42AF-42D5-AF4E-25D6C05554AB" d="M1,0A1,1,0,1,0,2,1,1,1,0,0,0,1,0Z" fill="#777e90"/>
    <path id="_0D9D8822-F45E-480C-851A-31B5B797938B" data-name="0D9D8822-F45E-480C-851A-31B5B797938B" d="M1,0A1,1,0,1,0,2,1,1,1,0,0,0,1,0Z" transform="translate(0 4)" fill="#777e90"/>
  </g>
  <path id="Shape-4" data-name="Shape" d="M2,0A1,1,0,0,1,3,1V6A1,1,0,0,1,3,8H1A1,1,0,0,1,1,6V2A1,1,0,0,1,1,0Z" transform="translate(5 8)" fill="#777e90"/>
</svg>
