<svg id="icons_Basketball_Hoop_Line" data-name="icons/Basketball Hoop/Line" xmlns="http://www.w3.org/2000/svg" width="24" height="24" viewBox="0 0 24 24">
  <path id="Shape" d="M17,2H3A1,1,0,0,0,2,3v8a1,1,0,0,0,1,1H17a1,1,0,0,0,1-1V3A1,1,0,0,0,17,2ZM3,0A3,3,0,0,0,0,3v8a3,3,0,0,0,3,3H17a3,3,0,0,0,3-3V3a3,3,0,0,0-3-3Z" transform="translate(2 2)" fill="#777e90" fill-rule="evenodd"/>
  <path id="Shape-2" data-name="Shape" d="M1,0A1,1,0,0,0,1,2v9a1,1,0,0,0,2,0V10H5v1a1,1,0,0,0,2,0V10H9v1a1,1,0,0,0,2,0V2a1,1,0,0,0,0-2ZM5,2H3V4H5ZM7,4V2H9V4ZM5,6H3V8H5ZM7,8V6H9V8Z" transform="translate(6 10)" fill="#777e90" fill-rule="evenodd"/>
</svg>
