<svg id="icons_File_Archive_Filled" data-name="icons/File Archive/Filled" xmlns="http://www.w3.org/2000/svg" width="24" height="24" viewBox="0 0 24 24">
  <path id="Shape" d="M5,.5A.5.5,0,0,0,4.5,0H3A3,3,0,0,0,0,3V19a3,3,0,0,0,3,3H4.5a.5.5,0,0,0,.5-.5v-1a.5.5,0,0,1,.5-.5h1a.5.5,0,0,1,.5.5v1a.5.5,0,0,0,.5.5H15a3,3,0,0,0,3-3V8a1,1,0,0,0-1-1H14a3,3,0,0,1-3-3V1a1,1,0,0,0-1-1H7.5A.5.5,0,0,0,7,.5v1a.5.5,0,0,1-.5.5h-1A.5.5,0,0,1,5,1.5ZM5.5,4a.5.5,0,0,0-.5.5v1a.5.5,0,0,0,.5.5h1A.5.5,0,0,0,7,5.5v-1A.5.5,0,0,0,6.5,4Zm2,2a.5.5,0,0,0-.5.5v1a.5.5,0,0,0,.5.5h1A.5.5,0,0,0,9,7.5v-1A.5.5,0,0,0,8.5,6ZM5,8.5A.5.5,0,0,1,5.5,8h1a.5.5,0,0,1,.5.5v1a.5.5,0,0,1-.5.5h-1A.5.5,0,0,1,5,9.5ZM7.5,10a.5.5,0,0,0-.5.5v1a.5.5,0,0,0,.5.5h1a.5.5,0,0,0,.5-.5v-1a.5.5,0,0,0-.5-.5ZM5,12.5a.5.5,0,0,1,.5-.5h1a.5.5,0,0,1,.5.5v1a.5.5,0,0,1-.5.5h-1a.5.5,0,0,1-.5-.5ZM7.5,14a.5.5,0,0,0-.5.5v1a.5.5,0,0,0,.5.5h1a.5.5,0,0,0,.5-.5v-1a.5.5,0,0,0-.5-.5ZM5,16.5a.5.5,0,0,1,.5-.5h1a.5.5,0,0,1,.5.5v1a.5.5,0,0,1-.5.5h-1a.5.5,0,0,1-.5-.5Zm2-14A.5.5,0,0,1,7.5,2h1a.5.5,0,0,1,.5.5v1a.5.5,0,0,1-.5.5h-1A.5.5,0,0,1,7,3.5Zm0,16a.5.5,0,0,1,.5-.5h1a.5.5,0,0,1,.5.5v1a.5.5,0,0,1-.5.5h-1a.5.5,0,0,1-.5-.5Z" transform="translate(3 1)" fill="#777e90" fill-rule="evenodd"/>
  <path id="Shape-2" data-name="Shape" d="M.977.052C.468-.162,0,.322,0,.874v3a1,1,0,0,0,1,1H4c.552,0,1.036-.468.822-.977a1.88,1.88,0,0,0-.408-.608L1.586.46A1.88,1.88,0,0,0,.977.052Z" transform="translate(16 1.126)" fill="#777e90"/>
</svg>
