<svg id="icons_Picker_Filled" data-name="icons/Picker/Filled" xmlns="http://www.w3.org/2000/svg" width="24" height="24" viewBox="0 0 24 24">
  <path id="Shape" d="M10.139.293l2.586,2.586a1,1,0,0,1,0,1.414l-4.3,4.3a10,10,0,0,1-2.215,1.671l-4.716,2.62a1,1,0,0,1-1.36-1.36L2.751,6.81A10,10,0,0,1,4.422,4.6l4.3-4.3A1,1,0,0,1,10.139.293Z" transform="translate(2.569 8.414)" fill="#777e90"/>
  <path id="Shape-2" data-name="Shape" d="M6.561,6.828l.75.75a1.061,1.061,0,0,1-1.5,1.5l-5.5-5.5a1.061,1.061,0,0,1,1.5-1.5l.75.75,2-2a2.828,2.828,0,0,1,4,4Z" transform="translate(12.439 2.172)" fill="#777e90"/>
</svg>
