<svg id="icons_Circle_Line" data-name="icons/Circle/Line" xmlns="http://www.w3.org/2000/svg" width="24" height="24" viewBox="0 0 24 24">
  <g id="icon" transform="translate(2 2)" fill="none" stroke-miterlimit="10">
    <path d="M20,10A10,10,0,1,1,10,0,10,10,0,0,1,20,10Z" stroke="none"/>
    <path d="M 10 2 C 5.588789939880371 2 2 5.588789939880371 2 10 C 2 14.41121006011963 5.588789939880371 18 10 18 C 14.41121006011963 18 18 14.41121006011963 18 10 C 18 5.588789939880371 14.41121006011963 2 10 2 M 10 0 C 15.52280044555664 0 20 4.477149963378906 20 10 C 20 15.52280044555664 15.52280044555664 20 10 20 C 4.477149963378906 20 0 15.52280044555664 0 10 C 0 4.477149963378906 4.477149963378906 0 10 0 Z" stroke="none" fill="#777e90"/>
  </g>
</svg>
