<svg id="icons_Stacked_Column_02_Up_Filled" data-name="icons/Stacked Column 02 Up/Filled" xmlns="http://www.w3.org/2000/svg" width="24" height="24" viewBox="0 0 24 24">
  <path id="Shape" d="M2,0A2,2,0,0,0,0,2V18a2,2,0,0,0,2,2H18a2,2,0,0,0,2-2V2a2,2,0,0,0-2-2ZM3,15a1,1,0,0,0,0,2H5a1,1,0,0,0,0-2ZM2,12a1,1,0,0,1,1-1H5a1,1,0,0,1,0,2H3A1,1,0,0,1,2,12Zm7,3a1,1,0,0,0,0,2h2a1,1,0,0,0,0-2ZM8,12a1,1,0,0,1,1-1h2a1,1,0,0,1,0,2H9A1,1,0,0,1,8,12ZM9,7A1,1,0,0,0,9,9h2a1,1,0,0,0,0-2Zm5,9a1,1,0,0,1,1-1h2a1,1,0,0,1,0,2H15A1,1,0,0,1,14,16Zm1-5a1,1,0,0,0,0,2h2a1,1,0,0,0,0-2ZM14,8a1,1,0,0,1,1-1h2a1,1,0,0,1,0,2H15A1,1,0,0,1,14,8Zm1-5a1,1,0,0,0,0,2h2a1,1,0,0,0,0-2Z" transform="translate(2 2)" fill="#777e90" fill-rule="evenodd"/>
</svg>
