<svg id="icons_Hand_Sanitizer_Filled" data-name="icons/Hand Sanitizer/Filled" xmlns="http://www.w3.org/2000/svg" width="24" height="24" viewBox="0 0 24 24">
  <path id="Shape" d="M6,0A2,2,0,0,0,4,2V3.341A6,6,0,0,0,0,9v8a3,3,0,0,0,3,3h8a3,3,0,0,0,3-3V9a6,6,0,0,0-4-5.659V2A2,2,0,0,0,8,0Z" transform="translate(5 4)" fill="#777e90"/>
  <path id="Shape-2" data-name="Shape" d="M2.121,2.293A1,1,0,0,1,2.828,2H4V4A1,1,0,0,0,6,4V2H8A1,1,0,0,0,8,0H2.828A3,3,0,0,0,.707.879l-.414.414A1,1,0,0,0,1.707,2.707Z" transform="translate(7)" fill="#777e90"/>
</svg>
