<svg id="icons_Star_Filled" data-name="icons/Star/Filled" xmlns="http://www.w3.org/2000/svg" width="24" height="24" viewBox="0 0 24 24">
  <path id="Shape" d="M9.536.6a1,1,0,0,1,1.836,0l2.18,5.052a1,1,0,0,0,.841.6l5.591.432a1,1,0,0,1,.56,1.768l-4.2,3.471a1,1,0,0,0-.334,1.011L17.3,18.168a1,1,0,0,1-1.478,1.1l-4.86-2.861a1,1,0,0,0-1.015,0L5.087,19.27a1,1,0,0,1-1.478-1.1L4.9,12.939a1,1,0,0,0-.334-1.011L.365,8.457a1,1,0,0,1,.56-1.768l5.591-.432a1,1,0,0,0,.841-.6Z" transform="translate(1.546 2.524)" fill="#777e90"/>
</svg>
