<svg id="icons_Glass_Filled" data-name="icons/Glass/Filled" xmlns="http://www.w3.org/2000/svg" width="24" height="24" viewBox="0 0 24 24">
  <path id="Shape" d="M1.1.032A.979.979,0,0,0,.092,1.1L1.18,14.161A2,2,0,0,0,3.173,16h8.32a2,2,0,0,0,1.993-1.834l.926-11.11a1.022,1.022,0,0,0-.979-1.1A28.452,28.452,0,0,1,7.09.965l-.015,0A26.48,26.48,0,0,0,1.1.032ZM5.333,6a1,1,0,1,0-1-1A1,1,0,0,0,5.333,6Zm5,4a1,1,0,1,1-1-1A1,1,0,0,1,10.333,10Z" transform="translate(4.667 8.005)" fill="#777e90" fill-rule="evenodd"/>
  <path id="Shape-2" data-name="Shape" d="M.024,3.372A3,3,0,0,1,3,0h9.561a3,3,0,0,1,2.99,3.249l-.319,3.834a1,1,0,0,1-1.993-.166l.319-3.834a1,1,0,0,0-1-1.083H3a1,1,0,0,0-.992,1.124l.219,1.752a1,1,0,0,1-1.985.248Z" transform="translate(4.265)" fill="#777e90"/>
</svg>
