<svg id="icons_Lock_Line" data-name="icons/Lock/Line" xmlns="http://www.w3.org/2000/svg" width="24" height="24" viewBox="0 0 24 24">
  <path id="Shape" d="M9,2c-1.773,0-3.352.065-4.642.147A2.382,2.382,0,0,0,2.106,4.373C2.043,5.237,2,6.148,2,7s.043,1.763.106,2.627a2.381,2.381,0,0,0,2.252,2.226C5.648,11.935,7.227,12,9,12s3.352-.065,4.642-.147a2.381,2.381,0,0,0,2.252-2.226C15.957,8.763,16,7.852,16,7s-.043-1.763-.106-2.627a2.381,2.381,0,0,0-2.252-2.226C12.352,2.065,10.773,2,9,2ZM4.232.151A4.381,4.381,0,0,0,.111,4.229C.047,5.123,0,6.085,0,7S.047,8.877.111,9.771a4.381,4.381,0,0,0,4.12,4.078C5.558,13.934,7.179,14,9,14s3.442-.066,4.769-.151a4.381,4.381,0,0,0,4.12-4.078C17.954,8.877,18,7.915,18,7s-.046-1.877-.111-2.771A4.381,4.381,0,0,0,13.769.151C12.442.066,10.821,0,9,0S5.558.066,4.232.151Z" transform="translate(3 9)" fill="#777e90" fill-rule="evenodd"/>
  <path id="Shape-2" data-name="Shape" d="M3,3.732a2,2,0,1,0-2,0V5A1,1,0,0,0,3,5Z" transform="translate(10 13)" fill="#777e90"/>
  <path id="Shape-3" data-name="Shape" d="M0,5A5,5,0,0,1,10,5V9A1,1,0,0,1,8,9V5A3,3,0,0,0,2,5V9A1,1,0,0,1,0,9Z" transform="translate(7 1)" fill="#777e90"/>
</svg>
