<svg id="icons_Folder_Line" data-name="icons/Folder/Line" xmlns="http://www.w3.org/2000/svg" width="24" height="24" viewBox="0 0 24 24">
  <path id="Shape" d="M10.868,5,9.7,3.046A1.669,1.669,0,0,0,8.5,2.21,24.415,24.415,0,0,0,5.5,2c-.733,0-1.481.048-2.165.115A1.247,1.247,0,0,0,2.19,3.3C2.09,4.609,2,6.483,2,9c0,1.773.065,3.352.147,4.642a2.3,2.3,0,0,0,2.2,2.183C6,15.92,8.213,16,11,16s5-.08,6.65-.175a2.3,2.3,0,0,0,2.2-2.183C19.935,12.352,20,10.773,20,9c0-.966-.056-1.883-.13-2.672a1.3,1.3,0,0,0-1.2-1.2C17.883,5.056,16.966,5,16,5ZM12,3l-.59-.983A3.665,3.665,0,0,0,8.752.226,26.4,26.4,0,0,0,5.5,0C4.684,0,3.868.053,3.139.125A3.246,3.246,0,0,0,.2,3.146C.091,4.51,0,6.435,0,9c0,1.821.066,3.442.151,4.769a4.3,4.3,0,0,0,4.084,4.053C5.92,17.919,8.175,18,11,18s5.08-.081,6.765-.179a4.3,4.3,0,0,0,4.084-4.053C21.934,12.442,22,10.821,22,9c0-1.041-.06-2.022-.139-2.859a3.3,3.3,0,0,0-3-3C18.022,3.06,17.041,3,16,3Z" transform="translate(1 3)" fill="#777e90" fill-rule="evenodd"/>
</svg>
