<svg id="icons_File_Alert_Line" data-name="icons/File Alert/Line" xmlns="http://www.w3.org/2000/svg" width="24" height="24" viewBox="0 0 24 24">
  <path id="Shape" d="M0,4A4,4,0,0,1,4,0h8.343a4,4,0,0,1,2.829,1.172l1.657,1.657A4,4,0,0,1,18,5.657V18a4,4,0,0,1-4,4H4a4,4,0,0,1-4-4ZM16,7V18a2,2,0,0,1-2,2H4a2,2,0,0,1-2-2V4A2,2,0,0,1,4,2h7V4a3,3,0,0,0,3,3Zm-.111-2a2,2,0,0,0-.475-.757L13.757,2.586A2,2,0,0,0,13,2.111V4a1,1,0,0,0,1,1Z" transform="translate(3 1)" fill="#777e90" fill-rule="evenodd"/>
  <g id="Shape-2" data-name="Shape" transform="translate(11 9)">
    <path id="_8697F5C7-817A-4E41-8776-12FCCB8A5626" data-name="8697F5C7-817A-4E41-8776-12FCCB8A5626" d="M1,0A1,1,0,0,0,0,1V5A1,1,0,0,0,2,5V1A1,1,0,0,0,1,0Z" fill="#777e90"/>
    <path id="_39DE522C-6890-4EE9-894E-19BDF4FC5968" data-name="39DE522C-6890-4EE9-894E-19BDF4FC5968" d="M1,0A1,1,0,1,0,2,1,1,1,0,0,0,1,0Z" transform="translate(0 7)" fill="#777e90"/>
  </g>
</svg>
