<svg id="icons_Shopping_Tag_Line" data-name="icons/Shopping Tag/Line" xmlns="http://www.w3.org/2000/svg" width="24" height="24" viewBox="0 0 24 24">
  <path id="Shape" d="M8.586,1.172A4,4,0,0,1,11.414,0h5.757a3,3,0,0,1,3,3V8.757A4,4,0,0,1,19,11.586l-7.707,7.707a3,3,0,0,1-4.243,0L.879,13.121a3,3,0,0,1,0-4.243ZM11.414,2A2,2,0,0,0,10,2.586L2.293,10.293a1,1,0,0,0,0,1.414l6.172,6.172a1,1,0,0,0,1.414,0l7.707-7.707a2,2,0,0,0,.586-1.414V3a1,1,0,0,0-1-1Z" transform="translate(1.828 2)" fill="#777e90" fill-rule="evenodd"/>
  <path id="Shape-2" data-name="Shape" d="M0,1.414,1.414,0,11.828,10.414l-1.414,1.414Z" transform="translate(3.586 8.586)" fill="#777e90"/>
  <path id="Shape-3" data-name="Shape" d="M3,4A1,1,0,1,0,2,3,1,1,0,0,0,3,4ZM3,6A3,3,0,1,0,0,3,3,3,0,0,0,3,6Z" transform="translate(12 6)" fill="#777e90" fill-rule="evenodd"/>
</svg>
