<svg id="icons_Paint_Bucket_Filled" data-name="icons/Paint Bucket/Filled" xmlns="http://www.w3.org/2000/svg" width="24" height="24" viewBox="0 0 24 24">
  <path id="Shape" d="M4,2.872a2,2,0,1,1-4,0C0,1.731,1.157.59,1.711.109a.437.437,0,0,1,.578,0C2.843.59,4,1.731,4,2.872Z" transform="translate(18 17.128)" fill="#777e90"/>
  <path id="Shape-2" data-name="Shape" d="M10.233,1.06A4.95,4.95,0,0,0,3.207,7.914L.586,10.535a2,2,0,0,0,0,2.828l6.172,6.172a2,2,0,0,0,2.828,0l6.372-6.372a1,1,0,0,1,.511-.274l2.871-.574a1,1,0,0,0,.511-1.688L11.122,1.9l-.128-.13A8.353,8.353,0,0,0,10.233,1.06ZM8.7,2.424,4.646,6.475A2.951,2.951,0,0,1,8.7,2.424Zm4.018,11.4a.5.5,0,0,0-.336-.87H3.965a.5.5,0,0,0-.336.87L7.5,17.338a1,1,0,0,0,1.345,0Z" transform="translate(1.828 2.05)" fill="#777e90" fill-rule="evenodd"/>
</svg>
