<svg id="icons_Grid_Line" data-name="icons/Grid/Line" xmlns="http://www.w3.org/2000/svg" width="24" height="24" viewBox="0 0 24 24">
  <path id="Shape" d="M4.5,2a14.238,14.238,0,0,0-1.756.154.683.683,0,0,0-.59.59A14.238,14.238,0,0,0,2,4.5a14.238,14.238,0,0,0,.154,1.756.683.683,0,0,0,.59.59A14.238,14.238,0,0,0,4.5,7a14.238,14.238,0,0,0,1.756-.154.683.683,0,0,0,.59-.59A14.238,14.238,0,0,0,7,4.5a14.238,14.238,0,0,0-.154-1.756.683.683,0,0,0-.59-.59A14.238,14.238,0,0,0,4.5,2ZM2.472.172a2.683,2.683,0,0,0-2.3,2.3A16.085,16.085,0,0,0,0,4.5,16.085,16.085,0,0,0,.172,6.528a2.683,2.683,0,0,0,2.3,2.3A16.086,16.086,0,0,0,4.5,9a16.086,16.086,0,0,0,2.028-.172,2.683,2.683,0,0,0,2.3-2.3A16.086,16.086,0,0,0,9,4.5a16.086,16.086,0,0,0-.172-2.028,2.683,2.683,0,0,0-2.3-2.3A16.085,16.085,0,0,0,4.5,0,16.085,16.085,0,0,0,2.472.172Z" transform="translate(13 13)" fill="#777e90" fill-rule="evenodd"/>
  <path id="Shape-2" data-name="Shape" d="M4.5,2a14.238,14.238,0,0,0-1.756.154.683.683,0,0,0-.59.59A14.238,14.238,0,0,0,2,4.5a14.238,14.238,0,0,0,.154,1.756.683.683,0,0,0,.59.59A14.238,14.238,0,0,0,4.5,7a14.238,14.238,0,0,0,1.756-.154.683.683,0,0,0,.59-.59A14.238,14.238,0,0,0,7,4.5a14.238,14.238,0,0,0-.154-1.756.683.683,0,0,0-.59-.59A14.238,14.238,0,0,0,4.5,2ZM2.472.172a2.683,2.683,0,0,0-2.3,2.3A16.085,16.085,0,0,0,0,4.5,16.085,16.085,0,0,0,.172,6.528a2.683,2.683,0,0,0,2.3,2.3A16.086,16.086,0,0,0,4.5,9a16.086,16.086,0,0,0,2.028-.172,2.683,2.683,0,0,0,2.3-2.3A16.086,16.086,0,0,0,9,4.5a16.086,16.086,0,0,0-.172-2.028,2.683,2.683,0,0,0-2.3-2.3A16.085,16.085,0,0,0,4.5,0,16.085,16.085,0,0,0,2.472.172Z" transform="translate(2 13)" fill="#777e90" fill-rule="evenodd"/>
  <path id="Shape-3" data-name="Shape" d="M4.5,2a14.238,14.238,0,0,0-1.756.154.683.683,0,0,0-.59.59A14.238,14.238,0,0,0,2,4.5a14.238,14.238,0,0,0,.154,1.756.683.683,0,0,0,.59.59A14.238,14.238,0,0,0,4.5,7a14.238,14.238,0,0,0,1.756-.154.683.683,0,0,0,.59-.59A14.238,14.238,0,0,0,7,4.5a14.238,14.238,0,0,0-.154-1.756.683.683,0,0,0-.59-.59A14.238,14.238,0,0,0,4.5,2ZM2.472.172a2.683,2.683,0,0,0-2.3,2.3A16.085,16.085,0,0,0,0,4.5,16.085,16.085,0,0,0,.172,6.528a2.683,2.683,0,0,0,2.3,2.3A16.086,16.086,0,0,0,4.5,9a16.086,16.086,0,0,0,2.028-.172,2.683,2.683,0,0,0,2.3-2.3A16.086,16.086,0,0,0,9,4.5a16.086,16.086,0,0,0-.172-2.028,2.683,2.683,0,0,0-2.3-2.3A16.085,16.085,0,0,0,4.5,0,16.085,16.085,0,0,0,2.472.172Z" transform="translate(13 2)" fill="#777e90" fill-rule="evenodd"/>
  <path id="Shape-4" data-name="Shape" d="M4.5,2a14.238,14.238,0,0,0-1.756.154.683.683,0,0,0-.59.59A14.238,14.238,0,0,0,2,4.5a14.238,14.238,0,0,0,.154,1.756.683.683,0,0,0,.59.59A14.238,14.238,0,0,0,4.5,7a14.238,14.238,0,0,0,1.756-.154.683.683,0,0,0,.59-.59A14.238,14.238,0,0,0,7,4.5a14.238,14.238,0,0,0-.154-1.756.683.683,0,0,0-.59-.59A14.238,14.238,0,0,0,4.5,2ZM2.472.172a2.683,2.683,0,0,0-2.3,2.3A16.085,16.085,0,0,0,0,4.5,16.085,16.085,0,0,0,.172,6.528a2.683,2.683,0,0,0,2.3,2.3A16.086,16.086,0,0,0,4.5,9a16.086,16.086,0,0,0,2.028-.172,2.683,2.683,0,0,0,2.3-2.3A16.086,16.086,0,0,0,9,4.5a16.086,16.086,0,0,0-.172-2.028,2.683,2.683,0,0,0-2.3-2.3A16.085,16.085,0,0,0,4.5,0,16.085,16.085,0,0,0,2.472.172Z" transform="translate(2 2)" fill="#777e90" fill-rule="evenodd"/>
</svg>
