<svg id="icons_User_Filled" data-name="icons/User/Filled" xmlns="http://www.w3.org/2000/svg" width="24" height="24" viewBox="0 0 24 24">
  <path id="Shape" d="M15.818.553a2,2,0,0,0-2.5-.225A8.959,8.959,0,0,1,9,1.428,8.96,8.96,0,0,1,4.685.328a2,2,0,0,0-2.5.225A8.965,8.965,0,0,0,0,6.428v1a2,2,0,0,0,2,2H16a2,2,0,0,0,2-2v-1A8.965,8.965,0,0,0,15.818.553Z" transform="translate(3 13.572)" fill="#777e90"/>
  <path id="Shape-2" data-name="Shape" d="M10,5A5,5,0,1,1,5,0,5,5,0,0,1,10,5Z" transform="translate(7 1)" fill="#777e90"/>
</svg>
