<svg id="icons_Tie_Filled" data-name="icons/Tie/Filled" xmlns="http://www.w3.org/2000/svg" width="24" height="24" viewBox="0 0 24 24">
  <path id="Shape" d="M4.538,1.961.724.054A.5.5,0,0,0,.016.623L.7,3.345a.5.5,0,0,0,.261.326l2.18,1.09a1.565,1.565,0,1,0,1.4-2.8Z" transform="translate(14.248 10.432)" fill="#777e90"/>
  <path id="Shape-2" data-name="Shape" d="M2.685.757A1,1,0,0,1,3.655,0H6.093a1,1,0,0,1,.97.757l2.655,10.62A1,1,0,0,1,9.373,12.4L5.5,15.5a1,1,0,0,1-1.249,0L.375,12.4A1,1,0,0,1,.03,11.378Z" transform="translate(4.126 8)" fill="#777e90"/>
  <path id="Shape-3" data-name="Shape" d="M.606.553A1,1,0,0,1,1.5,0H6.264a1,1,0,0,1,.894.553l.5,1a1,1,0,0,1,0,.894l-1.5,3A1,1,0,0,1,5.264,6H2.5a1,1,0,0,1-.894-.553l-1.5-3a1,1,0,0,1,0-.894Z" transform="translate(5.118)" fill="#777e90"/>
</svg>
