<svg id="icons_Quote_Filled" data-name="icons/Quote/Filled" xmlns="http://www.w3.org/2000/svg" width="24" height="24" viewBox="0 0 24 24">
  <path id="Exclude" d="M.8,3C0,4.392,0,6.262,0,10s0,5.608.8,7A6,6,0,0,0,3,19.2c1.392.8,3.262.8,7,.8s5.608,0,7-.8A6,6,0,0,0,19.2,17c.8-1.392.8-3.262.8-7s0-5.608-.8-7A6,6,0,0,0,17,.8C15.608,0,13.738,0,10,0S4.392,0,3,.8A6,6,0,0,0,.8,3Zm4.708,7.31A3.245,3.245,0,0,1,6.268,7.3a5.318,5.318,0,0,1,1.7-1.421.409.409,0,0,0,.186-.545.373.373,0,0,0-.5-.166,6.8,6.8,0,0,0-2.662,2.32A6.3,6.3,0,0,0,4,10.972c0,2,.929,3.78,2.948,3.78a2.469,2.469,0,0,0,2.135-1.209,2.563,2.563,0,0,0-.378-3.071A2.465,2.465,0,0,0,5.512,10.31Zm6.576,0A3.245,3.245,0,0,1,12.844,7.3a5.319,5.319,0,0,1,1.7-1.421.409.409,0,0,0,.186-.545.373.373,0,0,0-.5-.166,6.8,6.8,0,0,0-2.662,2.32,6.3,6.3,0,0,0-.992,3.487c0,2,.929,3.78,2.948,3.78A2.428,2.428,0,0,0,16,12.276,2.359,2.359,0,0,0,13.524,9.8,2.3,2.3,0,0,0,12.088,10.31Z" transform="translate(2 2)" fill="#777e90" fill-rule="evenodd"/>
</svg>
