<svg id="icons_Stacked_Column_02_Down_Filled" data-name="icons/Stacked Column 02 Down/Filled" xmlns="http://www.w3.org/2000/svg" width="24" height="24" viewBox="0 0 24 24">
  <path id="Shape" d="M18,0a2,2,0,0,1,2,2V18a2,2,0,0,1-2,2H2a2,2,0,0,1-2-2V2A2,2,0,0,1,2,0ZM17,15a1,1,0,0,1,0,2H15a1,1,0,0,1,0-2Zm1-3a1,1,0,0,0-1-1H15a1,1,0,0,0,0,2h2A1,1,0,0,0,18,12Zm-7,3a1,1,0,0,1,0,2H9a1,1,0,0,1,0-2Zm1-3a1,1,0,0,0-1-1H9a1,1,0,0,0,0,2h2A1,1,0,0,0,12,12ZM11,7a1,1,0,0,1,0,2H9A1,1,0,0,1,9,7ZM6,16a1,1,0,0,0-1-1H3a1,1,0,0,0,0,2H5A1,1,0,0,0,6,16ZM5,11a1,1,0,0,1,0,2H3a1,1,0,0,1,0-2ZM6,8A1,1,0,0,0,5,7H3A1,1,0,0,0,3,9H5A1,1,0,0,0,6,8ZM5,3A1,1,0,0,1,5,5H3A1,1,0,0,1,3,3Z" transform="translate(2 2)" fill="#777e90" fill-rule="evenodd"/>
</svg>
