<svg id="icons_Sticky_Note_Line" data-name="icons/Sticky Note/Line" xmlns="http://www.w3.org/2000/svg" width="24" height="24" viewBox="0 0 24 24">
  <path id="Shape" d="M0,4A4,4,0,0,1,4,0H16a4,4,0,0,1,4,4v8.343a4,4,0,0,1-1.172,2.829l-3.657,3.657A4,4,0,0,1,12.343,20H4a4,4,0,0,1-4-4ZM11,18H4a2,2,0,0,1-2-2V4A2,2,0,0,1,4,2H16a2,2,0,0,1,2,2v7H14a3,3,0,0,0-3,3Zm2-.111a2,2,0,0,0,.757-.475l3.657-3.657A2,2,0,0,0,17.889,13H14a1,1,0,0,0-1,1Z" transform="translate(2 2)" fill="#777e90" fill-rule="evenodd"/>
</svg>
