<svg id="icons_Picker_Line" data-name="icons/Picker/Line" xmlns="http://www.w3.org/2000/svg" width="24" height="24" viewBox="0 0 24 24">
  <path id="Shape" d="M9.835,0l6,6L9.7,12.14a8.286,8.286,0,0,1-1.931,1.437L4.2,15.494A2.851,2.851,0,0,1,.341,11.632L2.258,8.071A8.288,8.288,0,0,1,3.7,6.14Zm0,2.828L5.109,7.554a6.287,6.287,0,0,0-1.09,1.465L2.1,12.58a.851.851,0,0,0,1.153,1.153l3.561-1.918a6.287,6.287,0,0,0,1.465-1.09L13.007,6Z" transform="translate(2.165 6)" fill="#777e90" fill-rule="evenodd"/>
  <path id="Shape-2" data-name="Shape" d="M8.561,9.743l2.5-2.5a4.243,4.243,0,1,0-6-6l-2.5,2.5-.75-.75a1.061,1.061,0,0,0-1.5,1.5l7.5,7.5a1.061,1.061,0,0,0,1.5-1.5ZM3.975,5.157,7.146,8.329l2.5-2.5A2.243,2.243,0,0,0,6.475,2.657Z" transform="translate(9.439 2.257)" fill="#777e90" fill-rule="evenodd"/>
</svg>
