<svg id="icons_Hat_Chef_Line" data-name="icons/Hat Chef/Line" xmlns="http://www.w3.org/2000/svg" width="24" height="24" viewBox="0 0 24 24">
  <path id="Shape" d="M15,2a5.027,5.027,0,0,0-.936.087,5,5,0,0,0-8.129,0A5,5,0,0,0,3,11.584V17a3,3,0,0,0,3,3h8a3,3,0,0,0,3-3V11.584A5,5,0,0,0,15,2ZM12.44,3.254l.744,1.036,1.253-.237a3,3,0,0,1,1.763,5.7l-1.2.524V14H5V10.275L3.8,9.751a3,3,0,0,1,1.763-5.7l1.253.237L7.56,3.254a3,3,0,0,1,4.88,0ZM5,16v1a1,1,0,0,0,1,1h8a1,1,0,0,0,1-1V16Z" transform="translate(2 2)" fill="#777e90" fill-rule="evenodd"/>
</svg>
