<svg id="Icons_Foursquare_Line" data-name="Icons/Foursquare/Line" xmlns="http://www.w3.org/2000/svg" xmlns:xlink="http://www.w3.org/1999/xlink" width="24" height="24" viewBox="0 0 24 24">
  <defs>
    <clipPath id="clip-path">
      <rect id="Icons_Foursquare_Line_clip_mask_" data-name="Icons/Foursquare/Line (clip mask)" width="24" height="24" fill="none"/>
    </clipPath>
  </defs>
  <rect id="Icons_Foursquare_Line_clip_mask_2" data-name="Icons/Foursquare/Line (clip mask)" width="24" height="24" fill="none"/>
  <g id="Group_3" data-name="Group 3">
    <g id="Mask_Group_59" data-name="Mask Group 59" clip-path="url(#clip-path)">
      <g id="Icons_Foursquare_Line_clip_group_" data-name="Icons/Foursquare/Line (clip group)" transform="translate(4)">
        <g id="Group">
          <path id="Vector" d="M3,0A3,3,0,0,0,0,3V23a1,1,0,0,0,1.753.659l6.4-7.317A1,1,0,0,1,8.908,16h2.476a3,3,0,0,0,2.933-2.371l2.143-10A3,3,0,0,0,13.526,0ZM2,3A1,1,0,0,1,3,2H13.526A1,1,0,0,1,14.5,3.21L13.692,7H8A1,1,0,0,0,8,9h5.263l-.9,4.21a1,1,0,0,1-.978.79H8.908A3,3,0,0,0,6.65,15.024L2,20.339Z" fill="#777e90" fill-rule="evenodd"/>
        </g>
      </g>
    </g>
  </g>
</svg>
