<svg id="icons_Serving_Plate_Filled" data-name="icons/Serving Plate/Filled" xmlns="http://www.w3.org/2000/svg" width="24" height="24" viewBox="0 0 24 24">
  <path id="Shape" d="M.8,0A.8.8,0,0,0,0,.8,3.2,3.2,0,0,0,3.2,4H16.8A3.2,3.2,0,0,0,20,.8a.8.8,0,0,0-.8-.8Z" transform="translate(2 18)" fill="#777e90"/>
  <path id="Shape-2" data-name="Shape" d="M11.655,4.4a3,3,0,1,0-5.31,0A9,9,0,0,0,0,13v.524A.476.476,0,0,0,.476,14H17.524A.476.476,0,0,0,18,13.524V13A9,9,0,0,0,11.655,4.4ZM10,3A1,1,0,1,1,9,2,1,1,0,0,1,10,3Z" transform="translate(3 2)" fill="#777e90" fill-rule="evenodd"/>
</svg>
