<svg id="icons_Home_Filled" data-name="icons/Home/Filled" xmlns="http://www.w3.org/2000/svg" width="24" height="24" viewBox="0 0 24 24">
  <path id="Shape" d="M19,16.645V6.811l1.486.891a1,1,0,0,0,1.029-1.715L16.493,2.974,12.652.66h0c-.279-.168-.493-.3-.675-.394Q11.913.23,11.847.2a1.839,1.839,0,0,0-.417-.153,2,2,0,0,0-.861,0A1.842,1.842,0,0,0,10.152.2q-.064.03-.127.065c-.182.1-.4.226-.676.4h0L5.5,2.978.486,5.987A1,1,0,1,0,1.515,7.7L3,6.811v9.834a4.969,4.969,0,0,0,.218,2.108,2,2,0,0,0,.874.874,4.968,4.968,0,0,0,2.108.218H8v-6a3,3,0,1,1,6,0v6h1.8a4.968,4.968,0,0,0,2.108-.218,2,2,0,0,0,.874-.874A4.968,4.968,0,0,0,19,16.645Z" transform="translate(1 2.155)" fill="#777e90"/>
</svg>
