<svg id="Icons_Sketch_Filled" data-name="Icons/Sketch/Filled" xmlns="http://www.w3.org/2000/svg" width="24" height="24" viewBox="0 0 24 24">
  <path id="Vector" d="M2.878.748A.5.5,0,0,0,2.361.007L.418.331a.5.5,0,0,0-.4.637L.627,2.986a.5.5,0,0,0,.913.1Z" transform="translate(7.327 2.378)" fill="#777e90"/>
  <path id="Vector-2" data-name="Vector" d="M3.332.354A.487.487,0,0,0,2.495.169C1.71,1.081.968,2.038.2,2.96q-.064.077-.122.157a.416.416,0,0,0,.382.645H3.682a.5.5,0,0,0,.479-.644Z" transform="translate(2.302 4.238)" fill="#777e90"/>
  <path id="Vector-3" data-name="Vector" d="M.462,0A.423.423,0,0,0,.055.619,3.015,3.015,0,0,0,.234.892L7.427,10.7a3.038,3.038,0,0,0,.4.443c.311.285.7-.043.576-.447L5.211.353A.5.5,0,0,0,4.733,0Z" transform="translate(2.154 10)" fill="#777e90"/>
  <path id="Vector-4" data-name="Vector" d="M.024,10.7c-.124.4.265.732.576.447A3.044,3.044,0,0,0,1,10.7L8.189.892A3,3,0,0,0,8.367.619.423.423,0,0,0,7.961,0H3.69a.5.5,0,0,0-.478.353Z" transform="translate(13.424 10)" fill="#777e90"/>
  <path id="Vector-5" data-name="Vector" d="M3.722,3.762A.416.416,0,0,0,4.1,3.117q-.058-.08-.122-.157C3.214,2.038,2.473,1.081,1.688.169A.487.487,0,0,0,.851.354L.021,3.119A.5.5,0,0,0,.5,3.762Z" transform="translate(17.516 4.238)" fill="#777e90"/>
  <path id="Vector-6" data-name="Vector" d="M2.527.331a.5.5,0,0,1,.4.637L2.318,2.986a.5.5,0,0,1-.913.1L.067.748A.5.5,0,0,1,.583.007Z" transform="translate(13.729 2.378)" fill="#777e90"/>
  <path id="Vector-7" data-name="Vector" d="M1.916,0,3.765,3.236a.5.5,0,0,1-.434.748H.5a.5.5,0,0,1-.434-.748Z" transform="translate(10.084 4.016)" fill="#777e90"/>
  <path id="Vector-8" data-name="Vector" d="M2.947,7.046a.5.5,0,0,1-.956,0L.022.647A.5.5,0,0,1,.5,0H4.438a.5.5,0,0,1,.478.647Z" transform="translate(9.531 10)" fill="#777e90"/>
</svg>
