<svg id="icons_Building_Line" data-name="icons/Building/Line" xmlns="http://www.w3.org/2000/svg" width="24" height="24" viewBox="0 0 24 24">
  <path id="Shape" d="M7,2H2v8H7A1,1,0,0,0,8,9V3A1,1,0,0,0,7,2ZM0,0V12H7a3,3,0,0,0,3-3V3A3,3,0,0,0,7,0Z" transform="translate(12 10)" fill="#777e90" fill-rule="evenodd"/>
  <g id="Shape-2" data-name="Shape" transform="translate(16 14)">
    <path id="_746334CB-1D6C-4021-82C2-A8EDAD9DC1AC" data-name="746334CB-1D6C-4021-82C2-A8EDAD9DC1AC" d="M2,1A1,1,0,1,0,1,2,1,1,0,0,0,2,1Z" fill="#777e90"/>
    <path id="A702BAA8-94B0-4D01-BD14-8B3F73846873" d="M2,1A1,1,0,1,0,1,2,1,1,0,0,0,2,1Z" transform="translate(0 3)" fill="#777e90"/>
  </g>
  <path id="Shape-3" data-name="Shape" d="M3,20a3,3,0,0,1-3-3V3A3,3,0,0,1,3,0H9a3,3,0,0,1,3,3V20ZM3,2H9a1,1,0,0,1,1,1V18H8V17a1,1,0,0,0-1-1H5a1,1,0,0,0-1,1v1H3a1,1,0,0,1-1-1V3A1,1,0,0,1,3,2Z" transform="translate(2 2)" fill="#777e90" fill-rule="evenodd"/>
  <g id="Shape-4" data-name="Shape" transform="translate(6 6)">
    <path id="_91B2D669-74CB-472C-9EAF-FA499C89A44E" data-name="91B2D669-74CB-472C-9EAF-FA499C89A44E" d="M3,0A1,1,0,0,1,3,2H1A1,1,0,0,1,1,0Z" fill="#777e90"/>
    <path id="BFF4C215-E86E-4DFF-904D-47D9CC2A23B4" d="M3,0A1,1,0,0,1,3,2H1A1,1,0,0,1,1,0Z" transform="translate(0 4)" fill="#777e90"/>
    <path id="_78ED1F18-AE22-42F4-BBBF-B06790D4CBBB" data-name="78ED1F18-AE22-42F4-BBBF-B06790D4CBBB" d="M4,1A1,1,0,0,0,3,0H1A1,1,0,0,0,1,2H3A1,1,0,0,0,4,1Z" transform="translate(0 8)" fill="#777e90"/>
  </g>
</svg>
