<svg id="icons_Pencil_Line" data-name="icons/Pencil/Line" xmlns="http://www.w3.org/2000/svg" width="24" height="24" viewBox="0 0 24 24">
  <path id="Shape" d="M.074,16.241.8,12.98a4,4,0,0,1,1.076-1.961l9.848-9.848a4,4,0,0,1,5.657,0l1.343,1.343a4,4,0,0,1,0,5.657L8.875,18.02A4,4,0,0,1,6.914,19.1l-3.261.725A3,3,0,0,1,.074,16.241Zm2.677-2.827-.725,3.261a1,1,0,0,0,1.193,1.193l3.261-.725a2,2,0,0,0,.949-.508L3.258,12.465A2,2,0,0,0,2.751,13.414ZM4.672,11.05l4.172,4.172,5.586-5.586L10.258,5.465ZM17.308,6.757,15.844,8.222,11.672,4.05l1.465-1.465a2,2,0,0,1,2.828,0l1.343,1.343A2,2,0,0,1,17.308,6.757Z" transform="translate(1.949 2.157)" fill="#777e90" fill-rule="evenodd"/>
</svg>
