<svg id="icons_Calculator_Filled" data-name="icons/Calculator/Filled" xmlns="http://www.w3.org/2000/svg" width="24" height="24" viewBox="0 0 24 24">
  <path id="Shape" d="M4.542.369A4.811,4.811,0,0,0,.369,4.542,42.089,42.089,0,0,0,0,10a42.091,42.091,0,0,0,.369,5.458,4.811,4.811,0,0,0,4.173,4.173A42.082,42.082,0,0,0,10,20a42.084,42.084,0,0,0,5.458-.369,4.811,4.811,0,0,0,4.173-4.173A42.084,42.084,0,0,0,20,10a42.082,42.082,0,0,0-.369-5.458A4.811,4.811,0,0,0,15.458.369,42.091,42.091,0,0,0,10,0,42.089,42.089,0,0,0,4.542.369ZM14,9a1,1,0,0,1-1-1V7H12a1,1,0,0,1,0-2h1V4a1,1,0,0,1,2,0V5h1a1,1,0,0,1,0,2H15V8A1,1,0,0,1,14,9ZM4,5A1,1,0,0,0,4,7H8A1,1,0,0,0,8,5Zm8,6a1,1,0,0,0,0,2h4a1,1,0,0,0,0-2Zm0,4a1,1,0,0,0,0,2h4a1,1,0,0,0,0-2ZM5.207,11.793a1,1,0,1,0-1.414,1.414L4.586,14l-.793.793a1,1,0,0,0,1.414,1.414L6,15.414l.793.793a1,1,0,0,0,1.414-1.414L7.414,14l.793-.793a1,1,0,1,0-1.414-1.414L6,12.586Z" transform="translate(2 2)" fill="#777e90" fill-rule="evenodd"/>
</svg>
