<svg id="icons_Volume_Mute_Line" data-name="icons/Volume Mute/Line" xmlns="http://www.w3.org/2000/svg" width="24" height="24" viewBox="0 0 24 24">
  <path id="Shape" d="M7.293.293A1,1,0,1,1,8.707,1.707L5.914,4.5,8.707,7.293A1,1,0,1,1,7.293,8.707L4.5,5.914,1.707,8.707A1,1,0,1,1,.293,7.293L3.086,4.5.293,1.707A1,1,0,0,1,1.707.293L4.5,3.086Z" transform="translate(15 7)" fill="#777e90"/>
  <path id="Shape-2" data-name="Shape" d="M5.828,5.763H3a1,1,0,0,0-1,1v2a1,1,0,0,0,1,1H5.828l3.464,3.464A1,1,0,0,0,11,12.521V3.006A1,1,0,0,0,9.293,2.3Zm-.828,6,2.879,2.879A3,3,0,0,0,13,12.521V3.006A3,3,0,0,0,7.879.885L5,3.763H3a3,3,0,0,0-3,3v2a3,3,0,0,0,3,3Z" transform="translate(0 4.237)" fill="#777e90" fill-rule="evenodd"/>
</svg>
