<svg id="icons_Toilet_Paper_Filled" data-name="icons/Toilet Paper/Filled" xmlns="http://www.w3.org/2000/svg" width="24" height="24" viewBox="0 0 24 24">
  <path id="Shape" d="M4,14H8V7C8,3.134,6.209,0,4,0S0,3.134,0,7,1.791,14,4,14ZM4,9c.552,0,1-.9,1-2S4.552,5,4,5,3,5.9,3,7,3.448,9,4,9Z" transform="translate(2 2)" fill="#777e90" fill-rule="evenodd"/>
  <path id="Shape-2" data-name="Shape" d="M0,0C2.209,0,3,4,3,7v5H4a1,1,0,0,1,0,2H3v4a2,2,0,0,0,2,2h6a2,2,0,0,0,2-2V14H12a1,1,0,0,1,0-2h1V7a8.5,8.5,0,0,0-1.433-4.889A4.51,4.51,0,0,0,8,0ZM7,13a1,1,0,1,1,1,1A1,1,0,0,1,7,13Z" transform="translate(9 2)" fill="#777e90" fill-rule="evenodd"/>
</svg>
