<svg id="icons_Hospital_Building_Line" data-name="icons/Hospital Building/Line" xmlns="http://www.w3.org/2000/svg" width="24" height="24" viewBox="0 0 24 24">
  <path id="Shape" d="M4,6V3A3,3,0,0,1,7,0h8a3,3,0,0,1,3,3V6h1a3,3,0,0,1,3,3v6a3,3,0,0,1-3,3H3a3,3,0,0,1-3-3V9A3,3,0,0,1,3,6ZM7,2h8a1,1,0,0,1,1,1V16H6V3A1,1,0,0,1,7,2ZM4,8H3A1,1,0,0,0,2,9v6a1,1,0,0,0,1,1H4Zm14,8h1a1,1,0,0,0,1-1V9a1,1,0,0,0-1-1H18Z" transform="translate(1 3)" fill="#777e90" fill-rule="evenodd"/>
  <path id="Shape-2" data-name="Shape" d="M0,1A1,1,0,0,1,1,0H3A1,1,0,0,1,4,1V5H0Z" transform="translate(10 16)" fill="#777e90"/>
  <path id="Shape-3" data-name="Shape" d="M3,0A1,1,0,0,0,2,1V2H1A1,1,0,0,0,1,4H2V5A1,1,0,0,0,4,5V4H5A1,1,0,0,0,5,2H4V1A1,1,0,0,0,3,0Z" transform="translate(9 7)" fill="#777e90"/>
</svg>
