<svg id="icons_Monitor_Filled" data-name="icons/Monitor/Filled" xmlns="http://www.w3.org/2000/svg" width="24" height="24" viewBox="0 0 24 24">
  <path id="Shape" d="M0,1A1,1,0,0,1,1,0H9A1,1,0,0,1,9,2H1A1,1,0,0,1,0,1Z" transform="translate(7 20)" fill="#777e90"/>
  <path id="Shape-2" data-name="Shape" d="M3,16a3,3,0,0,1-3-3V3A3,3,0,0,1,3,0H17a3,3,0,0,1,3,3V13a3,3,0,0,1-3,3ZM4,5A1,1,0,0,1,5,4h7a1,1,0,0,1,0,2H5A1,1,0,0,1,4,5ZM5,8a1,1,0,0,0,0,2H7A1,1,0,0,0,7,8Z" transform="translate(2 2)" fill="#777e90" fill-rule="evenodd"/>
</svg>
