<svg id="icons_Speakers_Filled" data-name="icons/Speakers/Filled" xmlns="http://www.w3.org/2000/svg" width="24" height="24" viewBox="0 0 24 24">
  <path id="Shape" d="M3,24a3,3,0,0,1-3-3V3A3,3,0,0,1,3,0H13a3,3,0,0,1,3,3V21a3,3,0,0,1-3,3Zm9-8a4,4,0,1,1-4-4A4,4,0,0,1,12,16ZM8,10A3,3,0,1,0,5,7,3,3,0,0,0,8,10Z" transform="translate(4)" fill="#777e90" fill-rule="evenodd"/>
  <g id="Shape-2" data-name="Shape" transform="translate(10 6)">
    <path id="_0BCEECD7-11A6-46FA-9BD1-0AC6D59C3375" data-name="0BCEECD7-11A6-46FA-9BD1-0AC6D59C3375" d="M1,2A1,1,0,1,0,0,1,1,1,0,0,0,1,2Z" transform="translate(1)" fill="#777e90"/>
    <path id="C9C0E39C-91DA-4E44-A886-3A75A02CDF33" d="M2,4A2,2,0,1,0,0,2,2,2,0,0,0,2,4Z" transform="translate(0 8)" fill="#777e90"/>
  </g>
</svg>
