<svg id="icons_Stacked_Column_02_Up_Line" data-name="icons/Stacked Column 02 Up/Line" xmlns="http://www.w3.org/2000/svg" width="24" height="24" viewBox="0 0 24 24">
  <g id="Shape" transform="translate(17 3)">
    <path id="_8064F061-2493-49A9-BD09-A8AD772D0839" data-name="8064F061-2493-49A9-BD09-A8AD772D0839" d="M1,0A1,1,0,0,0,1,2H5A1,1,0,0,0,5,0Z" fill="#777e90"/>
    <path id="D02A5D07-5C0C-4D82-979A-F649C5FE7DE9" d="M0,1A1,1,0,0,1,1,0H5A1,1,0,0,1,5,2H1A1,1,0,0,1,0,1Z" transform="translate(0 4)" fill="#777e90"/>
    <path id="DB6019B4-5115-4DB9-86F6-CA955E52F0A7" d="M1,0A1,1,0,0,0,1,2H5A1,1,0,0,0,5,0Z" transform="translate(0 8)" fill="#777e90"/>
    <path id="_9A354738-F9F4-4EB7-9377-9CDBB74EF280" data-name="9A354738-F9F4-4EB7-9377-9CDBB74EF280" d="M0,1A1,1,0,0,1,1,0H5A1,1,0,0,1,5,2H1A1,1,0,0,1,0,1Z" transform="translate(0 12)" fill="#777e90"/>
    <path id="_300977A7-9761-483D-AA65-C6BDB8944C6B" data-name="300977A7-9761-483D-AA65-C6BDB8944C6B" d="M0,1A1,1,0,0,1,1,0H5A1,1,0,0,1,5,2H1A1,1,0,0,1,0,1Z" transform="translate(0 16)" fill="#777e90"/>
  </g>
  <g id="Shape-2" data-name="Shape" transform="translate(9 7)">
    <path id="_0B685714-EF50-4741-83E0-2AEDE8A445A2" data-name="0B685714-EF50-4741-83E0-2AEDE8A445A2" d="M1,0A1,1,0,0,0,1,2H5A1,1,0,0,0,5,0Z" fill="#777e90"/>
    <path id="_18DE3653-590F-4C54-94FA-C15C9E913E2C" data-name="18DE3653-590F-4C54-94FA-C15C9E913E2C" d="M0,1A1,1,0,0,1,1,0H5A1,1,0,0,1,5,2H1A1,1,0,0,1,0,1Z" transform="translate(0 4)" fill="#777e90"/>
    <path id="_07D0C989-B5B8-4AAE-AE72-95C0B95FD7B9" data-name="07D0C989-B5B8-4AAE-AE72-95C0B95FD7B9" d="M1,0A1,1,0,0,0,1,2H5A1,1,0,0,0,5,0Z" transform="translate(0 8)" fill="#777e90"/>
    <path id="_61ACAEC1-9D12-40F2-B8AF-18BCD833EBB9" data-name="61ACAEC1-9D12-40F2-B8AF-18BCD833EBB9" d="M1,0A1,1,0,0,0,1,2H5A1,1,0,0,0,5,0Z" transform="translate(0 12)" fill="#777e90"/>
  </g>
  <g id="Shape-3" data-name="Shape" transform="translate(1 11)">
    <path id="B4F17097-EA25-46D1-9575-782BBAB92206" d="M1,0A1,1,0,0,0,1,2H5A1,1,0,0,0,5,0Z" fill="#777e90"/>
    <path id="F64F80CE-CCB3-41CA-80A8-10511000468B" d="M0,1A1,1,0,0,1,1,0H5A1,1,0,0,1,5,2H1A1,1,0,0,1,0,1Z" transform="translate(0 4)" fill="#777e90"/>
    <path id="_7F79FF6A-FB13-4D03-8941-D1EB860B2144" data-name="7F79FF6A-FB13-4D03-8941-D1EB860B2144" d="M0,1A1,1,0,0,1,1,0H5A1,1,0,0,1,5,2H1A1,1,0,0,1,0,1Z" transform="translate(0 8)" fill="#777e90"/>
  </g>
</svg>
