<svg id="icons_Stacked_Area_Down_Filled" data-name="icons/Stacked Area Down/Filled" xmlns="http://www.w3.org/2000/svg" width="24" height="24" viewBox="0 0 24 24">
  <path id="Shape" d="M20-1a1,1,0,0,1-1.351.936l-4.8-1.8a3,3,0,0,0-1.547-.15l-4.942.824a1,1,0,0,1-.516-.05L.649-3.565A1,1,0,0,1,0-4.5V-7.115a2,2,0,0,1,2-2H18a2,2,0,0,1,2,2Z" transform="translate(22 12.885) rotate(180)" fill="#777e90"/>
  <path id="Shape-2" data-name="Shape" d="M20-2A2,2,0,0,1,16.72-.467L13.064-3.513a1,1,0,0,0-.8-.218l-4.315.719a3,3,0,0,1-2.157-.463L1.336-6.443A3,3,0,0,1,0-8.939v-2.043a1,1,0,0,1,1.351-.936l4.8,1.8a3,3,0,0,0,1.547.15l4.942-.824a1,1,0,0,1,.516.05l6.2,2.325A1,1,0,0,1,20-7.482Z" transform="translate(22 2.131) rotate(180)" fill="#777e90"/>
</svg>
