<svg id="icons_Stacked_Column_01_Average_Filled" data-name="icons/Stacked Column 01 Average/Filled" xmlns="http://www.w3.org/2000/svg" width="24" height="24" viewBox="0 0 24 24">
  <path id="Shape" d="M0,2A2,2,0,0,1,2,0H18a2,2,0,0,1,2,2V18a2,2,0,0,1-2,2H2a2,2,0,0,1-2-2ZM3,12a1,1,0,0,1,2,0v4a1,1,0,0,1-2,0ZM4,3A1,1,0,0,0,3,4V8A1,1,0,0,0,5,8V4A1,1,0,0,0,4,3Zm3,7a1,1,0,0,1,2,0v6a1,1,0,0,1-2,0ZM8,3A1,1,0,0,0,7,4V6A1,1,0,0,0,9,6V4A1,1,0,0,0,8,3Zm3,1a1,1,0,0,1,2,0V9a1,1,0,0,1-2,0Zm1,8a1,1,0,0,0-1,1v3a1,1,0,0,0,2,0V13A1,1,0,0,0,12,12Zm3-8a1,1,0,0,1,2,0V7a1,1,0,0,1-2,0Zm1,6a1,1,0,0,0-1,1v5a1,1,0,0,0,2,0V11A1,1,0,0,0,16,10Z" transform="translate(2 2)" fill="#777e90" fill-rule="evenodd"/>
</svg>
