<svg id="icons_Slice_Tool_Filled" data-name="icons/Slice Tool/Filled" xmlns="http://www.w3.org/2000/svg" width="24" height="24" viewBox="0 0 24 24">
  <path id="Shape" d="M6.441.146a.5.5,0,0,0-.707,0L.295,5.586A1,1,0,0,0,1,7.293H8.588a1,1,0,0,0,1-1V3.5a.5.5,0,0,0-.146-.354Z" transform="translate(1.412 13.707)" fill="#777e90"/>
  <path id="Shape-2" data-name="Shape" d="M.146,10.987a.5.5,0,0,1,0-.707L9.793.633a2.093,2.093,0,0,1,3,0,2.164,2.164,0,0,1,0,3L3.646,13.743a.5.5,0,0,1-.724.018Z" transform="translate(9.207 1.367)" fill="#777e90"/>
</svg>
