<svg id="icons_Coin_Filled" data-name="icons/Coin/Filled" xmlns="http://www.w3.org/2000/svg" width="24" height="24" viewBox="0 0 24 24">
  <path id="Shape" d="M10,20A10,10,0,1,0,0,10,10,10,0,0,0,10,20ZM10,2A1,1,0,0,0,9,3V4A3,3,0,0,0,6,7v.558A3,3,0,0,0,8.051,10.4l3.265,1.088a1,1,0,0,1,.684.949V13a1,1,0,0,1-1,1H9a1,1,0,0,1-1-1,1,1,0,0,0-2,0,3,3,0,0,0,3,3v1a1,1,0,0,0,2,0V16a3,3,0,0,0,3-3v-.559A3,3,0,0,0,11.949,9.6L8.684,8.507A1,1,0,0,1,8,7.558V7A1,1,0,0,1,9,6h2a1,1,0,0,1,1,1,1,1,0,0,0,2,0,3,3,0,0,0-3-3V3A1,1,0,0,0,10,2Z" transform="translate(2 2)" fill="#777e90" fill-rule="evenodd"/>
</svg>
