<svg id="icons_Shopping_Bag_Filled" data-name="icons/Shopping Bag/Filled" xmlns="http://www.w3.org/2000/svg" width="24" height="24" viewBox="0 0 24 24">
  <path id="Shape" d="M4.793,0H3A3,3,0,0,0,.007,3.2l.6,9A3,3,0,0,0,3.6,15H15.987a3,3,0,0,0,2.993-2.8l.6-9A3,3,0,0,0,16.587,0H14.793V2a1,1,0,1,1-2,0V0h-6V2a1,1,0,1,1-2,0Z" transform="translate(2.207 7)" fill="#777e90"/>
  <path id="Shape-2" data-name="Shape" d="M0,5A5,5,0,0,1,10,5H8A3,3,0,0,0,2,5Z" transform="translate(7 2)" fill="#777e90"/>
</svg>
