<svg id="icons_Gold_Filled" data-name="icons/Gold/Filled" xmlns="http://www.w3.org/2000/svg" width="24" height="24" viewBox="0 0 24 24">
  <path id="Shape" d="M1.468.725l-1.429,5A1,1,0,0,0,1,7H9.349a1,1,0,0,0,.962-1.275l-1.429-5A1,1,0,0,0,7.921,0H2.429A1,1,0,0,0,1.468.725Z" transform="translate(0.325 13)" fill="#777e90"/>
  <path id="Shape-2" data-name="Shape" d="M1.468.725l-1.429,5A1,1,0,0,0,1,7H9.349a1,1,0,0,0,.962-1.275l-1.429-5A1,1,0,0,0,7.921,0H2.429A1,1,0,0,0,1.468.725Z" transform="translate(13.325 13)" fill="#777e90"/>
  <path id="Shape-3" data-name="Shape" d="M1.468.725l-1.429,5A1,1,0,0,0,1,7H9.349a1,1,0,0,0,.962-1.275l-1.429-5A1,1,0,0,0,7.921,0H2.429A1,1,0,0,0,1.468.725Z" transform="translate(6.825 4)" fill="#777e90"/>
</svg>
