<svg id="icons_Shorts_Filled" data-name="icons/Shorts/Filled" xmlns="http://www.w3.org/2000/svg" width="24" height="24" viewBox="0 0 24 24">
  <path id="Shape" d="M1.441,0a1,1,0,0,0-1,.945L0,8.834A3,3,0,0,0,3,12H6.227A3,3,0,0,0,9.2,9.424L9.687,5.99a1.153,1.153,0,0,1,2.283,0l.491,3.434A3,3,0,0,0,15.431,12h3.227a3,3,0,0,0,3-3.166L21.215.945a1,1,0,0,0-1-.945Z" transform="translate(1.171 9)" fill="#777e90"/>
  <path id="Shape-2" data-name="Shape" d="M2.057,0H18.273a2,2,0,0,1,2,1.889l.059,1.055A1,1,0,0,1,19.33,4H1A1,1,0,0,1,0,2.945L.06,1.889A2,2,0,0,1,2.057,0Z" transform="translate(1.835 3)" fill="#777e90"/>
</svg>
