<svg id="icons_Exit_Full_Screen_Line" data-name="icons/Exit Full Screen/Line" xmlns="http://www.w3.org/2000/svg" width="24" height="24" viewBox="0 0 24 24">
  <g id="Shape" transform="translate(2 2)">
    <path id="_2F3AC083-78C4-4A7F-8D9E-DE04EC77B053" data-name="2F3AC083-78C4-4A7F-8D9E-DE04EC77B053" d="M6,0A1,1,0,0,0,5,1V4A1,1,0,0,1,4,5H1A1,1,0,0,0,1,7H4A3,3,0,0,0,7,4V1A1,1,0,0,0,6,0Z" fill="#777e90"/>
    <path id="C136E171-D211-4DA1-80CA-A461AB9F7686" d="M5,6A1,1,0,0,0,7,6V3A3,3,0,0,0,4,0H1A1,1,0,0,0,1,2H4A1,1,0,0,1,5,3Z" transform="translate(0 13)" fill="#777e90"/>
    <path id="E4838472-16F5-4F99-9A7A-14664B054116" d="M2,6A1,1,0,0,1,0,6V3A3,3,0,0,1,3,0H6A1,1,0,0,1,6,2H3A1,1,0,0,0,2,3Z" transform="translate(13 13)" fill="#777e90"/>
    <path id="_9064B955-BECE-492B-9270-053BA1CF39B1" data-name="9064B955-BECE-492B-9270-053BA1CF39B1" d="M2,1A1,1,0,0,0,0,1V4A3,3,0,0,0,3,7H6A1,1,0,0,0,6,5H3A1,1,0,0,1,2,4Z" transform="translate(13)" fill="#777e90"/>
  </g>
</svg>
