<svg id="icons_Cog_Filled" data-name="icons/Cog/Filled" xmlns="http://www.w3.org/2000/svg" width="24" height="24" viewBox="0 0 24 24">
  <path id="Shape" d="M10,0A2,2,0,0,0,8,2a.334.334,0,0,1-.243.319,7.951,7.951,0,0,0-1.6.664.335.335,0,0,1-.4-.054A2,2,0,0,0,2.929,5.757a.335.335,0,0,1,.054.4,7.951,7.951,0,0,0-.664,1.6A.334.334,0,0,1,2,8a2,2,0,0,0,0,4,.334.334,0,0,1,.319.243,7.953,7.953,0,0,0,.664,1.6.335.335,0,0,1-.054.4,2,2,0,0,0,2.828,2.828.335.335,0,0,1,.4-.054,7.953,7.953,0,0,0,1.6.664A.334.334,0,0,1,8,18a2,2,0,0,0,4,0,.334.334,0,0,1,.243-.319,7.952,7.952,0,0,0,1.6-.664.335.335,0,0,1,.4.054,2,2,0,0,0,2.828-2.828.335.335,0,0,1-.054-.4,7.955,7.955,0,0,0,.664-1.6A.334.334,0,0,1,18,12a2,2,0,0,0,0-4,.334.334,0,0,1-.319-.243,7.952,7.952,0,0,0-.664-1.6.335.335,0,0,1,.054-.4,2,2,0,0,0-2.828-2.828.335.335,0,0,1-.4.054,7.952,7.952,0,0,0-1.6-.664A.334.334,0,0,1,12,2,2,2,0,0,0,10,0Zm0,13a3,3,0,1,0-3-3A3,3,0,0,0,10,13Z" transform="translate(2 2)" fill="#777e90" fill-rule="evenodd"/>
</svg>
