<svg id="icons_File_Upload_Line" data-name="icons/File Upload/Line" xmlns="http://www.w3.org/2000/svg" width="24" height="24" viewBox="0 0 24 24">
  <path id="Shape" d="M0,4A4,4,0,0,1,4,0h8.343a4,4,0,0,1,2.829,1.172l1.657,1.657A4,4,0,0,1,18,5.657V18a4,4,0,0,1-4,4H4a4,4,0,0,1-4-4ZM16,7V18a2,2,0,0,1-2,2H4a2,2,0,0,1-2-2V4A2,2,0,0,1,4,2h7V4a3,3,0,0,0,3,3Zm-.111-2a2,2,0,0,0-.475-.757L13.757,2.586A2,2,0,0,0,13,2.111V4a1,1,0,0,0,1,1Z" transform="translate(3 1)" fill="#777e90" fill-rule="evenodd"/>
  <path id="Shape-2" data-name="Shape" d="M3.617.076a1,1,0,0,0-.324.217l-3,3A1,1,0,0,0,1.707,4.707L3,3.414V8A1,1,0,1,0,5,8V3.414L6.293,4.707A1,1,0,0,0,7.707,3.293l-3-3A1,1,0,0,0,3.617.076Z" transform="translate(8 9)" fill="#777e90"/>
</svg>
