<svg id="icons_Stacked_Column_01_Down_Filled" data-name="icons/Stacked Column 01 Down/Filled" xmlns="http://www.w3.org/2000/svg" width="24" height="24" viewBox="0 0 24 24">
  <path id="Shape" d="M0-2A2,2,0,0,0,2,0H18a2,2,0,0,0,2-2V-18a2,2,0,0,0-2-2H2a2,2,0,0,0-2,2ZM3-15a1,1,0,0,0,1,1,1,1,0,0,0,1-1v-1a1,1,0,0,0-1-1,1,1,0,0,0-1,1ZM4-3A1,1,0,0,1,3-4v-7a1,1,0,0,1,1-1,1,1,0,0,1,1,1v7A1,1,0,0,1,4-3ZM7-13a1,1,0,0,0,1,1,1,1,0,0,0,1-1v-3a1,1,0,0,0-1-1,1,1,0,0,0-1,1ZM8-3A1,1,0,0,1,7-4V-9a1,1,0,0,1,1-1A1,1,0,0,1,9-9v5A1,1,0,0,1,8-3Zm3-1a1,1,0,0,0,1,1,1,1,0,0,0,1-1V-7a1,1,0,0,0-1-1,1,1,0,0,0-1,1Zm1-6a1,1,0,0,1-1-1v-5a1,1,0,0,1,1-1,1,1,0,0,1,1,1v5A1,1,0,0,1,12-10Zm3,6a1,1,0,0,0,1,1,1,1,0,0,0,1-1V-5a1,1,0,0,0-1-1,1,1,0,0,0-1,1Zm1-4a1,1,0,0,1-1-1v-7a1,1,0,0,1,1-1,1,1,0,0,1,1,1v7A1,1,0,0,1,16-8Z" transform="translate(22 2) rotate(180)" fill="#777e90" fill-rule="evenodd"/>
</svg>
