<svg id="icons_Stacked_Column_02_Down_Line" data-name="icons/Stacked Column 02 Down/Line" xmlns="http://www.w3.org/2000/svg" width="24" height="24" viewBox="0 0 24 24">
  <g id="Shape" transform="translate(17 11)">
    <path id="_027F355D-A65F-4C7C-85EF-589621224910" data-name="027F355D-A65F-4C7C-85EF-589621224910" d="M1,0A1,1,0,0,0,1,2H5A1,1,0,0,0,5,0Z" fill="#777e90"/>
    <path id="_630D7D74-EFA2-4901-B939-C605B6F8F127" data-name="630D7D74-EFA2-4901-B939-C605B6F8F127" d="M0,1A1,1,0,0,1,1,0H5A1,1,0,0,1,5,2H1A1,1,0,0,1,0,1Z" transform="translate(0 4)" fill="#777e90"/>
    <path id="_50DB306C-7150-46EB-8263-5439DDDBBDFF" data-name="50DB306C-7150-46EB-8263-5439DDDBBDFF" d="M0,1A1,1,0,0,1,1,0H5A1,1,0,0,1,5,2H1A1,1,0,0,1,0,1Z" transform="translate(0 8)" fill="#777e90"/>
  </g>
  <g id="Shape-2" data-name="Shape" transform="translate(9 7)">
    <path id="_8177860E-A6F6-4A5B-A554-E51C4F70295B" data-name="8177860E-A6F6-4A5B-A554-E51C4F70295B" d="M1,0A1,1,0,0,0,1,2H5A1,1,0,0,0,5,0Z" fill="#777e90"/>
    <path id="_527BF8FC-09DA-4BF0-979F-38C6260F2E99" data-name="527BF8FC-09DA-4BF0-979F-38C6260F2E99" d="M0,1A1,1,0,0,1,1,0H5A1,1,0,0,1,5,2H1A1,1,0,0,1,0,1Z" transform="translate(0 4)" fill="#777e90"/>
    <path id="_7B159666-55AB-4EF0-A981-24BD109216C9" data-name="7B159666-55AB-4EF0-A981-24BD109216C9" d="M1,0A1,1,0,0,0,1,2H5A1,1,0,0,0,5,0Z" transform="translate(0 8)" fill="#777e90"/>
    <path id="_405629B5-73CF-4FA1-88AD-CE6445E732DC" data-name="405629B5-73CF-4FA1-88AD-CE6445E732DC" d="M1,0A1,1,0,0,0,1,2H5A1,1,0,0,0,5,0Z" transform="translate(0 12)" fill="#777e90"/>
  </g>
  <g id="Shape-3" data-name="Shape" transform="translate(1 3)">
    <path id="_3DA26566-3A88-4CA6-AD2B-E2D4FFA8BDBF" data-name="3DA26566-3A88-4CA6-AD2B-E2D4FFA8BDBF" d="M1,0A1,1,0,0,0,1,2H5A1,1,0,0,0,5,0Z" fill="#777e90"/>
    <path id="B27BED87-F532-43B1-802E-0A385AADCFAE" d="M0,1A1,1,0,0,1,1,0H5A1,1,0,0,1,5,2H1A1,1,0,0,1,0,1Z" transform="translate(0 4)" fill="#777e90"/>
    <path id="_0CB5E60B-0891-4508-9732-AB0D43CC81F4" data-name="0CB5E60B-0891-4508-9732-AB0D43CC81F4" d="M1,0A1,1,0,0,0,1,2H5A1,1,0,0,0,5,0Z" transform="translate(0 8)" fill="#777e90"/>
    <path id="CA22E077-9FCD-43D2-AC67-AF714F50F63B" d="M0,1A1,1,0,0,1,1,0H5A1,1,0,0,1,5,2H1A1,1,0,0,1,0,1Z" transform="translate(0 12)" fill="#777e90"/>
    <path id="C3FD1B56-1EFE-4D74-87C2-C3ED685FB0C6" d="M0,1A1,1,0,0,1,1,0H5A1,1,0,0,1,5,2H1A1,1,0,0,1,0,1Z" transform="translate(0 16)" fill="#777e90"/>
  </g>
</svg>
