<svg id="icons_Full_Screen_Filled" data-name="icons/Full Screen/Filled" xmlns="http://www.w3.org/2000/svg" width="24" height="24" viewBox="0 0 24 24">
  <path id="Shape" d="M.369,4.542A4.811,4.811,0,0,1,4.542.369,42.089,42.089,0,0,1,10,0a42.091,42.091,0,0,1,5.458.369,4.811,4.811,0,0,1,4.173,4.173A42.082,42.082,0,0,1,20,10a42.084,42.084,0,0,1-.369,5.458,4.811,4.811,0,0,1-4.173,4.173A42.084,42.084,0,0,1,10,20a42.082,42.082,0,0,1-5.458-.369A4.811,4.811,0,0,1,.369,15.458,42.091,42.091,0,0,1,0,10,42.089,42.089,0,0,1,.369,4.542ZM3,12a1,1,0,0,1,1,1v2a1,1,0,0,0,1,1H7a1,1,0,0,1,0,2H5a3,3,0,0,1-3-3V13A1,1,0,0,1,3,12Zm13,1a1,1,0,0,1,2,0v2a3,3,0,0,1-3,3H13a1,1,0,0,1,0-2h2a1,1,0,0,0,1-1ZM3,8A1,1,0,0,0,4,7V5A1,1,0,0,1,5,4H7A1,1,0,0,0,7,2H5A3,3,0,0,0,2,5V7A1,1,0,0,0,3,8ZM16,7a1,1,0,0,0,2,0V5a3,3,0,0,0-3-3H13a1,1,0,0,0,0,2h2a1,1,0,0,1,1,1Z" transform="translate(2 2)" fill="#777e90" fill-rule="evenodd"/>
</svg>
