<svg id="icons_Lollipop_Line" data-name="icons/Lollipop/Line" xmlns="http://www.w3.org/2000/svg" width="24" height="24" viewBox="0 0 24 24">
  <path id="Shape" d="M8.207.293a1,1,0,0,1,0,1.414l-6.5,6.5A1,1,0,0,1,.293,6.793l6.5-6.5A1,1,0,0,1,8.207.293Z" transform="translate(2 13.5)" fill="#777e90"/>
  <path id="Shape-2" data-name="Shape" d="M14.568,6a6.005,6.005,0,0,1-7.19,5.882l-.2.79a2.5,2.5,0,0,1-4.193,1.161L.734,11.58A2.5,2.5,0,0,1,1.9,7.387l.79-.2A6,6,0,1,1,14.568,6Zm-2,0a4,4,0,1,1-4-4A4,4,0,0,1,12.568,6ZM3.411,9.07,2.38,9.328a.5.5,0,0,0-.232.839L4.4,12.42a.5.5,0,0,0,.839-.232L5.5,11.156A6.03,6.03,0,0,1,3.411,9.07Z" transform="translate(7.432 2)" fill="#777e90" fill-rule="evenodd"/>
</svg>
