<svg id="icons_Patch_Filled" data-name="icons/Patch/Filled" xmlns="http://www.w3.org/2000/svg" width="24" height="24" viewBox="0 0 24 24">
  <g id="Shape" transform="translate(2.343 2.343)">
    <path id="_1764CEF4-32C7-42AC-9276-96963E3243D7" data-name="1764CEF4-32C7-42AC-9276-96963E3243D7" d="M0,1.455,7.99,9.445A5.657,5.657,0,0,0,0,1.455Z" transform="translate(9.869 0)" fill="#777e90"/>
    <path id="DFE99310-8B44-4657-97DB-59822C14C223" d="M8.45,2.864l8,8L10.864,16.45l-8-8Zm2.207,4.793a1,1,0,1,1-1-1A1,1,0,0,1,10.657,7.657Zm0,4a1,1,0,1,1-1-1A1,1,0,0,1,10.657,11.657Zm-2-2a1,1,0,1,1-1-1A1,1,0,0,1,8.657,9.657Zm4,0a1,1,0,1,1-1-1A1,1,0,0,1,12.657,9.657Z" fill="#777e90" fill-rule="evenodd"/>
    <path id="FAE6BDF1-BF59-45F8-A667-7ADD525D572C" d="M1.657,7.788A5.657,5.657,0,0,1,1.455,0L9.444,7.989A5.657,5.657,0,0,1,1.657,7.788Z" transform="translate(0 9.869)" fill="#777e90"/>
  </g>
</svg>
