<svg id="Icons_Sketch_Line" data-name="Icons/Sketch/Line" xmlns="http://www.w3.org/2000/svg" width="24" height="24" viewBox="0 0 24 24">
  <path id="Vector" d="M2.194,7.668l7.193,9.809a1,1,0,0,0,1.613,0l7.193-9.809a1,1,0,0,0-.038-1.232L15.37,3.095a1,1,0,0,0-.6-.346l-4.408-.735a1,1,0,0,0-.329,0l-4.408.735a1,1,0,0,0-.6.346L2.232,6.436A1,1,0,0,0,2.194,7.668ZM.581,8.851,7.774,18.66a3,3,0,0,0,4.838,0l7.193-9.809a3,3,0,0,0-.115-3.695L16.906,1.814A3,3,0,0,0,15.095.776L10.686.041a3,3,0,0,0-.986,0L5.292.776A3,3,0,0,0,3.48,1.814L.7,5.156A3,3,0,0,0,.581,8.851Z" transform="translate(1.807 2.041)" fill="#777e90" fill-rule="evenodd"/>
  <path id="Vector-2" data-name="Vector" d="M13.721,7.555H17a1,1,0,0,0,0-2H14.344L15.17,2.8a1,1,0,1,0-1.916-.575l-.6,2.006L10.294.692a1.555,1.555,0,0,0-2.587,0L5.347,4.231l-.6-2.006A1,1,0,0,0,2.83,2.8l.826,2.755H1a1,1,0,0,0,0,2H4.279L7.751,17.971a1.316,1.316,0,0,0,2.5,0Zm-2.589-2L9,2.357l-2.131,3.2Zm-4.744,2L9,15.392l2.613-7.838Z" transform="translate(3 2.445)" fill="#777e90" fill-rule="evenodd"/>
</svg>
