<svg id="icons_Minus_Square_Filled" data-name="icons/Minus Square/Filled" xmlns="http://www.w3.org/2000/svg" width="24" height="24" viewBox="0 0 24 24">
  <path id="Shape" d="M4.542.369A4.811,4.811,0,0,0,.369,4.542,42.089,42.089,0,0,0,0,10a42.091,42.091,0,0,0,.369,5.458,4.811,4.811,0,0,0,4.173,4.173A42.082,42.082,0,0,0,10,20a42.084,42.084,0,0,0,5.458-.369,4.811,4.811,0,0,0,4.173-4.173A42.084,42.084,0,0,0,20,10a42.082,42.082,0,0,0-.369-5.458A4.811,4.811,0,0,0,15.458.369,42.091,42.091,0,0,0,10,0,42.089,42.089,0,0,0,4.542.369ZM5,10a1,1,0,0,0,1,1h8a1,1,0,0,0,0-2H6A1,1,0,0,0,5,10Z" transform="translate(2 2)" fill="#777e90" fill-rule="evenodd"/>
</svg>
