<svg id="icons_Cup_Filled" data-name="icons/Cup/Filled" xmlns="http://www.w3.org/2000/svg" width="24" height="24" viewBox="0 0 24 24">
  <path id="Shape" d="M4,0A1,1,0,0,0,3,1V2H1A1,1,0,0,0,1,4H7A1,1,0,0,0,7,2H5V1A1,1,0,0,0,4,0Z" transform="translate(8 17)" fill="#777e90"/>
  <path id="Shape-2" data-name="Shape" d="M0,2A2,2,0,0,1,2,0H8a2,2,0,0,1,2,2V7A5,5,0,0,1,0,7Z" transform="translate(7 3)" fill="#777e90"/>
  <g id="Shape-3" data-name="Shape" transform="translate(1 5)">
    <path id="_47F78020-74AA-415C-B2CB-B05BB9E3AF3B" data-name="47F78020-74AA-415C-B2CB-B05BB9E3AF3B" d="M3,0A3,3,0,0,0,0,3V4A3,3,0,0,0,3,7,1,1,0,0,0,3,5,1,1,0,0,1,2,4V3A1,1,0,0,1,3,2,1,1,0,0,0,3,0Z" fill="#777e90"/>
    <path id="_4481FBCC-9E29-476F-B214-B2186D788D92" data-name="4481FBCC-9E29-476F-B214-B2186D788D92" d="M1,0A3,3,0,0,1,4,3V4A3,3,0,0,1,1,7,1,1,0,0,1,1,5,1,1,0,0,0,2,4V3A1,1,0,0,0,1,2,1,1,0,0,1,1,0Z" transform="translate(18)" fill="#777e90"/>
  </g>
</svg>
