<svg id="icons_Video_Line" data-name="icons/Video/Line" xmlns="http://www.w3.org/2000/svg" width="24" height="24" viewBox="0 0 24 24">
  <path id="Shape" d="M11,2a50.342,50.342,0,0,0-6.207.378A2.817,2.817,0,0,0,2.321,4.816,30.64,30.64,0,0,0,2,9a30.641,30.641,0,0,0,.321,4.184,2.817,2.817,0,0,0,2.472,2.437A50.349,50.349,0,0,0,11,16a50.35,50.35,0,0,0,6.207-.378,2.817,2.817,0,0,0,2.472-2.437A30.647,30.647,0,0,0,20,9a30.647,30.647,0,0,0-.321-4.184,2.817,2.817,0,0,0-2.472-2.437A50.344,50.344,0,0,0,11,2ZM4.545.394a4.817,4.817,0,0,0-4.2,4.143A32.626,32.626,0,0,0,0,9a32.625,32.625,0,0,0,.341,4.463,4.817,4.817,0,0,0,4.2,4.143A52.343,52.343,0,0,0,11,18a52.34,52.34,0,0,0,6.455-.394,4.817,4.817,0,0,0,4.2-4.143A32.621,32.621,0,0,0,22,9a32.622,32.622,0,0,0-.341-4.463,4.817,4.817,0,0,0-4.2-4.143,53.126,53.126,0,0,0-12.909,0Z" transform="translate(1 3)" fill="#777e90" fill-rule="evenodd"/>
  <path id="Shape-2" data-name="Shape" d="M.154,5.583,3.349.47a1,1,0,0,1,1.7,0l3.2,5.113a1,1,0,0,1-.848,1.53H1A1,1,0,0,1,.154,5.583Z" transform="translate(16.113 7.803) rotate(90)" fill="#777e90"/>
</svg>
