<svg id="icons_Hourglass_Line" data-name="icons/Hourglass/Line" xmlns="http://www.w3.org/2000/svg" width="24" height="24" viewBox="0 0 24 24">
  <path id="Shape" d="M10.659,10.678A4.881,4.881,0,0,0,11.7,8.415,17.577,17.577,0,0,0,12,5.5V0H0V5.5A17.578,17.578,0,0,0,.3,8.415a4.88,4.88,0,0,0,1.039,2.264A4.648,4.648,0,0,0,3.105,12a4.648,4.648,0,0,0-1.764,1.322A4.88,4.88,0,0,0,.3,15.585,17.578,17.578,0,0,0,0,18.5V24H12V18.5a17.578,17.578,0,0,0-.3-2.915,4.88,4.88,0,0,0-1.039-2.264A4.648,4.648,0,0,0,8.895,12,4.648,4.648,0,0,0,10.659,10.678ZM10,22V18.5a15.65,15.65,0,0,0-.271-2.568A2.774,2.774,0,0,0,8.112,13.84L6,12.942l-2.112.9a2.774,2.774,0,0,0-1.616,2.092A15.65,15.65,0,0,0,2,18.5V22ZM6,11.058l2.112-.9A2.774,2.774,0,0,0,9.729,8.068,15.65,15.65,0,0,0,10,5.5V2H2V5.5a15.65,15.65,0,0,0,.271,2.568A2.774,2.774,0,0,0,3.888,10.16Z" transform="translate(6)" fill="#777e90" fill-rule="evenodd"/>
  <path id="Shape-2" data-name="Shape" d="M0,1A1,1,0,0,1,1,0H15a1,1,0,0,1,0,2H1A1,1,0,0,1,0,1Z" transform="translate(4 22)" fill="#777e90"/>
  <path id="Shape-3" data-name="Shape" d="M0,1A1,1,0,0,1,1,0H15a1,1,0,0,1,0,2H1A1,1,0,0,1,0,1Z" transform="translate(4)" fill="#777e90"/>
  <path id="Shape-4" data-name="Shape" d="M0,2.764A1.618,1.618,0,0,1,.894,1.317L3.106.211a2,2,0,0,1,1.789,0L7.106,1.317A1.618,1.618,0,0,1,8,2.764Z" transform="translate(8 19.236)" fill="#777e90"/>
</svg>
