<svg id="icons_Bluetooth_Line" data-name="icons/Bluetooth/Line" xmlns="http://www.w3.org/2000/svg" width="24" height="24" viewBox="0 0 24 24">
  <path id="Shape" d="M7,2A2,2,0,0,1,10.3.485L15.651,5.07a1,1,0,0,1,0,1.519L9.537,11.83l5.228,4.481a2,2,0,0,1,0,3.037L10.3,23.174A2,2,0,0,1,7,21.655V14L1.651,18.589a1,1,0,0,1-1.3-1.518L6.463,11.83.349,6.589a1,1,0,1,1,1.3-1.519L7,9.655ZM9,14l4.463,3.826L9,21.655ZM9,9.655V2L13.463,5.83Z" transform="translate(4 0.17)" fill="#777e90" fill-rule="evenodd"/>
</svg>
