<svg id="icons_Soup_Filled" data-name="icons/Soup/Filled" xmlns="http://www.w3.org/2000/svg" width="24" height="24" viewBox="0 0 24 24">
  <path id="Shape" d="M18.934.657A.472.472,0,0,0,18.478,0H.5A.472.472,0,0,0,.042.657,9.228,9.228,0,0,0,8.464,6h2.048A9.228,9.228,0,0,0,18.934.657Z" transform="translate(2.512 16)" fill="#777e90"/>
  <path id="Shape-2" data-name="Shape" d="M2,0A2,2,0,0,0,0,2V3q0,.279.017.554A.481.481,0,0,0,.5,4H19.5a.481.481,0,0,0,.486-.446Q20,3.279,20,3V2a2,2,0,0,0-2-2Z" transform="translate(2 10)" fill="#777e90"/>
  <g id="Shape-3" data-name="Shape" transform="translate(7 2)">
    <path id="_0AC7DC1F-CC61-4E23-85CA-9D9E0CF5475C" data-name="0AC7DC1F-CC61-4E23-85CA-9D9E0CF5475C" d="M2,0A1,1,0,0,1,3,1a4.852,4.852,0,0,1-.606,2.447l-.008.016A2.884,2.884,0,0,0,2,5,1,1,0,0,1,0,5,4.852,4.852,0,0,1,.606,2.553l.008-.016A2.884,2.884,0,0,0,1,1,1,1,0,0,1,2,0Z" fill="#777e90"/>
    <path id="_9A3221A7-91C7-420B-84E2-B2A68905E310" data-name="9A3221A7-91C7-420B-84E2-B2A68905E310" d="M2,0A1,1,0,0,1,3,1a4.852,4.852,0,0,1-.606,2.447l-.008.016A2.884,2.884,0,0,0,2,5,1,1,0,0,1,0,5,4.852,4.852,0,0,1,.606,2.553l.008-.016A2.884,2.884,0,0,0,1,1,1,1,0,0,1,2,0Z" transform="translate(4)" fill="#777e90"/>
    <path id="F2878D7F-7306-49BC-A29E-431D9B050A87" d="M3,1A1,1,0,0,0,1,1,2.884,2.884,0,0,1,.614,2.537l-.008.016A4.852,4.852,0,0,0,0,5,1,1,0,0,0,2,5a2.883,2.883,0,0,1,.386-1.537l.008-.016A4.852,4.852,0,0,0,3,1Z" transform="translate(8)" fill="#777e90"/>
  </g>
</svg>
