<svg id="icons_Bar_01_Down_Filled" data-name="icons/Bar 01 Down/Filled" xmlns="http://www.w3.org/2000/svg" width="24" height="24" viewBox="0 0 24 24">
  <path id="Shape" d="M0,2A2,2,0,0,1,2,0H12a2,2,0,0,1,0,4H2A2,2,0,0,1,0,2Z" transform="translate(7 17)" fill="#777e90"/>
  <path id="Shape-2" data-name="Shape" d="M0,2A2,2,0,0,1,2,0H7A2,2,0,0,1,7,4H2A2,2,0,0,1,0,2Z" transform="translate(7 10)" fill="#777e90"/>
  <path id="Shape-3" data-name="Shape" d="M0,2A2,2,0,0,1,2,0H4A2,2,0,0,1,4,4H2A2,2,0,0,1,0,2Z" transform="translate(7 3)" fill="#777e90"/>
  <path id="Shape-4" data-name="Shape" d="M1,0A1,1,0,0,1,2,1V21a1,1,0,0,1-2,0V1A1,1,0,0,1,1,0Z" transform="translate(3 1)" fill="#777e90"/>
</svg>
