<svg id="icons_Map_Line" data-name="icons/Map/Line" xmlns="http://www.w3.org/2000/svg" width="24" height="24" viewBox="0 0 24 24">
  <path id="Shape" d="M12,3.775,8,2.442V16.225l4,1.333Zm2,.1V17.837l3.141-.449A1,1,0,0,0,18,16.4V4.459a1,1,0,0,0-1.141-.99ZM2.859,2.612,6,2.163V16.123l-2.859.408A1,1,0,0,1,2,15.541V3.6A1,1,0,0,1,2.859,2.612ZM13,20,7,18l-3.576.511A3,3,0,0,1,0,15.541V3.6A3,3,0,0,1,2.576.632L7,0l6,2,3.576-.511A3,3,0,0,1,20,4.459V16.4a3,3,0,0,1-2.576,2.97Z" transform="translate(2 2)" fill="#777e90" fill-rule="evenodd"/>
</svg>
