<svg id="icons_Pizza_Slice_Filled" data-name="icons/Pizza Slice/Filled" xmlns="http://www.w3.org/2000/svg" width="24" height="24" viewBox="0 0 24 24">
  <path id="Shape" d="M1.232.062a.516.516,0,0,0-.69.19L.5.331C-.413,1.9-.086,3.85,1.587,4.546A21.68,21.68,0,0,0,9.956,5.991a21.679,21.679,0,0,0,8.369-1.445c1.673-.7,2-2.647,1.092-4.215L19.37.252a.516.516,0,0,0-.69-.19C18.47.173,18.244.286,18,.4A19.055,19.055,0,0,1,9.956,1.991,19.055,19.055,0,0,1,1.912.4C1.667.286,1.441.173,1.232.062Z" transform="translate(2.044 16.009)" fill="#777e90"/>
  <path id="Shape-2" data-name="Shape" d="M.067,11.673a.482.482,0,0,0,.186.671c.16.084.333.17.52.255a17.071,17.071,0,0,0,7.206,1.408A17.071,17.071,0,0,0,15.184,12.6c.186-.086.359-.172.52-.255a.482.482,0,0,0,.186-.671L14.7,9.619a4,4,0,0,1-4-6.9L9.71,1A2,2,0,0,0,6.248,1Zm6.911-.665a1,1,0,1,1-1-1A1,1,0,0,1,6.979,11.008Z" transform="translate(4.021 1.992)" fill="#777e90" fill-rule="evenodd"/>
  <path id="Shape-3" data-name="Shape" d="M.735,0A2,2,0,0,0,2.714,3.418Z" transform="translate(15 6.451)" fill="#777e90"/>
</svg>
