<svg id="icons_Heart_Rate_Filled" data-name="icons/Heart Rate/Filled" xmlns="http://www.w3.org/2000/svg" width="24" height="24" viewBox="0 0 24 24">
  <g id="Shape" transform="translate(1 11)">
    <path id="_71E69DF1-ECEE-494E-A8F3-A0132F7C88AD" data-name="71E69DF1-ECEE-494E-A8F3-A0132F7C88AD" d="M1.215,0H1A1,1,0,1,0,1,2h.887A9.784,9.784,0,0,1,1.215,0Z" fill="#777e90"/>
    <path id="_0A9C05B2-AB3D-4642-9C8F-C011B6DBF5B7" data-name="0A9C05B2-AB3D-4642-9C8F-C011B6DBF5B7" d="M0,2A9.783,9.783,0,0,0,.672,0H.887a1,1,0,1,1,0,2Z" transform="translate(20.113 0)" fill="#777e90"/>
  </g>
  <g id="Shape-2" data-name="Shape" transform="translate(2 3)">
    <path id="_68E498AF-CA8C-473A-8E81-4508CE3FC467" data-name="68E498AF-CA8C-473A-8E81-4508CE3FC467" d="M6,0a5.978,5.978,0,0,1,4,1.528A6,6,0,0,1,20,6a9.37,9.37,0,0,1-.215,2H16.621a.5.5,0,0,1-.354-.146L14.707,6.293a1,1,0,0,0-1.488.082L10.322,10a.2.2,0,0,1-.33-.026L6.868,4.5a1,1,0,0,0-1.763.049L3.52,7.724A.5.5,0,0,1,3.073,8H.215A9.371,9.371,0,0,1,0,6,6,6,0,0,1,6,0Z" fill="#777e90"/>
    <path id="_25329995-5B5A-4B48-94B8-605C78594C6D" data-name="25329995-5B5A-4B48-94B8-605C78594C6D" d="M0,2.658c1.953,4.257,6.594,6.815,8.388,7.674a1.665,1.665,0,0,0,1.451,0c1.794-.859,6.435-3.417,8.388-7.674H15.113a1,1,0,0,1-.707-.293L13.354,1.313a.2.2,0,0,0-.3.016L9.894,5.283a1,1,0,0,1-1.649-.129L5.358.1a.2.2,0,0,0-.353.01l-1,1.994a1,1,0,0,1-.894.553Z" transform="translate(0.887 7.342)" fill="#777e90"/>
  </g>
</svg>
