<svg id="Icons_Messenger_Filled" data-name="Icons/Messenger/Filled" xmlns="http://www.w3.org/2000/svg" width="24" height="24" viewBox="0 0 24 24">
  <path id="Vector" d="M10,20a10,10,0,1,0-8-4v2.771a1,1,0,0,0,1.2.979L6,19.168A9.966,9.966,0,0,0,10,20ZM4.7,11.707,7.456,7.778A1,1,0,0,1,8.8,7.5l2.648,1.655a1,1,0,0,0,1.085-.016l2.172-1.448a.426.426,0,0,1,.586.6l-2.751,3.929a1,1,0,0,1-1.349.274L8.547,10.842a1,1,0,0,0-1.085.016L5.291,12.306a.426.426,0,0,1-.586-.6Z" transform="translate(2 2)" fill="#777e90" fill-rule="evenodd"/>
</svg>
