<svg id="icons_Electrical_Plug_Line" data-name="icons/Electrical Plug/Line" xmlns="http://www.w3.org/2000/svg" width="24" height="24" viewBox="0 0 24 24">
  <path id="Shape" d="M12.5,2A1.5,1.5,0,0,0,11,3.5v11a5.5,5.5,0,0,1-11,0V13H2v1.5a3.5,3.5,0,0,0,7,0V3.5a3.5,3.5,0,0,1,7,0V19a1,1,0,0,1-2,0V3.5A1.5,1.5,0,0,0,12.5,2Z" transform="translate(22 6) rotate(90)" fill="#777e90"/>
  <path id="Shape-2" data-name="Shape" d="M8,2H4A2,2,0,0,0,2,4V6A2,2,0,0,0,4,8H8ZM4,0A4,4,0,0,0,0,4V6a4,4,0,0,0,4,4H9a1,1,0,0,0,1-1V1A1,1,0,0,0,9,0Z" transform="translate(9 2)" fill="#777e90" fill-rule="evenodd"/>
  <g id="Shape-3" data-name="Shape" transform="translate(19 4)">
    <path id="F692D1C2-7914-4FDA-BFDF-7A5005F6810F" d="M2,0H0V2H2A1,1,0,0,0,2,0Z" fill="#777e90"/>
    <path id="_97D88662-3BB5-4DE3-A27F-7AF97E3AC3C8" data-name="97D88662-3BB5-4DE3-A27F-7AF97E3AC3C8" d="M2,0H0V2H2A1,1,0,0,0,2,0Z" transform="translate(0 4)" fill="#777e90"/>
  </g>
</svg>
