<svg id="Icons_Instagram_Line" data-name="Icons/Instagram/Line" xmlns="http://www.w3.org/2000/svg" width="24" height="24" viewBox="0 0 24 24">
  <path id="Vector" d="M14,2H6A4,4,0,0,0,2,6v8a4,4,0,0,0,4,4h8a4,4,0,0,0,4-4V6A4,4,0,0,0,14,2ZM6,0A6,6,0,0,0,0,6v8a6,6,0,0,0,6,6h8a6,6,0,0,0,6-6V6a6,6,0,0,0-6-6Z" transform="translate(2 2)" fill="#777e90" fill-rule="evenodd"/>
  <path id="Vector-2" data-name="Vector" d="M1,2A1,1,0,1,0,0,1,1,1,0,0,0,1,2Z" transform="translate(16 6)" fill="#777e90"/>
  <path id="Vector-3" data-name="Vector" d="M10,5A5,5,0,1,1,5,0,5,5,0,0,1,10,5ZM8,5A3,3,0,1,1,5,2,3,3,0,0,1,8,5Z" transform="translate(7 7)" fill="#777e90" fill-rule="evenodd"/>
</svg>
