<svg id="icons_Column_and_Line_Down_Filled" data-name="icons/Column and Line Down/Filled" xmlns="http://www.w3.org/2000/svg" width="24" height="24" viewBox="0 0 24 24">
  <path id="Shape" d="M0,1.874C0,0,2-.5,3.5.505L7.555,3.173l.045.032,3.011,2.258a1,1,0,0,0,1.047.094l2-1a3,3,0,0,1,2.683,0l4,2A3,3,0,0,1,22,9.241v7.764a1,1,0,0,1-1,1H1a1,1,0,0,1-1-1ZM19,9.005a1,1,0,0,1,1,1v5a1,1,0,0,1-2,0v-5A1,1,0,0,1,19,9.005Zm-3-1a1,1,0,0,0-2,0v7a1,1,0,0,0,2,0Zm-5,0a1,1,0,0,1,1,1v6a1,1,0,0,1-2,0v-6A1,1,0,0,1,11,8.005Zm-3-1a1,1,0,0,0-2,0v8a1,1,0,0,0,2,0Zm-5-4a1,1,0,0,1,1,1v11a1,1,0,0,1-2,0v-11A1,1,0,0,1,3,3.005Z" transform="translate(1 2.995)" fill="#777e90" fill-rule="evenodd"/>
</svg>
