<svg id="icons_Folder_Filled" data-name="icons/Folder/Filled" xmlns="http://www.w3.org/2000/svg" width="24" height="24" viewBox="0 0 24 24">
  <path id="Shape" d="M12,3l-.59-.983A3.665,3.665,0,0,0,8.752.226,26.4,26.4,0,0,0,5.5,0C4.684,0,3.868.053,3.139.125A3.246,3.246,0,0,0,.2,3.146C.091,4.51,0,6.435,0,9c0,1.82.066,3.442.151,4.768a4.3,4.3,0,0,0,4.084,4.053C5.92,17.918,8.175,18,11,18s5.08-.081,6.765-.179a4.3,4.3,0,0,0,4.084-4.053C21.934,12.442,22,10.82,22,9c0-1.041-.06-2.022-.139-2.859a3.3,3.3,0,0,0-3-3C18.022,3.06,17.041,3,16,3Z" transform="translate(1 3)" fill="#777e90"/>
</svg>
