<svg id="icons_Eye_Line" data-name="icons/Eye/Line" xmlns="http://www.w3.org/2000/svg" width="24" height="24" viewBox="0 0 24 24">
  <path id="Shape" d="M11.224,14C15.35,14,18.283,11.408,20,9.249a1.968,1.968,0,0,0,0-2.5C18.283,4.592,15.35,2,11.224,2S4.165,4.592,2.447,6.751a1.968,1.968,0,0,0,0,2.5C4.165,11.408,7.1,14,11.224,14Zm10.342-3.506a3.967,3.967,0,0,0,0-4.988C19.7,3.158,16.251,0,11.224,0S2.75,3.158.882,5.506a3.967,3.967,0,0,0,0,4.988C2.75,12.842,6.2,16,11.224,16S19.7,12.842,21.566,10.494Z" transform="translate(0.776 4)" fill="#777e90" fill-rule="evenodd"/>
  <path id="Shape-2" data-name="Shape" d="M6,4A2,2,0,0,1,2,4q0-.043,0-.085A1.5,1.5,0,0,0,3.915,2L4,2A2,2,0,0,1,6,4ZM8,4A4,4,0,1,1,4,0,4,4,0,0,1,8,4Z" transform="translate(8 8)" fill="#777e90" fill-rule="evenodd"/>
</svg>
