<svg id="icons_Syringe_Filled" data-name="icons/Syringe/Filled" xmlns="http://www.w3.org/2000/svg" width="24" height="24" viewBox="0 0 24 24">
  <path id="Shape" d="M8.365.293A1,1,0,0,0,6.951,1.707l1,1L1.172,9.486A4,4,0,0,0,.078,13.1L.658,16l2.9.58a4,4,0,0,0,3.613-1.094l.779-.779-2-2a1,1,0,0,1,1.414-1.414l2,2,1.586-1.586-2-2a1,1,0,0,1,1.414-1.414l2,2,1.586-1.586,1,1a1,1,0,1,0,1.414-1.414Z" transform="translate(4.342 3)" fill="#777e90"/>
  <path id="Shape-2" data-name="Shape" d="M5,.293A1,1,0,0,1,5,1.707L1.707,5A1,1,0,0,1,.293,3.586L3.586.293A1,1,0,0,1,5,.293Z" transform="translate(2 16.707)" fill="#777e90"/>
  <path id="Shape-3" data-name="Shape" d="M2,.293A1,1,0,0,0,.586,1.707L1.879,3,.293,4.586A1,1,0,0,0,1.707,6L3.293,4.414,4.586,5.707A1,1,0,0,0,6,4.293Z" transform="translate(15.707 2)" fill="#777e90"/>
</svg>
