<svg id="icons_Scale_Line" data-name="icons/Scale/Line" xmlns="http://www.w3.org/2000/svg" width="24" height="24" viewBox="0 0 24 24">
  <path id="Shape" d="M4,2A2,2,0,0,0,2,4V16a2,2,0,0,0,2,2H16a2,2,0,0,0,2-2V11a1,1,0,0,1,2,0v5a4,4,0,0,1-4,4H4a4,4,0,0,1-4-4V4A4,4,0,0,1,4,0H9A1,1,0,0,1,9,2Z" transform="translate(2 2)" fill="#777e90"/>
  <path id="Shape-2" data-name="Shape" d="M12,5a1,1,0,0,0,2,0V1a1,1,0,0,0-1-1H9A1,1,0,0,0,9,2h1.586L2,10.586V9A1,1,0,0,0,0,9v4a1,1,0,0,0,1,1H5a1,1,0,0,0,0-2H3.414L12,3.414Z" transform="translate(8 2)" fill="#777e90"/>
</svg>
