<svg id="icons_ATM_Filled" data-name="icons/ATM/Filled" xmlns="http://www.w3.org/2000/svg" width="24" height="24" viewBox="0 0 24 24">
  <path id="Shape" d="M2,0A2,2,0,0,0,0,2V8a2,2,0,0,0,2,2A1,1,0,0,0,3,9V6A2,2,0,0,1,5,4H17a2,2,0,0,1,2,2V9a1,1,0,0,0,1,1,2,2,0,0,0,2-2V2a2,2,0,0,0-2-2Z" transform="translate(1 3)" fill="#777e90"/>
  <g id="Shape-2" data-name="Shape" transform="translate(6 9)">
    <path id="BD640641-3E96-4F9A-9E7A-5F77FD418A76" d="M6,.5A.5.5,0,0,0,5.5,0H1A1,1,0,0,0,0,1V9a3,3,0,0,0,3,3H5.5a.5.5,0,0,0,.5-.5Z" fill="#777e90"/>
    <path id="C499DC94-7A5F-4328-926B-6A2BA1E43E6E" d="M0,11.5a.5.5,0,0,0,.5.5H1A3,3,0,0,0,4,9V1A1,1,0,0,0,3,0H.5A.5.5,0,0,0,0,.5Z" transform="translate(8)" fill="#777e90"/>
  </g>
</svg>
