<svg id="Icons_Dribbble_Line" data-name="Icons/Dribbble/Line" xmlns="http://www.w3.org/2000/svg" width="24" height="24" viewBox="0 0 24 24">
  <path id="Vector" d="M10,18a8,8,0,1,0-8-8A8,8,0,0,0,10,18Zm0,2A10,10,0,1,0,0,10,10,10,0,0,0,10,20Z" transform="translate(2 2)" fill="#777e90" fill-rule="evenodd"/>
  <path id="Vector-2" data-name="Vector" d="M13.474,18.861a31.591,31.591,0,0,0-1.779-7c-2.038.988-4.318,2.715-7.453,5.794a10.06,10.06,0,0,1-1.516-1.315c3.292-3.247,5.807-5.188,8.19-6.324q-.459-.994-.989-1.963A34.646,34.646,0,0,1,0,9.473a10.045,10.045,0,0,1,.2-2A33.09,33.09,0,0,0,8.889,6.281,50.4,50.4,0,0,0,4.93.86,9.95,9.95,0,0,1,6.811,0a50.289,50.289,0,0,1,4.017,5.616A24.43,24.43,0,0,0,16.8,2.15a10.05,10.05,0,0,1,1.326,1.5,26.714,26.714,0,0,1-6.3,3.716q.506.945.949,1.913a23.221,23.221,0,0,1,7.173-.8q.049.493.049,1t-.049,1a21.928,21.928,0,0,0-6.394.652,33.279,33.279,0,0,1,1.8,6.793A9.964,9.964,0,0,1,13.474,18.861Z" transform="translate(2 2.519)" fill="#777e90"/>
</svg>
