<svg id="icons_Brightness_Up_Line" data-name="icons/Brightness Up/Line" xmlns="http://www.w3.org/2000/svg" width="24" height="24" viewBox="0 0 24 24">
  <g id="Shape" transform="translate(2 2)">
    <path id="FF9C7649-6843-4F40-AED5-63F999465305" d="M1,0A1,1,0,0,0,0,1V3A1,1,0,0,0,2,3V1A1,1,0,0,0,1,0Z" transform="translate(9)" fill="#777e90"/>
    <path id="B9970BF3-2DCF-48E4-A002-1FE8299CCB5A" d="M1,0A1,1,0,0,0,0,1V3A1,1,0,0,0,2,3V1A1,1,0,0,0,1,0Z" transform="translate(9 16)" fill="#777e90"/>
    <path id="_88EBD521-9B1B-4714-9218-60ADDCED56F0" data-name="88EBD521-9B1B-4714-9218-60ADDCED56F0" d="M3,0A1,1,0,0,1,3,2H1A1,1,0,0,1,1,0Z" transform="translate(16 9)" fill="#777e90"/>
    <path id="F051F8E8-F5B9-4F9D-B3EB-2916A37DE3F9" d="M4,1A1,1,0,0,0,3,0H1A1,1,0,0,0,1,2H3A1,1,0,0,0,4,1Z" transform="translate(0 9)" fill="#777e90"/>
    <path id="_4D7F8B40-9EB4-442D-AAD2-7CE6C55F1673" data-name="4D7F8B40-9EB4-442D-AAD2-7CE6C55F1673" d="M1.707.293A1,1,0,1,1,3.121,1.707L1.707,3.121A1,1,0,1,1,.293,1.707Z" transform="translate(13.95 2.636)" fill="#777e90"/>
    <path id="DBE4D97F-B15F-4C45-88B2-86D9E20F9EA4" d="M3.121.293a1,1,0,0,0-1.414,0L.293,1.707A1,1,0,0,0,1.707,3.121L3.121,1.707A1,1,0,0,0,3.121.293Z" transform="translate(2.636 13.95)" fill="#777e90"/>
    <path id="_77424657-35B3-4D3A-8ED0-DD56C1A57B92" data-name="77424657-35B3-4D3A-8ED0-DD56C1A57B92" d="M3.121,1.707A1,1,0,0,1,1.707,3.121L.293,1.707A1,1,0,0,1,1.707.293Z" transform="translate(13.95 13.95)" fill="#777e90"/>
    <path id="_66FF7A3C-2404-4E9F-91C4-169850C03447" data-name="66FF7A3C-2404-4E9F-91C4-169850C03447" d="M3.121,3.121a1,1,0,0,0,0-1.414L1.707.293A1,1,0,0,0,.293,1.707L1.707,3.121A1,1,0,0,0,3.121,3.121Z" transform="translate(2.636 2.636)" fill="#777e90"/>
  </g>
  <path id="Shape-2" data-name="Shape" d="M4,6A2,2,0,1,0,2,4,2,2,0,0,0,4,6ZM4,8A4,4,0,1,0,0,4,4,4,0,0,0,4,8Z" transform="translate(8 8)" fill="#777e90" fill-rule="evenodd"/>
</svg>
