<svg id="icons_File_Video_Filled" data-name="icons/File Video/Filled" xmlns="http://www.w3.org/2000/svg" width="24" height="24" viewBox="0 0 24 24">
  <path id="Shape" d="M11,1a1,1,0,0,0-1-1H3A3,3,0,0,0,0,3V19a3,3,0,0,0,3,3H15a3,3,0,0,0,3-3V8a1,1,0,0,0-1-1H14a3,3,0,0,1-3-3Zm.481,11.132L7.5,9.855a1,1,0,0,0-1.5.868v4.554a1,1,0,0,0,1.5.868l3.984-2.277A1,1,0,0,0,11.481,12.132Z" transform="translate(3 1)" fill="#777e90" fill-rule="evenodd"/>
  <path id="Shape-2" data-name="Shape" d="M.977.052C.468-.162,0,.322,0,.874v3a1,1,0,0,0,1,1H4c.552,0,1.036-.468.822-.977a1.88,1.88,0,0,0-.408-.608L1.586.46A1.88,1.88,0,0,0,.977.052Z" transform="translate(16 1.126)" fill="#777e90"/>
</svg>
