<svg id="icons_ATM_Line" data-name="icons/ATM/Line" xmlns="http://www.w3.org/2000/svg" width="24" height="24" viewBox="0 0 24 24">
  <path id="Shape" d="M3,2H19a1,1,0,0,1,1,1V7a1,1,0,0,1-1,1H17a1,1,0,0,0,0,2h2a3,3,0,0,0,3-3V3a3,3,0,0,0-3-3H3A3,3,0,0,0,0,3V7a3,3,0,0,0,3,3H5A1,1,0,0,0,5,8H3A1,1,0,0,1,2,7V3A1,1,0,0,1,3,2Z" transform="translate(1 3)" fill="#777e90"/>
  <path id="Shape-2" data-name="Shape" d="M14,0V10a3,3,0,0,1-3,3H3a3,3,0,0,1-3-3V0ZM9,2h3v8a1,1,0,0,1-1,1H9ZM7,11H3a1,1,0,0,1-1-1V2H7Z" transform="translate(5 8)" fill="#777e90" fill-rule="evenodd"/>
</svg>
