<svg id="icons_Volume_Up_Line" data-name="icons/Volume Up/Line" xmlns="http://www.w3.org/2000/svg" width="24" height="24" viewBox="0 0 24 24">
  <path id="Shape" d="M5,1A1,1,0,0,0,3,1V3H1A1,1,0,0,0,1,5H3V7A1,1,0,0,0,5,7V5H7A1,1,0,0,0,7,3H5Z" transform="translate(16 8)" fill="#777e90"/>
  <path id="Shape-2" data-name="Shape" d="M5.828,5.763H3a1,1,0,0,0-1,1v2a1,1,0,0,0,1,1H5.828l3.464,3.464A1,1,0,0,0,11,12.521V3.006A1,1,0,0,0,9.293,2.3Zm-.828,6,2.879,2.879A3,3,0,0,0,13,12.521V3.006A3,3,0,0,0,7.879.885L5,3.763H3a3,3,0,0,0-3,3v2a3,3,0,0,0,3,3Z" transform="translate(0 4.237)" fill="#777e90" fill-rule="evenodd"/>
</svg>
