<svg id="icons_Medal_Line" data-name="icons/Medal/Line" xmlns="http://www.w3.org/2000/svg" width="24" height="24" viewBox="0 0 24 24">
  <path id="Shape" d="M8,14A6,6,0,1,0,2,8,6,6,0,0,0,8,14Zm0,2A8,8,0,1,0,0,8,8,8,0,0,0,8,16Z" transform="translate(4 8)" fill="#777e90" fill-rule="evenodd"/>
  <path id="Shape-2" data-name="Shape" d="M4,6A2,2,0,1,0,2,4,2,2,0,0,0,4,6ZM4,8A4,4,0,1,0,0,4,4,4,0,0,0,4,8Z" transform="translate(8 12)" fill="#777e90" fill-rule="evenodd"/>
  <path id="Shape-3" data-name="Shape" d="M3,2a1,1,0,0,0-.894,1.447L4.692,8.613a7.99,7.99,0,0,0-1.738,1L.321,4.342A3,3,0,0,1,3,0H4.532A3,3,0,0,1,7.215,1.658l.553,1.106.553-1.106A3,3,0,0,1,11,0h1.528a3,3,0,0,1,2.683,4.342L12.581,9.609a7.99,7.99,0,0,0-1.738-1l2.583-5.165A1,1,0,0,0,12.532,2H11a1,1,0,0,0-.894.553L8.886,5l1.768,3.537a7.965,7.965,0,0,0-2.5-.527L5.426,2.553A1,1,0,0,0,4.532,2Z" transform="translate(4.232)" fill="#777e90"/>
</svg>
