<svg id="Icons_Windows_Filled" data-name="Icons/Windows/Filled" xmlns="http://www.w3.org/2000/svg" width="24" height="24" viewBox="0 0 24 24">
  <path id="Vector" d="M1.7.864A2,2,0,0,0,0,2.842V6.62a.5.5,0,0,0,.5.5h7a.5.5,0,0,0,.5-.5V.5A.5.5,0,0,0,7.426.006Z" transform="translate(2 3.88)" fill="#777e90"/>
  <path id="Vector-2" data-name="Vector" d="M.426,1.114A.5.5,0,0,0,0,1.609v6.57a.5.5,0,0,0,.5.5h9a.5.5,0,0,0,.5-.5V2A2,2,0,0,0,7.7.023Z" transform="translate(12 2.322)" fill="#777e90"/>
  <path id="Vector-3" data-name="Vector" d="M10,.5A.5.5,0,0,0,9.5,0H.5A.5.5,0,0,0,0,.5V7.069a.5.5,0,0,0,.426.494L7.7,8.655A2,2,0,0,0,10,6.677Z" transform="translate(12 13)" fill="#777e90"/>
  <path id="Vector-4" data-name="Vector" d="M7.426,7.114A.5.5,0,0,0,8,6.619V.5A.5.5,0,0,0,7.5,0H.5A.5.5,0,0,0,0,.5V4.277A2,2,0,0,0,1.7,6.255Z" transform="translate(2 13)" fill="#777e90"/>
</svg>
