<svg id="Icons_Dribbble_Filled" data-name="Icons/Dribbble/Filled" xmlns="http://www.w3.org/2000/svg" width="24" height="24" viewBox="0 0 24 24">
  <path id="Vector" d="M8.573,6.939a.479.479,0,0,0,.322-.53A31.6,31.6,0,0,0,7.364.32.479.479,0,0,0,6.689.056,30.358,30.358,0,0,0,.151,5.184a.476.476,0,0,0,.07.749A9.953,9.953,0,0,0,5.479,7.427,9.992,9.992,0,0,0,8.573,6.939Z" transform="translate(6.521 14.573)" fill="#777e90"/>
  <path id="Vector-2" data-name="Vector" d="M1.515,6.69a.479.479,0,0,0,.754.319A10,10,0,0,0,6.166.547.478.478,0,0,0,5.681,0,22.084,22.084,0,0,0,.361.5a.49.49,0,0,0-.33.648A33.125,33.125,0,0,1,1.515,6.69Z" transform="translate(15.715 13.004)" fill="#777e90"/>
  <path id="Vector-3" data-name="Vector" d="M7.37,4.619a.481.481,0,0,0,.481-.549A9.939,9.939,0,0,0,6.388.216.486.486,0,0,0,5.685.1,26.624,26.624,0,0,1,.31,3.288a.515.515,0,0,0-.253.707q.261.507.5,1.021a.519.519,0,0,0,.61.274A22.879,22.879,0,0,1,7.37,4.619Z" transform="translate(14.03 6.385)" fill="#777e90"/>
  <path id="Vector-4" data-name="Vector" d="M9.175,3.025A.472.472,0,0,0,9.2,2.279,10.021,10.021,0,0,0,.349.314a.477.477,0,0,0-.239.767A49.714,49.714,0,0,1,3.453,5.776a.5.5,0,0,0,.612.2A24.182,24.182,0,0,0,9.175,3.025Z" transform="translate(9.154 2)" fill="#777e90"/>
  <path id="Vector-5" data-name="Vector" d="M4.87.181A.481.481,0,0,0,4.236.076,10.018,10.018,0,0,0,.017,5.851.473.473,0,0,0,.5,6.443,33.29,33.29,0,0,0,7.924,5.45a.484.484,0,0,0,.281-.732A51.036,51.036,0,0,0,4.87.181Z" transform="translate(2.331 3.528)" fill="#777e90"/>
  <path id="Vector-6" data-name="Vector" d="M0,1.817a.485.485,0,0,1,.48-.5A34.581,34.581,0,0,0,9.523.021a.5.5,0,0,1,.588.241q.3.574.584,1.155a.506.506,0,0,1-.232.666A32.071,32.071,0,0,0,3.081,7.83a.484.484,0,0,1-.707-.022A9.937,9.937,0,0,1,0,1.817Z" transform="translate(2.011 10.674)" fill="#777e90"/>
</svg>
