<svg id="icons_Gold_Line" data-name="icons/Gold/Line" xmlns="http://www.w3.org/2000/svg" width="24" height="24" viewBox="0 0 24 24">
  <path id="Shape" d="M3.5,2a1,1,0,0,0-.992.876l-.5,4A1,1,0,0,0,3,8H8.469a1,1,0,0,0,.992-1.124l-.5-4A1,1,0,0,0,7.969,2ZM.524,2.628A3,3,0,0,1,3.5,0H7.969a3,3,0,0,1,2.977,2.628l.5,4A3,3,0,0,1,8.469,10H3A3,3,0,0,1,.024,6.628Z" transform="translate(1.265 11)" fill="#777e90" fill-rule="evenodd"/>
  <path id="Shape-2" data-name="Shape" d="M3.5,2a1,1,0,0,0-.992.876l-.5,4A1,1,0,0,0,3,8H8.469a1,1,0,0,0,.992-1.124l-.5-4A1,1,0,0,0,7.969,2ZM.524,2.628A3,3,0,0,1,3.5,0H7.969a3,3,0,0,1,2.977,2.628l.5,4A3,3,0,0,1,8.469,10H3A3,3,0,0,1,.024,6.628Z" transform="translate(11.265 11)" fill="#777e90" fill-rule="evenodd"/>
  <path id="Shape-3" data-name="Shape" d="M3.5,2a1,1,0,0,0-.992.876l-.5,4A1,1,0,0,0,3,8H8.469a1,1,0,0,0,.992-1.124l-.5-4A1,1,0,0,0,7.969,2ZM.524,2.628A3,3,0,0,1,3.5,0H7.969a3,3,0,0,1,2.977,2.628l.5,4A3,3,0,0,1,8.469,10H3A3,3,0,0,1,.024,6.628Z" transform="translate(6.265 3)" fill="#777e90" fill-rule="evenodd"/>
</svg>
