<svg id="icons_Shopping_Cart_Line" data-name="icons/Shopping Cart/Line" xmlns="http://www.w3.org/2000/svg" width="24" height="24" viewBox="0 0 24 24">
  <g id="Shape" transform="translate(4 17)">
    <path id="D2509E5D-91EB-4403-B187-1A61675550FB" d="M6,3A3,3,0,1,1,3,0,3,3,0,0,1,6,3ZM4,3A1,1,0,1,1,3,2,1,1,0,0,1,4,3Z" fill="#777e90" fill-rule="evenodd"/>
    <path id="_8F198CB1-F179-4654-9E4C-F8AC98DEC3DE" data-name="8F198CB1-F179-4654-9E4C-F8AC98DEC3DE" d="M16,3a3,3,0,1,1-3-3A3,3,0,0,1,16,3ZM14,3a1,1,0,1,1-1-1A1,1,0,0,1,14,3Z" fill="#777e90" fill-rule="evenodd"/>
  </g>
  <path id="Shape-2" data-name="Shape" d="M.106.553A1,1,0,0,1,1.447.106l1,.5A3,3,0,0,1,4.1,3.019l.048.526a.5.5,0,0,0,.5.455H17.836a2.5,2.5,0,0,1,2.341,3.378l-1.753,4.676A3,3,0,0,1,15.614,14H5.827a3,3,0,0,1-2.988-2.728L2.105,3.2a1,1,0,0,0-.549-.8l-1-.5A1,1,0,0,1,.106.553ZM4.916,6a.5.5,0,0,0-.5.545l.413,4.545a1,1,0,0,0,1,.909h9.788a1,1,0,0,0,.936-.649L18.3,6.676A.5.5,0,0,0,17.836,6Z" transform="translate(2 2)" fill="#777e90" fill-rule="evenodd"/>
</svg>
