<svg id="icons_Hand_Sanitizer_Line" data-name="icons/Hand Sanitizer/Line" xmlns="http://www.w3.org/2000/svg" width="24" height="24" viewBox="0 0 24 24">
  <path id="Shape" d="M12,4.341A6,6,0,0,1,16,10v7a3,3,0,0,1-3,3H3a3,3,0,0,1-3-3V10A6,6,0,0,1,4,4.341V3A3,3,0,0,1,7,0H9a3,3,0,0,1,3,3ZM10,4V3A1,1,0,0,0,9,2H7A1,1,0,0,0,6,3V4ZM6,6h4a4,4,0,0,1,4,4v7a1,1,0,0,1-1,1H3a1,1,0,0,1-1-1V10A4,4,0,0,1,6,6Z" transform="translate(4 4)" fill="#777e90" fill-rule="evenodd"/>
  <path id="Shape-2" data-name="Shape" d="M2.121,2.293A1,1,0,0,1,2.828,2H4V6H6V2H8A1,1,0,0,0,8,0H2.828A3,3,0,0,0,.707.879l-.414.414A1,1,0,0,0,1.707,2.707Z" transform="translate(7)" fill="#777e90"/>
</svg>
