<svg id="icons_File_Chart_Line_Filled" data-name="icons/File Chart Line/Filled" xmlns="http://www.w3.org/2000/svg" width="24" height="24" viewBox="0 0 24 24">
  <path id="Shape" d="M11,1a1,1,0,0,0-1-1H3A3,3,0,0,0,0,3V19a3,3,0,0,0,3,3H15a3,3,0,0,0,3-3V8a1,1,0,0,0-1-1H14a3,3,0,0,1-3-3Zm2.8,10.6a1,1,0,0,0-1.6-1.2L9.768,13.643,7.555,12.168a1,1,0,0,0-1.387.277l-2,3a1,1,0,0,0,1.664,1.109l1.445-2.168,2.168,1.445A1,1,0,0,0,10.8,15.6Z" transform="translate(3 1)" fill="#777e90" fill-rule="evenodd"/>
  <path id="Shape-2" data-name="Shape" d="M.977.052C.468-.162,0,.322,0,.874v3a1,1,0,0,0,1,1H4c.552,0,1.036-.468.822-.977a1.88,1.88,0,0,0-.408-.608L1.586.46A1.88,1.88,0,0,0,.977.052Z" transform="translate(16 1.126)" fill="#777e90"/>
</svg>
