<svg id="icons_Subtitles_Line" data-name="icons/Subtitles/Line" xmlns="http://www.w3.org/2000/svg" width="24" height="24" viewBox="0 0 24 24">
  <path id="Shape" d="M19,2H3A1,1,0,0,0,2,3V15a1,1,0,0,0,1,1H19a1,1,0,0,0,1-1V3A1,1,0,0,0,19,2ZM3,0A3,3,0,0,0,0,3V15a3,3,0,0,0,3,3H19a3,3,0,0,0,3-3V3a3,3,0,0,0-3-3Z" transform="translate(1 3)" fill="#777e90" fill-rule="evenodd"/>
  <g id="Shape-2" data-name="Shape" transform="translate(5 11)">
    <path id="_7F2CEACA-4E83-4049-8359-C344B28AE9F2" data-name="7F2CEACA-4E83-4049-8359-C344B28AE9F2" d="M1,0A1,1,0,0,0,1,2H7A1,1,0,0,0,7,0Z" transform="translate(6)" fill="#777e90"/>
    <path id="_3B9255E1-7DDC-4F57-BD7A-943F74BC30F9" data-name="3B9255E1-7DDC-4F57-BD7A-943F74BC30F9" d="M1,0A1,1,0,0,0,1,2H7A1,1,0,0,0,7,0Z" transform="translate(0 4)" fill="#777e90"/>
    <path id="BAD20F8E-538F-448B-BFE8-699A45FB07CF" d="M0,1A1,1,0,0,1,1,0H3A1,1,0,0,1,3,2H1A1,1,0,0,1,0,1Z" transform="translate(10 4)" fill="#777e90"/>
    <path id="_08CBD8F9-9C8F-4D17-9CD4-3CD34D13F884" data-name="08CBD8F9-9C8F-4D17-9CD4-3CD34D13F884" d="M1,0A1,1,0,0,0,1,2H3A1,1,0,0,0,3,0Z" fill="#777e90"/>
  </g>
</svg>
