<svg id="icons_Apple_Line" data-name="icons/Apple/Line" xmlns="http://www.w3.org/2000/svg" width="24" height="24" viewBox="0 0 24 24">
  <path id="Shape" d="M9.433,12.975a1,1,0,0,1,1.133,0l.567.389A3.275,3.275,0,0,0,13,14a4.4,4.4,0,0,0,3.373-2.163A8.782,8.782,0,0,0,18,7a4.838,4.838,0,0,0-5-5,5.307,5.307,0,0,0-2.182.45l-.409.183a1,1,0,0,1-.818,0L9.182,2.45A5.307,5.307,0,0,0,7,2,4.838,4.838,0,0,0,2,7a8.782,8.782,0,0,0,1.627,4.837A4.4,4.4,0,0,0,7,14a3.275,3.275,0,0,0,1.867-.636ZM10,.625A7.306,7.306,0,0,1,13,0a6.835,6.835,0,0,1,7,7c0,4-3,9-7,9a5.267,5.267,0,0,1-3-.988A5.267,5.267,0,0,1,7,16c-4,0-7-5-7-9A6.835,6.835,0,0,1,7,0,7.306,7.306,0,0,1,10,.625Z" transform="translate(2 6)" fill="#777e90" fill-rule="evenodd"/>
  <g id="Shape-2" data-name="Shape" transform="translate(8 12)">
    <path id="_457FEAF4-8049-4A5C-90C9-B29AC596C2E0" data-name="457FEAF4-8049-4A5C-90C9-B29AC596C2E0" d="M.5,0A.5.5,0,0,0,0,.5v1A1.5,1.5,0,0,0,1.5,3,.5.5,0,0,0,2,2.5v-1A1.5,1.5,0,0,0,.5,0Z" fill="#777e90"/>
    <path id="FFBFC9EF-89D8-4245-AF45-98C219CE4AB0" d="M1.5,0A.5.5,0,0,1,2,.5v1A1.5,1.5,0,0,1,.5,3,.5.5,0,0,1,0,2.5v-1A1.5,1.5,0,0,1,1.5,0Z" transform="translate(6)" fill="#777e90"/>
  </g>
  <path id="Shape-3" data-name="Shape" d="M2,2A3,3,0,0,1,4.836,4.018,1.33,1.33,0,0,0,6,5a.862.862,0,0,0,.9-.994A5,5,0,0,0,2,0H1A1,1,0,1,0,1,2Z" transform="translate(6 2)" fill="#777e90"/>
  <path id="Shape-4" data-name="Shape" d="M0-2.333A2.333,2.333,0,0,0,2.333,0h3A3.667,3.667,0,0,0,9-3.667,2.333,2.333,0,0,0,6.667-6h-3A3.667,3.667,0,0,0,0-2.333ZM2.333-2A.333.333,0,0,1,2-2.333,1.667,1.667,0,0,1,3.667-4h3A.333.333,0,0,1,7-3.667,1.667,1.667,0,0,1,5.333-2Z" transform="translate(20 2) rotate(180)" fill="#777e90" fill-rule="evenodd"/>
</svg>
