<svg id="icons_Pie_02_Line" data-name="icons/Pie 02/Line" xmlns="http://www.w3.org/2000/svg" width="24" height="24" viewBox="0 0 24 24">
  <path id="Shape" d="M15.658,7A7,7,0,0,0,2.242,7Zm2.236,1a.919.919,0,0,1-.944,1H.95A.919.919,0,0,1,.006,8,9,9,0,0,1,17.895,8Z" transform="translate(22 2.05) rotate(90)" fill="#777e90" fill-rule="evenodd"/>
  <path id="Shape-2" data-name="Shape" d="M15.658,7A7,7,0,0,0,2.242,7Zm2.236,1a.919.919,0,0,1-.944,1H.95A.919.919,0,0,1,.006,8,9,9,0,0,1,17.895,8Z" transform="translate(2 21.95) rotate(-90)" fill="#777e90" fill-rule="evenodd"/>
</svg>
