<svg id="icons_Backward_15_sec_Filled" data-name="icons/Backward 15 sec/Filled" xmlns="http://www.w3.org/2000/svg" width="24" height="24" viewBox="0 0 24 24">
  <path id="Shape" d="M5.343,2A9,9,0,0,0,11,18h.089A8.954,8.954,0,0,0,20,9.18q0-.09,0-.18t0-.174A8.954,8.954,0,0,0,11.089,0H1A1,1,0,0,0,1,2ZM7,6A1,1,0,0,1,9,6v6a1,1,0,0,1-2,0Zm3,.5A1.5,1.5,0,0,1,11.5,5H14a1,1,0,0,1,0,2H12V8h1.5A1.5,1.5,0,0,1,15,9.5v2A1.5,1.5,0,0,1,13.5,13H11a1,1,0,0,1,0-2h2V10H11.5A1.5,1.5,0,0,1,10,8.5Z" transform="translate(3 3)" fill="#777e90" fill-rule="evenodd"/>
  <path id="Shape-2" data-name="Shape" d="M.293,2.293a1,1,0,0,0,0,1.414l2,2A1,1,0,0,0,3.707,4.293L2.414,3,3.707,1.707A1,1,0,0,0,2.293.293Z" transform="translate(1 1)" fill="#777e90"/>
</svg>
