<svg id="icons_Medicine_Bottle_Line" data-name="icons/Medicine Bottle/Line" xmlns="http://www.w3.org/2000/svg" width="24" height="24" viewBox="0 0 24 24">
  <path id="Shape" d="M14,2H2V12a2,2,0,0,0,2,2h8a2,2,0,0,0,2-2ZM0,0V12a4,4,0,0,0,4,4h8a4,4,0,0,0,4-4V0Z" transform="translate(4 7)" fill="#777e90" fill-rule="evenodd"/>
  <path id="Shape-2" data-name="Shape" d="M3,0A1,1,0,0,0,2,1V2H1A1,1,0,0,0,1,4H2V5A1,1,0,0,0,4,5V4H5A1,1,0,0,0,5,2H4V1A1,1,0,0,0,3,0Z" transform="translate(9 12)" fill="#777e90"/>
  <path id="Shape-3" data-name="Shape" d="M15,8a3,3,0,0,0,3-3V3a3,3,0,0,0-3-3H3A3,3,0,0,0,0,3V5A3,3,0,0,0,3,8ZM3,2H15a1,1,0,0,1,1,1V5a1,1,0,0,1-1,1H14V5a1,1,0,0,0-2,0V6H10V5A1,1,0,0,0,8,5V6H6V5A1,1,0,0,0,4,5V6H3A1,1,0,0,1,2,5V3A1,1,0,0,1,3,2Z" transform="translate(3 1)" fill="#777e90" fill-rule="evenodd"/>
</svg>
