<svg id="icons_Delivery_Truck_Line" data-name="icons/Delivery Truck/Line" xmlns="http://www.w3.org/2000/svg" width="24" height="24" viewBox="0 0 24 24">
  <path id="Shape" d="M0,3A3,3,0,0,1,3,0h8a3,3,0,0,1,3,3v9a2,2,0,0,1-2,2H8V12h3.5a.5.5,0,0,0,.5-.5V3a1,1,0,0,0-1-1H3A1,1,0,0,0,2,3v8a1,1,0,0,0,1,1H4v2H3a3,3,0,0,1-3-3Z" transform="translate(0 4)" fill="#777e90"/>
  <path id="Shape-2" data-name="Shape" d="M0,0H6.225A3,3,0,0,1,8.246.783l2.775,2.53A3,3,0,0,1,12,5.53V8a3,3,0,0,1-3,3H8V9H9a1,1,0,0,0,1-1V5.53a1,1,0,0,0-.326-.739L6.9,2.261A1,1,0,0,0,6.225,2H3A1,1,0,0,0,2,3V8.5a.5.5,0,0,0,.5.5H4v2H0Z" transform="translate(12 7)" fill="#777e90"/>
  <path id="Shape-3" data-name="Shape" d="M3,4A1,1,0,1,0,2,3,1,1,0,0,0,3,4ZM3,6A3,3,0,1,0,0,3,3,3,0,0,0,3,6Z" transform="translate(3 14)" fill="#777e90" fill-rule="evenodd"/>
  <path id="Shape-4" data-name="Shape" d="M3,4A1,1,0,1,0,2,3,1,1,0,0,0,3,4ZM3,6A3,3,0,1,0,0,3,3,3,0,0,0,3,6Z" transform="translate(15 14)" fill="#777e90" fill-rule="evenodd"/>
</svg>
