<svg id="icons_Line_03_Up_Line" data-name="icons/Line 03 Up/Line" xmlns="http://www.w3.org/2000/svg" width="24" height="24" viewBox="0 0 24 24">
  <path id="Shape" d="M1,0A1,1,0,0,1,2,1V15a1,1,0,0,0,1,1H21a1,1,0,0,1,0,2H3a3,3,0,0,1-3-3V1A1,1,0,0,1,1,0Z" transform="translate(1 3)" fill="#777e90"/>
  <path id="Shape-2" data-name="Shape" d="M15.5.132A1,1,0,0,1,15.868,1.5L12.682,7.073A3,3,0,0,1,9.128,8.43L6.007,7.39a1,1,0,0,0-1.1.324L1.781,11.625A1,1,0,0,1,.219,10.376L3.348,6.464a3,3,0,0,1,3.291-.972L9.761,6.533a1,1,0,0,0,1.184-.453L14.132.5A1,1,0,0,1,15.5.132Z" transform="translate(5 5)" fill="#777e90"/>
</svg>
