<svg id="icons_Hockey_Filled" data-name="icons/Hockey/Filled" xmlns="http://www.w3.org/2000/svg" width="24" height="24" viewBox="0 0 24 24">
  <path id="Shape" d="M13.472.806a.5.5,0,0,1,.224.671l-2.1,4.2A3,3,0,0,1,8.912,7.335H2a2,2,0,1,1,0-4h5.91A3,3,0,0,0,10.6,1.676l.7-1.4a.5.5,0,0,1,.671-.224Z" transform="translate(2.233 14.665)" fill="#777e90"/>
  <path id="Shape-2" data-name="Shape" d="M1.782,10.759a.5.5,0,0,0,.671-.224l4.3-8.594a1.342,1.342,0,0,0-2.4-1.2L.053,9.335a.5.5,0,0,0,.224.671Z" transform="translate(14.818 2.923)" fill="#777e90"/>
  <path id="Shape-3" data-name="Shape" d="M0,1A1,1,0,0,1,1,0H3A1,1,0,0,1,3,2H1A1,1,0,0,1,0,1Z" transform="translate(2 10)" fill="#777e90"/>
</svg>
