<svg id="icons_Comment_Filled" data-name="icons/Comment/Filled" xmlns="http://www.w3.org/2000/svg" width="24" height="24" viewBox="0 0 24 24">
  <path id="Shape" d="M.375,3.67A3.9,3.9,0,0,1,3.695.489,42.513,42.513,0,0,1,10,0a42.512,42.512,0,0,1,6.305.489,3.9,3.9,0,0,1,3.319,3.18A25.7,25.7,0,0,1,20,8a25.694,25.694,0,0,1-.375,4.33,3.9,3.9,0,0,1-3.319,3.18,42.9,42.9,0,0,1-5.681.484L4.509,19.608A1,1,0,0,1,3,18.748v-3.4A3.859,3.859,0,0,1,.375,12.33,25.7,25.7,0,0,1,0,8,25.7,25.7,0,0,1,.375,3.67ZM4,6A1,1,0,0,1,5,5H15a1,1,0,0,1,0,2H5A1,1,0,0,1,4,6Zm0,4A1,1,0,0,1,5,9H9a1,1,0,0,1,0,2H5A1,1,0,0,1,4,10Z" transform="translate(2 2)" fill="#777e90" fill-rule="evenodd"/>
</svg>
