<svg id="icons_File_Star_Line" data-name="icons/File Star/Line" xmlns="http://www.w3.org/2000/svg" width="24" height="24" viewBox="0 0 24 24">
  <path id="Shape" d="M0,4A4,4,0,0,1,4,0h8.343a4,4,0,0,1,2.829,1.172l1.657,1.657A4,4,0,0,1,18,5.657V18a4,4,0,0,1-4,4H4a4,4,0,0,1-4-4ZM16,7V18a2,2,0,0,1-2,2H4a2,2,0,0,1-2-2V4A2,2,0,0,1,4,2h7V4a3,3,0,0,0,3,3Zm-.111-2a2,2,0,0,0-.475-.757L13.757,2.586A2,2,0,0,0,13,2.111V4a1,1,0,0,0,1,1Z" transform="translate(3 1)" fill="#777e90" fill-rule="evenodd"/>
  <path id="Shape-2" data-name="Shape" d="M3.843.316a.5.5,0,0,1,.93,0l.812,2.052a.5.5,0,0,0,.423.314l2.15.181a.5.5,0,0,1,.293.87L6.776,5.241a.5.5,0,0,0-.153.482l.5,2.226a.5.5,0,0,1-.758.531L4.578,7.33a.5.5,0,0,0-.54,0L2.246,8.48a.5.5,0,0,1-.758-.531l.5-2.226a.5.5,0,0,0-.153-.482L.166,3.733a.5.5,0,0,1,.293-.87l2.15-.181a.5.5,0,0,0,.423-.314Z" transform="translate(7.692 8.859)" fill="#777e90"/>
</svg>
