<svg id="icons_Column_02_Average_Filled" data-name="icons/Column 02 Average/Filled" xmlns="http://www.w3.org/2000/svg" width="24" height="24" viewBox="0 0 24 24">
  <path id="Shape" d="M2,0A2,2,0,0,0,0,2V16a2,2,0,0,0,2,2H20a2,2,0,0,0,2-2V2a2,2,0,0,0-2-2ZM7,12a1,1,0,0,0-1,1v2a1,1,0,0,0,2,0V13A1,1,0,0,0,7,12Zm7-1a1,1,0,0,1,2,0v4a1,1,0,0,1-2,0ZM11,4a1,1,0,0,0-1,1V15a1,1,0,0,0,2,0V5A1,1,0,0,0,11,4Zm7,3a1,1,0,0,1,2,0v8a1,1,0,0,1-2,0ZM3,2A1,1,0,0,0,2,3V15a1,1,0,0,0,2,0V3A1,1,0,0,0,3,2Z" transform="translate(1 3)" fill="#777e90" fill-rule="evenodd"/>
</svg>
