<svg id="icons_Grid_Horizontal_Line" data-name="icons/Grid Horizontal/Line" xmlns="http://www.w3.org/2000/svg" width="24" height="24" viewBox="0 0 24 24">
  <path id="Shape" d="M4.5,2a14.238,14.238,0,0,0-1.756.154.539.539,0,0,0-.489.5C2.131,4.079,2,6.435,2,10s.131,5.92.255,7.345a.538.538,0,0,0,.489.5A14.236,14.236,0,0,0,4.5,18a14.236,14.236,0,0,0,1.756-.154.538.538,0,0,0,.489-.5C6.869,15.92,7,13.565,7,10s-.131-5.921-.255-7.345a.539.539,0,0,0-.489-.5A14.238,14.238,0,0,0,4.5,2ZM2.472.172A2.537,2.537,0,0,0,.262,2.483C.133,3.973,0,6.387,0,10s.133,6.027.262,7.517a2.537,2.537,0,0,0,2.21,2.31A16.077,16.077,0,0,0,4.5,20a16.077,16.077,0,0,0,2.028-.172,2.537,2.537,0,0,0,2.21-2.31C8.867,16.027,9,13.613,9,10s-.133-6.027-.262-7.517A2.537,2.537,0,0,0,6.528.172,16.085,16.085,0,0,0,4.5,0,16.085,16.085,0,0,0,2.472.172Z" transform="translate(22 13) rotate(90)" fill="#777e90" fill-rule="evenodd"/>
  <path id="Shape-2" data-name="Shape" d="M4.5,2a14.238,14.238,0,0,0-1.756.154.539.539,0,0,0-.489.5C2.131,4.079,2,6.435,2,10s.131,5.92.255,7.345a.538.538,0,0,0,.489.5A14.236,14.236,0,0,0,4.5,18a14.236,14.236,0,0,0,1.756-.154.538.538,0,0,0,.489-.5C6.869,15.92,7,13.565,7,10s-.131-5.921-.255-7.345a.539.539,0,0,0-.489-.5A14.238,14.238,0,0,0,4.5,2ZM2.472.172A2.537,2.537,0,0,0,.262,2.483C.133,3.973,0,6.387,0,10s.133,6.027.262,7.517a2.537,2.537,0,0,0,2.21,2.31A16.077,16.077,0,0,0,4.5,20a16.077,16.077,0,0,0,2.028-.172,2.537,2.537,0,0,0,2.21-2.31C8.867,16.027,9,13.613,9,10s-.133-6.027-.262-7.517A2.537,2.537,0,0,0,6.528.172,16.085,16.085,0,0,0,4.5,0,16.085,16.085,0,0,0,2.472.172Z" transform="translate(22 2) rotate(90)" fill="#777e90" fill-rule="evenodd"/>
</svg>
