<svg id="icons_Question_Circle_Line" data-name="icons/Question Circle/Line" xmlns="http://www.w3.org/2000/svg" width="24" height="24" viewBox="0 0 24 24">
  <path id="Shape" d="M10,18a8,8,0,1,0-8-8A8,8,0,0,0,10,18Zm0,2A10,10,0,1,0,0,10,10,10,0,0,0,10,20Z" transform="translate(2 2)" fill="#777e90" fill-rule="evenodd"/>
  <path id="Shape-2" data-name="Shape" d="M1.866,2.5a1,1,0,1,1-1.731-1A3,3,0,0,1,5.733,3a2.985,2.985,0,0,1-1.5,2.5c-.664.406-.25,1.5-1.5,1.5a1,1,0,0,1-1-1,1.012,1.012,0,0,1,.005-.1,2.191,2.191,0,0,1,.52-1.272,3.591,3.591,0,0,1,.9-.762C4.673,2.96,2.823,1.115,1.866,2.5ZM2.73,8a1,1,0,1,0,1,1A1,1,0,0,0,2.73,8Z" transform="translate(9.267 7)" fill="#777e90" fill-rule="evenodd"/>
</svg>
