<svg id="Icons_Facebook_Line" data-name="Icons/Facebook/Line" xmlns="http://www.w3.org/2000/svg" width="24" height="24" viewBox="0 0 24 24">
  <path id="Vector" d="M10,18a8,8,0,1,0-8-8A8,8,0,0,0,10,18Zm0,2A10,10,0,1,0,0,10,10,10,0,0,0,10,20Z" transform="translate(2 2)" fill="#777e90" fill-rule="evenodd"/>
  <path id="Vector-2" data-name="Vector" d="M4,3A1,1,0,0,1,5,2H6A1,1,0,0,0,6,0H5A3,3,0,0,0,2,3V5H1A1,1,0,0,0,1,7H2v6a1,1,0,0,0,2,0V7H6A1,1,0,0,0,6,5H4Z" transform="translate(8 7)" fill="#777e90"/>
</svg>
