<svg id="icons_Options_Square_Filled" data-name="icons/Options Square/Filled" xmlns="http://www.w3.org/2000/svg" width="24" height="24" viewBox="0 0 24 24">
  <path id="Shape" d="M.369,4.542A4.811,4.811,0,0,1,4.542.369,42.089,42.089,0,0,1,10,0a42.091,42.091,0,0,1,5.458.369,4.811,4.811,0,0,1,4.173,4.173A42.082,42.082,0,0,1,20,10a42.084,42.084,0,0,1-.369,5.458,4.811,4.811,0,0,1-4.173,4.173A42.084,42.084,0,0,1,10,20a42.082,42.082,0,0,1-5.458-.369A4.811,4.811,0,0,1,.369,15.458,42.091,42.091,0,0,1,0,10,42.089,42.089,0,0,1,.369,4.542ZM6,11a1,1,0,1,0-1-1A1,1,0,0,0,6,11Zm4,0a1,1,0,1,0-1-1A1,1,0,0,0,10,11Zm5-1a1,1,0,1,1-1-1A1,1,0,0,1,15,10Z" transform="translate(2 2)" fill="#777e90" fill-rule="evenodd"/>
</svg>
