<svg id="icons_Soccer_Field_Line" data-name="icons/Soccer Field/Line" xmlns="http://www.w3.org/2000/svg" width="24" height="24" viewBox="0 0 24 24">
  <path id="Shape" d="M20,2H4A2,2,0,0,0,2,4v8a2,2,0,0,0,2,2H20a2,2,0,0,0,2-2V4A2,2,0,0,0,20,2ZM4,0A4,4,0,0,0,0,4v8a4,4,0,0,0,4,4H20a4,4,0,0,0,4-4V4a4,4,0,0,0-4-4Z" transform="translate(0 4)" fill="#777e90" fill-rule="evenodd"/>
  <path id="Shape-2" data-name="Shape" d="M3,0H5V4.126a4,4,0,0,1,0,7.748V16H3V11.874A4,4,0,0,1,3,4.126ZM4,10A2,2,0,1,0,2,8,2,2,0,0,0,4,10Z" transform="translate(8 4)" fill="#777e90" fill-rule="evenodd"/>
  <g id="Shape-3" data-name="Shape" transform="translate(0 8)">
    <path id="_2C979CC6-7ACA-4D54-B59F-A503EFCC1AB4" data-name="2C979CC6-7ACA-4D54-B59F-A503EFCC1AB4" d="M0,8V0H3A3,3,0,0,1,6,3V5A3,3,0,0,1,3,8ZM2,2H3A1,1,0,0,1,4,3V5A1,1,0,0,1,3,6H2Z" fill="#777e90" fill-rule="evenodd"/>
    <path id="_61EFAED4-205D-4EB9-8C22-126A68222E6B" data-name="61EFAED4-205D-4EB9-8C22-126A68222E6B" d="M24,8V0H21a3,3,0,0,0-3,3V5a3,3,0,0,0,3,3ZM22,2H21a1,1,0,0,0-1,1V5a1,1,0,0,0,1,1h1Z" fill="#777e90" fill-rule="evenodd"/>
  </g>
</svg>
