<svg id="icons_Volume_Mute_Filled" data-name="icons/Volume Mute/Filled" xmlns="http://www.w3.org/2000/svg" width="24" height="24" viewBox="0 0 24 24">
  <path id="Shape" d="M7.293.293A1,1,0,1,1,8.707,1.707L5.914,4.5,8.707,7.293A1,1,0,1,1,7.293,8.707L4.5,5.914,1.707,8.707A1,1,0,1,1,.293,7.293L3.086,4.5.293,1.707A1,1,0,0,1,1.707.293L4.5,3.086Z" transform="translate(15 7)" fill="#777e90"/>
  <path id="Shape-2" data-name="Shape" d="M5,4.888,9.632.545A2,2,0,0,1,13,2V13.771A2,2,0,0,1,9.632,15.23L5,10.888H2a2,2,0,0,1-2-2v-2a2,2,0,0,1,2-2Z" transform="translate(0 4.113)" fill="#777e90"/>
</svg>
