<svg id="icons_Line_03_Up_Filled" data-name="icons/Line 03 Up/Filled" xmlns="http://www.w3.org/2000/svg" width="24" height="24" viewBox="0 0 24 24">
  <path id="Shape" d="M2,0A2,2,0,0,0,0,2V16a2,2,0,0,0,2,2H20a2,2,0,0,0,2-2V2a2,2,0,0,0-2-2ZM19.868,3.5A1,1,0,0,0,18.132,2.5L14.883,8.189a1,1,0,0,1-1.111.474L8.712,7.4A3,3,0,0,0,5.38,8.819L2.132,14.5a1,1,0,0,0,1.736.992L7.117,9.812a1,1,0,0,1,1.111-.474l5.06,1.265A3,3,0,0,0,16.62,9.181Z" transform="translate(1 3)" fill="#777e90" fill-rule="evenodd"/>
</svg>
