<svg id="icons_Insert_Filled" data-name="icons/Insert/Filled" xmlns="http://www.w3.org/2000/svg" width="24" height="24" viewBox="0 0 24 24">
  <path id="Shape" d="M1,0A1,1,0,0,0,0,1V13a3,3,0,0,0,3,3H13a3,3,0,0,0,3-3V1a1,1,0,0,0-1-1ZM7.293,3.293a1,1,0,0,1,1.414,0l3,3a1,1,0,0,1-1.414,1.414L9,6.414V12a1,1,0,0,1-2,0V6.414L5.707,7.707A1,1,0,0,1,4.293,6.293Z" transform="translate(4 6)" fill="#777e90" fill-rule="evenodd"/>
  <path id="Shape-2" data-name="Shape" d="M0,1A1,1,0,0,1,1,0H19a1,1,0,0,1,0,2H1A1,1,0,0,1,0,1Z" transform="translate(2 2)" fill="#777e90"/>
</svg>
