<svg id="icons_Standings_Filled" data-name="icons/Standings/Filled" xmlns="http://www.w3.org/2000/svg" width="24" height="24" viewBox="0 0 24 24">
  <g id="Shape" transform="translate(0 4)">
    <path id="_3C75D6AB-9FAE-427F-B7E4-12DF2C3FF6F8" data-name="3C75D6AB-9FAE-427F-B7E4-12DF2C3FF6F8" d="M0,2A2,2,0,0,1,2,0H4A2,2,0,0,1,6,2V4A2,2,0,0,1,4,6H2A2,2,0,0,1,0,4Z" fill="#777e90"/>
    <path id="_138A6FD3-6F4D-45CE-A0CB-F98C937ADAA4" data-name="138A6FD3-6F4D-45CE-A0CB-F98C937ADAA4" d="M0,2A2,2,0,0,1,2,0H4A2,2,0,0,1,6,2V4A2,2,0,0,1,4,6H2A2,2,0,0,1,0,4Z" transform="translate(0 10)" fill="#777e90"/>
    <path id="_0538614D-12A6-41F7-9253-2C187ECE2C97" data-name="0538614D-12A6-41F7-9253-2C187ECE2C97" d="M2,0A2,2,0,0,0,0,2V4A2,2,0,0,0,2,6H4A2,2,0,0,0,6,4V2A2,2,0,0,0,4,0Z" transform="translate(18 5)" fill="#777e90"/>
  </g>
  <path id="Shape-2" data-name="Shape" d="M1,0A1,1,0,0,0,1,2H2A1,1,0,0,1,3,3V9a1,1,0,0,1-1,1H1a1,1,0,0,0,0,2H2A3,3,0,0,0,5,9V7H7A1,1,0,0,0,7,5H5V3A3,3,0,0,0,2,0Z" transform="translate(8 6)" fill="#777e90"/>
</svg>
