<svg id="icons_Question_Circle_Filled" data-name="icons/Question Circle/Filled" xmlns="http://www.w3.org/2000/svg" width="24" height="24" viewBox="0 0 24 24">
  <path id="Shape" d="M10,20A10,10,0,1,0,0,10,10,10,0,0,0,10,20ZM7.767,7.866A1,1,0,0,0,9.133,7.5c.957-1.385,2.807.459,1.29,1.361a3.59,3.59,0,0,0-.9.762A2.191,2.191,0,0,0,9,10.9,1.013,1.013,0,0,0,9,11a1,1,0,0,0,1,1,.965.965,0,0,0,1.054-.814A1.183,1.183,0,0,1,11.5,10.5,2.985,2.985,0,0,0,13,8,3,3,0,0,0,7.4,6.5,1,1,0,0,0,7.767,7.866ZM9,14a1,1,0,1,1,1,1A1,1,0,0,1,9,14Z" transform="translate(2 2)" fill="#777e90" fill-rule="evenodd"/>
</svg>
