<svg id="icons_Bank_Filled" data-name="icons/Bank/Filled" xmlns="http://www.w3.org/2000/svg" width="24" height="24" viewBox="0 0 24 24">
  <path id="Shape" d="M2,1A1,1,0,0,1,3,0H5A1,1,0,0,1,6,1V5H8V1A1,1,0,0,1,9,0h2a1,1,0,0,1,1,1V5h2V1a1,1,0,0,1,1-1h2a1,1,0,0,1,1,1V5a2,2,0,0,1,2,2V8a2,2,0,0,1-2,2H2A2,2,0,0,1,0,8V7A2,2,0,0,1,2,5Z" transform="translate(2 12)" fill="#777e90"/>
  <path id="Shape-2" data-name="Shape" d="M0,5.2A2,2,0,0,1,1.257,3.343l8-3.2a2,2,0,0,1,1.486,0l8,3.2A2,2,0,0,1,20,5.2v.646a2,2,0,0,1-2,2H2a2,2,0,0,1-2-2Z" transform="translate(2 2.154)" fill="#777e90"/>
</svg>
