<svg id="icons_Shorts_Line" data-name="icons/Shorts/Line" xmlns="http://www.w3.org/2000/svg" width="24" height="24" viewBox="0 0 24 24">
  <path id="Shape" d="M.633,3.75A4,4,0,0,1,4.625,0H16.989a4,4,0,0,1,3.992,3.75l.625,10A4,4,0,0,1,17.614,18H15.348A4,4,0,0,1,11.4,14.658l-.418-2.507a.18.18,0,0,0-.356,0l-.418,2.507A4,4,0,0,1,6.265,18H4A4,4,0,0,1,.008,13.75ZM4.625,2a2,2,0,0,0-2,1.875L2,13.875A2,2,0,0,0,4,16H6.265a2,2,0,0,0,1.973-1.671l.418-2.507a2.18,2.18,0,0,1,4.3,0l.418,2.507A2,2,0,0,0,15.348,16h2.265a2,2,0,0,0,2-2.125l-.625-10a2,2,0,0,0-2-1.875Z" transform="translate(1.193 3)" fill="#777e90" fill-rule="evenodd"/>
  <path id="Shape-2" data-name="Shape" d="M0,2,.125,0h20.5l.125,2Z" transform="translate(1.623 8)" fill="#777e90"/>
</svg>
