<svg id="icons_Pie_04_Line" data-name="icons/Pie 04/Line" xmlns="http://www.w3.org/2000/svg" width="24" height="24" viewBox="0 0 24 24">
  <path id="Shape" d="M6.708,6.95a7,7,0,0,0-.241-.679A7,7,0,0,0,4.95,4,7,7,0,0,0,2.679,2.483,7,7,0,0,0,2,2.242V6.95Zm2.236,1A.919.919,0,0,1,8,8.95H1a1,1,0,0,1-1-1v-7A.919.919,0,0,1,1,.006a9,9,0,0,1,2.446.63,9,9,0,0,1,2.92,1.951,9,9,0,0,1,1.951,2.92A9,9,0,0,1,8.944,7.952Z" transform="translate(21.95 13) rotate(90)" fill="#777e90" fill-rule="evenodd"/>
  <path id="Shape-2" data-name="Shape" d="M6.95,2.242A7,7,0,0,0,2.242,6.95H6.95Zm1-2.236a.919.919,0,0,1,1,.945v7a1,1,0,0,1-1,1h-7a.919.919,0,0,1-.945-1A9,9,0,0,1,7.952.006Z" transform="translate(21.95 2.05) rotate(90)" fill="#777e90" fill-rule="evenodd"/>
  <path id="Shape-3" data-name="Shape" d="M15.658,7A7,7,0,0,0,2.242,7Zm2.236,1a.919.919,0,0,1-.944,1H.95A.919.919,0,0,1,.006,8,9,9,0,0,1,17.895,8Z" transform="translate(2 20.95) rotate(-90)" fill="#777e90" fill-rule="evenodd"/>
</svg>
