<svg id="icons_Image_Line" data-name="icons/Image/Line" xmlns="http://www.w3.org/2000/svg" width="24" height="24" viewBox="0 0 24 24">
  <path id="Shape" d="M10,2a40.091,40.091,0,0,0-5.2.352A2.811,2.811,0,0,0,2.352,4.8,40.092,40.092,0,0,0,2,10a40.092,40.092,0,0,0,.352,5.2A2.811,2.811,0,0,0,4.8,17.648,40.084,40.084,0,0,0,10,18a40.086,40.086,0,0,0,5.2-.352A2.811,2.811,0,0,0,17.648,15.2,40.086,40.086,0,0,0,18,10a40.084,40.084,0,0,0-.352-5.2A2.811,2.811,0,0,0,15.2,2.352,40.094,40.094,0,0,0,10,2ZM4.542.369A4.811,4.811,0,0,0,.369,4.542,42.089,42.089,0,0,0,0,10a42.091,42.091,0,0,0,.369,5.458,4.811,4.811,0,0,0,4.173,4.173A42.082,42.082,0,0,0,10,20a42.084,42.084,0,0,0,5.458-.369,4.811,4.811,0,0,0,4.173-4.173A42.084,42.084,0,0,0,20,10a42.082,42.082,0,0,0-.369-5.458A4.811,4.811,0,0,0,15.458.369,42.091,42.091,0,0,0,10,0,42.089,42.089,0,0,0,4.542.369Z" transform="translate(2 2)" fill="#777e90" fill-rule="evenodd"/>
  <g id="Shape-2" data-name="Shape" transform="translate(4.247 7)">
    <path id="_89C46D9C-FB0B-4B13-88A0-442A41494BA6" data-name="89C46D9C-FB0B-4B13-88A0-442A41494BA6" d="M2,4A2,2,0,1,0,0,2,2,2,0,0,0,2,4Z" transform="translate(2.753)" fill="#777e90"/>
    <path id="E04EB05B-3B85-4A25-AE8F-BA18422C80A7" d="M13.874.879l1.794,1.794c-.062.936-.152,1.8-.252,2.576L12.46,2.293a1,1,0,0,0-1.414,0L8.874,4.464a3,3,0,0,1-4.243,0L4.46,4.293a1,1,0,0,0-1.414,0L.636,6.7A2.871,2.871,0,0,1,.1,5.368Q.05,4.957,0,4.51L1.631,2.879a3,3,0,0,1,4.243,0l.172.172a1,1,0,0,0,1.414,0L9.631.879A3,3,0,0,1,13.874.879Z" transform="translate(0 4.829)" fill="#777e90"/>
  </g>
</svg>
