<svg id="icons_Doughnut_Filled" data-name="icons/Doughnut/Filled" xmlns="http://www.w3.org/2000/svg" width="24" height="24" viewBox="0 0 24 24">
  <path id="Shape" d="M9,1.832A1.7,1.7,0,0,0,6.844.083,10.008,10.008,0,0,0,1.057,14.054a1.7,1.7,0,0,0,2.763.287l.093-.093a2.585,2.585,0,0,0,.421-2.694A6.008,6.008,0,0,1,7.393,4.169,2.588,2.588,0,0,0,9,1.965Zm5.479,16.686a1.7,1.7,0,0,0,.287-2.763l-.093-.093a2.585,2.585,0,0,0-2.694-.421,6.03,6.03,0,0,1-3.958,0,2.585,2.585,0,0,0-2.694.421l-.093.093a1.7,1.7,0,0,0,.287,2.763,10.021,10.021,0,0,0,8.957,0Z" transform="translate(2 2.425)" fill="#777e90" fill-rule="evenodd"/>
  <path id="Shape-2" data-name="Shape" d="M0,1.965a2.588,2.588,0,0,0,1.607,2.2A6,6,0,0,1,5,9.575a5.991,5.991,0,0,1-.334,1.979,2.585,2.585,0,0,0,.421,2.694l.093.093a1.7,1.7,0,0,0,2.763-.287A9.958,9.958,0,0,0,9,9.575,10,10,0,0,0,2.156.083,1.7,1.7,0,0,0,0,1.832Z" transform="translate(13 2.425)" fill="#777e90"/>
</svg>
