<svg id="icons_Plus_Square_Filled" data-name="icons/Plus Square/Filled" xmlns="http://www.w3.org/2000/svg" width="24" height="24" viewBox="0 0 24 24">
  <path id="Shape" d="M4.542.369A4.811,4.811,0,0,0,.369,4.542,42.089,42.089,0,0,0,0,10a42.091,42.091,0,0,0,.369,5.458,4.811,4.811,0,0,0,4.173,4.173A42.082,42.082,0,0,0,10,20a42.084,42.084,0,0,0,5.458-.369,4.811,4.811,0,0,0,4.173-4.173A42.084,42.084,0,0,0,20,10a42.082,42.082,0,0,0-.369-5.458A4.811,4.811,0,0,0,15.458.369,42.091,42.091,0,0,0,10,0,42.089,42.089,0,0,0,4.542.369ZM10,5A1,1,0,0,0,9,6V9H6a1,1,0,0,0,0,2H9v3a1,1,0,0,0,2,0V11h3a1,1,0,0,0,0-2H11V6A1,1,0,0,0,10,5Z" transform="translate(2 2)" fill="#777e90" fill-rule="evenodd"/>
</svg>
