<svg id="icons_Cup_02_Filled" data-name="icons/Cup 02/Filled" xmlns="http://www.w3.org/2000/svg" width="24" height="24" viewBox="0 0 24 24">
  <path id="Shape" d="M4,3A3,3,0,0,0,1,0,1,1,0,0,0,1,2,1,1,0,0,1,2,3V8A1,1,0,0,1,1,9a1,1,0,0,0,0,2A3,3,0,0,0,4,8Z" transform="translate(18 5)" fill="#777e90"/>
  <path id="Shape-2" data-name="Shape" d="M2,0A2,2,0,0,0,0,2V16a4,4,0,0,0,4,4h6a4,4,0,0,0,4-4V2a2,2,0,0,0-2-2H6V4A1,1,0,0,1,7,5V7A1,1,0,0,1,6,8H4A1,1,0,0,1,3,7V5A1,1,0,0,1,4,4V0Z" transform="translate(2 2)" fill="#777e90"/>
</svg>
