<svg id="icons_Brush_Filled" data-name="icons/Brush/Filled" xmlns="http://www.w3.org/2000/svg" width="24" height="24" viewBox="0 0 24 24">
  <path id="Shape" d="M7.359,8.773,4.346,12.991A2.4,2.4,0,1,1,1,9.649L5.222,6.636a.5.5,0,0,0,.063-.76L3.116,3.707a2,2,0,0,1,0-2.828L3.848.146a.5.5,0,0,1,.707,0l9.293,9.293a.5.5,0,0,1,0,.707l-.732.732a2,2,0,0,1-2.828,0L8.119,8.71A.5.5,0,0,0,7.359,8.773Z" transform="translate(2.298 7.707)" fill="#777e90"/>
  <path id="Shape-2" data-name="Shape" d="M9.439,13.318.146,4.025a.5.5,0,0,1,0-.707L2.879.586a2,2,0,0,1,2.828,0l7.172,7.172a2,2,0,0,1,0,2.828l-2.732,2.732A.5.5,0,0,1,9.439,13.318Z" transform="translate(8.207 2.328)" fill="#777e90"/>
</svg>
