<svg id="Icons_Pinterest_Filled" data-name="Icons/Pinterest/Filled" xmlns="http://www.w3.org/2000/svg" width="24" height="24" viewBox="0 0 24 24">
  <path id="Vector" d="M10,20a9.993,9.993,0,1,0-4.394-1.015.479.479,0,0,0,.669-.312L9.036,8.732a1,1,0,1,1,1.927.535L9.911,13.056a3.47,3.47,0,0,0,2.716-.35,3.27,3.27,0,0,0,1.34-2.414,4.306,4.306,0,0,0-.721-2.954A3.216,3.216,0,0,0,10.5,6,3.833,3.833,0,0,0,6.878,7.854a4.034,4.034,0,0,0,.017,3.7,1,1,0,0,1-1.789.894A6.032,6.032,0,0,1,5.122,6.9,5.818,5.818,0,0,1,10.5,4a5.212,5.212,0,0,1,4.369,2.17,6.3,6.3,0,0,1,1.085,4.35,5.261,5.261,0,0,1-2.224,3.855,5.488,5.488,0,0,1-4.355.611l-1.2,4.3a.48.48,0,0,0,.387.61A10.1,10.1,0,0,0,10,20Z" transform="translate(2 2)" fill="#777e90"/>
</svg>
