<svg id="icons_Shopping_Basket_Filled" data-name="icons/Shopping Basket/Filled" xmlns="http://www.w3.org/2000/svg" width="24" height="24" viewBox="0 0 24 24">
  <path id="Shape" d="M.02,1.2A1,1,0,0,1,1,0h15.56a1,1,0,0,1,.981,1.2L16.263,7.588A3,3,0,0,1,13.321,10H4.24A3,3,0,0,1,1.3,7.588ZM9.781,3a1,1,0,0,1,2,0V7a1,1,0,0,1-2,0Zm-3-1a1,1,0,0,0-1,1V7a1,1,0,0,0,2,0V3A1,1,0,0,0,6.781,2Z" transform="translate(3.219 12)" fill="#777e90" fill-rule="evenodd"/>
  <path id="Shape-2" data-name="Shape" d="M0,1A1,1,0,0,1,1,0H19a1,1,0,0,1,0,2H1A1,1,0,0,1,0,1Z" transform="translate(2 8)" fill="#777e90"/>
  <g id="Shape-3" data-name="Shape" transform="translate(7 2)">
    <path id="FF9A1E35-59A1-408D-A0C5-7C82E43804E6" d="M3.707,1.707A1,1,0,0,0,2.293.293l-2,2A1,1,0,0,0,1.707,3.707Z" transform="translate(0 0)" fill="#777e90"/>
    <path id="_6FC1A363-3C80-4C69-9FC7-FE9BA8F6524A" data-name="6FC1A363-3C80-4C69-9FC7-FE9BA8F6524A" d="M.293,1.707A1,1,0,0,1,1.707.293l2,2A1,1,0,0,1,2.293,3.707Z" transform="translate(6 0)" fill="#777e90"/>
  </g>
</svg>
