<svg id="icons_Tie_Line" data-name="icons/Tie/Line" xmlns="http://www.w3.org/2000/svg" width="24" height="24" viewBox="0 0 24 24">
  <path id="Shape" d="M5.474,4.779.493,1.859A1,1,0,0,1,1.5.137L6.368,2.991A2.565,2.565,0,1,1,4.074,7.579L1.688,6.387A1,1,0,1,1,2.583,4.6L4.968,5.791a.565.565,0,0,0,.506-1.011Z" transform="translate(11.865 7.508)" fill="#777e90"/>
  <path id="Shape-2" data-name="Shape" d="M4.253,2,2.026,11.652a1,1,0,0,0,.334.993l2.662,2.218a1,1,0,0,0,1.28,0l2.662-2.218a1,1,0,0,0,.334-.993L7.071,2ZM8.841.775A1,1,0,0,0,7.866,0H3.458a1,1,0,0,0-.974.775L.077,11.2a3,3,0,0,0,1,2.979L3.741,16.4a3,3,0,0,0,3.841,0l2.662-2.218a3,3,0,0,0,1-2.979Z" transform="translate(4.338 6)" fill="#777e90" fill-rule="evenodd"/>
  <path id="Shape-3" data-name="Shape" d="M7.845,2H3.056a1,1,0,0,0-.832.445l-.056.084A1,1,0,0,0,2.143,3.6L3.292,5.515A1,1,0,0,0,4.149,6h2.6a1,1,0,0,0,.858-.486L8.759,3.6A1,1,0,0,0,8.734,2.53l-.056-.084A1,1,0,0,0,7.845,2ZM3.056,0A3,3,0,0,0,.56,1.336L.5,1.42A3,3,0,0,0,.428,4.628L1.577,6.543A3,3,0,0,0,4.149,8h2.6A3,3,0,0,0,9.325,6.543l1.149-1.916A3,3,0,0,0,10.4,1.42l-.056-.084A3,3,0,0,0,7.845,0Z" transform="translate(4.549)" fill="#777e90" fill-rule="evenodd"/>
</svg>
