<svg id="icons_Insert_Line" data-name="icons/Insert/Line" xmlns="http://www.w3.org/2000/svg" width="24" height="24" viewBox="0 0 24 24">
  <path id="Shape" d="M1,0A1,1,0,0,0,1,2H2V16a4,4,0,0,0,4,4h8a4,4,0,0,0,4-4V2h1a1,1,0,0,0,0-2ZM16,2H4V16a2,2,0,0,0,2,2h8a2,2,0,0,0,2-2Z" transform="translate(2 2)" fill="#777e90" fill-rule="evenodd"/>
  <path id="Shape-2" data-name="Shape" d="M4.707.293a1,1,0,0,0-1.414,0l-3,3A1,1,0,0,0,1.707,4.707L3,3.414V9A1,1,0,1,0,5,9V3.414L6.293,4.707A1,1,0,0,0,7.707,3.293Z" transform="translate(8 7)" fill="#777e90"/>
</svg>
