<svg id="icons_Sign_Out_Filled" data-name="icons/Sign Out/Filled" xmlns="http://www.w3.org/2000/svg" width="24" height="24" viewBox="0 0 24 24">
  <path id="Shape" d="M.206,16.852a3.211,3.211,0,0,0,2.932,3.009C3.974,19.94,4.955,20,6,20s2.022-.06,2.859-.139a3.211,3.211,0,0,0,2.932-3.009C11.9,15.343,12,13.118,12,10s-.1-5.343-.209-6.852A3.211,3.211,0,0,0,8.856.139C8.019.06,7.038,0,6,0S3.974.06,3.137.139A3.211,3.211,0,0,0,.206,3.148C.108,4.49.019,6.4,0,9H5a1,1,0,0,1,0,2H0C.019,13.6.108,15.51.206,16.852Z" transform="translate(10.004 2)" fill="#777e90"/>
  <path id="Shape-2" data-name="Shape" d="M5.207,7.293A1,1,0,1,1,3.793,8.707l-3.5-3.5a1,1,0,0,1,0-1.414l3.5-3.5A1,1,0,0,1,5.207,1.707L3.414,3.5H8v2H3.414Z" transform="translate(2 7.5)" fill="#777e90"/>
</svg>
