<svg id="icons_Medical_Case_Line" data-name="icons/Medical Case/Line" xmlns="http://www.w3.org/2000/svg" width="24" height="24" viewBox="0 0 24 24">
  <path id="Shape" d="M16,2H4A2,2,0,0,0,2,4v8a2,2,0,0,0,2,2H16a2,2,0,0,0,2-2V4A2,2,0,0,0,16,2ZM4,0A4,4,0,0,0,0,4v8a4,4,0,0,0,4,4H16a4,4,0,0,0,4-4V4a4,4,0,0,0-4-4Z" transform="translate(2 6)" fill="#777e90" fill-rule="evenodd"/>
  <path id="Shape-2" data-name="Shape" d="M4,0A1,1,0,0,0,3,1V3H1A1,1,0,0,0,1,5H3V7A1,1,0,0,0,5,7V5H7A1,1,0,0,0,7,3H5V1A1,1,0,0,0,4,0Z" transform="translate(8 10)" fill="#777e90"/>
  <path id="Shape-3" data-name="Shape" d="M3,2A1,1,0,0,0,2,3V4A1,1,0,0,1,0,4V3A3,3,0,0,1,3,0H7a3,3,0,0,1,3,3V4A1,1,0,0,1,8,4V3A1,1,0,0,0,7,2Z" transform="translate(7 2)" fill="#777e90"/>
</svg>
