<svg id="icons_Printer_Line" data-name="icons/Printer/Line" xmlns="http://www.w3.org/2000/svg" width="24" height="24" viewBox="0 0 24 24">
  <path id="Shape" d="M0,3A3,3,0,0,1,3,0H9a3,3,0,0,1,3,3V8H10V3A1,1,0,0,0,9,2H3A1,1,0,0,0,2,3V8H0Z" transform="translate(6 2)" fill="#777e90"/>
  <path id="Shape-2" data-name="Shape" d="M3,2H17a1,1,0,0,1,1,1V6a1,1,0,0,1-1,1H16V9h1a3,3,0,0,0,3-3V3a3,3,0,0,0-3-3H3A3,3,0,0,0,0,3V6A3,3,0,0,0,3,9H4V7H3A1,1,0,0,1,2,6V3A1,1,0,0,1,3,2Z" transform="translate(2 10)" fill="#777e90"/>
  <path id="Shape-3" data-name="Shape" d="M10,2H2V4A1,1,0,0,0,3,5H9a1,1,0,0,0,1-1ZM0,0V4A3,3,0,0,0,3,7H9a3,3,0,0,0,3-3V0Z" transform="translate(6 15)" fill="#777e90" fill-rule="evenodd"/>
</svg>
