<svg id="icons_Tablets_Line" data-name="icons/Tablets/Line" xmlns="http://www.w3.org/2000/svg" width="24" height="24" viewBox="0 0 24 24">
  <path id="Shape" d="M7,12A5,5,0,1,0,2,7,5,5,0,0,0,7,12Zm0,2A7,7,0,1,0,0,7,7,7,0,0,0,7,14Z" transform="translate(8 8)" fill="#777e90" fill-rule="evenodd"/>
  <path id="Shape-2" data-name="Shape" d="M9.707.293a1,1,0,0,1,0,1.414l-8,8A1,1,0,0,1,.293,8.293l8-8A1,1,0,0,1,9.707.293Z" transform="translate(10 10)" fill="#777e90"/>
  <path id="Shape-3" data-name="Shape" d="M5.634.135a7,7,0,0,1,6.583,2.2,1,1,0,0,1-1.491,1.333,5,5,0,1,0-7.06,7.06,1,1,0,0,1-1.333,1.491A7,7,0,0,1,5.634.135Z" transform="translate(2 2)" fill="#777e90"/>
</svg>
