<svg id="icons_Basketball_Ball_Filled" data-name="icons/Basketball Ball/Filled" xmlns="http://www.w3.org/2000/svg" width="24" height="24" viewBox="0 0 24 24">
  <g id="Shape" transform="translate(2.113 2.113)">
    <path id="_01D8A1D3-4072-4884-A0B7-222EF1CFB4E5" data-name="01D8A1D3-4072-4884-A0B7-222EF1CFB4E5" d="M4.684,8.881A.48.48,0,0,0,5.231,8.4V.5a.5.5,0,0,0-.5-.5h-1.1a.519.519,0,0,0-.508.449A9.976,9.976,0,0,1,.164,6.207a.5.5,0,0,0,.022.759A9.951,9.951,0,0,0,4.684,8.881Z" transform="translate(3.655 10.887)" fill="#777e90"/>
    <path id="_03CCBE60-1BD1-48F9-989A-F54E99CCC516" data-name="03CCBE60-1BD1-48F9-989A-F54E99CCC516" d="M1.695,4.737a.458.458,0,0,0,.692.072A7.987,7.987,0,0,0,4.735.559.474.474,0,0,0,4.259,0H.488A.48.48,0,0,0,.006.548,9.945,9.945,0,0,0,1.695,4.737Z" transform="translate(0 10.887)" fill="#777e90"/>
    <path id="DC485091-640C-4456-B82A-38FB576DD5C1" d="M.006,4.387a.48.48,0,0,0,.482.548h3.77a.474.474,0,0,0,.476-.559A7.987,7.987,0,0,0,2.387.126.458.458,0,0,0,1.695.2,9.945,9.945,0,0,0,.006,4.387Z" transform="translate(0 3.952)" fill="#777e90"/>
    <path id="DAB32C96-0A95-4762-AA62-13A9C241149F" d="M.186,1.92a.5.5,0,0,0-.022.759A9.976,9.976,0,0,1,3.127,8.437a.519.519,0,0,0,.508.45h1.1a.5.5,0,0,0,.5-.5V.488A.48.48,0,0,0,4.684.006,9.951,9.951,0,0,0,.186,1.92Z" transform="translate(3.655 0)" fill="#777e90"/>
    <path id="_446480CD-F896-43B9-BFFB-E3C5BF029F36" data-name="446480CD-F896-43B9-BFFB-E3C5BF029F36" d="M5.068,6.207a.5.5,0,0,1-.022.759,9.951,9.951,0,0,1-4.5,1.915A.48.48,0,0,1,0,8.4V.5A.5.5,0,0,1,.5,0H1.6A.519.519,0,0,1,2.1.449,9.976,9.976,0,0,0,5.068,6.207Z" transform="translate(10.887 10.887)" fill="#777e90"/>
    <path id="_21694480-B554-4848-8493-116F9178986B" data-name="21694480-B554-4848-8493-116F9178986B" d="M2.356,4.809a.458.458,0,0,0,.692-.072A9.944,9.944,0,0,0,4.738.548.48.48,0,0,0,4.256,0H.485A.474.474,0,0,0,.009.559,7.987,7.987,0,0,0,2.356,4.809Z" transform="translate(15.03 10.887)" fill="#777e90"/>
    <path id="D38FA605-FD6F-489E-A3A2-96EAC5A378E4" d="M4.256,4.935a.48.48,0,0,0,.482-.548A9.944,9.944,0,0,0,3.049.2.458.458,0,0,0,2.356.126,7.987,7.987,0,0,0,.009,4.376a.474.474,0,0,0,.476.559Z" transform="translate(15.03 3.952)" fill="#777e90"/>
    <path id="_89FC4CEC-CACC-4EC1-AF75-6125FF15C4A8" data-name="89FC4CEC-CACC-4EC1-AF75-6125FF15C4A8" d="M5.068,2.68a.5.5,0,0,0-.022-.759A9.951,9.951,0,0,0,.548.006.48.48,0,0,0,0,.488v7.9a.5.5,0,0,0,.5.5H1.6a.519.519,0,0,0,.508-.45A9.976,9.976,0,0,1,5.068,2.68Z" transform="translate(10.887 0)" fill="#777e90"/>
  </g>
</svg>
