<svg id="icons_Whistle_Filled" data-name="icons/Whistle/Filled" xmlns="http://www.w3.org/2000/svg" width="24" height="24" viewBox="0 0 24 24">
  <path id="Shape" d="M8,16a8,8,0,0,0,8-8q0-.25-.015-.5l6.384-1.2A2,2,0,0,0,24,4.34V2a2,2,0,0,0-2-2H16.5a.615.615,0,0,0-.562.495A2,2,0,0,1,14,2,2,2,0,0,1,12.062.495.615.615,0,0,0,11.5,0H8A8,8,0,0,0,8,16Zm4-8A4,4,0,1,1,8,4,4,4,0,0,1,12,8Z" transform="translate(0 4)" fill="#777e90" fill-rule="evenodd"/>
  <path id="Shape-2" data-name="Shape" d="M4,2A2,2,0,1,1,2,0,2,2,0,0,1,4,2Z" transform="translate(6 10)" fill="#777e90"/>
</svg>
