<svg id="Icons_TikTok_Filled" data-name="Icons/TikTok/Filled" xmlns="http://www.w3.org/2000/svg" width="24" height="24" viewBox="0 0 24 24">
  <path id="Vector" d="M3,0A3,3,0,0,0,0,3V17a3,3,0,0,0,3,3H17a3,3,0,0,0,3-3V3a3,3,0,0,0-3-3Zm8,4a1,1,0,0,1,1,1,2,2,0,0,0,2,2,1,1,0,0,1,0,2,3.982,3.982,0,0,1-2-.535V12.5a3.5,3.5,0,0,1-7,0A3.629,3.629,0,0,1,7.8,9.02a1,1,0,1,1,.4,1.96A1.635,1.635,0,0,0,7,12.5a1.5,1.5,0,0,0,3,0V5A1,1,0,0,1,11,4Z" transform="translate(2 2)" fill="#777e90" fill-rule="evenodd"/>
</svg>
