<svg id="icons_Pear_Line" data-name="icons/Pear/Line" xmlns="http://www.w3.org/2000/svg" width="24" height="24" viewBox="0 0 24 24">
  <path id="Shape" d="M4,5v.752a11.479,11.479,0,0,1-1.4,4.863l-.122.257a5,5,0,1,0,9.053,0l-.122-.257A11.48,11.48,0,0,1,10,5.752V5A3,3,0,0,0,4,5ZM7,0a5,5,0,0,1,5,5v.752A9.8,9.8,0,0,0,13.251,9.84l.085.18a7,7,0,1,1-12.671,0l.085-.18A9.8,9.8,0,0,0,2,5.752V5A5,5,0,0,1,7,0Z" transform="translate(5 4)" fill="#777e90" fill-rule="evenodd"/>
  <path id="Shape-2" data-name="Shape" d="M5.025,2A3,3,0,0,0,2.342,3.658l-.447.894A1,1,0,0,1,.106,3.658l.447-.894A5,5,0,0,1,5.025,0H7.553a1,1,0,0,1,0,2Z" transform="translate(11.447)" fill="#777e90"/>
  <path id="Shape-3" data-name="Shape" d="M0,2.333A2.333,2.333,0,0,1,2.333,0h3A3.667,3.667,0,0,1,9,3.667,2.333,2.333,0,0,1,6.667,6h-3A3.667,3.667,0,0,1,0,2.333ZM2.333,2A.333.333,0,0,0,2,2.333,1.667,1.667,0,0,0,3.667,4h3A.333.333,0,0,0,7,3.667,1.667,1.667,0,0,0,5.333,2Z" transform="translate(4)" fill="#777e90" fill-rule="evenodd"/>
</svg>
