<svg id="icons_Shop_Filled" data-name="icons/Shop/Filled" xmlns="http://www.w3.org/2000/svg" width="24" height="24" viewBox="0 0 24 24">
  <path id="Shape" d="M2,.916A4.942,4.942,0,0,0,4.758.073a.44.44,0,0,1,.485,0A4.942,4.942,0,0,0,8,.916,4.942,4.942,0,0,0,10.758.073a.44.44,0,0,1,.485,0A4.941,4.941,0,0,0,14,.916,6.683,6.683,0,0,0,15.323.79.555.555,0,0,1,16,1.308V5.916a3,3,0,0,1-3,3H11a1,1,0,0,1-1-1v-3a2,2,0,0,0-4,0v3a1,1,0,0,1-1,1H3a3,3,0,0,1-3-3V1.308A.555.555,0,0,1,.677.79,6.682,6.682,0,0,0,2,.916Z" transform="translate(4 12.084)" fill="#777e90"/>
  <path id="Shape-2" data-name="Shape" d="M1.9,1.238A3.509,3.509,0,0,1,4.657,0h8.686A3.509,3.509,0,0,1,16.1,1.238C16.956,2.292,18,3.82,18,5a2.652,2.652,0,0,1-3,3,3.492,3.492,0,0,1-2.793-1.659.26.26,0,0,0-.413,0A3.492,3.492,0,0,1,9,8,3.492,3.492,0,0,1,6.207,6.341a.26.26,0,0,0-.413,0A3.492,3.492,0,0,1,3,8,2.652,2.652,0,0,1,0,5C0,3.82,1.044,2.292,1.9,1.238Z" transform="translate(3 3)" fill="#777e90"/>
</svg>
