<svg id="icons_Pen_Filled" data-name="icons/Pen/Filled" xmlns="http://www.w3.org/2000/svg" width="24" height="24" viewBox="0 0 24 24">
  <path id="Shape" d="M7.276,2.943,2.943,7.276a1.886,1.886,0,0,1-2.667,0,.943.943,0,0,1,0-1.333L5.943.276a.943.943,0,0,1,1.333,0A1.886,1.886,0,0,1,7.276,2.943Z" transform="translate(13.891 13.891)" fill="#777e90"/>
  <path id="Shape-2" data-name="Shape" d="M6.641,8.392a.586.586,0,0,0-.15-.487L.623,2.037c-.254-.254-.669-.126-.618.23l1.164,8.145A6,6,0,0,0,4.57,15l3.922,1.83a1,1,0,0,0,1.13-.2l7.009-7.009a1,1,0,0,0,.2-1.13L15,4.57a6,6,0,0,0-4.589-3.4L2.267,0c-.356-.051-.484.364-.23.619L7.905,6.491a.586.586,0,0,0,.487.15,2.021,2.021,0,0,1,.235-.014,2,2,0,1,1-2,2A2.023,2.023,0,0,1,6.641,8.392Z" transform="translate(2.373 2.373)" fill="#777e90"/>
</svg>
