<svg id="icons_Email_Line" data-name="icons/Email/Line" xmlns="http://www.w3.org/2000/svg" width="24" height="24" viewBox="0 0 24 24">
  <path id="Shape" d="M19,2H3A1,1,0,0,0,2,3V15a1,1,0,0,0,1,1H19a1,1,0,0,0,1-1V3A1,1,0,0,0,19,2ZM3,0A3,3,0,0,0,0,3V15a3,3,0,0,0,3,3H19a3,3,0,0,0,3-3V3a3,3,0,0,0-3-3Z" transform="translate(1 3)" fill="#777e90" fill-rule="evenodd"/>
  <path id="Shape-2" data-name="Shape" d="M.232.36A1,1,0,0,1,1.64.232L6.36,4.165a1,1,0,0,0,1.28,0L12.36.232a1,1,0,0,1,1.28,1.536L8.921,5.7a3,3,0,0,1-3.841,0L.36,1.768A1,1,0,0,1,.232.36Z" transform="translate(5 7)" fill="#777e90"/>
</svg>
