<svg id="icons_Wallet_Filled" data-name="icons/Wallet/Filled" xmlns="http://www.w3.org/2000/svg" width="24" height="24" viewBox="0 0 24 24">
  <path id="Shape" d="M0,3A3,3,0,0,1,3,0H19a3,3,0,0,1,3,3,1,1,0,0,1-1,1H17a5,5,0,0,0,0,10h4a1,1,0,0,1,1,1,3,3,0,0,1-3,3H3a3,3,0,0,1-3-3Z" transform="translate(1 3)" fill="#777e90"/>
  <path id="Shape-2" data-name="Shape" d="M3,0H7A1,1,0,0,1,8,1V5A1,1,0,0,1,7,6H3A3,3,0,0,1,3,0ZM3,4A1,1,0,1,0,2,3,1,1,0,0,0,3,4Z" transform="translate(15 9)" fill="#777e90" fill-rule="evenodd"/>
</svg>
