<svg id="icons_Basketball_Ball_Line" data-name="icons/Basketball Ball/Line" xmlns="http://www.w3.org/2000/svg" width="24" height="24" viewBox="0 0 24 24">
  <path id="Shape" d="M3.5,2.4A9.981,9.981,0,0,1,6.951,9H9V.049Q9.493,0,10,0t1,.049V9h2.049A9.981,9.981,0,0,1,16.5,2.4a10.061,10.061,0,0,1,1.385,1.448A7.988,7.988,0,0,0,15.062,9h4.889Q20,9.493,20,10t-.049,1H15.062a7.988,7.988,0,0,0,2.823,5.151A10.06,10.06,0,0,1,16.5,17.6,9.981,9.981,0,0,1,13.049,11H11v8.951Q10.507,20,10,20t-1-.049V11H6.951A9.981,9.981,0,0,1,3.5,17.6a10.059,10.059,0,0,1-1.385-1.448A7.988,7.988,0,0,0,4.938,11H.049Q0,10.507,0,10T.049,9H4.938A7.988,7.988,0,0,0,2.115,3.849,10.061,10.061,0,0,1,3.5,2.4Z" transform="translate(2 2)" fill="#777e90"/>
  <path id="Shape-2" data-name="Shape" d="M10,18a8,8,0,1,0-8-8A8,8,0,0,0,10,18Zm0,2A10,10,0,1,0,0,10,10,10,0,0,0,10,20Z" transform="translate(2 2)" fill="#777e90" fill-rule="evenodd"/>
</svg>
