<svg id="icons_Boxes_Line" data-name="icons/Boxes/Line" xmlns="http://www.w3.org/2000/svg" width="24" height="24" viewBox="0 0 24 24">
  <path id="Shape" d="M9,2H2.5a.5.5,0,0,0-.5.5v7a.5.5,0,0,0,.5.5H9a1,1,0,0,0,1-1V3A1,1,0,0,0,9,2ZM0,0V12H9a3,3,0,0,0,3-3V3A3,3,0,0,0,9,0Z" transform="translate(11 11)" fill="#777e90" fill-rule="evenodd"/>
  <path id="Shape-2" data-name="Shape" d="M0,0H2V3A1,1,0,0,1,0,3Z" transform="translate(16 11)" fill="#777e90"/>
  <path id="Shape-3" data-name="Shape" d="M10,2.5A.5.5,0,0,0,9.5,2H3A1,1,0,0,0,2,3V9a1,1,0,0,0,1,1H9.5a.5.5,0,0,0,.5-.5ZM3,0A3,3,0,0,0,0,3V9a3,3,0,0,0,3,3h9V0Z" transform="translate(1 11)" fill="#777e90" fill-rule="evenodd"/>
  <path id="Shape-4" data-name="Shape" d="M0,0H2V3A1,1,0,0,1,0,3Z" transform="translate(6 11)" fill="#777e90"/>
  <path id="Shape-5" data-name="Shape" d="M9,2H3A1,1,0,0,0,2,3v7h8V3A1,1,0,0,0,9,2ZM3,0A3,3,0,0,0,0,3v9H12V3A3,3,0,0,0,9,0Z" transform="translate(6 1)" fill="#777e90" fill-rule="evenodd"/>
  <path id="Shape-6" data-name="Shape" d="M0,0H2V3A1,1,0,0,1,0,3Z" transform="translate(11 1)" fill="#777e90"/>
</svg>
