<svg id="icons_Picture_in_Picture_Filled" data-name="icons/Picture in Picture/Filled" xmlns="http://www.w3.org/2000/svg" width="24" height="24" viewBox="0 0 24 24">
  <path id="Shape" d="M18,0H2A2,2,0,0,0,0,2V14a2,2,0,0,0,2,2h8.5a.5.5,0,0,0,.5-.5V11a2,2,0,0,1,2-2h6.5a.5.5,0,0,0,.5-.5V2A2,2,0,0,0,18,0Z" transform="translate(1 3)" fill="#777e90"/>
  <path id="Shape-2" data-name="Shape" d="M0,1A1,1,0,0,1,1,0H8A1,1,0,0,1,9,1V6A1,1,0,0,1,8,7H1A1,1,0,0,1,0,6Z" transform="translate(14 14)" fill="#777e90"/>
</svg>
