<svg id="Icons_Apple_Line" data-name="Icons/Apple/Line" xmlns="http://www.w3.org/2000/svg" width="24" height="24" viewBox="0 0 24 24">
  <path id="Vector" d="M10.314,16.373A3.589,3.589,0,0,0,9,16a3.589,3.589,0,0,0-1.314.373A6.545,6.545,0,0,1,5,17c-3,0-5-5-5-9S1,0,5,0A5.058,5.058,0,0,1,7.308.554,3.831,3.831,0,0,0,9,1,3.831,3.831,0,0,0,10.692.554,5.058,5.058,0,0,1,13,0a4.3,4.3,0,0,1,4.228,3.008l.006.014c.1.25.188.512.266.782.088.3.162.618.224.941A.221.221,0,0,1,17.5,5a2.5,2.5,0,0,0,0,5,.287.287,0,0,1,.295.322c-.077.45-.176.9-.295,1.338q-.046.169-.1.337v0c-.805,2.716-2.376,5-4.4,5A6.545,6.545,0,0,1,10.314,16.373ZM9,14a5.222,5.222,0,0,0-1.993.489A5.166,5.166,0,0,1,5,15c-.3,0-1.042-.305-1.836-1.894A12.076,12.076,0,0,1,2,8a10.834,10.834,0,0,1,.789-4.606,2.6,2.6,0,0,1,.852-1.043A2.357,2.357,0,0,1,5,2a2.769,2.769,0,0,1,.784.1,5.154,5.154,0,0,1,.706.279l.05.022A5.693,5.693,0,0,0,9,3a5.694,5.694,0,0,0,2.46-.6l.05-.022a5.152,5.152,0,0,1,.706-.279A2.769,2.769,0,0,1,13,2a2.278,2.278,0,0,1,1.46.424A2.892,2.892,0,0,1,15.3,3.575a4.5,4.5,0,0,0,.165,7.938,8.164,8.164,0,0,1-1.348,2.737C13.583,14.9,13.2,15,13,15a5.166,5.166,0,0,1-2.007-.511A5.222,5.222,0,0,0,9,14Z" transform="translate(3 6)" fill="#777e90" fill-rule="evenodd"/>
  <path id="Vector-2" data-name="Vector" d="M0,3.75A3.75,3.75,0,0,1,3.75,0,.25.25,0,0,1,4,.25,3.75,3.75,0,0,1,.25,4,.25.25,0,0,1,0,3.75Z" transform="translate(12 1)" fill="#777e90"/>
</svg>
