<svg id="Icons_Instagram_Filled" data-name="Icons/Instagram/Filled" xmlns="http://www.w3.org/2000/svg" width="24" height="24" viewBox="0 0 24 24">
  <path id="Vector" d="M3,6A3,3,0,1,0,0,3,3,3,0,0,0,3,6Z" transform="translate(9 9)" fill="#777e90"/>
  <path id="Vector-2" data-name="Vector" d="M5,0A5,5,0,0,0,0,5V15a5,5,0,0,0,5,5H15a5,5,0,0,0,5-5V5a5,5,0,0,0-5-5Zm5,15a5,5,0,1,0-5-5A5,5,0,0,0,10,15ZM17,4a1,1,0,1,1-1-1A1,1,0,0,1,17,4Z" transform="translate(2 2)" fill="#777e90" fill-rule="evenodd"/>
</svg>
