<svg id="icons_Share_Square_Filled" data-name="icons/Share Square/Filled" xmlns="http://www.w3.org/2000/svg" width="24" height="24" viewBox="0 0 24 24">
  <path id="Shape" d="M8,0V5a1,1,0,1,0,2,0V0c2.072.02,3.673.1,4.854.191a3.2,3.2,0,0,1,2.984,2.947C17.928,4.171,18,5.475,18,7s-.072,2.824-.162,3.857A3.2,3.2,0,0,1,14.854,13.8c-1.364.1-3.289.2-5.854.2s-4.49-.091-5.854-.2A3.2,3.2,0,0,1,.162,10.852C.072,9.82,0,8.516,0,7S.072,4.171.162,3.139A3.2,3.2,0,0,1,3.146.191C4.327.1,5.928.02,8,0Z" transform="translate(3 9.005)" fill="#777e90"/>
  <path id="Shape-2" data-name="Shape" d="M5.207-1.707a1,1,0,0,1,0,1.414,1,1,0,0,1-1.414,0l-3.5-3.5a1,1,0,0,1,0-1.414l3.5-3.5a1,1,0,0,1,1.414,0,1,1,0,0,1,0,1.414L3.414-5.5H8v2H3.414Z" transform="translate(7.5 1) rotate(90)" fill="#777e90"/>
</svg>
