<svg id="Icons_Product_Hunt_Line" data-name="Icons/Product Hunt/Line" xmlns="http://www.w3.org/2000/svg" width="24" height="24" viewBox="0 0 24 24">
  <path id="Vector" d="M10,18a8,8,0,1,0-8-8A8,8,0,0,0,10,18Zm0,2A10,10,0,1,0,0,10,10,10,0,0,0,10,20Z" transform="translate(2 2)" fill="#777e90" fill-rule="evenodd"/>
  <path id="Vector-2" data-name="Vector" d="M2,2V4H4A1,1,0,0,0,4,2ZM2,6H4A3,3,0,0,0,4,0H1.294A1.294,1.294,0,0,0,0,1.294V8A1,1,0,0,0,2,8Z" transform="translate(9 8)" fill="#777e90" fill-rule="evenodd"/>
</svg>
