<svg id="icons_Edit_Filled" data-name="icons/Edit/Filled" xmlns="http://www.w3.org/2000/svg" width="24" height="24" viewBox="0 0 24 24">
  <rect id="Shape" width="18" height="2" rx="1" transform="translate(3 21)" fill="#777e90"/>
  <path id="Shape-2" data-name="Shape" d="M1.086,0l-.5.5A2,2,0,0,0,0,1.914V5.5a2,2,0,0,0,2,2H5.586A2,2,0,0,0,7,6.914l.5-.5Z" transform="translate(3 11.5)" fill="#777e90"/>
  <path id="Shape-3" data-name="Shape" d="M0,6.086,6.086,0,12.5,6.414,6.414,12.5Z" transform="translate(5.5 4)" fill="#777e90"/>
  <path id="Shape-4" data-name="Shape" d="M5.121.879a3,3,0,0,0-4.243,0L0,1.757,6.414,8.172l.879-.879a3,3,0,0,0,0-4.243Z" transform="translate(13 0.828)" fill="#777e90"/>
</svg>
