<svg id="icons_Triangle_Ruler_Filled" data-name="icons/Triangle Ruler/Filled" xmlns="http://www.w3.org/2000/svg" width="24" height="24" viewBox="0 0 24 24">
  <path id="Shape" d="M.5,13.676a.5.5,0,0,0-.5.5v3.5a2,2,0,0,0,2,2H5.5a.5.5,0,0,0,.5-.5v-1.5a1,1,0,0,1,2,0v1.5a.5.5,0,0,0,.5.5h3a.5.5,0,0,0,.5-.5v-1.5a1,1,0,0,1,2,0v1.5a.5.5,0,0,0,.5.5h3.172a2,2,0,0,0,1.414-3.414L3.414.59A2,2,0,0,0,0,2V5.176a.5.5,0,0,0,.5.5H2a1,1,0,0,1,0,2H.5a.5.5,0,0,0-.5.5v3a.5.5,0,0,0,.5.5H2a1,1,0,0,1,0,2Zm5.5-1V11.09a1,1,0,0,1,1.707-.707l1.586,1.586a1,1,0,0,1-.707,1.707H7A1,1,0,0,1,6,12.675Z" transform="translate(2 2.324)" fill="#777e90" fill-rule="evenodd"/>
</svg>
