<svg id="icons_Donut_Filled" data-name="icons/Donut/Filled" xmlns="http://www.w3.org/2000/svg" width="24" height="24" viewBox="0 0 24 24">
  <path id="Shape" d="M20,10A10,10,0,1,1,10,0,10,10,0,0,1,20,10Zm-7,0a3,3,0,1,1-3-3A3,3,0,0,1,13,10ZM6,3A1,1,0,0,0,6,5H8A1,1,0,0,0,8,3ZM2.106,7.553a1,1,0,0,1,1.342-.447l2,1a1,1,0,1,1-.894,1.789l-2-1A1,1,0,0,1,2.106,7.553Zm9.6,10.154a1,1,0,0,0-1.414-1.414l-1,1a1,1,0,0,0,1.414,1.414Zm1.586-4.414a1,1,0,0,1,1.414,0l1,1a1,1,0,0,1-1.414,1.414l-1-1A1,1,0,0,1,13.293,13.293ZM6,14a1,1,0,0,0-2,0v1a1,1,0,0,0,2,0Zm9-3a1,1,0,0,1,1-1h1a1,1,0,0,1,0,2H16A1,1,0,0,1,15,11Zm-.051-6.684a1,1,0,1,0-1.9-.632l-.5,1.5a1,1,0,0,0,1.9.632Z" transform="translate(2 2)" fill="#777e90" fill-rule="evenodd"/>
</svg>
