<svg id="icons_Forward_Line" data-name="icons/Forward/Line" xmlns="http://www.w3.org/2000/svg" width="24" height="24" viewBox="0 0 24 24">
  <path id="Shape" d="M10.508,6.659,3.542,2.165A1,1,0,0,0,2,3v8.989a1,1,0,0,0,1.542.84L10.508,8.34A1,1,0,0,0,10.508,6.659ZM4.626.484A3,3,0,0,0,0,3v8.989a3,3,0,0,0,4.626,2.521l6.966-4.494a3,3,0,0,0,0-5.042Z" transform="translate(0 4.501)" fill="#777e90" fill-rule="evenodd"/>
  <path id="Shape-2" data-name="Shape" d="M10.508,6.659,3.542,2.165A1,1,0,0,0,2,3v8.989a1,1,0,0,0,1.542.84L10.508,8.34A1,1,0,0,0,10.508,6.659ZM4.626.484A3,3,0,0,0,0,3v8.989a3,3,0,0,0,4.626,2.521l6.966-4.494a3,3,0,0,0,0-5.042Z" transform="translate(11 4.501)" fill="#777e90" fill-rule="evenodd"/>
</svg>
