<svg id="icons_French_Fries_Filled" data-name="icons/French Fries/Filled" xmlns="http://www.w3.org/2000/svg" width="24" height="24" viewBox="0 0 24 24">
  <path id="Shape" d="M9.694,4A4,4,0,0,0,13.571.99,1.231,1.231,0,0,1,14.694,0h2.694a2,2,0,0,1,1.98,2.283l-1.306,9.141A3,3,0,0,1,15.093,14H4.3a3,3,0,0,1-2.97-2.576L.02,2.283A2,2,0,0,1,2,0H4.694A1.231,1.231,0,0,1,5.818.99,4,4,0,0,0,9.694,4Z" transform="translate(2.306 9)" fill="#777e90"/>
  <g id="Shape-2" data-name="Shape" transform="translate(4 1)">
    <path id="DD135DBE-9980-4816-BE36-204BD9887139" d="M0,2A2,2,0,0,1,4,2V8A2,2,0,0,1,0,8Z" transform="translate(6)" fill="#777e90"/>
    <path id="E44BF889-4D43-4185-AEF1-0D39FC0B958C" d="M0,2A2,2,0,0,1,4,2V3.5a.5.5,0,0,1-.5.5H.5A.5.5,0,0,1,0,3.5Z" transform="translate(12 2)" fill="#777e90"/>
    <path id="_40470EB3-08D8-41B1-8470-920F121B147A" data-name="40470EB3-08D8-41B1-8470-920F121B147A" d="M2,0A2,2,0,0,0,0,2v.5A.5.5,0,0,0,.5,3h3A.5.5,0,0,0,4,2.5V2A2,2,0,0,0,2,0Z" transform="translate(0 3)" fill="#777e90"/>
  </g>
</svg>
