<svg id="Icons_Figma_Line" data-name="Icons/Figma/Line" xmlns="http://www.w3.org/2000/svg" width="24" height="24" viewBox="0 0 24 24">
  <path id="Vector" d="M9,18.5A4.5,4.5,0,1,1,1.671,15a4.5,4.5,0,0,1,0-7A4.5,4.5,0,0,1,4.5,0h7a4.5,4.5,0,0,1,2.829,8A4.5,4.5,0,0,1,9,15.242ZM7,2H4.5a2.5,2.5,0,0,0,0,5H7ZM4.5,14H7V9H4.5a2.5,2.5,0,0,0,0,5Zm0,2A2.5,2.5,0,1,0,7,18.5V16ZM14,11.5A2.5,2.5,0,1,0,11.5,14,2.5,2.5,0,0,0,14,11.5ZM9,7h2.5a2.5,2.5,0,0,0,0-5H9Z" transform="translate(4)" fill="#777e90" fill-rule="evenodd"/>
</svg>
