<svg id="icons_Barcode_Filled" data-name="icons/Barcode/Filled" xmlns="http://www.w3.org/2000/svg" width="24" height="24" viewBox="0 0 24 24">
  <path id="Shape" d="M0,3A3,3,0,0,1,3,0H21a3,3,0,0,1,3,3V13a3,3,0,0,1-3,3H3a3,3,0,0,1-3-3ZM17,5a1,1,0,0,1,1-1h1a1,1,0,0,1,1,1v6a1,1,0,0,1-1,1H18a1,1,0,0,1-1-1ZM5,4A1,1,0,0,0,4,5v6a1,1,0,0,0,2,0V5A1,1,0,0,0,5,4ZM8,5A1,1,0,0,1,9,4h1a1,1,0,0,1,1,1v6a1,1,0,0,1-1,1H9a1,1,0,0,1-1-1Zm6-1a1,1,0,0,0-1,1v6a1,1,0,0,0,2,0V5A1,1,0,0,0,14,4Z" transform="translate(0 4)" fill="#777e90" fill-rule="evenodd"/>
</svg>
