<svg id="icons_Pie_01_Line" data-name="icons/Pie 01/Line" xmlns="http://www.w3.org/2000/svg" width="24" height="24" viewBox="0 0 24 24">
  <path id="Shape" d="M7,2.242a7,7,0,1,0,8.708,8.708H9.5A2.5,2.5,0,0,1,7,8.45ZM8,.006A.919.919,0,0,1,9,.95v7.5a.5.5,0,0,0,.5.5H17a.919.919,0,0,1,.944,1A9,9,0,1,1,8,.006Z" transform="translate(2 4.05)" fill="#777e90" fill-rule="evenodd"/>
  <path id="Shape-2" data-name="Shape" d="M6.708,6.95a7,7,0,0,0-.241-.679A7,7,0,0,0,4.95,4,7,7,0,0,0,2.679,2.483,7,7,0,0,0,2,2.242V6.95Zm2.236,1A.919.919,0,0,1,8,8.95H.5a.5.5,0,0,1-.5-.5V.95A.919.919,0,0,1,1,.006a9,9,0,0,1,2.446.63,9,9,0,0,1,2.92,1.951,9,9,0,0,1,1.951,2.92A9,9,0,0,1,8.944,7.952Z" transform="translate(13 2.05)" fill="#777e90" fill-rule="evenodd"/>
</svg>
