<svg id="icons_AirPlay_Line" data-name="icons/AirPlay/Line" xmlns="http://www.w3.org/2000/svg" width="24" height="24" viewBox="0 0 24 24">
  <path id="Shape" d="M0,3A3,3,0,0,1,3,0H19a3,3,0,0,1,3,3V13a3,3,0,0,1-3,3H18a1,1,0,0,1,0-2h1a1,1,0,0,0,1-1V3a1,1,0,0,0-1-1H3A1,1,0,0,0,2,3V13a1,1,0,0,0,1,1H4a1,1,0,0,1,0,2H3a3,3,0,0,1-3-3Z" transform="translate(1 3)" fill="#777e90"/>
  <path id="Shape-2" data-name="Shape" d="M.188,4.7,3.245.419a1,1,0,0,1,1.627,0L7.929,4.7A1,1,0,0,1,7.115,6.28H1A1,1,0,0,1,.188,4.7Z" transform="translate(7.941 14.72)" fill="#777e90"/>
</svg>
