<svg id="icons_Info_Circle_Line" data-name="icons/Info Circle/Line" xmlns="http://www.w3.org/2000/svg" width="24" height="24" viewBox="0 0 24 24">
  <path id="Shape" d="M10,18a8,8,0,1,0-8-8A8,8,0,0,0,10,18Zm0,2A10,10,0,1,0,0,10,10,10,0,0,0,10,20Z" transform="translate(2 2)" fill="#777e90" fill-rule="evenodd"/>
  <path id="Shape-2" data-name="Shape" d="M1,0A1,1,0,1,0,2,1,1,1,0,0,0,1,0ZM1,4A1,1,0,0,0,0,5V9A1,1,0,0,0,2,9V5A1,1,0,0,0,1,4Z" transform="translate(11 7)" fill="#777e90" fill-rule="evenodd"/>
</svg>
