<svg id="icons_Battery_100_Filled" data-name="icons/Battery 100%/Filled" xmlns="http://www.w3.org/2000/svg" width="24" height="24" viewBox="0 0 24 24">
  <path id="Shape" d="M22,3V4l.894.447A2,2,0,0,1,24,6.236V9.764a2,2,0,0,1-1.106,1.789L22,12v1a3,3,0,0,1-3,3H3a3,3,0,0,1-3-3V3A3,3,0,0,1,3,0H19A3,3,0,0,1,22,3ZM4,5A1,1,0,0,1,6,5v6a1,1,0,0,1-2,0ZM8,5a1,1,0,0,1,2,0v6a1,1,0,0,1-2,0Zm4,0a1,1,0,0,1,2,0v6a1,1,0,0,1-2,0Zm4,0a1,1,0,0,1,2,0v6a1,1,0,0,1-2,0Z" transform="translate(0 4)" fill="#777e90" fill-rule="evenodd"/>
</svg>
