<svg id="icons_Medal_Filled" data-name="icons/Medal/Filled" xmlns="http://www.w3.org/2000/svg" width="24" height="24" viewBox="0 0 24 24">
  <path id="Shape" d="M8,16A8,8,0,1,0,0,8,8,8,0,0,0,8,16Zm0-3A5,5,0,1,0,3,8,5,5,0,0,0,8,13Z" transform="translate(4 8)" fill="#777e90" fill-rule="evenodd"/>
  <path id="Shape-2" data-name="Shape" d="M6,3A3,3,0,1,1,3,0,3,3,0,0,1,6,3Z" transform="translate(9 13)" fill="#777e90"/>
  <path id="Shape-3" data-name="Shape" d="M3.375,7.11a.521.521,0,0,0,.7-.206L7,1.474A1,1,0,0,0,6.117,0H2.385a1,1,0,0,0-.878.521L.061,3.172a.5.5,0,0,0,0,.479L1.453,6.2a.514.514,0,0,0,.3.243A9.937,9.937,0,0,1,3.375,7.11Z" transform="translate(13.209)" fill="#777e90"/>
  <path id="Shape-4" data-name="Shape" d="M3.744,7.11a.521.521,0,0,1-.7-.207L.121,1.474A1,1,0,0,1,1,0H4.734a1,1,0,0,1,.878.521l2.574,4.72a.536.536,0,0,1-.452.777A10.038,10.038,0,0,0,3.744,7.11Z" transform="translate(3.673)" fill="#777e90"/>
</svg>
