<svg id="icons_Pause_Line" data-name="icons/Pause/Line" xmlns="http://www.w3.org/2000/svg" width="24" height="24" viewBox="0 0 24 24">
  <path id="Shape" d="M5,2H3A1,1,0,0,0,2,3V17a1,1,0,0,0,1,1H5a1,1,0,0,0,1-1V3A1,1,0,0,0,5,2ZM3,0A3,3,0,0,0,0,3V17a3,3,0,0,0,3,3H5a3,3,0,0,0,3-3V3A3,3,0,0,0,5,0Z" transform="translate(2 2)" fill="#777e90" fill-rule="evenodd"/>
  <path id="Shape-2" data-name="Shape" d="M5,2H3A1,1,0,0,0,2,3V17a1,1,0,0,0,1,1H5a1,1,0,0,0,1-1V3A1,1,0,0,0,5,2ZM3,0A3,3,0,0,0,0,3V17a3,3,0,0,0,3,3H5a3,3,0,0,0,3-3V3A3,3,0,0,0,5,0Z" transform="translate(14 2)" fill="#777e90" fill-rule="evenodd"/>
</svg>
