<svg id="icons_Credit_Card_Line" data-name="icons/Credit Card/Line" xmlns="http://www.w3.org/2000/svg" width="24" height="24" viewBox="0 0 24 24">
  <path id="Shape" d="M19,2H3A1,1,0,0,0,2,3V15a1,1,0,0,0,1,1H19a1,1,0,0,0,1-1V3A1,1,0,0,0,19,2ZM3,0A3,3,0,0,0,0,3V15a3,3,0,0,0,3,3H19a3,3,0,0,0,3-3V3a3,3,0,0,0-3-3Z" transform="translate(1 3)" fill="#777e90" fill-rule="evenodd"/>
  <path id="Shape-2" data-name="Shape" d="M3,1.5A1.5,1.5,0,1,1,1.5,0,1.5,1.5,0,0,1,3,1.5Z" transform="translate(5 14)" fill="#777e90"/>
  <path id="Shape-3" data-name="Shape" d="M3,1.5A1.5,1.5,0,1,1,1.5,0,1.5,1.5,0,0,1,3,1.5Z" transform="translate(10 14)" fill="#777e90"/>
  <path id="Shape-4" data-name="Shape" d="M0,0H22V2H0Z" transform="translate(1 8)" fill="#777e90"/>
</svg>
