<svg id="icons_Weight_Filled" data-name="icons/Weight/Filled" xmlns="http://www.w3.org/2000/svg" width="24" height="24" viewBox="0 0 24 24">
  <path id="Shape" d="M16,8A8,8,0,1,1,8,0,8,8,0,0,1,16,8Z" transform="translate(4 7)" fill="#777e90"/>
  <path id="Shape-2" data-name="Shape" d="M2.062,4.485A2,2,0,0,1,4,2h6.315a2,2,0,0,1,1.94,2.485l-.068.272a1,1,0,0,0,1.94.485L14.2,4.97A4,4,0,0,0,10.317,0H4A4,4,0,0,0,.121,4.97l.068.272a1,1,0,1,0,1.94-.485Z" transform="translate(4.84 1)" fill="#777e90"/>
</svg>
