<svg id="icons_Safe_Line" data-name="icons/Safe/Line" xmlns="http://www.w3.org/2000/svg" width="24" height="24" viewBox="0 0 24 24">
  <path id="Shape" d="M17,17.874A4,4,0,0,0,20,14V4a4,4,0,0,0-4-4H4A4,4,0,0,0,0,4V14a4,4,0,0,0,3,3.874V19a1,1,0,0,0,2,0V18H15v1a1,1,0,0,0,2,0ZM16,2H4A2,2,0,0,0,2,4V14a2,2,0,0,0,2,2H16a2,2,0,0,0,2-2V4A2,2,0,0,0,16,2Z" transform="translate(2 2)" fill="#777e90" fill-rule="evenodd"/>
  <path id="Shape-2" data-name="Shape" d="M4,1A1,1,0,0,1,6,1V2.171A3.008,3.008,0,0,1,7.829,4H9A1,1,0,0,1,9,6H7.829A3.008,3.008,0,0,1,6,7.829V9A1,1,0,0,1,4,9V7.829A3.008,3.008,0,0,1,2.171,6H1A1,1,0,0,1,1,4H2.171A3.008,3.008,0,0,1,4,2.171ZM4,5A1,1,0,1,0,5,4,1,1,0,0,0,4,5Z" transform="translate(7 6)" fill="#777e90" fill-rule="evenodd"/>
</svg>
