<svg id="icons_Flip_Chart_Line" data-name="icons/Flip Chart/Line" xmlns="http://www.w3.org/2000/svg" width="24" height="24" viewBox="0 0 24 24">
  <path id="Shape" d="M9,1a1,1,0,0,1,2,0V2h5a4,4,0,0,1,4,4v8a4,4,0,0,1-4,4h-.382l.276.553a1,1,0,0,1-1.789.894L13.382,18H6.618l-.724,1.447a1,1,0,0,1-1.789-.894L4.382,18H4a4,4,0,0,1-4-4V6A4,4,0,0,1,4,2H9ZM6.023,16H4a2,2,0,0,1-2-2V6A2,2,0,0,1,4,4H16a2,2,0,0,1,2,2v8a2,2,0,0,1-2,2H6.023Z" transform="translate(2 2)" fill="#777e90" fill-rule="evenodd"/>
  <path id="Shape-2" data-name="Shape" d="M11.625.219a1,1,0,0,1,.156,1.406l-4,5a1,1,0,0,1-1.336.207L4.127,5.287l-2.42,2.42A1,1,0,0,1,.293,6.293l3-3a1,1,0,0,1,1.262-.125L6.792,4.659,10.219.375A1,1,0,0,1,11.625.219Z" transform="translate(6 8)" fill="#777e90"/>
</svg>
