<svg id="icons_Coins_Line" data-name="icons/Coins/Line" xmlns="http://www.w3.org/2000/svg" width="24" height="24" viewBox="0 0 24 24">
  <path id="Shape" d="M7,12A5,5,0,1,0,2,7,5,5,0,0,0,7,12Zm0,2A7,7,0,1,0,0,7,7,7,0,0,0,7,14Z" transform="translate(2 8)" fill="#777e90" fill-rule="evenodd"/>
  <path id="Shape-2" data-name="Shape" d="M5.472,2A4.985,4.985,0,0,0,1.745,3.667,1,1,0,0,1,.255,2.333a7,7,0,1,1,9.884,9.884,1,1,0,1,1-1.334-1.49A5,5,0,0,0,5.472,2Z" transform="translate(9.528 2)" fill="#777e90"/>
</svg>
