<svg id="icons_Settings_02_Line" data-name="icons/Settings 02/Line" xmlns="http://www.w3.org/2000/svg" width="24" height="24" viewBox="0 0 24 24">
  <path id="Shape" d="M15.5,2H4.5a2.5,2.5,0,0,0,0,5h11a2.5,2.5,0,0,0,0-5ZM4.5,0a4.5,4.5,0,0,0,0,9h11a4.5,4.5,0,0,0,0-9Z" transform="translate(2 2)" fill="#777e90" fill-rule="evenodd"/>
  <path id="Shape-2" data-name="Shape" d="M3,1.5A1.5,1.5,0,1,1,1.5,0,1.5,1.5,0,0,1,3,1.5Z" transform="translate(16 5)" fill="#777e90"/>
  <path id="Shape-3" data-name="Shape" d="M15.5,2H4.5a2.5,2.5,0,0,0,0,5h11a2.5,2.5,0,0,0,0-5ZM4.5,0a4.5,4.5,0,0,0,0,9h11a4.5,4.5,0,0,0,0-9Z" transform="translate(2 13)" fill="#777e90" fill-rule="evenodd"/>
  <path id="Shape-4" data-name="Shape" d="M3,1.5A1.5,1.5,0,1,1,1.5,0,1.5,1.5,0,0,1,3,1.5Z" transform="translate(5 16)" fill="#777e90"/>
</svg>
