<svg id="icons_Car_Line" data-name="icons/Car/Line" xmlns="http://www.w3.org/2000/svg" width="24" height="24" viewBox="0 0 24 24">
  <g id="Group" transform="translate(2 3)">
    <path id="Vector" d="M18.772,6.156,17.4,2.051A3,3,0,0,0,14.559,0H5.441A2.995,2.995,0,0,0,2.6,2.051L1.228,6.156A2,2,0,0,0,0,8v5a1.993,1.993,0,0,0,1.039,1.743A.991.991,0,0,0,1,14.938V17a1,1,0,0,0,1,1H3a1,1,0,0,0,1-1V15H16v2a1,1,0,0,0,1,1h1a1,1,0,0,0,1-1V14.938a.977.977,0,0,0-.039-.195A1.993,1.993,0,0,0,20,13V8A2,2,0,0,0,18.772,6.156ZM2,13V8H18l0,5ZM5.441,2h9.117a1,1,0,0,1,.949.684L16.613,6H3.387L4.492,2.684A1,1,0,0,1,5.441,2Z" fill="#777e90"/>
    <path id="Vector-2" data-name="Vector" d="M1.5,3A1.5,1.5,0,1,0,0,1.5,1.5,1.5,0,0,0,1.5,3Z" transform="translate(3 9)" fill="#777e90"/>
    <path id="Vector-3" data-name="Vector" d="M1.5,3A1.5,1.5,0,1,0,0,1.5,1.5,1.5,0,0,0,1.5,3Z" transform="translate(14 9)" fill="#777e90"/>
  </g>
</svg>
