<svg id="icons_Burger_Line" data-name="icons/Burger/Line" xmlns="http://www.w3.org/2000/svg" width="24" height="24" viewBox="0 0 24 24">
  <g id="Shape" transform="translate(2 3)">
    <path id="F8C817C5-88B3-4595-A3CF-C88E0D0198F0" d="M0,7A7,7,0,0,1,7,0h6a7,7,0,0,1,7,7,3,3,0,0,1-3,3H3A3,3,0,0,1,0,7ZM7,2h6a5,5,0,0,1,5,5,1,1,0,0,1-1,1H3A1,1,0,0,1,2,7,5,5,0,0,1,7,2Z" fill="#777e90" fill-rule="evenodd"/>
    <path id="_62118131-3FE0-4142-AAFD-28EC6248A773" data-name="62118131-3FE0-4142-AAFD-28EC6248A773" d="M20,15a3,3,0,0,1-3,3H3a3,3,0,0,1,0-6H17A3,3,0,0,1,20,15Zm-3,1H3a1,1,0,0,1,0-2H17a1,1,0,0,1,0,2Z" fill="#777e90" fill-rule="evenodd"/>
  </g>
  <path id="Shape-2" data-name="Shape" d="M19,2H3A1,1,0,0,0,3,4H19a1,1,0,0,0,0-2ZM3,0A3,3,0,0,0,3,6H19a3,3,0,0,0,0-6Z" transform="translate(1 11)" fill="#777e90" fill-rule="evenodd"/>
  <g id="Shape-3" data-name="Shape" transform="translate(7 7)">
    <path id="_70AA2368-E9BA-4260-9E83-1B58F19C34F1" data-name="70AA2368-E9BA-4260-9E83-1B58F19C34F1" d="M2,1A1,1,0,1,1,1,0,1,1,0,0,1,2,1Z" fill="#777e90"/>
    <path id="_141881BB-F9B9-4DC7-898B-92D43D3FEB72" data-name="141881BB-F9B9-4DC7-898B-92D43D3FEB72" d="M2,1A1,1,0,1,1,1,0,1,1,0,0,1,2,1Z" transform="translate(4)" fill="#777e90"/>
    <path id="_45C3483A-8224-4208-8490-0AE5CD8F6215" data-name="45C3483A-8224-4208-8490-0AE5CD8F6215" d="M1,2A1,1,0,1,0,0,1,1,1,0,0,0,1,2Z" transform="translate(8)" fill="#777e90"/>
  </g>
</svg>
