<svg id="icons_Line_03_Down_Line" data-name="icons/Line 03 Down/Line" xmlns="http://www.w3.org/2000/svg" width="24" height="24" viewBox="0 0 24 24">
  <path id="Shape" d="M1,0A1,1,0,0,1,2,1V15a1,1,0,0,0,1,1H21a1,1,0,0,1,0,2H3a3,3,0,0,1-3-3V1A1,1,0,0,1,1,0Z" transform="translate(1 3)" fill="#777e90"/>
  <path id="Shape-2" data-name="Shape" d="M.5.132A1,1,0,0,0,.132,1.5L3.318,7.073A3,3,0,0,0,6.872,8.43L9.993,7.39a1,1,0,0,1,1.1.324l3.129,3.911a1,1,0,0,0,1.562-1.249L12.652,6.464a3,3,0,0,0-3.291-.972L6.239,6.533A1,1,0,0,1,5.055,6.08L1.868.5A1,1,0,0,0,.5.132Z" transform="translate(5 5)" fill="#777e90"/>
</svg>
