<svg id="icons_Grid_Filled" data-name="icons/Grid/Filled" xmlns="http://www.w3.org/2000/svg" width="24" height="24" viewBox="0 0 24 24">
  <path id="Shape" d="M.172,2.472a2.683,2.683,0,0,1,2.3-2.3A16.085,16.085,0,0,1,4.5,0,16.085,16.085,0,0,1,6.528.172a2.683,2.683,0,0,1,2.3,2.3A16.086,16.086,0,0,1,9,4.5a16.086,16.086,0,0,1-.172,2.028,2.683,2.683,0,0,1-2.3,2.3A16.086,16.086,0,0,1,4.5,9a16.086,16.086,0,0,1-2.028-.172,2.683,2.683,0,0,1-2.3-2.3A16.085,16.085,0,0,1,0,4.5,16.085,16.085,0,0,1,.172,2.472Z" transform="translate(13 13)" fill="#777e90"/>
  <path id="Shape-2" data-name="Shape" d="M.172,2.472a2.683,2.683,0,0,1,2.3-2.3A16.085,16.085,0,0,1,4.5,0,16.085,16.085,0,0,1,6.528.172a2.683,2.683,0,0,1,2.3,2.3A16.086,16.086,0,0,1,9,4.5a16.086,16.086,0,0,1-.172,2.028,2.683,2.683,0,0,1-2.3,2.3A16.086,16.086,0,0,1,4.5,9a16.086,16.086,0,0,1-2.028-.172,2.683,2.683,0,0,1-2.3-2.3A16.085,16.085,0,0,1,0,4.5,16.085,16.085,0,0,1,.172,2.472Z" transform="translate(2 13)" fill="#777e90"/>
  <path id="Shape-3" data-name="Shape" d="M.172,2.472a2.683,2.683,0,0,1,2.3-2.3A16.085,16.085,0,0,1,4.5,0,16.085,16.085,0,0,1,6.528.172a2.683,2.683,0,0,1,2.3,2.3A16.086,16.086,0,0,1,9,4.5a16.086,16.086,0,0,1-.172,2.028,2.683,2.683,0,0,1-2.3,2.3A16.086,16.086,0,0,1,4.5,9a16.086,16.086,0,0,1-2.028-.172,2.683,2.683,0,0,1-2.3-2.3A16.085,16.085,0,0,1,0,4.5,16.085,16.085,0,0,1,.172,2.472Z" transform="translate(13 2)" fill="#777e90"/>
  <path id="Shape-4" data-name="Shape" d="M.172,2.472a2.683,2.683,0,0,1,2.3-2.3A16.085,16.085,0,0,1,4.5,0,16.085,16.085,0,0,1,6.528.172a2.683,2.683,0,0,1,2.3,2.3A16.086,16.086,0,0,1,9,4.5a16.086,16.086,0,0,1-.172,2.028,2.683,2.683,0,0,1-2.3,2.3A16.086,16.086,0,0,1,4.5,9a16.086,16.086,0,0,1-2.028-.172,2.683,2.683,0,0,1-2.3-2.3A16.085,16.085,0,0,1,0,4.5,16.085,16.085,0,0,1,.172,2.472Z" transform="translate(2 2)" fill="#777e90"/>
</svg>
