<svg id="icons_Fast_Backward_Line" data-name="icons/Fast Backward/Line" xmlns="http://www.w3.org/2000/svg" width="24" height="24" viewBox="0 0 24 24">
  <path id="Shape" d="M2,15V3A1,1,0,0,1,4,3V15a1,1,0,0,1-2,0ZM3,0A3,3,0,0,1,6,3V15a3,3,0,0,1-6,0V3A3,3,0,0,1,3,0Z" transform="translate(17 3)" fill="#777e90" fill-rule="evenodd"/>
  <path id="Shape-2" data-name="Shape" d="M2.4,8.205l8-6a1,1,0,0,1,1.6.8v12a1,1,0,0,1-1.6.8l-8-6A1,1,0,0,1,2.4,8.205ZM9.2.605a3,3,0,0,1,4.8,2.4v12a3,3,0,0,1-4.8,2.4l-8-6a3,3,0,0,1,0-4.8Z" transform="translate(1 2.995)" fill="#777e90" fill-rule="evenodd"/>
</svg>
