<svg id="Icons_SoundCloud_Line" data-name="Icons/SoundCloud/Line" xmlns="http://www.w3.org/2000/svg" width="24" height="24" viewBox="0 0 24 24">
  <path id="Vector" d="M6.164,5.845l-.253-1.1A3.541,3.541,0,0,0,2.461,2,.462.462,0,0,0,2,2.462V13a1,1,0,0,0,1,1H6A4,4,0,0,0,7.24,6.2Zm1.7-1.551A5.541,5.541,0,0,0,2.461,0,2.462,2.462,0,0,0,0,2.462V13a3,3,0,0,0,3,3H6A6,6,0,0,0,7.86,4.294Z" transform="translate(12 4)" fill="#777e90" fill-rule="evenodd"/>
  <path id="Vector-2" data-name="Vector" d="M0,1A1,1,0,0,1,2,1V11a1,1,0,0,1-2,0Z" transform="translate(8 8)" fill="#777e90"/>
  <path id="Vector-3" data-name="Vector" d="M0,1A1,1,0,0,1,2,1V8A1,1,0,0,1,0,8Z" transform="translate(4 11)" fill="#777e90"/>
  <path id="Vector-4" data-name="Vector" d="M1,0A1,1,0,0,0,0,1V5A1,1,0,0,0,2,5V1A1,1,0,0,0,1,0Z" transform="translate(0 14)" fill="#777e90"/>
</svg>
