<svg id="icons_Crop_Tool_Filled" data-name="icons/Crop Tool/Filled" xmlns="http://www.w3.org/2000/svg" width="24" height="24" viewBox="0 0 24 24">
  <g id="Shape" transform="translate(2 5)">
    <path id="EE38F74C-63BA-4DF9-9B87-B2FC16998BC9" d="M1,0A1,1,0,0,0,1,2H3V0Z" fill="#777e90"/>
    <path id="_3AC51A6D-8063-4433-B20D-6414ECA969EF" data-name="3AC51A6D-8063-4433-B20D-6414ECA969EF" d="M0,1A1,1,0,0,1,1,0H7a3,3,0,0,1,3,3V9A1,1,0,0,1,8,9V3A1,1,0,0,0,7,2H1A1,1,0,0,1,0,1Z" transform="translate(7)" fill="#777e90"/>
    <path id="_49F25A1B-FB1C-4BF8-B2FC-5AE49AD46300" data-name="49F25A1B-FB1C-4BF8-B2FC-5AE49AD46300" d="M2,0V2A1,1,0,0,1,0,2V0Z" transform="translate(15 14)" fill="#777e90"/>
  </g>
  <path id="Shape-2" data-name="Shape" d="M0,1A1,1,0,0,1,1,0H14a3,3,0,0,1,3,3V16a1,1,0,0,1-2,0V3a1,1,0,0,0-1-1H1A1,1,0,0,1,0,1Z" transform="translate(22 19) rotate(-180)" fill="#777e90"/>
  <path id="Shape-3" data-name="Shape" d="M0,1A1,1,0,0,1,1,0H5A1,1,0,0,1,6,1V5A1,1,0,0,1,5,6H1A1,1,0,0,1,0,5Z" transform="translate(9 9)" fill="#777e90"/>
</svg>
