<svg id="icons_Fork_and_Knife_Line" data-name="icons/Fork and Knife/Line" xmlns="http://www.w3.org/2000/svg" width="24" height="24" viewBox="0 0 24 24">
  <path id="Shape" d="M1,0A5,5,0,0,1,6,5v7a1,1,0,0,1-.757.97L2,13.781V19a1,1,0,0,1-2,0V1A1,1,0,0,1,1,0ZM2,11.719l2-.5V5A3,3,0,0,0,2,2.171Z" transform="translate(16 2)" fill="#777e90" fill-rule="evenodd"/>
  <path id="Shape-2" data-name="Shape" d="M2,1A1,1,0,0,0,0,1V5A5,5,0,0,0,4,9.9V19a1,1,0,0,0,2,0V9.9A5,5,0,0,0,10,5V1A1,1,0,0,0,8,1V5A3,3,0,0,1,6,7.829V1A1,1,0,0,0,4,1V7.829A3,3,0,0,1,2,5Z" transform="translate(2 2)" fill="#777e90"/>
</svg>
