<svg id="icons_Shopping_Tag_Filled" data-name="icons/Shopping Tag/Filled" xmlns="http://www.w3.org/2000/svg" width="24" height="24" viewBox="0 0 24 24">
  <g id="Shape" transform="translate(1.828 2)">
    <path id="BB9962F2-BDC1-410C-A694-3A4AD71A9EB9" d="M11.414,0A4,4,0,0,0,8.586,1.172L3.525,6.232a.5.5,0,0,0,0,.707l9.707,9.707a.5.5,0,0,0,.707,0L19,11.586a4,4,0,0,0,1.172-2.828V3a3,3,0,0,0-3-3Zm3.757,7a2,2,0,1,1-2-2A2,2,0,0,1,15.172,7Z" fill="#777e90" fill-rule="evenodd"/>
    <path id="_9DC53D2A-1638-455C-9DC5-D412875989BC" data-name="9DC53D2A-1638-455C-9DC5-D412875989BC" d="M11.818,10.561a.5.5,0,0,0,0-.707L2.111.146a.5.5,0,0,0-.707,0L.879.672a3,3,0,0,0,0,4.243L7.05,11.086a3,3,0,0,0,4.243,0Z" transform="translate(0 8.207)" fill="#777e90"/>
  </g>
</svg>
