<svg id="icons_Wine_Glass_Line" data-name="icons/Wine Glass/Line" xmlns="http://www.w3.org/2000/svg" width="24" height="24" viewBox="0 0 24 24">
  <path id="Shape" d="M4,0A1,1,0,0,0,3,1V8H1a1,1,0,0,0,0,2H7A1,1,0,0,0,7,8H5V1A1,1,0,0,0,4,0Z" transform="translate(8 14)" fill="#777e90"/>
  <path id="Shape-2" data-name="Shape" d="M10.068,2H3.992a.754.754,0,0,0-.756.47,18.785,18.785,0,0,0-1.153,7.747A4.3,4.3,0,0,0,3.3,12.9,5.273,5.273,0,0,0,7.03,14a5.273,5.273,0,0,0,3.731-1.1,4.3,4.3,0,0,0,1.216-2.686A18.786,18.786,0,0,0,10.823,2.47.754.754,0,0,0,10.068,2ZM3.992,0A2.75,2.75,0,0,0,1.341,1.831C-.076,6.031-2.443,16,7.03,16s7.106-9.969,5.689-14.169A2.75,2.75,0,0,0,10.068,0Z" transform="translate(4.97)" fill="#777e90" fill-rule="evenodd"/>
</svg>
