<svg id="icons_Megaphone_Filled" data-name="icons/Megaphone/Filled" xmlns="http://www.w3.org/2000/svg" width="24" height="24" viewBox="0 0 24 24">
  <path id="Shape" d="M.5,0A.5.5,0,0,0,.01.6C.171,1.4.453,2.824.592,3.55A1.548,1.548,0,0,0,2.235,5,1.656,1.656,0,0,0,3.891,3.344V.5a.5.5,0,0,0-.5-.5Z" transform="translate(4.109 16)" fill="#777e90"/>
  <g id="Shape-2" data-name="Shape" transform="translate(1 3.529)">
    <path id="_95A904DB-E073-49C2-8F9B-7E101F4DAC60" data-name="95A904DB-E073-49C2-8F9B-7E101F4DAC60" d="M3,0A3,3,0,1,0,3,6H6.5A.5.5,0,0,0,7,5.5V.5A.5.5,0,0,0,6.5,0Z" transform="translate(0 4.471)" fill="#777e90"/>
    <path id="_353149F1-8A4E-41C1-BF11-D95925013144" data-name="353149F1-8A4E-41C1-BF11-D95925013144" d="M.309,3.6A.516.516,0,0,0,0,4.069v6.8a.516.516,0,0,0,.309.468,9.982,9.982,0,0,1,1.066.555l4.6,2.758A2,2,0,0,0,9,12.938V2A2,2,0,0,0,5.971.288l-4.6,2.758A10,10,0,0,1,.309,3.6Z" transform="translate(9 0)" fill="#777e90"/>
  </g>
  <path id="Shape-3" data-name="Shape" d="M0,1A1,1,0,0,1,2,1V3A1,1,0,0,1,0,3Z" transform="translate(21 9)" fill="#777e90"/>
</svg>
