<svg id="icons_Bank_Note_Line" data-name="icons/Bank Note/Line" xmlns="http://www.w3.org/2000/svg" width="24" height="24" viewBox="0 0 24 24">
  <path id="Shape" d="M20,2H4A2,2,0,0,0,2,4v8a2,2,0,0,0,2,2H20a2,2,0,0,0,2-2V4A2,2,0,0,0,20,2ZM4,0A4,4,0,0,0,0,4v8a4,4,0,0,0,4,4H20a4,4,0,0,0,4-4V4a4,4,0,0,0-4-4Z" transform="translate(0 4)" fill="#777e90" fill-rule="evenodd"/>
  <g id="Shape-2" data-name="Shape" transform="translate(1 5)">
    <path id="B2D81B03-8826-4609-A1FE-33D3B376C919" d="M6,5A1,1,0,0,1,5,6,5,5,0,0,1,0,1,1,1,0,0,1,2,1,3,3,0,0,0,5,4,1,1,0,0,1,6,5Z" transform="translate(16)" fill="#777e90"/>
    <path id="BBBEEFDF-B306-4948-8160-04AFE44C23C2" d="M1,0A1,1,0,0,0,1,2,3,3,0,0,1,4,5,1,1,0,0,0,6,5,5,5,0,0,0,1,0Z" transform="translate(0 8)" fill="#777e90"/>
    <path id="_4820C172-512F-4967-A332-31D079E29C3E" data-name="4820C172-512F-4967-A332-31D079E29C3E" d="M5,0A1,1,0,0,1,5,2,3,3,0,0,0,2,5,1,1,0,0,1,0,5,5,5,0,0,1,5,0Z" transform="translate(16 8)" fill="#777e90"/>
    <path id="F0319E56-9664-4480-9A64-65B35980ECED" d="M1,6A1,1,0,0,1,1,4,3,3,0,0,0,4,1,1,1,0,0,1,6,1,5,5,0,0,1,1,6Z" fill="#777e90"/>
  </g>
  <path id="Shape-3" data-name="Shape" d="M4,6A2,2,0,1,0,2,4,2,2,0,0,0,4,6ZM4,8A4,4,0,1,0,0,4,4,4,0,0,0,4,8Z" transform="translate(8 8)" fill="#777e90" fill-rule="evenodd"/>
</svg>
