<svg id="icons_Thermometer_Filled" data-name="icons/Thermometer/Filled" xmlns="http://www.w3.org/2000/svg" width="24" height="24" viewBox="0 0 24 24">
  <path id="Shape" d="M2.207,0,.414,1.793a1.414,1.414,0,0,0,2,2L4.207,2Z" transform="translate(2.05 17.743)" fill="#777e90"/>
  <path id="Shape-2" data-name="Shape" d="M15.293,6.036,7.38,13.948a3,3,0,0,1-1.394.789L3.33,15.4a2,2,0,0,0-.929.526l-.4.4-2-2,.4-.4A2,2,0,0,0,.927,13l.664-2.656A3,3,0,0,1,2.38,8.948l7.912-7.912a3.536,3.536,0,0,1,5,5Zm-3.5.5-2,2a1.414,1.414,0,0,1-2-2l2-2a1.414,1.414,0,0,1,2,2Z" transform="translate(5.671 2)" fill="#777e90" fill-rule="evenodd"/>
</svg>
