<svg id="icons_Earphones_Line" data-name="icons/Earphones/Line" xmlns="http://www.w3.org/2000/svg" width="24" height="24" viewBox="0 0 24 24">
  <path id="Shape" d="M6,8.265V15a1,1,0,0,0,2,0V5A3,3,0,1,0,4.4,7.94ZM4,9.9V15a3,3,0,0,0,6,0V5A5,5,0,1,0,4,9.9Z" transform="translate(13 3)" fill="#777e90" fill-rule="evenodd"/>
  <path id="Shape-2" data-name="Shape" d="M0,0H2V-2H0Z" transform="translate(21 15) rotate(180)" fill="#777e90"/>
  <path id="Shape-3" data-name="Shape" d="M4,8.265,5.6,7.94A3,3,0,1,0,2,5V15a1,1,0,0,0,2,0ZM0,5A5,5,0,1,1,6,9.9V15a3,3,0,0,1-6,0Z" transform="translate(1 3)" fill="#777e90" fill-rule="evenodd"/>
  <path id="Shape-4" data-name="Shape" d="M0,0H2V2H0Z" transform="translate(3 15)" fill="#777e90"/>
</svg>
