<svg id="icons_Wine_Glass_Filled" data-name="icons/Wine Glass/Filled" xmlns="http://www.w3.org/2000/svg" width="24" height="24" viewBox="0 0 24 24">
  <path id="Shape" d="M4,0A1,1,0,0,0,3,1V4H1A1,1,0,0,0,1,6H7A1,1,0,0,0,7,4H5V1A1,1,0,0,0,4,0Z" transform="translate(8 18)" fill="#777e90"/>
  <path id="Shape-2" data-name="Shape" d="M1.212,1.307A1.869,1.869,0,0,1,3.029,0h7.189a1.869,1.869,0,0,1,1.817,1.307C13.192,5.127,15.691,16,6.623,16S.055,5.127,1.212,1.307Z" transform="translate(5.377)" fill="#777e90"/>
</svg>
