<svg id="icons_Camera_Filled" data-name="icons/Camera/Filled" xmlns="http://www.w3.org/2000/svg" width="24" height="24" viewBox="0 0 24 24">
  <g id="Shape" transform="translate(2 2)">
    <path id="FDEDE5FB-A485-4D49-88B9-9984BEC4E6D8" d="M4,2A2,2,0,1,1,2,0,2,2,0,0,1,4,2Z" transform="translate(8 9)" fill="#777e90"/>
    <path id="_5E660611-8812-4397-B451-06CA878862E5" data-name="5E660611-8812-4397-B451-06CA878862E5" d="M0,6.342a3,3,0,0,1,2.272-2.91L4,3,5.406.891A2,2,0,0,1,7.07,0H12.93a2,2,0,0,1,1.664.891L16,3l1.728.432A3,3,0,0,1,20,6.342V17a3,3,0,0,1-3,3H3a3,3,0,0,1-3-3ZM17,7a1,1,0,1,1-1-1A1,1,0,0,1,17,7Zm-3,4a4,4,0,1,1-4-4A4,4,0,0,1,14,11Z" fill="#777e90" fill-rule="evenodd"/>
  </g>
  <path id="Shape-2" data-name="Shape" d="M4,2A2,2,0,1,1,2,0,2,2,0,0,1,4,2Z" transform="translate(10 11)" fill="#777e90"/>
</svg>
