<svg id="icons_Arrow_Down_Simple_Line" data-name="icons/Arrow Down Simple/Line" xmlns="http://www.w3.org/2000/svg" width="24" height="24" viewBox="0 0 24 24">
  <path id="Shape" d="M10,2a40.091,40.091,0,0,0-5.2.352A2.811,2.811,0,0,0,2.352,4.8,40.092,40.092,0,0,0,2,10a40.092,40.092,0,0,0,.352,5.2A2.811,2.811,0,0,0,4.8,17.648,40.084,40.084,0,0,0,10,18a40.086,40.086,0,0,0,5.2-.352A2.811,2.811,0,0,0,17.648,15.2,40.086,40.086,0,0,0,18,10a40.084,40.084,0,0,0-.352-5.2A2.811,2.811,0,0,0,15.2,2.352,40.094,40.094,0,0,0,10,2ZM4.542.369A4.811,4.811,0,0,0,.369,4.542,42.089,42.089,0,0,0,0,10a42.091,42.091,0,0,0,.369,5.458,4.811,4.811,0,0,0,4.173,4.173A42.082,42.082,0,0,0,10,20a42.084,42.084,0,0,0,5.458-.369,4.811,4.811,0,0,0,4.173-4.173A42.084,42.084,0,0,0,20,10a42.082,42.082,0,0,0-.369-5.458A4.811,4.811,0,0,0,15.458.369,42.091,42.091,0,0,0,10,0,42.089,42.089,0,0,0,4.542.369Z" transform="translate(22 2) rotate(90)" fill="rgba(0,0,0,0)" fill-rule="evenodd"/>
  <path id="Shape-2" data-name="Shape" d="M5.207-.293a1,1,0,0,0,0-1.414L2.414-4.5,5.207-7.293a1,1,0,0,0,0-1.414,1,1,0,0,0-1.414,0l-3.5,3.5a1,1,0,0,0,0,1.414l3.5,3.5A1,1,0,0,0,5.207-.293Z" transform="translate(16.5 15) rotate(-90)" fill="#777e90"/>
</svg>
