<svg id="icons_Fencing_Filled" data-name="icons/Fencing/Filled" xmlns="http://www.w3.org/2000/svg" width="24" height="24" viewBox="0 0 24 24">
  <g id="Shape" transform="translate(2 2)">
    <path id="B01CB9EA-90A8-4569-969D-881A8126B5E0" d="M1.707.293A1,1,0,0,0,.293,1.707l6,6A1,1,0,0,0,7.707,6.293Z" transform="translate(0 0)" fill="#777e90"/>
    <path id="_9D3F4D0D-79DC-42B2-8B4A-4C28E0B8D5FD" data-name="9D3F4D0D-79DC-42B2-8B4A-4C28E0B8D5FD" d="M1.707.293A1,1,0,0,0,.293,1.707l6,6A1,1,0,0,0,7.707,6.293Z" transform="translate(12 12)" fill="#777e90"/>
  </g>
  <path id="Shape-2" data-name="Shape" d="M19.707.293a1,1,0,0,1,0,1.414l-18,18A1,1,0,0,1,.293,18.293l18-18A1,1,0,0,1,19.707.293Z" transform="translate(2 2)" fill="#777e90"/>
  <path id="Shape-3" data-name="Shape" d="M5.978,3A3,3,0,0,1,3.392,5.972a.848.848,0,0,1-.706-.265L.271,3.293a.848.848,0,0,1-.265-.706A3,3,0,0,1,5.978,3Z" transform="translate(3.022 15)" fill="#777e90"/>
  <path id="Shape-4" data-name="Shape" d="M5.978-3A3,3,0,0,0,3.392-5.972a.848.848,0,0,0-.706.265L.271-3.293a.848.848,0,0,0-.265.706A3,3,0,0,0,2.978,0,3,3,0,0,0,5.978-3Z" transform="translate(21 15) rotate(180)" fill="#777e90"/>
</svg>
