<svg id="icons_File_Cross_Line" data-name="icons/File Cross/Line" xmlns="http://www.w3.org/2000/svg" width="24" height="24" viewBox="0 0 24 24">
  <path id="Shape" d="M0,4A4,4,0,0,1,4,0h8.343a4,4,0,0,1,2.829,1.172l1.657,1.657A4,4,0,0,1,18,5.657V18a4,4,0,0,1-4,4H4a4,4,0,0,1-4-4ZM16,7V18a2,2,0,0,1-2,2H4a2,2,0,0,1-2-2V4A2,2,0,0,1,4,2h7V4a3,3,0,0,0,3,3Zm-.111-2a2,2,0,0,0-.475-.757L13.757,2.586A2,2,0,0,0,13,2.111V4a1,1,0,0,0,1,1Z" transform="translate(3 1)" fill="#777e90" fill-rule="evenodd"/>
  <path id="Shape-2" data-name="Shape" d="M1.707.293A1,1,0,0,0,.293,1.707L2.586,4,.293,6.293A1,1,0,0,0,1.707,7.707L4,5.414,6.293,7.707A1,1,0,0,0,7.707,6.293L5.414,4,7.707,1.707A1,1,0,1,0,6.293.293L4,2.586Z" transform="translate(8 10)" fill="#777e90"/>
</svg>
