<svg id="icons_Thermometer_Line" data-name="icons/Thermometer/Line" xmlns="http://www.w3.org/2000/svg" width="24" height="24" viewBox="0 0 24 24">
  <path id="Shape" d="M3.241,12.537a3,3,0,0,0,.789-1.394l.6-2.388a3,3,0,0,1,.789-1.394L11.328,1.45a4.95,4.95,0,0,1,7,7l-5.912,5.912a3,3,0,0,1-1.394.789l-2.388.6a3,3,0,0,0-1.394.789L4.828,18.95a2.828,2.828,0,0,1-4-4Zm7.3.674-2.388.6a5,5,0,0,0-2.323,1.315L3.414,17.535a.828.828,0,0,1-1.172-1.171l2.412-2.413A5,5,0,0,0,5.97,11.629l.6-2.388a1,1,0,0,1,.263-.465l5.912-5.912a2.95,2.95,0,0,1,4.172,4.172L11,12.948A1,1,0,0,1,10.537,13.211Z" transform="translate(2.172 2.05)" fill="#777e90" fill-rule="evenodd"/>
  <path id="Shape-2" data-name="Shape" d="M4.414,2.414l-2,2a1.414,1.414,0,0,1-2-2l2-2a1.414,1.414,0,0,1,2,2Z" transform="translate(12.586 6.586)" fill="#777e90"/>
  <path id="Shape-3" data-name="Shape" d="M4.293,4.293a1,1,0,0,1-1.414,0L.293,1.707A1,1,0,0,1,1.707.293L4.293,2.879A1,1,0,0,1,4.293,4.293Z" transform="translate(4.707 14.707)" fill="#777e90"/>
</svg>
