<svg id="icons_Apple_Filled" data-name="icons/Apple/Filled" xmlns="http://www.w3.org/2000/svg" width="24" height="24" viewBox="0 0 24 24">
  <path id="Shape" d="M0,7c0,4,3,9,6,9a4.357,4.357,0,0,0,3-1.558A4.357,4.357,0,0,0,12,16c3,0,6-5,6-9s-2-7-6-7A6.05,6.05,0,0,0,9,.722,6.05,6.05,0,0,0,6,0C2,0,0,3,0,7Zm5-.5A.5.5,0,0,1,5.5,6,1.5,1.5,0,0,1,7,7.5v1a.5.5,0,0,1-.5.5A1.5,1.5,0,0,1,5,7.5ZM12.5,6a.5.5,0,0,1,.5.5v1A1.5,1.5,0,0,1,11.5,9a.5.5,0,0,1-.5-.5v-1A1.5,1.5,0,0,1,12.5,6Z" transform="translate(3 7)" fill="#777e90" fill-rule="evenodd"/>
  <path id="Shape-2" data-name="Shape" d="M2,2A2,2,0,0,1,4,4V5A1,1,0,0,0,6,5V4A4,4,0,0,0,2,0H1A1,1,0,0,0,1,2Z" transform="translate(7 3)" fill="#777e90"/>
  <path id="Shape-3" data-name="Shape" d="M3.333,0h2A.667.667,0,0,1,6,.667,3.333,3.333,0,0,1,2.667,4h-2A.667.667,0,0,1,0,3.333,3.333,3.333,0,0,1,3.333,0Z" transform="translate(14 1)" fill="#777e90"/>
</svg>
