<svg id="icons_Football_Ball_Line" data-name="icons/Football Ball/Line" xmlns="http://www.w3.org/2000/svg" width="24" height="24" viewBox="0 0 24 24">
  <path id="Shape" d="M21.432,9.427A2.943,2.943,0,0,0,22,8a2.943,2.943,0,0,0-.568-1.427,8.747,8.747,0,0,0-2.022-2.11,12.375,12.375,0,0,0-14.82,0,8.748,8.748,0,0,0-2.022,2.11A2.944,2.944,0,0,0,2,8a2.944,2.944,0,0,0,.568,1.427,8.747,8.747,0,0,0,2.022,2.11,12.376,12.376,0,0,0,14.82,0A8.747,8.747,0,0,0,21.432,9.427ZM12,16c7,0,12-5,12-8S19,0,12,0,0,5,0,8,5,16,12,16Z" transform="translate(0 4)" fill="#777e90" fill-rule="evenodd"/>
  <g id="Shape-2" data-name="Shape" transform="translate(4 5.303)">
    <path id="_9DF0C746-09D1-4368-8381-B0BA5C6901FB" data-name="9DF0C746-09D1-4368-8381-B0BA5C6901FB" d="M2,0A13.932,13.932,0,0,0,0,1.122V12.271a13.928,13.928,0,0,0,2,1.122Z" fill="#777e90"/>
    <path id="_4DB16221-14C6-49DD-854B-318FCDF34392" data-name="4DB16221-14C6-49DD-854B-318FCDF34392" d="M2,12.271a13.925,13.925,0,0,1-2,1.122V0A13.93,13.93,0,0,1,2,1.122Z" transform="translate(14)" fill="#777e90"/>
  </g>
  <path id="Shape-3" data-name="Shape" d="M1,1A1,1,0,0,1,3,1V2H5V1A1,1,0,0,1,7,1V2A1,1,0,0,1,7,4V5A1,1,0,0,1,5,5V4H3V5A1,1,0,0,1,1,5V4A1,1,0,0,1,1,2Z" transform="translate(8 9)" fill="#777e90"/>
</svg>
