<svg id="icons_Gift_Line" data-name="icons/Gift/Line" xmlns="http://www.w3.org/2000/svg" width="24" height="24" viewBox="0 0 24 24">
  <path id="Shape" d="M0,1A1,1,0,0,1,1,0H17a1,1,0,0,1,1,1V6a4,4,0,0,1-4,4H4A4,4,0,0,1,0,6ZM2.5,2a.5.5,0,0,0-.5.5V6A2,2,0,0,0,4,8H14a2,2,0,0,0,2-2V2.5a.5.5,0,0,0-.5-.5Z" transform="translate(3 11)" fill="#777e90" fill-rule="evenodd"/>
  <path id="Shape-2" data-name="Shape" d="M17,2H3A1,1,0,0,0,2,3V4A1,1,0,0,0,3,5H17a1,1,0,0,0,1-1V3A1,1,0,0,0,17,2ZM3,0A3,3,0,0,0,0,3V4A3,3,0,0,0,3,7H17a3,3,0,0,0,3-3V3a3,3,0,0,0-3-3Z" transform="translate(2 6)" fill="#777e90" fill-rule="evenodd"/>
  <path id="Shape-3" data-name="Shape" d="M0,0H2V15H0Z" transform="translate(11 6)" fill="#777e90"/>
  <path id="Shape-4" data-name="Shape" d="M3,6A3,3,0,1,1,5,.764,3,3,0,1,1,7,6ZM3,2A1,1,0,0,1,4,3V4H3A1,1,0,0,1,3,2ZM6,4H7A1,1,0,1,0,6,3Z" transform="translate(7 2)" fill="#777e90" fill-rule="evenodd"/>
</svg>
