<svg id="icons_Light_Bulb_Line" data-name="icons/Light Bulb/Line" xmlns="http://www.w3.org/2000/svg" width="24" height="24" viewBox="0 0 24 24">
  <path id="Shape" d="M2,0V3A1,1,0,0,0,3,4H5A1,1,0,0,0,6,3V0H8V3A3,3,0,0,1,5,6H3A3,3,0,0,1,0,3V0Z" transform="translate(8 18)" fill="#777e90"/>
  <path id="Shape-2" data-name="Shape" d="M11,13.285l.749-.6a6,6,0,1,0-7.5,0l.749.6V16a1,1,0,0,0,1,1h4a1,1,0,0,0,1-1Zm2,.96V16a3,3,0,0,1-3,3H6a3,3,0,0,1-3-3V14.245a8,8,0,1,1,10,0Z" transform="translate(4)" fill="#777e90" fill-rule="evenodd"/>
  <path id="Shape-3" data-name="Shape" d="M1.707.293A1,1,0,0,0,.293,1.707L2,3.414V9H4V3.414L5.707,1.707A1,1,0,0,0,4.293.293L3,1.586Z" transform="translate(9 8)" fill="#777e90"/>
</svg>
