<svg id="Icons_YouTube_Filled" data-name="Icons/YouTube/Filled" xmlns="http://www.w3.org/2000/svg" width="24" height="24" viewBox="0 0 24 24">
  <path id="Vector" d="M3.688.246A3.715,3.715,0,0,0,.2,3.686C.1,5.074,0,6.682,0,8s.1,2.926.2,4.314a3.715,3.715,0,0,0,3.484,3.44c2,.124,4.848.246,8.312.246s6.315-.122,8.312-.246a3.715,3.715,0,0,0,3.484-3.44c.108-1.388.2-3,.2-4.314s-.1-2.926-.2-4.314A3.715,3.715,0,0,0,20.312.246C18.315.122,15.463,0,12,0S5.685.122,3.688.246ZM14.752,7.168l-3.2-2.131A1,1,0,0,0,10,5.868v4.263a1,1,0,0,0,1.555.832l3.2-2.132A1,1,0,0,0,14.752,7.168Z" transform="translate(0 4)" fill="#777e90" fill-rule="evenodd"/>
</svg>
