<svg id="icons_Medicine_Bottle_Filled" data-name="icons/Medicine Bottle/Filled" xmlns="http://www.w3.org/2000/svg" width="24" height="24" viewBox="0 0 24 24">
  <path id="Shape" d="M1,0A1,1,0,0,0,0,1v9a4,4,0,0,0,4,4h8a4,4,0,0,0,4-4V1a1,1,0,0,0-1-1ZM7,5A1,1,0,0,1,9,5V6h1a1,1,0,0,1,0,2H9V9A1,1,0,0,1,7,9V8H6A1,1,0,0,1,6,6H7Z" transform="translate(4 9)" fill="#777e90" fill-rule="evenodd"/>
  <path id="Shape-2" data-name="Shape" d="M2,0A2,2,0,0,0,0,2V4A2,2,0,0,0,2,6H4V5A1,1,0,0,1,6,5V6H8V5a1,1,0,0,1,2,0V6h2V5a1,1,0,0,1,2,0V6h2a2,2,0,0,0,2-2V2a2,2,0,0,0-2-2Z" transform="translate(3 1)" fill="#777e90"/>
</svg>
