<svg id="icons_Cup_01_Filled" data-name="icons/Cup 01/Filled" xmlns="http://www.w3.org/2000/svg" width="24" height="24" viewBox="0 0 24 24">
  <path id="Shape" d="M0,1A1,1,0,0,1,1,0H15a1,1,0,0,1,0,2H1A1,1,0,0,1,0,1Z" transform="translate(1 19)" fill="#777e90"/>
  <path id="Shape-2" data-name="Shape" d="M5,4A4,4,0,0,0,1,0,1,1,0,0,0,1,2,2,2,0,0,1,1,6,1,1,0,0,0,1,8,4,4,0,0,0,5,4Z" transform="translate(18 5)" fill="#777e90"/>
  <path id="Shape-3" data-name="Shape" d="M0,2A2,2,0,0,1,2,0H13a2,2,0,0,1,2,2V7a6,6,0,0,1-6,6H6A6,6,0,0,1,0,7Z" transform="translate(1 3)" fill="#777e90"/>
</svg>
