<svg id="icons_Stretch_Width_Line" data-name="icons/Stretch Width/Line" xmlns="http://www.w3.org/2000/svg" width="24" height="24" viewBox="0 0 24 24">
  <path id="Shape" d="M17,2H3A1,1,0,0,0,2,3V17a1,1,0,0,0,1,1H17a1,1,0,0,0,1-1V3A1,1,0,0,0,17,2ZM3,0A3,3,0,0,0,0,3V17a3,3,0,0,0,3,3H17a3,3,0,0,0,3-3V3a3,3,0,0,0-3-3Z" transform="translate(2 2)" fill="#777e90" fill-rule="evenodd"/>
  <path id="Shape-2" data-name="Shape" d="M.293,3.707a1,1,0,0,1,0-1.414l2-2A1,1,0,0,1,3.707,1.707L3.414,2H8.586l-.293-.293A1,1,0,1,1,9.707.293l2,2a1,1,0,0,1,0,1.414l-2,2A1,1,0,0,1,8.293,4.293L8.586,4H3.414l.293.293A1,1,0,0,1,2.293,5.707Z" transform="translate(6 9)" fill="#777e90"/>
</svg>
