<svg id="icons_Backward_Line" data-name="icons/Backward/Line" xmlns="http://www.w3.org/2000/svg" width="24" height="24" viewBox="0 0 24 24">
  <path id="Shape" d="M2.458,6.659,9.424,2.165A1,1,0,0,1,10.966,3v8.989a1,1,0,0,1-1.542.84L2.458,8.34A1,1,0,0,1,2.458,6.659ZM8.34.484A3,3,0,0,1,12.966,3v8.989A3,3,0,0,1,8.34,14.514L1.374,10.02a3,3,0,0,1,0-5.042Z" transform="translate(11 4.501)" fill="#777e90" fill-rule="evenodd"/>
  <path id="Shape-2" data-name="Shape" d="M2.458,6.659,9.424,2.165A1,1,0,0,1,10.966,3v8.989a1,1,0,0,1-1.542.84L2.458,8.34A1,1,0,0,1,2.458,6.659ZM8.34.484A3,3,0,0,1,12.966,3v8.989A3,3,0,0,1,8.34,14.514L1.374,10.02a3,3,0,0,1,0-5.042Z" transform="translate(0 4.501)" fill="#777e90" fill-rule="evenodd"/>
</svg>
