<svg id="icons_Scatter_Down_Filled" data-name="icons/Scatter Down/Filled" xmlns="http://www.w3.org/2000/svg" width="24" height="24" viewBox="0 0 24 24">
  <g id="Shape" transform="translate(3 11)">
    <path id="_22A0F520-53F3-44D6-BDD1-97D533E3D873" data-name="22A0F520-53F3-44D6-BDD1-97D533E3D873" d="M2,1A1,1,0,1,1,1,0,1,1,0,0,1,2,1Z" fill="#777e90"/>
    <path id="_8E3BCD6A-7F51-476A-9637-DE7FFE2C14C5" data-name="8E3BCD6A-7F51-476A-9637-DE7FFE2C14C5" d="M2,1A1,1,0,1,1,1,0,1,1,0,0,1,2,1Z" transform="translate(0 4)" fill="#777e90"/>
    <path id="_5AEB949C-CBAB-452B-962D-696A187213BB" data-name="5AEB949C-CBAB-452B-962D-696A187213BB" d="M2,1A1,1,0,1,1,1,0,1,1,0,0,1,2,1Z" transform="translate(0 8)" fill="#777e90"/>
    <path id="D39A8769-A214-4E37-92AE-C9251BD802E8" d="M1,2A1,1,0,1,0,0,1,1,1,0,0,0,1,2Z" transform="translate(8 4)" fill="#777e90"/>
    <path id="_9A21E3EF-758C-45BE-AAA9-D05A9D4C4860" data-name="9A21E3EF-758C-45BE-AAA9-D05A9D4C4860" d="M1,2A1,1,0,1,0,0,1,1,1,0,0,0,1,2Z" transform="translate(8 8)" fill="#777e90"/>
    <path id="AA343FC3-1721-499C-89E4-263CFBF28B6C" d="M2,1A1,1,0,1,1,1,0,1,1,0,0,1,2,1Z" transform="translate(16 8)" fill="#777e90"/>
  </g>
  <g id="Shape-2" data-name="Shape" transform="translate(1 3)">
    <path id="_992CD8DF-066D-47B2-942D-2ED33247290A" data-name="992CD8DF-066D-47B2-942D-2ED33247290A" d="M3,6A3,3,0,1,1,6,3,3,3,0,0,1,3,6Z" fill="#777e90"/>
    <path id="_2F002D89-DA2C-4401-A93D-A25BF189D9C1" data-name="2F002D89-DA2C-4401-A93D-A25BF189D9C1" d="M0,3A3,3,0,1,0,3,0,3,3,0,0,0,0,3Z" transform="translate(8 4)" fill="#777e90"/>
    <path id="_1A715B2A-879A-4DFF-BA1E-440AC3B3648E" data-name="1A715B2A-879A-4DFF-BA1E-440AC3B3648E" d="M0,3A3,3,0,1,0,3,0,3,3,0,0,0,0,3Z" transform="translate(16 8)" fill="#777e90"/>
  </g>
</svg>
