<svg id="icons_Cabinet_Files_Filled" data-name="icons/Cabinet Files/Filled" xmlns="http://www.w3.org/2000/svg" width="24" height="24" viewBox="0 0 24 24">
  <path id="Shape" d="M19,0a1,1,0,0,1,1,1V6a3,3,0,0,1-3,3H3A3,3,0,0,1,0,6V1A1,1,0,0,1,1,0ZM8,3A1,1,0,0,0,8,5h4a1,1,0,0,0,0-2Z" transform="translate(2 13)" fill="#777e90" fill-rule="evenodd"/>
  <path id="Shape-2" data-name="Shape" d="M0,3A3,3,0,0,1,3,0H17a3,3,0,0,1,3,3V8a1,1,0,0,1-1,1H1A1,1,0,0,1,0,8ZM8,3A1,1,0,0,0,8,5h4a1,1,0,0,0,0-2Z" transform="translate(2 2)" fill="#777e90" fill-rule="evenodd"/>
</svg>
