<svg id="icons_Column_02_Down_Filled" data-name="icons/Column 02 Down/Filled" xmlns="http://www.w3.org/2000/svg" width="24" height="24" viewBox="0 0 24 24">
  <path id="Shape" d="M2,0A2,2,0,0,1,0-2V-16a2,2,0,0,1,2-2H20a2,2,0,0,1,2,2V-2a2,2,0,0,1-2,2ZM3-12a1,1,0,0,1-1-1v-2a1,1,0,0,1,1-1,1,1,0,0,1,1,1v2A1,1,0,0,1,3-12Zm3,1a1,1,0,0,0,1,1,1,1,0,0,0,1-1v-4a1,1,0,0,0-1-1,1,1,0,0,0-1,1Zm5,7a1,1,0,0,1-1-1V-15a1,1,0,0,1,1-1,1,1,0,0,1,1,1V-5A1,1,0,0,1,11-4Zm3-3a1,1,0,0,0,1,1,1,1,0,0,0,1-1v-8a1,1,0,0,0-1-1,1,1,0,0,0-1,1Zm5,5a1,1,0,0,1-1-1V-15a1,1,0,0,1,1-1,1,1,0,0,1,1,1V-3A1,1,0,0,1,19-2Z" transform="translate(23 3) rotate(180)" fill="#777e90" fill-rule="evenodd"/>
</svg>
