<svg id="icons_Music_01_Filled" data-name="icons/Music 01/Filled" xmlns="http://www.w3.org/2000/svg" width="24" height="24" viewBox="0 0 24 24">
  <path id="Shape" d="M13,2A2,2,0,0,0,10.642.033l-9,1.636A2,2,0,0,0,0,3.637V18.3H2V7.637L11,6V16.3h2Z" transform="translate(8 1.198)" fill="#777e90"/>
  <g id="Shape-2" data-name="Shape" transform="translate(3 14)">
    <path id="A87FDDB1-D2B4-48A8-A6A9-61FD91D24FD2" d="M3.5,7A3.5,3.5,0,1,0,0,3.5,3.5,3.5,0,0,0,3.5,7Z" transform="translate(11)" fill="#777e90"/>
    <path id="_76720F23-4B64-44EB-936E-9EB549238046" data-name="76720F23-4B64-44EB-936E-9EB549238046" d="M3.5,7A3.5,3.5,0,1,0,0,3.5,3.5,3.5,0,0,0,3.5,7Z" transform="translate(0 2)" fill="#777e90"/>
  </g>
</svg>
