<svg id="icons_Hand_Cart_Line" data-name="icons/Hand Cart/Line" xmlns="http://www.w3.org/2000/svg" width="24" height="24" viewBox="0 0 24 24">
  <path id="Shape" d="M.293.293a1,1,0,0,1,1.414,0L5,3.586A1,1,0,0,1,3.586,5L.293,1.707A1,1,0,0,1,.293.293Z" transform="translate(2 13)" fill="#777e90"/>
  <path id="Shape-2" data-name="Shape" d="M13.057,1.678A1,1,0,1,0,11.587.322L.265,12.587a1,1,0,0,0,1.47,1.357l6.9-7.478a.5.5,0,0,1,.721-.014l1.256,1.256a1,1,0,0,0,1.414-1.414L10.688,4.952a.5.5,0,0,1-.014-.693Z" transform="translate(8.678 4)" fill="#777e90"/>
  <path id="Shape-3" data-name="Shape" d="M2.636,10.636.879,8.879a3,3,0,0,1,0-4.243L4.636.879a3,3,0,0,1,4.243,0l1.757,1.757a3,3,0,0,1,0,4.243L6.879,10.636A3,3,0,0,1,2.636,10.636ZM2.293,7.464,4.05,9.222a1,1,0,0,0,1.414,0L9.222,5.464a1,1,0,0,0,0-1.414L7.464,2.293a1,1,0,0,0-1.414,0L2.293,6.05A1,1,0,0,0,2.293,7.464Z" transform="translate(3.243 2.243)" fill="#777e90" fill-rule="evenodd"/>
  <path id="Shape-4" data-name="Shape" d="M3,4A1,1,0,1,0,2,3,1,1,0,0,0,3,4ZM3,6A3,3,0,1,0,0,3,3,3,0,0,0,3,6Z" transform="translate(5 16)" fill="#777e90" fill-rule="evenodd"/>
</svg>
