<svg id="icons_Shopping_Cart_Filled" data-name="icons/Shopping Cart/Filled" xmlns="http://www.w3.org/2000/svg" width="24" height="24" viewBox="0 0 24 24">
  <g id="Shape" transform="translate(5 18)">
    <path id="CA25954F-D108-4525-9E60-FD8FAF821BEC" d="M2,4A2,2,0,1,0,0,2,2,2,0,0,0,2,4Z" fill="#777e90"/>
    <path id="B2694CA1-C7C0-4465-B223-F00FBE22BE70" d="M2,4A2,2,0,1,0,0,2,2,2,0,0,0,2,4Z" transform="translate(10)" fill="#777e90"/>
  </g>
  <path id="Shape-2" data-name="Shape" d="M1.447.106A1,1,0,0,0,.553,1.895l1,.5a1,1,0,0,1,.549.8l.734,8.072A3,3,0,0,0,5.827,14h8.665a3,3,0,0,0,2.885-2.176L18.6,7.55A2,2,0,0,0,16.675,5H4.277L4.1,3.019A3,3,0,0,0,2.451.608Z" transform="translate(2 2)" fill="#777e90"/>
</svg>
