<svg id="icons_Stretch_Width_Filled" data-name="icons/Stretch Width/Filled" xmlns="http://www.w3.org/2000/svg" width="24" height="24" viewBox="0 0 24 24">
  <path id="Shape" d="M2,0A2,2,0,0,0,0,2V18a2,2,0,0,0,2,2H18a2,2,0,0,0,2-2V2a2,2,0,0,0-2-2ZM4.293,9.293a1,1,0,0,0,0,1.414l2,2a1,1,0,1,0,1.414-1.414L7.414,11h5.172l-.293.293a1,1,0,0,0,1.414,1.414l2-2a1,1,0,0,0,0-1.414l-2-2a1,1,0,0,0-1.414,1.414L12.586,9H7.414l.293-.293A1,1,0,0,0,6.293,7.293Z" transform="translate(2 2)" fill="#777e90" fill-rule="evenodd"/>
</svg>
