<svg id="icons_Coin_Line" data-name="icons/Coin/Line" xmlns="http://www.w3.org/2000/svg" width="24" height="24" viewBox="0 0 24 24">
  <path id="Shape" d="M10,18a8,8,0,1,0-8-8A8,8,0,0,0,10,18Zm0,2A10,10,0,1,0,0,10,10,10,0,0,0,10,20Z" transform="translate(2 2)" fill="#777e90" fill-rule="evenodd"/>
  <path id="Shape-2" data-name="Shape" d="M3,1A1,1,0,0,1,5,1,3,3,0,0,1,8,4,1,1,0,0,1,6,4,1,1,0,0,0,5,3H2.743a.743.743,0,0,0-.235,1.449L6.124,5.654A2.743,2.743,0,0,1,5.257,11H5a1,1,0,0,1-2,0A3,3,0,0,1,0,8,1,1,0,0,1,2,8,1,1,0,0,0,3,9H5.257a.743.743,0,0,0,.235-1.449L1.876,6.346A2.743,2.743,0,0,1,2.743,1Z" transform="translate(8 6)" fill="#777e90"/>
</svg>
