<svg id="icons_Hockey_Line" data-name="icons/Hockey/Line" xmlns="http://www.w3.org/2000/svg" width="24" height="24" viewBox="0 0 24 24">
  <path id="Shape" d="M11.894,15.589,18.032,3.313A.907.907,0,1,0,16.41,2.5l-4.767,9.534A5,5,0,0,1,7.171,14.8H3a1,1,0,0,0-.962,1.275l.286,1a1,1,0,0,0,.962.725H8.316A4,4,0,0,0,11.894,15.589ZM19.821,4.208,13.683,16.483A6,6,0,0,1,8.316,19.8H3.288A3,3,0,0,1,.4,17.624l-.286-1A3,3,0,0,1,3,12.8H7.171a3,3,0,0,0,2.683-1.658l4.767-9.534a2.907,2.907,0,1,1,5.2,2.6Z" transform="translate(1.975 2.2)" fill="#777e90" fill-rule="evenodd"/>
  <path id="Shape-2" data-name="Shape" d="M0,1.787q.042-.074.081-.151L.9,0,6.1,2.6,5.2,4.389Z" transform="translate(11.749 11.706)" fill="#777e90"/>
  <path id="Shape-3" data-name="Shape" d="M0,1A1,1,0,0,1,1,0H3A1,1,0,0,1,3,2H1A1,1,0,0,1,0,1Z" transform="translate(2 10)" fill="#777e90"/>
</svg>
