<svg id="icons_Cup_02_Line" data-name="icons/Cup 02/Line" xmlns="http://www.w3.org/2000/svg" width="24" height="24" viewBox="0 0 24 24">
  <path id="Shape" d="M0,3A3,3,0,0,1,3,0H13a3,3,0,0,1,3,3h1a3,3,0,0,1,3,3v5a3,3,0,0,1-3,3H16v1a5,5,0,0,1-5,5H5a5,5,0,0,1-5-5ZM3,2H13a1,1,0,0,1,1,1V15a3,3,0,0,1-3,3H5a3,3,0,0,1-3-3V3A1,1,0,0,1,3,2ZM16,12h1a1,1,0,0,0,1-1V6a1,1,0,0,0-1-1H16Z" transform="translate(2 2)" fill="#777e90" fill-rule="evenodd"/>
  <path id="Shape-2" data-name="Shape" d="M3,0H1V4A1,1,0,0,0,0,5V7A1,1,0,0,0,1,8H3A1,1,0,0,0,4,7V5A1,1,0,0,0,3,4Z" transform="translate(7 2)" fill="#777e90"/>
</svg>
