<svg id="icons_Palette_Filled" data-name="icons/Palette/Filled" xmlns="http://www.w3.org/2000/svg" width="24" height="24" viewBox="0 0 24 24">
  <g id="Shape" transform="translate(11.706 2.829)">
    <path id="_1671C9BA-615D-46F6-AF62-82E708BA39E1" data-name="1671C9BA-615D-46F6-AF62-82E708BA39E1" d="M.147,7.146A.5.5,0,0,0,.5,8H8.294a2,2,0,0,0,2-2V2a2,2,0,0,0-2-2H7.5a.5.5,0,0,0-.354.146Z" transform="translate(0 11.172)" fill="#777e90"/>
    <path id="B16FE3E2-3384-4A27-A89B-399D53F2CD01" d="M0,13.964a.5.5,0,0,0,.854.354L8.586,6.586a2,2,0,0,0,0-2.828L5.414.586a2,2,0,0,0-2.828,0L.146,3.025A.5.5,0,0,0,0,3.379Z" transform="translate(0.294 0)" fill="#777e90"/>
  </g>
  <path id="Shape-2" data-name="Shape" d="M2,0A2,2,0,0,0,0,2V18a2,2,0,0,0,2,2H6a2,2,0,0,0,2-2V2A2,2,0,0,0,6,0ZM4,17a1,1,0,1,0-1-1A1,1,0,0,0,4,17Z" transform="translate(2 2)" fill="#777e90" fill-rule="evenodd"/>
</svg>
