<svg id="icons_Music_02_Line" data-name="icons/Music 02/Line" xmlns="http://www.w3.org/2000/svg" width="24" height="24" viewBox="0 0 24 24">
  <path id="Shape" d="M3.728.091A3,3,0,0,0,0,3V16.44H2V6.721L6.272,7.789A3,3,0,0,0,10,4.878V4a3,3,0,0,0-2.272-2.91ZM2,3a1,1,0,0,1,1.243-.97l4,1A1,1,0,0,1,8,4v.877a1,1,0,0,1-1.243.97L2,4.659Z" transform="translate(11 1.56)" fill="#777e90" fill-rule="evenodd"/>
  <path id="Shape-2" data-name="Shape" d="M5,8A3,3,0,1,0,2,5,3,3,0,0,0,5,8Zm0,2A5,5,0,1,0,0,5,5,5,0,0,0,5,10Z" transform="translate(3 13)" fill="#777e90" fill-rule="evenodd"/>
</svg>
