<svg id="icons_File_Star_Filled" data-name="icons/File Star/Filled" xmlns="http://www.w3.org/2000/svg" width="24" height="24" viewBox="0 0 24 24">
  <path id="Shape" d="M11,1a1,1,0,0,0-1-1H3A3,3,0,0,0,0,3V19a3,3,0,0,0,3,3H15a3,3,0,0,0,3-3V8a1,1,0,0,0-1-1H14a3,3,0,0,1-3-3ZM9.465,8.175a.5.5,0,0,0-.93,0l-.812,2.052a.5.5,0,0,1-.423.314l-2.15.181a.5.5,0,0,0-.293.87L6.532,13.1a.5.5,0,0,1,.153.482l-.5,2.226a.5.5,0,0,0,.758.531L8.73,15.189a.5.5,0,0,1,.54,0l1.792,1.151a.5.5,0,0,0,.758-.531l-.5-2.226a.5.5,0,0,1,.153-.482l1.674-1.508a.5.5,0,0,0-.293-.87l-2.15-.181a.5.5,0,0,1-.423-.314Z" transform="translate(3 1)" fill="#777e90" fill-rule="evenodd"/>
  <path id="Shape-2" data-name="Shape" d="M.977.052C.468-.162,0,.322,0,.874v3a1,1,0,0,0,1,1H4c.552,0,1.036-.468.822-.977a1.88,1.88,0,0,0-.408-.608L1.586.46A1.88,1.88,0,0,0,.977.052Z" transform="translate(16 1.126)" fill="#777e90"/>
</svg>
