<svg id="icons_Eraser_Line" data-name="icons/Eraser/Line" xmlns="http://www.w3.org/2000/svg" width="24" height="24" viewBox="0 0 24 24">
  <path id="Shape" d="M0,1A1,1,0,0,1,1,0H15a1,1,0,0,1,0,2H1A1,1,0,0,1,0,1Z" transform="translate(6 19)" fill="#777e90"/>
  <path id="Shape-2" data-name="Shape" d="M19.636,4.636,15.879.879a3,3,0,0,0-4.243,0L.879,11.636a3,3,0,0,0,0,4.243l1.707,1.707a4,4,0,0,0,2.828,1.172H8.1a4,4,0,0,0,2.828-1.172l8.707-8.707A3,3,0,0,0,19.636,4.636ZM14.465,2.293,18.222,6.05a1,1,0,0,1,0,1.414l-4.379,4.379L8.672,6.672,13.05,2.293A1,1,0,0,1,14.465,2.293ZM7.172,8.172,2.293,13.05a1,1,0,0,0,0,1.414L4,16.172a2,2,0,0,0,1.414.586H8.1a2,2,0,0,0,1.414-.586l2.828-2.829Z" transform="translate(1.243 2.243)" fill="#777e90" fill-rule="evenodd"/>
</svg>
