<svg id="icons_Briefcase_Line" data-name="icons/Briefcase/Line" xmlns="http://www.w3.org/2000/svg" width="24" height="24" viewBox="0 0 24 24">
  <path id="Shape" d="M18,11V4a2,2,0,0,0-2-2H4A2,2,0,0,0,2,4v7a2,2,0,0,0,2,2H16A2,2,0,0,0,18,11ZM4,0A4,4,0,0,0,0,4v7a4,4,0,0,0,4,4H16a4,4,0,0,0,4-4V4a4,4,0,0,0-4-4Z" transform="translate(2 7)" fill="#777e90" fill-rule="evenodd"/>
  <path id="Shape-2" data-name="Shape" d="M3,2A1,1,0,0,0,2,3V6A1,1,0,0,1,0,6V3A3,3,0,0,1,3,0H9a3,3,0,0,1,3,3V6a1,1,0,0,1-2,0V3A1,1,0,0,0,9,2Z" transform="translate(6 2)" fill="#777e90"/>
</svg>
