<svg id="icons_Picture_in_Picture_Line" data-name="icons/Picture in Picture/Line" xmlns="http://www.w3.org/2000/svg" width="24" height="24" viewBox="0 0 24 24">
  <path id="Shape" d="M0,3A3,3,0,0,1,3,0H17a3,3,0,0,1,3,3V8a1,1,0,0,1-2,0V3a1,1,0,0,0-1-1H3A1,1,0,0,0,2,3V13a1,1,0,0,0,1,1h7a1,1,0,0,1,0,2H3a3,3,0,0,1-3-3Z" transform="translate(1 3)" fill="#777e90"/>
  <path id="Shape-2" data-name="Shape" d="M0,1A1,1,0,0,1,1,0H8A1,1,0,0,1,9,1V6A1,1,0,0,1,8,7H1A1,1,0,0,1,0,6Z" transform="translate(14 14)" fill="#777e90"/>
</svg>
