<svg id="icons_List_Filled" data-name="icons/List/Filled" xmlns="http://www.w3.org/2000/svg" width="24" height="24" viewBox="0 0 24 24">
  <path id="Shape" d="M2.418.035a.519.519,0,0,1,.673.411A3,3,0,0,0,6,2.71h6A3,3,0,0,0,14.909.446a.519.519,0,0,1,.673-.411A4,4,0,0,1,18,3.71v13a4,4,0,0,1-4,4H4a4,4,0,0,1-4-4v-13A4,4,0,0,1,2.418.035ZM6,7.71a1,1,0,1,1-1-1A1,1,0,0,1,6,7.71Zm2,0a1,1,0,0,1,1-1h4a1,1,0,0,1,0,2H9A1,1,0,0,1,8,7.71Zm1,3a1,1,0,0,0,0,2h4a1,1,0,0,0,0-2Zm0,4a1,1,0,0,0,0,2h2a1,1,0,0,0,0-2Zm-3-3a1,1,0,1,1-1-1A1,1,0,0,1,6,11.71Zm0,4a1,1,0,1,1-1-1A1,1,0,0,1,6,15.71Z" transform="translate(3 2.29)" fill="#777e90" fill-rule="evenodd"/>
  <path id="Shape-2" data-name="Shape" d="M1,0H7A1,1,0,0,1,7,2H1A1,1,0,0,1,1,0Z" transform="translate(8 1)" fill="#777e90"/>
</svg>
