<svg id="icons_Controller_Filled" data-name="icons/Controller/Filled" xmlns="http://www.w3.org/2000/svg" width="24" height="24" viewBox="0 0 24 24">
  <path id="Shape" d="M.812,4.38A5,5,0,0,1,5.774,0H16.946a5,5,0,0,1,4.961,4.38l.774,6.2A4.826,4.826,0,0,1,13.981,14H8.739a4.826,4.826,0,0,1-8.7-3.424ZM7.36,4a1,1,0,0,0-1,1V6h-1a1,1,0,0,0,0,2h1V9a1,1,0,0,0,2,0V8h1a1,1,0,1,0,0-2h-1V5A1,1,0,0,0,7.36,4Zm11,1a1,1,0,1,1-1-1A1,1,0,0,1,18.36,5Zm-2,4a1,1,0,1,1-1-1A1,1,0,0,1,16.36,9Z" transform="translate(0.64 4)" fill="#777e90" fill-rule="evenodd"/>
</svg>
