<svg id="icons_List_Line" data-name="icons/List/Line" xmlns="http://www.w3.org/2000/svg" width="24" height="24" viewBox="0 0 24 24">
  <path id="Shape" d="M4,0A4,4,0,0,0,0,4V16a4,4,0,0,0,4,4H14a4,4,0,0,0,4-4V4a4,4,0,0,0-4-4V2a2,2,0,0,1,2,2V16a2,2,0,0,1-2,2H4a2,2,0,0,1-2-2V4A2,2,0,0,1,4,2Z" transform="translate(3 3)" fill="#777e90"/>
  <g id="Shape-2" data-name="Shape" transform="translate(7 9)">
    <path id="_79876AF7-7813-4819-8F79-77C73A7CD03F" data-name="79876AF7-7813-4819-8F79-77C73A7CD03F" d="M1,2A1,1,0,1,0,0,1,1,1,0,0,0,1,2Z" fill="#777e90"/>
    <path id="_01F5B240-C546-4275-96C7-11934E11B2F1" data-name="01F5B240-C546-4275-96C7-11934E11B2F1" d="M1,0A1,1,0,0,0,1,2H5A1,1,0,0,0,5,0Z" transform="translate(4)" fill="#777e90"/>
    <path id="FF34B4F5-ABBE-4B79-8B05-54A2B3719161" d="M1,0A1,1,0,0,0,1,2H5A1,1,0,0,0,5,0Z" transform="translate(4 4)" fill="#777e90"/>
    <path id="_6FB3FB34-C2E1-4167-9642-A5EB27003ECE" data-name="6FB3FB34-C2E1-4167-9642-A5EB27003ECE" d="M0,1A1,1,0,0,1,1,0H3A1,1,0,0,1,3,2H1A1,1,0,0,1,0,1Z" transform="translate(4 8)" fill="#777e90"/>
    <path id="C1DB0141-3ECF-48D2-994D-E204186FDEEA" d="M2,1A1,1,0,1,1,1,0,1,1,0,0,1,2,1Z" transform="translate(0 4)" fill="#777e90"/>
    <path id="_93B1A38C-F468-4D68-8CA1-515B9BA0C072" data-name="93B1A38C-F468-4D68-8CA1-515B9BA0C072" d="M1,2A1,1,0,1,0,0,1,1,1,0,0,0,1,2Z" transform="translate(0 8)" fill="#777e90"/>
  </g>
  <path id="Shape-3" data-name="Shape" d="M9,2H3A1,1,0,0,0,3,4H9A1,1,0,0,0,9,2ZM3,0A3,3,0,0,0,3,6H9A3,3,0,0,0,9,0Z" transform="translate(6 1)" fill="#777e90" fill-rule="evenodd"/>
</svg>
