<svg id="icons_Monitor_Line" data-name="icons/Monitor/Line" xmlns="http://www.w3.org/2000/svg" width="24" height="24" viewBox="0 0 24 24">
  <path id="Shape" d="M2,0H4V2H6V0H8V2H9A1,1,0,0,1,9,4H1A1,1,0,0,1,1,2H2Z" transform="translate(7 18)" fill="#777e90"/>
  <path id="Shape-2" data-name="Shape" d="M12,2H4A2,2,0,0,0,2,4V16a2,2,0,0,0,2,2h8a2,2,0,0,0,2-2V4A2,2,0,0,0,12,2ZM4,0A4,4,0,0,0,0,4V16a4,4,0,0,0,4,4h8a4,4,0,0,0,4-4V4a4,4,0,0,0-4-4Z" transform="translate(2 18) rotate(-90)" fill="#777e90" fill-rule="evenodd"/>
  <g id="Shape-3" data-name="Shape" transform="translate(6 6)">
    <path id="_9EB30893-C629-4754-8992-7A52E9559CFF" data-name="9EB30893-C629-4754-8992-7A52E9559CFF" d="M1,0A1,1,0,0,0,1,2H8A1,1,0,0,0,8,0Z" fill="#777e90"/>
    <path id="E2790D11-7966-43CD-B228-EEC1BB3E784E" d="M1,0A1,1,0,0,0,1,2H3A1,1,0,0,0,3,0Z" transform="translate(0 4)" fill="#777e90"/>
  </g>
</svg>
