<svg id="icons_Coupon_Discount_Filled" data-name="icons/Coupon Discount/Filled" xmlns="http://www.w3.org/2000/svg" width="24" height="24" viewBox="0 0 24 24">
  <path id="Shape" d="M22,2a2,2,0,0,0-2-2H2A2,2,0,0,0,0,2v.764A2.9,2.9,0,0,0,.987,4.737,3.175,3.175,0,0,1,2,7,3.175,3.175,0,0,1,.987,9.263,2.9,2.9,0,0,0,0,11.236V12a2,2,0,0,0,2,2H20a2,2,0,0,0,2-2v-.764a2.9,2.9,0,0,0-.987-1.973A3.175,3.175,0,0,1,20,7a3.175,3.175,0,0,1,1.013-2.263A2.9,2.9,0,0,0,22,2.764ZM9.707,9.707l4-4a1,1,0,0,0-1.414-1.414l-4,4A1,1,0,0,0,9.707,9.707ZM8,5A1,1,0,1,0,9,4,1,1,0,0,0,8,5Zm6,4a1,1,0,1,1-1-1A1,1,0,0,1,14,9Z" transform="translate(1 5)" fill="#777e90" fill-rule="evenodd"/>
</svg>
