<svg id="icons_Stretch_Height_Line" data-name="icons/Stretch Height/Line" xmlns="http://www.w3.org/2000/svg" width="24" height="24" viewBox="0 0 24 24">
  <path id="Shape" d="M17,2H3A1,1,0,0,0,2,3V17a1,1,0,0,0,1,1H17a1,1,0,0,0,1-1V3A1,1,0,0,0,17,2ZM3,0A3,3,0,0,0,0,3V17a3,3,0,0,0,3,3H17a3,3,0,0,0,3-3V3a3,3,0,0,0-3-3Z" transform="translate(2 2)" fill="#777e90" fill-rule="evenodd"/>
  <path id="Shape-2" data-name="Shape" d="M2.293.293a1,1,0,0,1,1.414,0l2,2A1,1,0,0,1,4.293,3.707L4,3.414V8.586l.293-.293A1,1,0,0,1,5.707,9.707l-2,2a1,1,0,0,1-1.414,0l-2-2A1,1,0,0,1,1.707,8.293L2,8.586V3.414l-.293.293A1,1,0,0,1,.293,2.293Z" transform="translate(9 6)" fill="#777e90"/>
</svg>
