<svg id="icons_Stacked_Column_02_Average_Line" data-name="icons/Stacked Column 02 Average/Line" xmlns="http://www.w3.org/2000/svg" width="24" height="24" viewBox="0 0 24 24">
  <g id="Shape" transform="translate(17 3)">
    <path id="_2CB28625-2965-482A-8F48-C65E820E365D" data-name="2CB28625-2965-482A-8F48-C65E820E365D" d="M1,0A1,1,0,0,0,1,2H5A1,1,0,0,0,5,0Z" fill="#777e90"/>
    <path id="_9D554C1E-0A04-48AA-BDA9-C876E07B8F03" data-name="9D554C1E-0A04-48AA-BDA9-C876E07B8F03" d="M0,1A1,1,0,0,1,1,0H5A1,1,0,0,1,5,2H1A1,1,0,0,1,0,1Z" transform="translate(0 4)" fill="#777e90"/>
    <path id="_1624E84C-BFEC-4C63-8708-188C99CEE0DC" data-name="1624E84C-BFEC-4C63-8708-188C99CEE0DC" d="M1,0A1,1,0,0,0,1,2H5A1,1,0,0,0,5,0Z" transform="translate(0 8)" fill="#777e90"/>
    <path id="_826EC785-AB17-4C73-93D2-07E55430C5D6" data-name="826EC785-AB17-4C73-93D2-07E55430C5D6" d="M0,1A1,1,0,0,1,1,0H5A1,1,0,0,1,5,2H1A1,1,0,0,1,0,1Z" transform="translate(0 12)" fill="#777e90"/>
    <path id="C26CBE3F-B3BD-45FC-B4EB-A653A0ACD390" d="M0,1A1,1,0,0,1,1,0H5A1,1,0,0,1,5,2H1A1,1,0,0,1,0,1Z" transform="translate(0 16)" fill="#777e90"/>
  </g>
  <g id="Shape-2" data-name="Shape" transform="translate(9 11)">
    <path id="F5F369D1-790E-4607-80D6-E2BA9FAB6B76" d="M1,0A1,1,0,0,0,1,2H5A1,1,0,0,0,5,0Z" fill="#777e90"/>
    <path id="_4B526015-D0FB-4443-860B-5C35B389F2F0" data-name="4B526015-D0FB-4443-860B-5C35B389F2F0" d="M0,1A1,1,0,0,1,1,0H5A1,1,0,0,1,5,2H1A1,1,0,0,1,0,1Z" transform="translate(0 4)" fill="#777e90"/>
    <path id="_61BD455E-C174-4894-8919-83CBF49BC282" data-name="61BD455E-C174-4894-8919-83CBF49BC282" d="M0,1A1,1,0,0,1,1,0H5A1,1,0,0,1,5,2H1A1,1,0,0,1,0,1Z" transform="translate(0 8)" fill="#777e90"/>
  </g>
  <g id="Shape-3" data-name="Shape" transform="translate(1 7)">
    <path id="_6A0BC89A-4FD8-4BC9-85C2-DC21EDB16FEA" data-name="6A0BC89A-4FD8-4BC9-85C2-DC21EDB16FEA" d="M1,0A1,1,0,0,0,1,2H5A1,1,0,0,0,5,0Z" fill="#777e90"/>
    <path id="_1A3699C3-0AD9-4FF4-A18E-B25A186CD661" data-name="1A3699C3-0AD9-4FF4-A18E-B25A186CD661" d="M0,1A1,1,0,0,1,1,0H5A1,1,0,0,1,5,2H1A1,1,0,0,1,0,1Z" transform="translate(0 4)" fill="#777e90"/>
    <path id="_72DC04D5-C355-4274-B36B-B6979E25E7FA" data-name="72DC04D5-C355-4274-B36B-B6979E25E7FA" d="M1,0A1,1,0,0,0,1,2H5A1,1,0,0,0,5,0Z" transform="translate(0 8)" fill="#777e90"/>
    <path id="_9F32EF51-3925-4DC4-BCE1-6DCD994E01ED" data-name="9F32EF51-3925-4DC4-BCE1-6DCD994E01ED" d="M1,0A1,1,0,0,0,1,2H5A1,1,0,0,0,5,0Z" transform="translate(0 12)" fill="#777e90"/>
  </g>
</svg>
