<svg id="icons_Smart_Watch_Filled" data-name="icons/Smart Watch/Filled" xmlns="http://www.w3.org/2000/svg" width="24" height="24" viewBox="0 0 24 24">
  <g id="Shape" transform="translate(7)">
    <path id="_305E8289-5A43-4603-8DD8-C981A3FC95C5" data-name="305E8289-5A43-4603-8DD8-C981A3FC95C5" d="M0,1A1,1,0,0,0,1,2H9A1,1,0,0,0,9,0H1A1,1,0,0,0,0,1Z" fill="#777e90"/>
    <path id="_56E9F613-B106-4AF9-BFA5-2D78A0FF15FB" data-name="56E9F613-B106-4AF9-BFA5-2D78A0FF15FB" d="M0,1A1,1,0,0,1,1,0H9A1,1,0,0,1,9,2H1A1,1,0,0,1,0,1Z" transform="translate(0 22)" fill="#777e90"/>
  </g>
  <path id="Shape-2" data-name="Shape" d="M0,3A3,3,0,0,1,3,0H13a3,3,0,0,1,3,3V13a3,3,0,0,1-3,3H3a3,3,0,0,1-3-3Z" transform="translate(4 20) rotate(-90)" fill="#777e90"/>
  <path id="Shape-3" data-name="Shape" d="M0,0A1,1,0,0,1,1,1V3A1,1,0,0,1,0,4Z" transform="translate(20 10)" fill="#777e90"/>
</svg>
