<svg id="Icons_SoundCloud_Filled" data-name="Icons/SoundCloud/Filled" xmlns="http://www.w3.org/2000/svg" width="24" height="24" viewBox="0 0 24 24">
  <path id="Vector" d="M0,2.462A2.462,2.462,0,0,1,2.461,0a5.541,5.541,0,0,1,5.4,4.294A6,6,0,0,1,6,16H3a3,3,0,0,1-3-3V2.462Z" transform="translate(12 4)" fill="#777e90"/>
  <path id="Vector-2" data-name="Vector" d="M0,1A1,1,0,0,1,2,1V11a1,1,0,0,1-2,0Z" transform="translate(8 8)" fill="#777e90"/>
  <path id="Vector-3" data-name="Vector" d="M0,1A1,1,0,0,1,2,1V8A1,1,0,0,1,0,8Z" transform="translate(4 11)" fill="#777e90"/>
  <path id="Vector-4" data-name="Vector" d="M1,0A1,1,0,0,0,0,1V5A1,1,0,0,0,2,5V1A1,1,0,0,0,1,0Z" transform="translate(0 14)" fill="#777e90"/>
</svg>
