<svg id="icons_Scatter_Up_Line" data-name="icons/Scatter Up/Line" xmlns="http://www.w3.org/2000/svg" width="24" height="24" viewBox="0 0 24 24">
  <g id="Shape" transform="translate(3 11)">
    <path id="A9D4ADB9-F8DA-4673-BB9A-B7B667ACF7DD" d="M1,2A1,1,0,1,0,0,1,1,1,0,0,0,1,2Z" transform="translate(16)" fill="#777e90"/>
    <path id="_44200CF2-2849-4049-B203-2F9E10536A92" data-name="44200CF2-2849-4049-B203-2F9E10536A92" d="M1,2A1,1,0,1,0,0,1,1,1,0,0,0,1,2Z" transform="translate(16 4)" fill="#777e90"/>
    <path id="_7E391D77-5A2F-46FB-88DE-D94287706088" data-name="7E391D77-5A2F-46FB-88DE-D94287706088" d="M1,2A1,1,0,1,0,0,1,1,1,0,0,0,1,2Z" transform="translate(16 8)" fill="#777e90"/>
    <path id="_834CAF4E-ADF2-46A3-B74E-7E80F67A9BF6" data-name="834CAF4E-ADF2-46A3-B74E-7E80F67A9BF6" d="M1,2A1,1,0,1,0,0,1,1,1,0,0,0,1,2Z" transform="translate(8 4)" fill="#777e90"/>
    <path id="_38CDC891-78B4-4E4F-9FFD-E2219B8CD768" data-name="38CDC891-78B4-4E4F-9FFD-E2219B8CD768" d="M1,2A1,1,0,1,0,0,1,1,1,0,0,0,1,2Z" transform="translate(8 8)" fill="#777e90"/>
    <path id="_0606B37A-C832-4921-AE3C-59B82A1BF208" data-name="0606B37A-C832-4921-AE3C-59B82A1BF208" d="M1,2A1,1,0,1,0,0,1,1,1,0,0,0,1,2Z" transform="translate(0 8)" fill="#777e90"/>
  </g>
  <g id="Shape-2" data-name="Shape" transform="translate(1 3)">
    <path id="E777626E-6161-465A-949C-60FC12F23CCF" d="M19,6a3,3,0,1,1,3-3A3,3,0,0,1,19,6Zm0-2a1,1,0,1,1,1-1A1,1,0,0,1,19,4Z" fill="#777e90" fill-rule="evenodd"/>
    <path id="_4A63D54E-D0EA-46ED-AEB2-D3431A1F171A" data-name="4A63D54E-D0EA-46ED-AEB2-D3431A1F171A" d="M11,10a3,3,0,1,1,3-3A3,3,0,0,1,11,10Zm0-2a1,1,0,1,1,1-1A1,1,0,0,1,11,8Z" fill="#777e90" fill-rule="evenodd"/>
    <path id="_447A76DC-672E-41B7-B5F6-C1027634AB12" data-name="447A76DC-672E-41B7-B5F6-C1027634AB12" d="M0,11A3,3,0,1,0,3,8,3,3,0,0,0,0,11Zm2,0a1,1,0,1,0,1-1A1,1,0,0,0,2,11Z" fill="#777e90" fill-rule="evenodd"/>
  </g>
</svg>
