<svg id="icons_File_Code_Filled" data-name="icons/File Code/Filled" xmlns="http://www.w3.org/2000/svg" width="24" height="24" viewBox="0 0 24 24">
  <path id="Shape" d="M11,1a1,1,0,0,0-1-1H3A3,3,0,0,0,0,3V19a3,3,0,0,0,3,3H15a3,3,0,0,0,3-3V8a1,1,0,0,0-1-1H14a3,3,0,0,1-3-3ZM4.293,13.707a1,1,0,0,1,0-1.414l2-2a1,1,0,1,1,1.414,1.414L6.414,13l1.293,1.293a1,1,0,1,1-1.414,1.414Zm9.414-1.414-2-2a1,1,0,0,0-1.414,1.414L11.586,13l-1.293,1.293a1,1,0,0,0,1.414,1.414l2-2A1,1,0,0,0,13.707,12.293Z" transform="translate(3 1)" fill="#777e90" fill-rule="evenodd"/>
  <path id="Shape-2" data-name="Shape" d="M.977.052C.468-.162,0,.322,0,.874v3a1,1,0,0,0,1,1H4c.552,0,1.036-.468.822-.977a1.88,1.88,0,0,0-.408-.608L1.586.46A1.88,1.88,0,0,0,.977.052Z" transform="translate(16 1.126)" fill="#777e90"/>
</svg>
