<svg id="icons_T-shirt_Line" data-name="icons/T-shirt/Line" xmlns="http://www.w3.org/2000/svg" width="24" height="24" viewBox="0 0 24 24">
  <path id="Shape" d="M3,20a3,3,0,0,1-3-3V10.854A6.641,6.641,0,0,1,.941,8.01c.073-.144.145-.287.214-.428A10.385,10.385,0,0,0,2,3,3,3,0,0,1,5,0H7.5A.5.5,0,0,1,8,.5V2a2,2,0,0,0,4,0V.5a.5.5,0,0,1,.5-.5H15a3,3,0,0,1,3,3,10.386,10.386,0,0,0,.845,4.582c.069.141.141.283.214.428A6.641,6.641,0,0,1,20,10.854V17a3,3,0,0,1-3,3ZM5,2h.5a.553.553,0,0,1,.531.5,4,4,0,0,0,7.938,0A.553.553,0,0,1,14.5,2H15a1,1,0,0,1,1,1,12.331,12.331,0,0,0,1.049,5.462c.074.151.15.3.222.443l0,.005A5.028,5.028,0,0,1,18,10.854V17a1,1,0,0,1-1,1H3a1,1,0,0,1-1-1V10.854a5.028,5.028,0,0,1,.727-1.943l0-.005c.071-.141.148-.292.222-.443A12.331,12.331,0,0,0,4,3,1,1,0,0,1,5,2Z" transform="translate(2 2)" fill="#777e90" fill-rule="evenodd"/>
  <path id="Shape-2" data-name="Shape" d="M2,0A1,1,0,0,1,3,1V6A1,1,0,0,1,3,8H1A1,1,0,0,1,1,6V2A1,1,0,0,1,1,0Z" transform="translate(10 10)" fill="#777e90"/>
</svg>
