<svg id="icons_Circle_and_Square_Line" data-name="icons/Circle and Square/Line" xmlns="http://www.w3.org/2000/svg" width="24" height="24" viewBox="0 0 24 24">
  <path id="Shape" d="M11,0a3,3,0,0,1,3,3v8a3,3,0,0,1-3,3H3a3,3,0,0,1-3-3,1,1,0,0,1,2,0,1,1,0,0,0,1,1h8a1,1,0,0,0,1-1V3a1,1,0,0,0-1-1,1,1,0,0,1,0-2Z" transform="translate(8 8)" fill="#777e90"/>
  <path id="Shape-2" data-name="Shape" d="M7,12A5,5,0,1,0,2,7,5,5,0,0,0,7,12Zm0,2A7,7,0,1,0,0,7,7,7,0,0,0,7,14Z" transform="translate(2 2)" fill="#777e90" fill-rule="evenodd"/>
</svg>
