<svg id="icons_Movie_Filled" data-name="icons/Movie/Filled" xmlns="http://www.w3.org/2000/svg" width="24" height="24" viewBox="0 0 24 24">
  <path id="Shape" d="M0,2A2,2,0,0,1,2,0H16a2,2,0,0,1,2,2V20a2,2,0,0,1-2,2H2a2,2,0,0,1-2-2ZM5,5A1,1,0,1,1,4,4,1,1,0,0,1,5,5Zm9,1a1,1,0,1,0-1-1A1,1,0,0,0,14,6ZM5,9A1,1,0,1,1,4,8,1,1,0,0,1,5,9Zm9,1a1,1,0,1,0-1-1A1,1,0,0,0,14,10ZM5,13a1,1,0,1,1-1-1A1,1,0,0,1,5,13Zm9,1a1,1,0,1,0-1-1A1,1,0,0,0,14,14ZM5,17a1,1,0,1,1-1-1A1,1,0,0,1,5,17Zm9,1a1,1,0,1,0-1-1A1,1,0,0,0,14,18Z" transform="translate(3 1)" fill="#777e90" fill-rule="evenodd"/>
</svg>
