<svg id="icons_Keyboard_Filled" data-name="icons/Keyboard/Filled" xmlns="http://www.w3.org/2000/svg" width="24" height="24" viewBox="0 0 24 24">
  <path id="Shape" d="M3,0A3,3,0,0,0,0,3V13a3,3,0,0,0,3,3H21a3,3,0,0,0,3-3V3a3,3,0,0,0-3-3ZM16,6a1,1,0,0,1,1-1h2a1,1,0,0,1,0,2H17A1,1,0,0,1,16,6ZM4,10a1,1,0,1,1,1,1A1,1,0,0,1,4,10ZM9,9a1,1,0,0,0,0,2h6a1,1,0,0,0,0-2ZM19,9a1,1,0,1,0,1,1A1,1,0,0,0,19,9ZM12,6a1,1,0,1,1,1,1A1,1,0,0,1,12,6ZM8,6A1,1,0,1,1,9,7,1,1,0,0,1,8,6ZM4,6A1,1,0,1,1,5,7,1,1,0,0,1,4,6Z" transform="translate(0 4)" fill="#777e90" fill-rule="evenodd"/>
</svg>
