<svg id="icons_French_Fries_Line" data-name="icons/French Fries/Line" xmlns="http://www.w3.org/2000/svg" width="24" height="24" viewBox="0 0 24 24">
  <path id="Shape" d="M0,8H2V6A1,1,0,0,1,4,6v5a4.977,4.977,0,0,0,2,.9V3A1,1,0,0,1,8,3v8.9a4.977,4.977,0,0,0,2-.9V5a1,1,0,0,1,2,0V8h2V5A3,3,0,0,0,9.895,2.21,3,3,0,0,0,4,3v.171A3,3,0,0,0,0,6Z" transform="translate(5 1)" fill="#777e90"/>
  <path id="Shape-2" data-name="Shape" d="M16.248,2.013A7,7,0,0,1,9.542,7,7,7,0,0,1,2.835,2.013a1,1,0,0,0-.825,1.128l1.143,8a1,1,0,0,0,.99.859h10.8a1,1,0,0,0,.99-.859l1.143-8A1,1,0,0,0,16.248,2.013ZM15.542,0a1.178,1.178,0,0,0-1.1.994A5,5,0,0,1,9.542,5,5,5,0,0,1,4.64.994,1.178,1.178,0,0,0,3.542,0H3a3.037,3.037,0,0,0-.459.035A3,3,0,0,0,.031,3.424l1.143,8A3,3,0,0,0,4.143,14h10.8a3,3,0,0,0,2.97-2.576l1.143-8A3,3,0,0,0,16.541.035,3.037,3.037,0,0,0,16.083,0Z" transform="translate(2.458 8)" fill="#777e90" fill-rule="evenodd"/>
</svg>
