<svg id="icons_Perspective_Line" data-name="icons/Perspective/Line" xmlns="http://www.w3.org/2000/svg" width="24" height="24" viewBox="0 0 24 24">
  <path id="Shape" d="M7,1A1,1,0,0,1,9,1V8h3V2a1,1,0,0,1,2,0V8h3a1,1,0,0,1,0,2H14v6a1,1,0,0,1-2,0V10H9v7a1,1,0,0,1-2,0V10H1A1,1,0,0,1,1,8H7Z" transform="translate(3 3)" fill="#777e90"/>
  <path id="Shape-2" data-name="Shape" d="M15.217,4.692l-12-2.667A1,1,0,0,0,2,3v14.52a1,1,0,0,0,1.217.976l12-2.667A1,1,0,0,0,16,14.855V5.668A1,1,0,0,0,15.217,4.692ZM3.651.073A3,3,0,0,0,0,3v14.52A3,3,0,0,0,3.651,20.45l12-2.667A3,3,0,0,0,18,14.855V5.668a3,3,0,0,0-2.349-2.929Z" transform="translate(3 1.739)" fill="#777e90" fill-rule="evenodd"/>
</svg>
