<svg id="icons_Toilet_Paper_Line" data-name="icons/Toilet Paper/Line" xmlns="http://www.w3.org/2000/svg" width="24" height="24" viewBox="0 0 24 24">
  <path id="Shape" d="M10,7c0-3.866-2.239-7-5-7S0,3.134,0,7s2.239,7,5,7h5ZM6.908,10.787A6.591,6.591,0,0,0,8,7,6.591,6.591,0,0,0,6.908,3.213,2.445,2.445,0,0,0,5,2,2.445,2.445,0,0,0,3.092,3.213,6.591,6.591,0,0,0,2,7a6.591,6.591,0,0,0,1.092,3.787A2.445,2.445,0,0,0,5,12,2.445,2.445,0,0,0,6.908,10.787Z" transform="translate(2 2)" fill="#777e90" fill-rule="evenodd"/>
  <path id="Shape-2" data-name="Shape" d="M2,2c0,1.1-.448,2-1,2S0,3.1,0,2,.448,0,1,0,2,.9,2,2Z" transform="translate(6 7)" fill="#777e90"/>
  <path id="Shape-3" data-name="Shape" d="M1,0A1,1,0,1,0,1,2,2.548,2.548,0,0,1,2.933,3.264,6.508,6.508,0,0,1,4,7V17a3,3,0,0,0,3,3h6a3,3,0,0,0,3-3V7a8.5,8.5,0,0,0-1.433-4.889A4.51,4.51,0,0,0,11,0ZM4.567,2.111,4.487,2H11a2.55,2.55,0,0,1,1.933,1.264A6.508,6.508,0,0,1,14,7V17a1,1,0,0,1-1,1H7a1,1,0,0,1-1-1V7A8.5,8.5,0,0,0,4.567,2.111Z" transform="translate(6 2)" fill="#777e90" fill-rule="evenodd"/>
  <g id="Shape-4" data-name="Shape" transform="translate(11 14)">
    <path id="_56E482C3-6D58-47C4-B954-DEE63AFCC3A3" data-name="56E482C3-6D58-47C4-B954-DEE63AFCC3A3" d="M0,1A1,1,0,1,1,1,2,1,1,0,0,1,0,1Z" fill="#777e90"/>
    <path id="CC998BAE-5661-49B8-95D9-E8C2D56D278B" d="M0,1A1,1,0,1,1,1,2,1,1,0,0,1,0,1Z" transform="translate(4)" fill="#777e90"/>
    <path id="_0F8850CA-D902-4A37-BA50-2B5727848F3D" data-name="0F8850CA-D902-4A37-BA50-2B5727848F3D" d="M1,0A1,1,0,1,0,2,1,1,1,0,0,0,1,0Z" transform="translate(8)" fill="#777e90"/>
  </g>
</svg>
