<svg id="icons_Heart_Rate_Line" data-name="icons/Heart Rate/Line" xmlns="http://www.w3.org/2000/svg" width="24" height="24" viewBox="0 0 24 24">
  <path id="Shape" d="M10.667,3.615a1,1,0,0,1-1.334,0l-.667-.6A4,4,0,0,0,2,6c0,3.1,1.94,5.591,4.249,7.438a20.584,20.584,0,0,0,3.129,2.047,1.32,1.32,0,0,0,1.243,0,20.594,20.594,0,0,0,3.129-2.047C16.06,11.59,18,9.1,18,6a4,4,0,0,0-6.666-2.982ZM10,1.528A6,6,0,0,0,0,6c0,6.681,6.975,10.573,9.274,11.674a1.665,1.665,0,0,0,1.451,0C13.025,16.573,20,12.682,20,6A6,6,0,0,0,10,1.528Z" transform="translate(2 3)" fill="#777e90" fill-rule="evenodd"/>
  <path id="Shape-2" data-name="Shape" d="M6.972,0a1,1,0,0,1,.9.5l3.124,5.467a.2.2,0,0,0,.33.026l2.9-3.621a1,1,0,0,1,1.488-.082l1.561,1.561A.5.5,0,0,0,17.621,4H21a1,1,0,1,1,0,2H17a1,1,0,0,1-.707-.293L15.241,4.655a.2.2,0,0,0-.3.016L11.781,8.625A1,1,0,0,1,10.132,8.5L7.244,3.443a.2.2,0,0,0-.353.01l-1,1.994A1,1,0,0,1,5,6H1A1,1,0,1,1,1,4H4.073a.5.5,0,0,0,.447-.276L6.106.553A1,1,0,0,1,6.972,0Z" transform="translate(1 7)" fill="#777e90"/>
</svg>
