<svg id="icons_Fork_and_Knife_Filled" data-name="icons/Fork and Knife/Filled" xmlns="http://www.w3.org/2000/svg" width="24" height="24" viewBox="0 0 24 24">
  <path id="Shape" d="M1,0A1,1,0,0,1,2,1V4A1,1,0,0,1,0,4V1A1,1,0,0,1,1,0Z" transform="translate(16 17)" fill="#777e90"/>
  <path id="Shape-2" data-name="Shape" d="M1.174,0A1.174,1.174,0,0,0,0,1.174V12a1,1,0,0,0,1.243.97l4-1A1,1,0,0,0,6,11V4.826A4.826,4.826,0,0,0,1.174,0Z" transform="translate(16 2)" fill="#777e90"/>
  <path id="Shape-3" data-name="Shape" d="M1,0A1,1,0,0,1,2,1V7A1,1,0,0,1,0,7V1A1,1,0,0,1,1,0Z" transform="translate(6 14)" fill="#777e90"/>
  <path id="Shape-4" data-name="Shape" d="M2,1A1,1,0,0,0,0,1V5A5,5,0,0,0,10,5V1A1,1,0,0,0,8,1V5A3,3,0,0,1,6,7.829V1A1,1,0,0,0,4,1V7.829A3,3,0,0,1,2,5Z" transform="translate(2 2)" fill="#777e90"/>
</svg>
