<svg id="icons_Home_Line" data-name="icons/Home/Line" xmlns="http://www.w3.org/2000/svg" width="24" height="24" viewBox="0 0 24 24">
  <path id="Shape" d="M10.992,2.016l.008,0,.009,0,4.453,2.672L17,5.615v11.03c0,.593,0,.918-.021,1.151l0,.026-.026,0c-.233.019-.558.021-1.151.021H6.2c-.593,0-.918,0-1.151-.021l-.026,0,0-.026C5,17.563,5,17.238,5,16.645V5.615l1.532-.923ZM5.5,2.978.486,5.987A1,1,0,1,0,1.515,7.7L3,6.811v9.834a4.969,4.969,0,0,0,.218,2.108,2,2,0,0,0,.874.874,4.968,4.968,0,0,0,2.108.218h9.6a4.969,4.969,0,0,0,2.108-.218,2,2,0,0,0,.874-.874A4.969,4.969,0,0,0,19,16.645V6.811l1.486.891a1,1,0,0,0,1.029-1.715L16.493,2.974,12.651.66c-.279-.168-.493-.3-.675-.394Q11.913.23,11.847.2a1.839,1.839,0,0,0-.417-.153,2,2,0,0,0-.861,0A1.842,1.842,0,0,0,10.152.2q-.064.03-.127.065c-.182.1-.4.226-.676.4Z" transform="translate(1 2.155)" fill="#777e90" fill-rule="evenodd"/>
  <path id="Shape-2" data-name="Shape" d="M4,7V3A1,1,0,0,0,2,3V7ZM3,0A3,3,0,0,0,0,3V9H6V3A3,3,0,0,0,3,0Z" transform="translate(9 13)" fill="#777e90" fill-rule="evenodd"/>
</svg>
