<svg id="Icons_Android_Line" data-name="Icons/Android/Line" xmlns="http://www.w3.org/2000/svg" width="24" height="24" viewBox="0 0 24 24">
  <path id="Vector" d="M10,9.829A3,3,0,0,0,12,7V0H0V7A3,3,0,0,0,2,9.829V12a1,1,0,0,0,2,0V10H8v2a1,1,0,0,0,2,0ZM10,2H2V7A1,1,0,0,0,3,8H9a1,1,0,0,0,1-1Z" transform="translate(6 9)" fill="#777e90" fill-rule="evenodd"/>
  <path id="Vector-2" data-name="Vector" d="M1,0A1,1,0,0,0,0,1V5A1,1,0,0,0,2,5V1A1,1,0,0,0,1,0Z" transform="translate(2 9)" fill="#777e90"/>
  <path id="Vector-3" data-name="Vector" d="M1,0A1,1,0,0,0,0,1V5A1,1,0,0,0,2,5V1A1,1,0,0,0,1,0Z" transform="translate(20 9)" fill="#777e90"/>
  <path id="Vector-4" data-name="Vector" d="M1.553.106A1,1,0,0,1,2.894.553l.516,1.033a6.014,6.014,0,0,1,5.178,0L9.106.553a1,1,0,0,1,1.789.894l-.654,1.308A5.981,5.981,0,0,1,12,7V9H0V7A5.981,5.981,0,0,1,1.759,2.755L1.106,1.447A1,1,0,0,1,1.553.106ZM8.375,3.781l.048.036A3.993,3.993,0,0,1,10,7H2A3.994,3.994,0,0,1,3.577,3.817l.048-.036a4,4,0,0,1,4.75,0Z" transform="translate(6 2)" fill="#777e90" fill-rule="evenodd"/>
</svg>
