<svg id="icons_Forward_15_sec_Line" data-name="icons/Forward 15 sec/Line" xmlns="http://www.w3.org/2000/svg" width="24" height="24" viewBox="0 0 24 24">
  <path id="Shape" d="M9,2A6.9,6.9,0,0,0,2,9a6.9,6.9,0,0,0,7,7,6.9,6.9,0,0,0,7-7,1,1,0,0,1,2,0,8.9,8.9,0,0,1-9,9A8.9,8.9,0,0,1,0,9,8.9,8.9,0,0,1,9,0H19a1,1,0,0,1,0,2Z" transform="translate(1 3)" fill="#777e90"/>
  <path id="Shape-2" data-name="Shape" d="M2.293.293a1,1,0,0,1,1.414,0l2,2A1,1,0,1,1,4.293,3.707L3,2.414,1.707,3.707A1,1,0,0,1,.293,2.293Z" transform="translate(23 1) rotate(90)" fill="#777e90"/>
  <g id="Shape-3" data-name="Shape" transform="translate(6 8)">
    <path id="A7A5E648-F7F6-4D28-905D-25721D867F68" d="M1,0A1,1,0,0,0,0,1V7A1,1,0,0,0,2,7V1A1,1,0,0,0,1,0Z" fill="#777e90"/>
    <path id="_1F49EE21-B8F6-4482-8064-792562FFE8A1" data-name="1F49EE21-B8F6-4482-8064-792562FFE8A1" d="M1.5,0A1.5,1.5,0,0,0,0,1.5v2A1.5,1.5,0,0,0,1.5,5H3V6H1A1,1,0,0,0,1,8H3.5A1.5,1.5,0,0,0,5,6.5v-2A1.5,1.5,0,0,0,3.5,3H2V2H4A1,1,0,0,0,4,0Z" transform="translate(3)" fill="#777e90"/>
  </g>
</svg>
