<svg id="icons_Laptop_Line" data-name="icons/Laptop/Line" xmlns="http://www.w3.org/2000/svg" width="24" height="24" viewBox="0 0 24 24">
  <path id="Shape" d="M11,2H2V16h9a1,1,0,0,0,1-1V3A1,1,0,0,0,11,2ZM0,0V18H11a3,3,0,0,0,3-3V3a3,3,0,0,0-3-3Z" transform="translate(3 17) rotate(-90)" fill="#777e90" fill-rule="evenodd"/>
  <path id="Shape-2" data-name="Shape" d="M4,2H3A1,1,0,0,0,2,3V19a1,1,0,0,0,1,1H4ZM3,0A3,3,0,0,0,0,3V19a3,3,0,0,0,3,3H5a1,1,0,0,0,1-1V1A1,1,0,0,0,5,0Z" transform="translate(1 21) rotate(-90)" fill="#777e90" fill-rule="evenodd"/>
</svg>
