<svg id="icons_Stacked_Area_Up_Filled" data-name="icons/Stacked Area Up/Filled" xmlns="http://www.w3.org/2000/svg" width="24" height="24" viewBox="0 0 24 24">
  <path id="Shape" d="M20,1A1,1,0,0,0,18.649.065l-4.8,1.8a3,3,0,0,1-1.547.15L7.365,1.189a1,1,0,0,0-.516.05L.649,3.565A1,1,0,0,0,0,4.5V7.115a2,2,0,0,0,2,2H18a2,2,0,0,0,2-2Z" transform="translate(2 12.885)" fill="#777e90"/>
  <path id="Shape-2" data-name="Shape" d="M20,2A2,2,0,0,0,16.72.467L13.064,3.513a1,1,0,0,1-.8.218L7.945,3.012a3,3,0,0,0-2.157.463L1.336,6.443A3,3,0,0,0,0,8.939v2.043a1,1,0,0,0,1.351.936l4.8-1.8a3,3,0,0,1,1.547-.15l4.942.824a1,1,0,0,0,.516-.05l6.2-2.325A1,1,0,0,0,20,7.482Z" transform="translate(2 2.131)" fill="#777e90"/>
</svg>
