<?xml version="1.0" standalone="no"?>
<!DOCTYPE svg PUBLIC "-//W3C//DTD SVG 1.1//EN" "http://www.w3.org/Graphics/SVG/1.1/DTD/svg11.dtd" >
<svg xmlns="http://www.w3.org/2000/svg">
<metadata>Generated by IcoMoon</metadata>
<defs>
<font id="icomoon" horiz-adv-x="1024">
<font-face units-per-em="1024" ascent="960" descent="-64" />
<missing-glyph horiz-adv-x="1024" />
<glyph unicode="&#x20;" horiz-adv-x="512" d="" />
<glyph unicode="&#xe900;" glyph-name="icons-Apple-Line" d="M487.808 150.4c6.757 4.699 15.136 7.507 24.171 7.507s17.413-2.808 24.311-7.599l-0.14 0.092 24.192-16.597c22.040-16.363 49.608-26.44 79.496-27.133l0.163-0.003c61.582 6.193 113.815 41.327 143.437 91.416l0.477 0.872c41.388 57.465 67.043 128.707 69.405 205.811l0.014 0.568c0.076 2.096 0.12 4.559 0.12 7.032 0 114.003-92.418 206.421-206.421 206.421-2.473 0-4.936-0.043-7.387-0.13l0.356 0.010c-0.545 0.005-1.189 0.007-1.833 0.007-33.028 0-64.404-7.071-92.697-19.782l1.432 0.575-17.451-7.808c-5.13-2.357-11.13-3.732-17.451-3.732s-12.321 1.375-17.717 3.841l0.267-0.109-17.451 7.808c-26.862 12.136-58.238 19.207-91.266 19.207-0.644 0-1.288-0.003-1.931-0.008l0.098 0.001c-2.096 0.076-4.559 0.12-7.032 0.12-114.003 0-206.421-92.418-206.421-206.421 0-2.473 0.043-4.936 0.13-7.387l-0.010 0.356c2.375-77.672 28.031-148.913 70.181-207.492l-0.762 1.113c30.1-50.961 82.332-86.095 143.126-92.224l0.789-0.064c30.051 0.696 57.619 10.773 80.035 27.402l-0.376-0.266zM512 677.333c37.12 16.851 80.495 26.672 126.163 26.672 0.646 0 1.291-0.002 1.936-0.006h-0.099c2.122 0.055 4.621 0.087 7.127 0.087 161.061 0 291.627-130.566 291.627-291.627 0-2.506-0.032-5.005-0.094-7.496l0.007 0.369c0-170.667-128-384-298.667-384-48.125 0.676-92.453 16.376-128.654 42.606l0.654-0.451c-35.547-25.779-79.875-41.478-127.838-42.153l-0.162-0.002c-170.667 0-298.667 213.333-298.667 384-0.055 2.122-0.087 4.621-0.087 7.127 0 161.061 130.566 291.627 291.627 291.627 2.506 0 5.005-0.032 7.496-0.094l-0.369 0.007c0.546 0.003 1.191 0.005 1.837 0.005 45.669 0 89.043-9.821 128.128-27.465l-1.965 0.793zM362.667 448c-11.782 0-21.333-9.551-21.333-21.333v0-42.667c0-35.346 28.654-64 64-64v0c11.782 0 21.333 9.551 21.333 21.333v0 42.667c0 35.346-28.654 64-64 64v0zM661.333 448c11.782 0 21.333-9.551 21.333-21.333v0-42.667c0-35.346-28.654-64-64-64v0c-11.782 0-21.333 9.551-21.333 21.333v0 42.667c0 35.346 28.654 64 64 64v0zM341.333 789.333c0.016 0 0.035 0 0.054 0 55.684 0 103.064-35.558 120.672-85.206l0.277-0.895c6.216-22.78 25.699-39.642 49.437-41.881l0.227-0.017c0.617-0.037 1.338-0.058 2.064-0.058 20.312 0 36.779 16.466 36.779 36.779 0 2.009-0.161 3.98-0.471 5.901l0.028-0.211c-20.442 98.195-106.261 170.918-209.066 170.923h-42.667c-23.564 0-42.667-19.103-42.667-42.667s19.103-42.667 42.667-42.667v0zM853.333 775.125c0 54.975-44.566 99.541-99.541 99.541v0h-128c-86.41 0-156.459-70.049-156.459-156.459v0c0-54.975 44.566-99.541 99.541-99.541v0h128c86.41 0 156.459 70.049 156.459 156.459v0zM753.792 789.333c7.847 0 14.208-6.361 14.208-14.208v0c0-39.281-31.844-71.125-71.125-71.125h-128c-7.847 0-14.208 6.361-14.208 14.208v0c0 39.281 31.844 71.125 71.125 71.125v0z" />
<glyph unicode="&#xe901;" glyph-name="Icons-Apple-Line-1" d="M568.064 5.419l-1.676 0.726c35.216-16.914 74.528-26.66 116.279-27.35 86.357 0 153.387 97.451 187.733 213.333v0c1.536 4.779 2.958 9.572 4.267 14.379 5.077 18.688 9.301 37.888 12.587 57.088l-0.006-0.061c0.065 0.511 0.099 1.033 0.099 1.562 0 6.763-5.482 12.245-12.245 12.245-0.153 0-0.304-0.003-0.434-0.008v0c-58.91 0-106.667 47.756-106.667 106.667s47.756 106.667 106.667 106.667h-0.012c0.084-0.002 0.169-0.003 0.253-0.003 5.208 0 9.429 4.222 9.429 9.429 0 0.513-0.041 1.017-0.113 1.454-2.645 13.781-5.803 27.349-9.557 40.149-3.328 11.52-7.083 22.699-11.349 33.365l-0.256 0.597-0.362 1.299c-23.778 73.76-92.983 127.122-174.652 127.122-1.892 0-3.777-0.029-5.381-0.079h0.015c-0.096 0-0.192 0-0.288 0-35.846 0-69.651-8.74-98.202-23.638l0.867 0.428c-21.778-11.754-46.526-18.71-73.059-19.457l-0.229 0.005c-26.304 0.742-51.052 7.698-71.963 19.024l1.198-0.567c-29.749 15.464-63.554 24.204-99.399 24.204-0.096 0-0.192 0-0.273 0-170.667 0-213.333-170.667-213.333-341.333s85.333-384 213.333-384l0.25 0.003c41.515 0.73 80.821 10.519 114.352 26.749l-0.86-0.402c17.153 8.823 36.188 14.501 56.924 16.316l0.581-0.041c20.156-1.774 39.19-7.453 55.483-15.873zM512 106.667c-31.124-1.372-60.167-8.921-86.378-21.442l1.344 0.578c-24.984-12.386-54.215-20.267-85.12-21.783l-0.512-0.020c-12.8 0-44.459 13.013-78.336 80.811-30.937 63.753-49.209 138.616-49.663 217.701l-0.001 0.155c-0.335 6.584-0.526 14.296-0.526 22.052 0 62.902 12.564 122.869 35.319 177.529l-1.129-3.058c8.285 18.123 20.672 33.123 36.032 44.28l0.32 0.221c15.059 9.477 33.373 15.1 53 15.1 1.753 0 3.496-0.045 5.227-0.133l-0.243 0.010c0.574 0.010 1.251 0.016 1.93 0.016 11.218 0 22.072-1.564 32.353-4.485l-0.833 0.202c11.861-3.728 21.834-7.765 31.414-12.478l-1.292 0.574 2.133-0.939c30.576-15.602 66.607-24.98 104.772-25.555l0.188-0.002c38.357 0.594 74.387 9.985 106.34 26.237l-1.38-0.637 2.133 0.939c8.289 4.14 18.263 8.177 28.567 11.474l1.556 0.43c9.406 2.693 20.21 4.242 31.375 4.242 0.73 0 1.458-0.007 2.185-0.020l-0.109 0.002c1.672 0.103 3.626 0.161 5.594 0.161 21.285 0 40.972-6.842 56.982-18.447l-0.282 0.195c15.598-12.976 27.828-29.467 35.542-48.287l0.298-0.823c-58.965-33.528-98.088-95.928-98.088-167.465 0-74.343 42.253-138.818 104.054-170.719l1.074-0.504c-12.567-44.658-32.296-83.599-58.142-117.641l0.628 0.862c-22.784-27.733-39.125-32-47.659-32-31.416 1.536-60.648 9.416-86.923 22.378l1.291-0.576c-24.868 11.943-53.91 19.492-84.562 20.847l-0.472 0.017zM512 757.333c0 88.366 71.634 160 160 160v0c5.891 0 10.667-4.776 10.667-10.667v0c0-88.366-71.634-160-160-160v0c-5.891 0-10.667 4.776-10.667 10.667v0z" />
<glyph unicode="&#xe902;" glyph-name="icons-Archive-Filled" d="M853.333 533.333v0c23.564 0 42.667-19.103 42.667-42.667v-341.333c0-70.692-57.308-128-128-128h-512c-70.692 0-128 57.308-128 128v341.333c0 23.564 19.103 42.667 42.667 42.667zM426.667 448c-23.564 0-42.667-19.103-42.667-42.667s19.103-42.667 42.667-42.667v0h170.667c23.564 0 42.667 19.103 42.667 42.667s-19.103 42.667-42.667 42.667v0zM85.333 789.333c0 47.128 38.205 85.333 85.333 85.333v0h682.667c47.128 0 85.333-38.205 85.333-85.333v0-85.333c0-47.128-38.205-85.333-85.333-85.333v0h-682.667c-47.128 0-85.333 38.205-85.333 85.333v0z" />
<glyph unicode="&#xe903;" glyph-name="icons-Archive-Line" d="M810.667 192v0c0-47.128-38.205-85.333-85.333-85.333h-426.667c-47.128 0-85.333 38.205-85.333 85.333v341.333h597.333zM128 618.667v-426.667c0-94.257 76.41-170.667 170.667-170.667v0h426.667c94.257 0 170.667 76.41 170.667 170.667v0 426.667zM384 405.333c0 23.564 19.103 42.667 42.667 42.667v0h170.667c23.564 0 42.667-19.103 42.667-42.667s-19.103-42.667-42.667-42.667v0h-170.667c-23.564 0-42.667 19.103-42.667 42.667v0zM810.667 789.333v0c23.564 0 42.667-19.103 42.667-42.667v-85.333c0-23.564-19.103-42.667-42.667-42.667h-597.333c-23.564 0-42.667 19.103-42.667 42.667v85.333c0 23.564 19.103 42.667 42.667 42.667h597.333zM213.333 874.667c-70.692 0-128-57.308-128-128v0-85.333c0-70.692 57.308-128 128-128v0h597.333c70.692 0 128 57.308 128 128v0 85.333c0 70.692-57.308 128-128 128v0z" />
<glyph unicode="&#xe904;" glyph-name="icons-Arrow-Down-2-Line" d="M671.36 358.784c6.956-7.566 11.219-17.703 11.219-28.836 0-12.346-5.243-23.467-13.625-31.257l-149.359-137.88c-7.581-7.018-17.763-11.324-28.949-11.324s-21.368 4.305-28.977 11.349l0.028-0.026-149.291 137.856c-8.454 7.822-13.73 18.975-13.73 31.36 0 23.571 19.108 42.679 42.679 42.679 11.186 0 21.367-4.303 28.978-11.345l-0.028 0.026 77.696-71.936v414.549c0 23.564 19.103 42.667 42.667 42.667s42.667-19.103 42.667-42.667v0-414.549l77.739 71.765c7.578 7.007 17.751 11.304 28.928 11.304 12.386 0 23.54-5.278 31.334-13.707l0.026-0.028z" />
<glyph unicode="&#xe905;" glyph-name="icons-Arrow-Down-Simple-Line" d="M691.499 542.165c-7.721 7.718-18.386 12.492-30.165 12.492s-22.445-4.774-30.165-12.492l-119.168-119.168-119.168 119.168c-7.721 7.718-18.386 12.492-30.165 12.492s-22.445-4.774-30.165-12.492v0c-7.718-7.721-12.492-18.386-12.492-30.165s4.774-22.445 12.492-30.165l149.333-149.333c7.721-7.718 18.386-12.492 30.165-12.492s22.445 4.774 30.165 12.492l149.333 149.333c7.718 7.721 12.492 18.386 12.492 30.165s-4.774 22.445-12.492 30.165v0z" />
<glyph unicode="&#xe906;" glyph-name="icons-Arrow-Down-Square-Filled" d="M744.875 858.923l9.354-1.052c-79.135 10.871-159.915 16.586-242.229 16.796h-0.242c-82.073-0.21-162.852-5.925-232.633-15.744l-1.030-0.109c-92.056-11.933-164.976-84.853-177.018-177.939l1.052 9.353c-10.872-79.135-16.587-159.914-16.796-242.227v-0.242c0.209-82.074 5.924-162.853 15.744-232.633l0.109-1.030c11.933-92.056 84.853-164.976 177.939-177.018l-9.356 1.052c79.135-10.872 159.915-16.587 242.23-16.796h0.241c82.073 0.208 162.852 5.924 232.634 15.744l1.030 0.109c92.056 11.933 164.976 84.853 177.018 177.939l-1.052-9.354c10.871 79.135 16.586 159.914 16.796 242.229v0.241c-0.209 82.073-5.925 162.853-15.744 232.634l-0.109 1.030c-11.933 92.056-84.853 164.976-177.939 177.018zM631.168 542.165c7.665 7.41 18.12 11.977 29.641 11.977 23.564 0 42.667-19.103 42.667-42.667 0-11.521-4.567-21.976-11.989-29.653l-149.321-149.321c-7.721-7.718-18.386-12.492-30.165-12.492s-22.445 4.774-30.165 12.492l-149.333 149.333c-7.41 7.665-11.977 18.12-11.977 29.641 0 23.564 19.103 42.667 42.667 42.667 11.521 0 21.976-4.567 29.653-11.989l119.156-119.156z" />
<glyph unicode="&#xe907;" glyph-name="icons-Arrow-Down-Square-Line" d="M853.333 448v-0.239c-0.206-78.192-5.657-155.151-15.018-221.628l-0.061-0.592c-6.836-54.094-49.701-96.959-104.387-103.856l8.913 1.003c-75.392-10.366-152.352-15.817-230.78-16.022h-0.236c-78.193 0.205-155.152 5.656-221.631 15.018l-0.592 0.061c-54.094 6.836-96.959 49.701-103.856 104.387l1.003-8.913c-10.365 75.392-15.817 152.351-16.022 230.78v0.235c0.204 78.193 5.656 155.152 15.018 221.632l0.061 0.592c6.836 54.094 49.701 96.959 104.387 103.856l-8.916-1.004c75.392 10.365 152.352 15.816 230.782 16.022h0.238c78.193-0.205 155.152-5.657 221.629-15.018l0.592-0.061c54.094-6.836 96.959-49.701 103.856-104.387l-1.004 8.916c10.365-75.393 15.816-152.352 16.022-230.782zM922.923 680.875c-12.042 93.086-84.962 166.006-177.018 177.939l-1.030 0.109c-69.781 9.819-150.56 15.534-232.634 15.744h-0.241c-82.315-0.21-163.094-5.925-242.229-16.796l9.354 1.052c-93.086-12.042-166.006-84.962-177.939-177.018l-0.109-1.030c-9.82-69.782-15.535-150.561-15.744-232.634v-0.241c0.209-82.315 5.924-163.095 16.796-242.23l-1.052 9.356c12.042-93.086 84.962-166.006 177.018-177.939l1.030-0.109c69.78-9.82 150.559-15.535 232.633-15.744h0.242c82.314 0.209 163.093 5.924 242.227 16.796l-9.353-1.052c93.086 12.042 166.006 84.962 177.939 177.018l0.109 1.030c9.819 69.781 15.534 150.56 15.744 232.633v0.242c-0.21 82.314-5.925 163.094-16.796 242.229l1.052-9.354zM691.499 542.165c-7.721 7.718-18.386 12.492-30.165 12.492s-22.445-4.774-30.165-12.492l-119.168-119.168-119.168 119.168c-7.721 7.718-18.386 12.492-30.165 12.492s-22.445-4.774-30.165-12.492v0c-7.718-7.721-12.492-18.386-12.492-30.165s4.774-22.445 12.492-30.165l149.333-149.333c7.721-7.718 18.386-12.492 30.165-12.492s22.445 4.774 30.165 12.492l149.333 149.333c7.718 7.721 12.492 18.386 12.492 30.165s-4.774 22.445-12.492 30.165v0z" />
<glyph unicode="&#xe908;" glyph-name="icons-Arrow-Left-2-Line" d="M422.784 650.027c-7.566 6.956-17.703 11.219-28.836 11.219-12.346 0-23.467-5.243-31.257-13.625l-137.88-149.359c-7.018-7.581-11.324-17.763-11.324-28.949s4.305-21.368 11.349-28.977l-0.026 0.028 137.856-149.291c7.82-8.458 18.974-13.736 31.36-13.736 11.177 0 21.349 4.297 28.956 11.33l-0.029-0.026c8.458 7.82 13.736 18.974 13.736 31.36 0 11.177-4.297 21.349-11.33 28.956l0.026-0.029-71.936 77.739h414.549c23.564 0 42.667 19.103 42.667 42.667v0c0 23.564-19.103 42.667-42.667 42.667v0h-414.549l71.765 77.739c7.007 7.578 11.304 17.751 11.304 28.928 0 12.386-5.278 23.54-13.707 31.334l-0.028 0.026z" />
<glyph unicode="&#xe909;" glyph-name="icons-Arrow-Left-Simple-Line" d="M606.165 627.499c7.718-7.721 12.492-18.386 12.492-30.165s-4.774-22.445-12.492-30.165l-119.168-119.168 119.168-119.168c8.036-7.769 13.026-18.647 13.026-30.69 0-23.564-19.103-42.667-42.667-42.667-12.043 0-22.92 4.989-30.678 13.014l-149.345 149.345c-7.718 7.721-12.492 18.386-12.492 30.165s4.774 22.445 12.492 30.165l149.333 149.333c7.721 7.718 18.386 12.492 30.165 12.492s22.445-4.774 30.165-12.492v0z" />
<glyph unicode="&#xe90a;" glyph-name="icons-Arrow-Left-Square-Filled" d="M101.077 680.875c12.042 93.086 84.962 166.006 177.018 177.939l1.030 0.109c69.781 9.819 150.56 15.534 232.634 15.744h0.241c82.315-0.21 163.094-5.925 242.229-16.796l-9.354 1.052c93.086-12.042 166.006-84.962 177.939-177.018l0.109-1.030c9.82-69.782 15.535-150.561 15.744-232.634v-0.241c-0.209-82.315-5.924-163.095-16.796-242.23l1.052 9.356c-12.042-93.086-84.962-166.006-177.018-177.939l-1.030-0.109c-69.78-9.82-150.559-15.535-232.633-15.744h-0.242c-82.314 0.209-163.093 5.924-242.227 16.796l9.353-1.052c-93.086 12.042-166.006 84.962-177.939 177.018l-0.109 1.030c-9.819 69.781-15.534 150.56-15.744 232.633v0.242c0.21 82.314 5.925 163.094 16.796 242.229l-1.052-9.354zM606.165 567.168c7.41 7.665 11.977 18.12 11.977 29.641 0 23.564-19.103 42.667-42.667 42.667-11.521 0-21.976-4.567-29.653-11.989l-149.321-149.321c-7.718-7.721-12.492-18.386-12.492-30.165s4.774-22.445 12.492-30.165l149.333-149.333c7.665-7.41 18.12-11.977 29.641-11.977 23.564 0 42.667 19.103 42.667 42.667 0 11.521-4.567 21.976-11.989 29.653l-119.156 119.156z" />
<glyph unicode="&#xe90b;" glyph-name="icons-Arrow-Left-Square-Line" d="M512 789.333h0.239c78.192-0.206 155.151-5.657 221.628-15.018l0.592-0.061c54.094-6.836 96.959-49.701 103.856-104.387l-1.003 8.913c10.366-75.392 15.817-152.352 16.022-230.78v-0.236c-0.205-78.193-5.656-155.152-15.018-221.631l-0.061-0.592c-6.836-54.094-49.701-96.959-104.387-103.856l8.913 1.003c-75.392-10.365-152.351-15.817-230.78-16.022h-0.235c-78.193 0.204-155.152 5.656-221.632 15.018l-0.592 0.061c-54.094 6.836-96.959 49.701-103.856 104.387l1.004-8.916c-10.365 75.392-15.816 152.352-16.022 230.782v0.238c0.205 78.193 5.657 155.152 15.018 221.629l0.061 0.592c6.836 54.094 49.701 96.959 104.387 103.856l-8.916-1.004c75.393 10.365 152.352 15.816 230.782 16.022zM279.125 858.923c-93.086-12.042-166.006-84.962-177.939-177.018l-0.109-1.030c-9.819-69.781-15.534-150.56-15.744-232.634v-0.241c0.21-82.315 5.925-163.094 16.796-242.229l-1.052 9.354c12.042-93.086 84.962-166.006 177.018-177.939l1.030-0.109c69.782-9.82 150.561-15.535 232.634-15.744h0.241c82.315 0.209 163.095 5.924 242.23 16.796l-9.356-1.052c93.086 12.042 166.006 84.962 177.939 177.018l0.109 1.030c9.82 69.78 15.535 150.559 15.744 232.633v0.242c-0.209 82.314-5.924 163.093-16.796 242.227l1.052-9.353c-12.042 93.086-84.962 166.006-177.018 177.939l-1.030 0.109c-69.781 9.819-150.56 15.534-232.633 15.744h-0.242c-82.314-0.21-163.094-5.925-242.229-16.796l9.354 1.052zM606.165 627.499c7.718-7.721 12.492-18.386 12.492-30.165s-4.774-22.445-12.492-30.165l-119.168-119.168 119.168-119.168c8.036-7.769 13.026-18.647 13.026-30.69 0-23.564-19.103-42.667-42.667-42.667-12.043 0-22.92 4.989-30.678 13.014l-149.345 149.345c-7.718 7.721-12.492 18.386-12.492 30.165s4.774 22.445 12.492 30.165l149.333 149.333c7.721 7.718 18.386 12.492 30.165 12.492s22.445-4.774 30.165-12.492v0z" />
<glyph unicode="&#xe90c;" glyph-name="icons-Arrow-Right-2-Line" d="M601.216 650.027c7.566 6.956 17.703 11.219 28.836 11.219 12.346 0 23.467-5.243 31.257-13.625l137.88-149.359c7.018-7.581 11.324-17.763 11.324-28.949s-4.305-21.368-11.349-28.977l0.026 0.028-137.856-149.291c-7.822-8.454-18.975-13.73-31.36-13.73-23.571 0-42.679 19.108-42.679 42.679 0 11.186 4.303 21.367 11.345 28.978l-0.026-0.028 71.936 77.696h-414.549c-23.564 0-42.667 19.103-42.667 42.667s19.103 42.667 42.667 42.667v0h414.549l-71.765 77.739c-7.007 7.578-11.304 17.751-11.304 28.928 0 12.386 5.278 23.54 13.707 31.334l0.028 0.026z" />
<glyph unicode="&#xe90d;" glyph-name="icons-Arrow-Right-Simple-Line" d="M417.835 627.499c-7.718-7.721-12.492-18.386-12.492-30.165s4.774-22.445 12.492-30.165l119.168-119.168-119.168-119.168c-7.718-7.721-12.492-18.386-12.492-30.165s4.774-22.445 12.492-30.165v0c7.721-7.718 18.386-12.492 30.165-12.492s22.445 4.774 30.165 12.492l149.333 149.333c7.718 7.721 12.492 18.386 12.492 30.165s-4.774 22.445-12.492 30.165l-149.333 149.333c-7.721 7.718-18.386 12.492-30.165 12.492s-22.445-4.774-30.165-12.492v0z" />
<glyph unicode="&#xe90e;" glyph-name="icons-Arrow-Right-Square-Filled" d="M101.077 680.875l1.052 9.354c-10.871-79.135-16.586-159.915-16.796-242.229v-0.242c0.21-82.073 5.925-162.852 15.744-232.633l0.109-1.030c11.933-92.056 84.853-164.976 177.939-177.018l-9.353 1.052c79.135-10.872 159.914-16.587 242.227-16.796h0.242c82.074 0.209 162.853 5.924 232.633 15.744l1.030 0.109c92.056 11.933 164.976 84.853 177.018 177.939l-1.052-9.356c10.872 79.135 16.587 159.915 16.796 242.23v0.241c-0.208 82.073-5.924 162.852-15.744 232.634l-0.109 1.030c-11.933 92.056-84.853 164.976-177.939 177.018l9.354-1.052c-79.135 10.871-159.914 16.586-242.229 16.796h-0.241c-82.073-0.209-162.853-5.925-232.634-15.744l-1.030-0.109c-92.056-11.933-164.976-84.853-177.018-177.939zM417.835 567.168c-7.41 7.665-11.977 18.12-11.977 29.641 0 23.564 19.103 42.667 42.667 42.667 11.521 0 21.976-4.567 29.653-11.989l149.321-149.321c7.718-7.721 12.492-18.386 12.492-30.165s-4.774-22.445-12.492-30.165l-149.333-149.333c-7.665-7.41-18.12-11.977-29.641-11.977-23.564 0-42.667 19.103-42.667 42.667 0 11.521 4.567 21.976 11.989 29.653l119.156 119.156z" />
<glyph unicode="&#xe90f;" glyph-name="icons-Arrow-Right-Square-Line" d="M512 789.333h0.239c78.192-0.206 155.151-5.657 221.628-15.018l0.592-0.061c54.094-6.836 96.959-49.701 103.856-104.387l-1.003 8.913c10.366-75.392 15.817-152.352 16.022-230.78v-0.236c-0.205-78.193-5.656-155.152-15.018-221.631l-0.061-0.592c-6.836-54.094-49.701-96.959-104.387-103.856l8.913 1.003c-75.392-10.365-152.351-15.817-230.78-16.022h-0.235c-78.193 0.204-155.152 5.656-221.632 15.018l-0.592 0.061c-54.094 6.836-96.959 49.701-103.856 104.387l1.004-8.916c-10.365 75.392-15.816 152.352-16.022 230.782v0.238c0.205 78.193 5.657 155.152 15.018 221.629l0.061 0.592c6.836 54.094 49.701 96.959 104.387 103.856l-8.916-1.004c75.393 10.365 152.352 15.816 230.782 16.022zM279.125 858.923c-93.086-12.042-166.006-84.962-177.939-177.018l-0.109-1.030c-9.819-69.781-15.534-150.56-15.744-232.634v-0.241c0.21-82.315 5.925-163.094 16.796-242.229l-1.052 9.354c12.042-93.086 84.962-166.006 177.018-177.939l1.030-0.109c69.782-9.82 150.561-15.535 232.634-15.744h0.241c82.315 0.209 163.095 5.924 242.23 16.796l-9.356-1.052c93.086 12.042 166.006 84.962 177.939 177.018l0.109 1.030c9.82 69.78 15.535 150.559 15.744 232.633v0.242c-0.209 82.314-5.924 163.093-16.796 242.227l1.052-9.353c-12.042 93.086-84.962 166.006-177.018 177.939l-1.030 0.109c-69.781 9.819-150.56 15.534-232.633 15.744h-0.242c-82.314-0.21-163.094-5.925-242.229-16.796l9.354 1.052zM417.835 627.499c-7.718-7.721-12.492-18.386-12.492-30.165s4.774-22.445 12.492-30.165l119.168-119.168-119.168-119.168c-7.718-7.721-12.492-18.386-12.492-30.165s4.774-22.445 12.492-30.165v0c7.721-7.718 18.386-12.492 30.165-12.492s22.445 4.774 30.165 12.492l149.333 149.333c7.718 7.721 12.492 18.386 12.492 30.165s-4.774 22.445-12.492 30.165l-149.333 149.333c-7.721 7.718-18.386 12.492-30.165 12.492s-22.445-4.774-30.165-12.492v0z" />
<glyph unicode="&#xe910;" glyph-name="icons-Arrow-Up-2-Line" d="M714.027 537.216c6.956 7.566 11.219 17.703 11.219 28.836 0 12.346-5.243 23.467-13.625 31.257l-149.359 137.88c-7.581 7.018-17.763 11.324-28.949 11.324s-21.368-4.305-28.977-11.349l0.028 0.026-149.291-137.856c-8.458-7.82-13.736-18.974-13.736-31.36 0-11.177 4.297-21.349 11.33-28.956l-0.026 0.029c7.82-8.458 18.974-13.736 31.36-13.736 11.177 0 21.349 4.297 28.956 11.33l-0.029-0.026 77.739 71.936v-414.549c0-23.564 19.103-42.667 42.667-42.667v0c23.564 0 42.667 19.103 42.667 42.667v0 414.549l77.739-71.765c7.578-7.007 17.751-11.304 28.928-11.304 12.386 0 23.54 5.278 31.334 13.707l0.026 0.028z" />
<glyph unicode="&#xe911;" glyph-name="icons-Arrow-Up-Simple-Line" d="M332.501 353.835c7.721-7.718 18.386-12.492 30.165-12.492s22.445 4.774 30.165 12.492l119.168 119.168 119.168-119.168c7.721-7.718 18.386-12.492 30.165-12.492s22.445 4.774 30.165 12.492v0c7.718 7.721 12.492 18.386 12.492 30.165s-4.774 22.445-12.492 30.165l-149.333 149.333c-7.721 7.718-18.386 12.492-30.165 12.492s-22.445-4.774-30.165-12.492l-149.333-149.333c-7.718-7.721-12.492-18.386-12.492-30.165s4.774-22.445 12.492-30.165v0z" />
<glyph unicode="&#xe912;" glyph-name="icons-Arrow-Up-Square-Filled" d="M279.125 37.077l-9.354 1.052c79.135-10.871 159.915-16.586 242.229-16.796h0.242c82.073 0.21 162.852 5.925 232.633 15.744l1.030 0.109c92.056 11.933 164.976 84.853 177.018 177.939l-1.052-9.353c10.872 79.135 16.587 159.914 16.796 242.227v0.242c-0.209 82.074-5.924 162.853-15.744 232.633l-0.109 1.030c-11.933 92.056-84.853 164.976-177.939 177.018l9.356-1.052c-79.135 10.872-159.915 16.587-242.23 16.796h-0.241c-82.073-0.208-162.852-5.924-232.634-15.744l-1.030-0.109c-92.056-11.933-164.976-84.853-177.018-177.939l1.052 9.354c-10.871-79.135-16.586-159.914-16.796-242.229v-0.241c0.209-82.073 5.925-162.853 15.744-232.634l0.109-1.030c11.933-92.056 84.853-164.976 177.939-177.018zM392.832 353.835c-7.665-7.41-18.12-11.977-29.641-11.977-23.564 0-42.667 19.103-42.667 42.667 0 11.521 4.567 21.976 11.989 29.653l149.321 149.321c7.721 7.718 18.386 12.492 30.165 12.492s22.445-4.774 30.165-12.492l149.333-149.333c7.41-7.665 11.977-18.12 11.977-29.641 0-23.564-19.103-42.667-42.667-42.667-11.521 0-21.976 4.567-29.653 11.989l-119.156 119.156z" />
<glyph unicode="&#xe913;" glyph-name="icons-Arrow-Up-Square-Line" d="M170.667 448v0.239c0.206 78.192 5.657 155.151 15.018 221.628l0.061 0.592c6.836 54.094 49.701 96.959 104.387 103.856l-8.913-1.003c75.392 10.366 152.352 15.817 230.78 16.022h0.236c78.193-0.205 155.152-5.656 221.631-15.018l0.592-0.061c54.094-6.836 96.959-49.701 103.856-104.387l-1.003 8.913c10.365-75.392 15.817-152.351 16.022-230.78v-0.235c-0.204-78.193-5.656-155.152-15.018-221.632l-0.061-0.592c-6.836-54.094-49.701-96.959-104.387-103.856l8.916 1.004c-75.392-10.365-152.352-15.816-230.782-16.022h-0.238c-78.193 0.205-155.152 5.657-221.629 15.018l-0.592 0.061c-54.094 6.836-96.959 49.701-103.856 104.387l1.004-8.916c-10.365 75.393-15.816 152.352-16.022 230.782zM101.077 215.125c12.042-93.086 84.962-166.006 177.018-177.939l1.030-0.109c69.781-9.819 150.56-15.534 232.634-15.744h0.241c82.315 0.21 163.094 5.925 242.229 16.796l-9.354-1.052c93.086 12.042 166.006 84.962 177.939 177.018l0.109 1.030c9.82 69.782 15.535 150.561 15.744 232.634v0.241c-0.209 82.315-5.924 163.095-16.796 242.23l1.052-9.356c-12.042 93.086-84.962 166.006-177.018 177.939l-1.030 0.109c-69.78 9.82-150.559 15.535-232.633 15.744h-0.242c-82.314-0.209-163.093-5.924-242.227-16.796l9.353 1.052c-93.086-12.042-166.006-84.962-177.939-177.018l-0.109-1.030c-9.819-69.781-15.534-150.56-15.744-232.633v-0.242c0.21-82.314 5.925-163.094 16.796-242.229l-1.052 9.354zM332.501 353.835c7.721-7.718 18.386-12.492 30.165-12.492s22.445 4.774 30.165 12.492l119.168 119.168 119.168-119.168c7.721-7.718 18.386-12.492 30.165-12.492s22.445 4.774 30.165 12.492v0c7.718 7.721 12.492 18.386 12.492 30.165s-4.774 22.445-12.492 30.165l-149.333 149.333c-7.721 7.718-18.386 12.492-30.165 12.492s-22.445-4.774-30.165-12.492l-149.333-149.333c-7.718-7.721-12.492-18.386-12.492-30.165s4.774-22.445 12.492-30.165v0z" />
<glyph unicode="&#xe914;" glyph-name="icons-At-Filled" d="M170.667 448c0 188.513 152.82 341.333 341.333 341.333s341.333-152.82 341.333-341.333v0c0.014-1.004 0.021-2.189 0.021-3.376 0-27.261-4.077-53.569-11.656-78.348l0.499 1.895c-4.145-14.162-11.27-26.352-20.692-36.354l0.042 0.045c-7.746-7.384-18.257-11.927-29.829-11.927-0.839 0-1.672 0.024-2.499 0.071l0.115-0.005c-1.234-0.137-2.665-0.215-4.115-0.215-10.47 0-19.988 4.077-27.052 10.73l0.020-0.019c-10.49 12.962-17.797 28.913-20.496 46.384l-0.070 0.549c-8.606 55.642-13.523 119.825-13.523 185.156 0 19.725 0.448 39.345 1.335 58.851l-0.1-2.769c0 23.564-19.103 42.667-42.667 42.667s-42.667-19.103-42.667-42.667v0c-35.211 26.639-79.735 42.67-128.004 42.67-117.821 0-213.333-95.513-213.333-213.333s95.513-213.333 213.333-213.333c63.613 0 120.723 27.843 159.809 72.006l0.196 0.225c6.794-13.87 15.192-25.772 25.173-36.14l-0.043 0.044c22.441-22.383 53.413-36.223 87.617-36.223 1.613 0 3.218 0.031 4.816 0.092l-0.23-0.007c0.739-0.015 1.61-0.024 2.484-0.024 34.406 0 65.65 13.534 88.701 35.569l-0.048-0.046c19.229 19.321 33.921 43.174 42.333 69.816l0.333 1.224c9.861 30.895 15.544 66.431 15.544 103.295 0 1.096-0.005 2.19-0.015 3.283l0.001-0.168v0.384c-0.144 235.391-190.999 426.158-426.411 426.158-235.5 0-426.411-190.911-426.411-426.411s190.911-426.411 426.411-426.411c69.002 0 134.175 16.389 191.84 45.488l-2.443-1.117c14.303 7.091 23.963 21.592 23.963 38.348 0 23.564-19.103 42.667-42.667 42.667-7.029 0-13.662-1.7-19.509-4.711l0.239 0.112c-44.222-22.42-96.418-35.553-151.68-35.553-188.513 0-341.333 152.82-341.333 341.333 0 0.034 0 0.068 0 0.102v-0.005z" />
<glyph unicode="&#xe915;" glyph-name="icons-At-Line" d="M170.667 448c0 188.513 152.82 341.333 341.333 341.333s341.333-152.82 341.333-341.333v0c0.014-1.004 0.021-2.189 0.021-3.376 0-27.261-4.077-53.569-11.656-78.348l0.499 1.895c-4.145-14.162-11.27-26.352-20.692-36.354l0.042 0.045c-7.746-7.384-18.257-11.927-29.829-11.927-0.839 0-1.672 0.024-2.499 0.071l0.115-0.005c-1.246-0.14-2.69-0.219-4.153-0.219-10.472 0-19.991 4.079-27.056 10.734l0.020-0.019c-10.49 12.962-17.797 28.913-20.496 46.384l-0.070 0.549c-8.586 55.575-13.49 119.681-13.49 184.932 0 19.804 0.452 39.502 1.345 59.085l-0.101-2.78c0 23.564-19.103 42.667-42.667 42.667s-42.667-19.103-42.667-42.667v0c-35.211 26.639-79.735 42.67-128.004 42.67-117.821 0-213.333-95.513-213.333-213.333s95.513-213.333 213.333-213.333c63.613 0 120.723 27.843 159.809 72.006l0.196 0.225c6.794-13.87 15.192-25.772 25.173-36.14l-0.043 0.044c22.441-22.383 53.413-36.223 87.617-36.223 1.613 0 3.218 0.031 4.816 0.092l-0.23-0.007c0.739-0.015 1.61-0.024 2.484-0.024 34.406 0 65.65 13.534 88.701 35.569l-0.048-0.046c19.229 19.321 33.921 43.174 42.333 69.816l0.333 1.224c9.861 30.895 15.544 66.431 15.544 103.295 0 1.096-0.005 2.19-0.015 3.283l0.001-0.168v0.384c-0.144 235.391-190.999 426.158-426.411 426.158-235.5 0-426.411-190.911-426.411-426.411s190.911-426.411 426.411-426.411c69.002 0 134.175 16.389 191.84 45.488l-2.443-1.117c14.303 7.091 23.963 21.592 23.963 38.348 0 23.564-19.103 42.667-42.667 42.667-7.029 0-13.662-1.7-19.509-4.711l0.239 0.112c-44.222-22.42-96.418-35.553-151.68-35.553-188.513 0-341.333 152.82-341.333 341.333 0 0.034 0 0.068 0 0.102v-0.005zM640 448c0-70.692-57.308-128-128-128s-128 57.308-128 128c0 70.692 57.308 128 128 128v0c70.692 0 128-57.308 128-128v0z" />
<glyph unicode="&#xe916;" glyph-name="icons-ATM-Filled" d="M128 832c-47.128 0-85.333-38.205-85.333-85.333v0-256c0-47.128 38.205-85.333 85.333-85.333v0c23.564 0 42.667 19.103 42.667 42.667v0 128c0 47.128 38.205 85.333 85.333 85.333v0h512c47.128 0 85.333-38.205 85.333-85.333v0-128c0-23.564 19.103-42.667 42.667-42.667v0c47.128 0 85.333 38.205 85.333 85.333v0 256c0 47.128-38.205 85.333-85.333 85.333v0zM512 554.667c0 11.782-9.551 21.333-21.333 21.333v0h-192c-23.564 0-42.667-19.103-42.667-42.667v0-341.333c0-70.692 57.308-128 128-128v0h106.667c11.782 0 21.333 9.551 21.333 21.333v0zM597.333 85.333c0-11.782 9.551-21.333 21.333-21.333v0h21.333c70.692 0 128 57.308 128 128v0 341.333c0 23.564-19.103 42.667-42.667 42.667v0h-106.667c-11.782 0-21.333-9.551-21.333-21.333v0z" />
<glyph unicode="&#xe917;" glyph-name="icons-ATM-Line" d="M170.667 746.667h682.667c23.564 0 42.667-19.103 42.667-42.667v0-170.667c0-23.564-19.103-42.667-42.667-42.667v0h-85.333c-23.564 0-42.667-19.103-42.667-42.667s19.103-42.667 42.667-42.667v0h85.333c70.692 0 128 57.308 128 128v0 170.667c0 70.692-57.308 128-128 128v0h-682.667c-70.692 0-128-57.308-128-128v0-170.667c0-70.692 57.308-128 128-128v0h85.333c23.564 0 42.667 19.103 42.667 42.667s-19.103 42.667-42.667 42.667v0h-85.333c-23.564 0-42.667 19.103-42.667 42.667v0 170.667c0 23.564 19.103 42.667 42.667 42.667v0zM213.333 618.667v-426.667c0-70.692 57.308-128 128-128h341.333c70.692 0 128 57.308 128 128v426.667zM597.333 533.333h128v-341.333c0-23.564-19.103-42.667-42.667-42.667v0h-85.333zM512 149.333h-170.667c-23.564 0-42.667 19.103-42.667 42.667v0 341.333h213.333z" />
<glyph unicode="&#xe918;" glyph-name="icons-Avocado-Filled" d="M512 960c123.578-0.002 225.87-91.136 243.337-209.863l0.162-1.337 26.453-185.344c8.714-48.237 21.285-90.916 37.837-131.549l-1.571 4.36c6.784-18.816 13.525-37.632 19.499-56.576 9.905-30.512 15.616-65.62 15.616-102.062 0-188.513-152.82-341.333-341.333-341.333s-341.333 152.82-341.333 341.333c0 36.442 5.711 71.55 16.287 104.479l-0.671-2.417c5.973 18.987 12.8 37.803 19.499 56.576 14.983 36.275 27.554 78.954 35.659 123.194l0.608 3.996 26.453 185.344c17.628 120.063 119.92 211.198 243.498 211.2h0.001zM512 106.667c94.257 0 170.667 76.41 170.667 170.667s-76.41 170.667-170.667 170.667c-94.257 0-170.667-76.41-170.667-170.667v0c0-94.257 76.41-170.667 170.667-170.667v0z" />
<glyph unicode="&#xe919;" glyph-name="icons-Avocado-Line" d="M352.981 736.725l-26.496-185.301c-6.592-41.083-16.271-77.557-29.145-112.484l1.326 4.111c-4.907-14.336-9.387-26.752-13.568-38.4-6.187-17.067-11.819-32.725-17.408-50.56-7.415-22.864-11.691-49.172-11.691-76.478 0-141.385 114.615-256 256-256s256 114.615 256 256c0 27.306-4.275 53.614-12.193 78.29l0.502-1.812c-5.589 17.835-11.221 33.408-17.408 50.56-4.267 11.648-8.533 24.021-13.568 38.4-11.546 30.804-21.226 67.263-27.359 104.912l-0.459 3.418-26.496 185.344c-11.538 78.385-78.331 137.874-159.019 137.874s-147.481-59.489-158.913-137l-0.106-0.875zM512 960c123.578-0.002 225.87-91.136 243.337-209.863l0.162-1.337 26.453-185.344c8.714-48.237 21.285-90.916 37.837-131.549l-1.571 4.36c6.784-18.816 13.525-37.632 19.499-56.576 9.905-30.512 15.616-65.62 15.616-102.062 0-188.513-152.82-341.333-341.333-341.333s-341.333 152.82-341.333 341.333c0 36.442 5.711 71.55 16.287 104.479l-0.671-2.417c5.973 18.987 12.8 37.803 19.499 56.576 14.983 36.275 27.554 78.954 35.659 123.194l0.608 3.996 26.453 185.344c17.628 120.063 119.92 211.198 243.498 211.2h0.001zM512 192v0c-47.128 0-85.333 38.205-85.333 85.333v0c0 47.128 38.205 85.333 85.333 85.333s85.333-38.205 85.333-85.333c0-47.128-38.205-85.333-85.333-85.333zM512 106.667c94.257 0 170.667 76.41 170.667 170.667s-76.41 170.667-170.667 170.667c-94.257 0-170.667-76.41-170.667-170.667v0c0-94.257 76.41-170.667 170.667-170.667v0z" />
<glyph unicode="&#xe91a;" glyph-name="icons-Backward-15-sec-Filled" d="M355.968 746.667c-87.31-70.964-142.641-178.354-142.641-298.667 0-212.077 171.923-384 384-384 0.002 0 0.004 0 0.006 0h3.797c208.215 1.008 376.994 168.426 380.199 376.017l0.004 0.303q0 3.84 0 7.68t0 7.424c-3.066 208.004-171.9 375.566-380.105 376.576h-430.561c-23.564 0-42.667-19.103-42.667-42.667s19.103-42.667 42.667-42.667v0zM426.667 576c0 23.564 19.103 42.667 42.667 42.667s42.667-19.103 42.667-42.667v0-256c0-23.564-19.103-42.667-42.667-42.667s-42.667 19.103-42.667 42.667v0zM554.667 554.667c0 35.346 28.654 64 64 64v0h106.667c23.564 0 42.667-19.103 42.667-42.667s-19.103-42.667-42.667-42.667v0h-85.333v-42.667h64c35.346 0 64-28.654 64-64v0-85.333c0-35.346-28.654-64-64-64v0h-106.667c-23.564 0-42.667 19.103-42.667 42.667s19.103 42.667 42.667 42.667v0h85.333v42.667h-64c-35.346 0-64 28.654-64 64v0zM55.168 819.499c-7.718-7.721-12.492-18.386-12.492-30.165s4.774-22.445 12.492-30.165l85.333-85.333c7.665-7.41 18.12-11.977 29.641-11.977 23.564 0 42.667 19.103 42.667 42.667 0 11.521-4.567 21.976-11.989 29.653l-55.156 55.156 55.168 55.168c7.41 7.665 11.977 18.12 11.977 29.641 0 23.564-19.103 42.667-42.667 42.667-11.521 0-21.976-4.567-29.653-11.989l0.012 0.012z" />
<glyph unicode="&#xe91b;" glyph-name="icons-Backward-15-sec-Line" d="M597.333 746.667c1.278 0.020 2.787 0.031 4.298 0.031 162.593 0 294.4-131.807 294.4-294.4 0-1.511-0.011-3.020-0.034-4.526l0.003 0.228c0.020-1.278 0.031-2.787 0.031-4.298 0-162.593-131.807-294.4-294.4-294.4-1.511 0-3.020 0.011-4.526 0.034l0.228-0.003c-1.278-0.020-2.787-0.031-4.298-0.031-162.593 0-294.4 131.807-294.4 294.4 0 1.511 0.011 3.020 0.034 4.526l-0.003-0.228c0 23.564-19.103 42.667-42.667 42.667v0c-23.564 0-42.667-19.103-42.667-42.667v0c-0.015-1.276-0.024-2.782-0.024-4.291 0-209.721 170.012-379.733 379.733-379.733 1.509 0 3.016 0.009 4.52 0.026l-0.229-0.002c1.276-0.015 2.782-0.024 4.291-0.024 209.721 0 379.733 170.012 379.733 379.733 0 1.509-0.009 3.016-0.026 4.52l0.002-0.229c0.015 1.276 0.024 2.782 0.024 4.291 0 209.721-170.012 379.733-379.733 379.733-1.509 0-3.016-0.009-4.52-0.026l0.229 0.002h-426.667c-23.564 0-42.667-19.103-42.667-42.667v0c0-23.564 19.103-42.667 42.667-42.667v0zM55.168 819.499c-7.718-7.721-12.492-18.386-12.492-30.165s4.774-22.445 12.492-30.165l85.333-85.333c7.721-7.718 18.386-12.492 30.165-12.492s22.445 4.774 30.165 12.492v0c7.718 7.721 12.492 18.386 12.492 30.165s-4.774 22.445-12.492 30.165l-55.168 55.168 55.168 55.168c7.718 7.721 12.492 18.386 12.492 30.165s-4.774 22.445-12.492 30.165v0c-7.721 7.718-18.386 12.492-30.165 12.492s-22.445-4.774-30.165-12.492v0zM469.333 618.667c-23.564 0-42.667-19.103-42.667-42.667v0-256c0-23.564 19.103-42.667 42.667-42.667s42.667 19.103 42.667 42.667v0 256c0 23.564-19.103 42.667-42.667 42.667v0zM618.667 618.667c-35.346 0-64-28.654-64-64v0-85.333c0-35.346 28.654-64 64-64v0h64v-42.667h-85.333c-23.564 0-42.667-19.103-42.667-42.667s19.103-42.667 42.667-42.667v0h106.667c35.346 0 64 28.654 64 64v0 85.333c0 35.346-28.654 64-64 64v0h-64v42.667h85.333c23.564 0 42.667 19.103 42.667 42.667s-19.103 42.667-42.667 42.667v0z" />
<glyph unicode="&#xe91c;" glyph-name="icons-Backward-Filled" d="M1017.643 695.552c-0.072 47.074-38.249 85.207-85.333 85.207-17.401 0-33.585-5.208-47.079-14.151l0.316 0.197-377.813-247.424c-23.371-15.475-38.573-41.653-38.573-71.381s15.202-55.907 38.257-71.184l0.317-0.197 377.643-247.467c13.215-8.815 29.461-14.066 46.933-14.066 47.128 0 85.333 38.205 85.333 85.333 0 0.040 0 0.080 0 0.12v-0.006zM548.309 695.552c-0.072 47.074-38.249 85.207-85.333 85.207-17.401 0-33.585-5.208-47.079-14.151l0.316 0.197-377.813-247.424c-23.371-15.475-38.573-41.653-38.573-71.381s15.202-55.907 38.257-71.184l0.317-0.197 377.643-247.467c13.215-8.815 29.461-14.066 46.933-14.066 47.128 0 85.333 38.205 85.333 85.333 0 0.040 0 0.080 0 0.12v-0.006z" />
<glyph unicode="&#xe91d;" glyph-name="icons-Backward-Line" d="M574.208 483.84l-0.164-0.1c-11.671-7.614-19.385-20.786-19.385-35.761s7.714-28.147 19.549-35.861l297.052-191.431c6.696-4.371 14.696-6.911 23.289-6.911 23.558 0 42.657 19.093 42.667 42.651v383.543c-0.13 23.453-19.182 42.425-42.666 42.425-8.593 0-16.593-2.54-23.126-6.811l-297.216-191.744zM825.173 747.307c19.598 12.811 43.597 20.432 69.376 20.432 70.615 0 127.875-57.183 128-127.769v-383.543c0-0.049 0-0.107 0-0.165 0-70.692-57.308-128-128-128-25.779 0-49.778 7.621-69.868 20.733l0.492-0.301-297.216 191.744c-35.487 23.145-58.615 62.653-58.615 107.563s23.128 84.417 58.124 107.262l0.491 0.301zM104.875 483.84l-0.164-0.1c-11.671-7.614-19.385-20.786-19.385-35.761s7.714-28.147 19.549-35.861l297.052-191.431c6.696-4.371 14.696-6.911 23.289-6.911 23.558 0 42.657 19.093 42.667 42.651v383.543c-0.13 23.453-19.182 42.425-42.666 42.425-8.593 0-16.593-2.54-23.126-6.811l-297.216-191.744zM355.84 747.307c19.598 12.811 43.597 20.432 69.376 20.432 70.615 0 127.875-57.183 128-127.769v-383.543c0-0.049 0-0.107 0-0.165 0-70.692-57.308-128-128-128-25.779 0-49.778 7.621-69.868 20.733l0.492-0.301-297.216 191.744c-35.487 23.145-58.615 62.653-58.615 107.563s23.128 84.417 58.124 107.262l0.491 0.301z" />
<glyph unicode="&#xe91e;" glyph-name="icons-Badge-Discount-Filled" d="M579.968 827.648c-15.747 20.541-40.294 33.653-67.904 33.653s-52.157-13.113-67.754-33.45l-0.15-0.203-42.667-56.235c-7.872-10.295-20.16-16.869-33.984-16.869-2.054 0-4.074 0.145-6.051 0.426l0.227-0.026-70.059 9.6c-3.495 0.507-7.531 0.797-11.634 0.797-47.128 0-85.333-38.205-85.333-85.333 0-4.103 0.29-8.139 0.85-12.088l-0.053 0.453 9.771-69.931c0.254-1.749 0.399-3.769 0.399-5.823 0-13.899-6.646-26.245-16.933-34.035l-0.107-0.077-56.235-42.667c-20.606-15.744-33.766-40.33-33.766-67.989s13.16-52.245 33.56-67.838l0.206-0.151 56.235-42.667c10.295-7.872 16.869-20.16 16.869-33.984 0-2.054-0.145-4.074-0.426-6.051l0.026 0.227-9.6-69.931c-0.507-3.495-0.797-7.531-0.797-11.634 0-47.128 38.205-85.333 85.333-85.333 4.103 0 8.139 0.29 12.088 0.85l-0.453-0.053 69.931 9.6c1.75 0.254 3.77 0.399 5.824 0.399 13.824 0 26.112-6.574 33.909-16.766l0.075-0.103 42.667-56.235c15.744-20.606 40.33-33.766 67.989-33.766s52.245 13.16 67.838 33.56l0.151 0.206 42.667 56.235c7.872 10.295 20.16 16.869 33.984 16.869 2.054 0 4.074-0.145 6.051-0.426l-0.227 0.026 69.931-9.6c3.495-0.507 7.531-0.797 11.634-0.797 47.128 0 85.333 38.205 85.333 85.333 0 4.103-0.29 8.139-0.85 12.088l0.053-0.453-9.6 69.931c-0.254 1.75-0.399 3.77-0.399 5.824 0 13.824 6.574 26.112 16.766 33.909l0.103 0.075 56.235 42.667c20.606 15.744 33.766 40.33 33.766 67.989s-13.16 52.245-33.56 67.838l-0.206 0.151-56.235 42.667c-10.295 7.872-16.869 20.16-16.869 33.984 0 2.054 0.145 4.074 0.426 6.051l-0.026-0.227 9.6 69.931c0.507 3.495 0.797 7.531 0.797 11.634 0 47.128-38.205 85.333-85.333 85.333-4.103 0-8.139-0.29-12.088-0.85l0.453 0.053-69.973-9.643c-1.75-0.254-3.77-0.399-5.824-0.399-13.824 0-26.112 6.574-33.909 16.766l-0.075 0.103zM627.627 563.499c-7.721 7.718-18.386 12.492-30.165 12.492s-22.445-4.774-30.165-12.492l-170.667-170.667c-7.747-7.731-12.54-18.421-12.54-30.229 0-23.586 19.12-42.706 42.706-42.706 11.777 0 22.44 4.767 30.166 12.477l170.666 170.666c7.757 7.727 12.556 18.418 12.556 30.229s-4.8 22.502-12.555 30.228l-0.001 0.001zM426.667 490.667c-23.564 0-42.667 19.103-42.667 42.667s19.103 42.667 42.667 42.667c23.564 0 42.667-19.103 42.667-42.667v0c0-23.564-19.103-42.667-42.667-42.667v0zM597.333 320c23.564 0 42.667 19.103 42.667 42.667s-19.103 42.667-42.667 42.667c-23.564 0-42.667-19.103-42.667-42.667v0c0-23.564 19.103-42.667 42.667-42.667v0z" />
<glyph unicode="&#xe91f;" glyph-name="icons-Badge-Discount-Line" d="M579.627 729.557l0.159-0.217c16.371-21.436 42.196-35.265 71.251-35.265 4.309 0 8.546 0.304 12.217 0.837l54.941 7.569c1.98 0.282 4.004 0.427 6.062 0.427 23.564 0 42.667-19.103 42.667-42.667 0-2.098-0.151-4.161-0.417-5.948l-7.595-55.040 0.055 0.475c-0.584-4.134-0.886-8.358-0.886-12.653 0-29.053 13.827-54.876 35.477-71.406l44.476-33.74c10.208-7.796 16.794-20.094 16.794-33.93s-6.586-26.134-16.897-34.005l-44.59-33.823c-21.433-16.372-35.26-42.195-35.26-71.247 0-4.295 0.302-8.519 0.831-12.178l7.595-55.168-0.026 0.227c0.28-1.974 0.425-3.992 0.425-6.044 0-23.564-19.103-42.667-42.667-42.667-2.052 0-4.069 0.145-5.817 0.398l-54.565 7.54c-4.134 0.584-8.358 0.886-12.653 0.886-29.053 0-54.876-13.827-71.406-35.477l-33.74-44.476c-7.796-10.208-20.094-16.794-33.93-16.794s-26.134 6.586-34.005 16.897l-33.823 44.59c-16.372 21.433-42.195 35.26-71.247 35.26-4.295 0-8.519-0.302-12.178-0.831l-54.938-7.568c-2.017-0.293-4.080-0.444-6.177-0.444-23.564 0-42.667 19.103-42.667 42.667 0 2.058 0.146 4.082 0.401 5.835l7.765 55.168-0.055-0.475c0.584 4.134 0.886 8.358 0.886 12.653 0 29.053-13.827 54.876-35.477 71.406l-44.476 33.74c-10.208 7.796-16.794 20.094-16.794 33.93s6.586 26.134 16.897 34.005l44.42 33.823c21.433 16.372 35.26 42.195 35.26 71.247 0 4.295-0.302 8.519-0.831 12.178l-7.595 55.040 0.028-0.23c-0.294 2.023-0.447 4.092-0.447 6.196 0 23.564 19.103 42.667 42.667 42.667 2.104 0 4.173-0.152 5.966-0.419l54.565-7.71c4.134-0.584 8.358-0.886 12.653-0.886 29.053 0 54.876 13.827 71.406 35.477l33.74 44.476c7.796 10.208 20.094 16.794 33.93 16.794s26.134-6.586 34.005-16.897l33.621-44.203zM613.76 825.515c-23.615 30.917-60.499 50.663-101.995 50.663s-78.379-19.745-101.768-50.353l-0.227-0.309-33.664-44.373c-0.787-1.038-2.020-1.701-3.409-1.701-0.197 0-0.391 0.013-0.581 0.039l0.022-0.002-54.955 7.595c-5.243 0.761-11.296 1.195-17.451 1.195-70.692 0-128-57.308-128-128 0-6.155 0.434-12.208 1.274-18.131l-0.079 0.68 7.595-55.168c0.023-0.168 0.037-0.362 0.037-0.559 0-1.388-0.663-2.622-1.69-3.401l-0.011-0.008-44.373-33.664c-30.917-23.615-50.663-60.499-50.663-101.995s19.745-78.379 50.353-101.768l0.309-0.227 44.373-33.664c1.038-0.787 1.701-2.020 1.701-3.409 0-0.197-0.013-0.391-0.039-0.581l0.002 0.022-7.595-55.168c-0.761-5.243-1.195-11.296-1.195-17.451 0-70.692 57.308-128 128-128 6.155 0 12.208 0.434 18.131 1.274l-0.68-0.079 55.168 7.723c0.168 0.023 0.362 0.037 0.559 0.037 1.388 0 2.622-0.663 3.401-1.69l0.008-0.011 33.664-44.373c23.615-30.917 60.499-50.663 101.995-50.663s78.379 19.745 101.768 50.353l0.227 0.309 33.664 44.373c0.787 1.038 2.020 1.701 3.409 1.701 0.197 0 0.391-0.013 0.581-0.039l-0.022 0.002 55.168-7.595c5.237-0.759 11.285-1.193 17.433-1.193 70.692 0 128 57.308 128 128 0 6.109-0.428 12.117-1.255 17.998l0.078-0.677-7.723 55.168c-0.023 0.168-0.037 0.362-0.037 0.559 0 1.388 0.663 2.622 1.69 3.401l0.011 0.008 44.373 33.664c30.917 23.615 50.663 60.499 50.663 101.995s-19.745 78.379-50.353 101.768l-0.309 0.227-44.373 33.664c-1.038 0.787-1.701 2.020-1.701 3.409 0 0.197 0.013 0.391 0.039 0.581l-0.002-0.022 7.595 55.168c0.759 5.237 1.193 11.285 1.193 17.433 0 70.692-57.308 128-128 128-6.109 0-12.117-0.428-17.998-1.255l0.677 0.078-55.168-7.595c-0.168-0.023-0.362-0.037-0.559-0.037-1.388 0-2.622 0.663-3.401 1.69l-0.008 0.011zM627.499 503.168l-170.667-170.667c-7.665-7.41-18.12-11.977-29.641-11.977-23.564 0-42.667 19.103-42.667 42.667 0 11.521 4.567 21.976 11.989 29.653l170.655 170.655c7.769 8.036 18.647 13.026 30.69 13.026 23.564 0 42.667-19.103 42.667-42.667 0-12.043-4.989-22.92-13.014-30.678l-0.012-0.012zM469.333 533.333c0-23.564-19.103-42.667-42.667-42.667s-42.667 19.103-42.667 42.667c0 23.564 19.103 42.667 42.667 42.667v0c23.564 0 42.667-19.103 42.667-42.667v0zM554.667 362.667c0-23.564 19.103-42.667 42.667-42.667s42.667 19.103 42.667 42.667c0 23.564-19.103 42.667-42.667 42.667v0c-23.564 0-42.667-19.103-42.667-42.667v0z" />
<glyph unicode="&#xe920;" glyph-name="icons-Bank-Note-Filled" d="M128 789.333c-70.692 0-128-57.308-128-128v0-21.333c-0.008-0.207-0.012-0.45-0.012-0.694 0-10.722 8.692-19.413 19.413-19.413 0.681 0 1.353 0.035 2.015 0.103l-0.083-0.007c77.378 10.020 137.991 70.633 147.92 147.154l0.091 0.857c0.061 0.579 0.096 1.252 0.096 1.932 0 10.722-8.692 19.413-19.413 19.413-0.244 0-0.487-0.005-0.729-0.013l0.035 0.001zM746.667 789.333h0.026c11.83-0.273 21.432-9.563 22.203-21.333l0.066-0.956c10.663-123.599 109.15-222.086 233.704-232.815l0.068-0.004c11.702-0.767 20.992-10.369 21.265-22.226v-128l-0.001-0.028c-0.293-11.797-9.553-21.367-21.29-22.158l-0.954-0.066c-123.631-10.646-222.148-109.162-232.859-233.747l-0.004-0.068c-0.767-11.702-10.369-20.992-22.226-21.265l-469.361 0.001c-11.797 0.293-21.367 9.553-22.158 21.29l-0.066 0.954c-10.646 123.631-109.162 222.148-233.747 232.859l-0.068 0.004c-11.702 0.767-20.992 10.369-21.265 22.226v128.026c0.273 11.83 9.563 21.432 21.333 22.203l0.956 0.066c123.599 10.663 222.086 109.15 232.815 233.704l0.004 0.068c0.767 11.702 10.369 20.992 22.226 21.265zM512 320c70.692 0 128 57.308 128 128s-57.308 128-128 128c-70.692 0-128-57.308-128-128v0c0-70.692 57.308-128 128-128v0zM1024 661.333v-21.333c0.007-0.193 0.011-0.419 0.011-0.646 0-10.745-8.711-19.456-19.456-19.456-0.665 0-1.322 0.033-1.97 0.098l0.082-0.007c-77.45 9.946-138.145 70.584-148.090 147.153l-0.091 0.857c-0.059 0.568-0.092 1.227-0.092 1.895 0 10.745 8.711 19.456 19.456 19.456 0.288 0 0.574-0.006 0.858-0.019l-0.041 0.001h21.333c70.692 0 128-57.308 128-128v0zM1024 256c0.011 0.243 0.017 0.527 0.017 0.814 0 10.745-8.711 19.456-19.456 19.456-0.652 0-1.297-0.032-1.932-0.095l0.080 0.006c-77.529-9.949-138.275-70.695-148.135-147.372l-0.089-0.852c-0.058-0.566-0.092-1.223-0.092-1.888 0-10.745 8.711-19.456 19.456-19.456 0.227 0 0.454 0.004 0.679 0.012l-0.033-0.001h21.333c70.692 0 128 57.308 128 128v0zM0 234.667v21.333c-0.011 0.244-0.017 0.53-0.017 0.818 0 10.745 8.711 19.456 19.456 19.456 0.667 0 1.327-0.034 1.976-0.099l-0.082 0.007c77.408-10.005 138.048-70.645 147.963-147.197l0.091-0.856c0.058-0.566 0.092-1.223 0.092-1.888 0-10.745-8.711-19.456-19.456-19.456-0.227 0-0.454 0.004-0.679 0.012l0.033-0.001h-21.376c-70.648 0-127.927 57.235-128 127.865v0.007z" />
<glyph unicode="&#xe921;" glyph-name="icons-Bank-Note-Line" d="M853.333 704v0c47.128 0 85.333-38.205 85.333-85.333v-341.333c0-47.128-38.205-85.333-85.333-85.333h-682.667c-47.128 0-85.333 38.205-85.333 85.333v341.333c0 47.128 38.205 85.333 85.333 85.333h682.667zM170.667 789.333c-94.257 0-170.667-76.41-170.667-170.667v0-341.333c0-94.257 76.41-170.667 170.667-170.667v0h682.667c94.257 0 170.667 76.41 170.667 170.667v0 341.333c0 94.257-76.41 170.667-170.667 170.667v0zM981.333 533.333c0-23.564-19.103-42.667-42.667-42.667v0c-117.821 0-213.333 95.513-213.333 213.333v0c0 23.564 19.103 42.667 42.667 42.667s42.667-19.103 42.667-42.667v0c0-70.692 57.308-128 128-128v0c23.564 0 42.667-19.103 42.667-42.667v0zM85.333 405.333c-23.564 0-42.667-19.103-42.667-42.667s19.103-42.667 42.667-42.667v0c70.692 0 128-57.308 128-128v0c0-23.564 19.103-42.667 42.667-42.667s42.667 19.103 42.667 42.667v0c0 117.821-95.513 213.333-213.333 213.333v0zM938.667 405.333c23.564 0 42.667-19.103 42.667-42.667s-19.103-42.667-42.667-42.667v0c-70.692 0-128-57.308-128-128v0c0-23.564-19.103-42.667-42.667-42.667s-42.667 19.103-42.667 42.667v0c0 117.821 95.513 213.333 213.333 213.333v0zM85.333 490.667c-23.564 0-42.667 19.103-42.667 42.667s19.103 42.667 42.667 42.667v0c70.692 0 128 57.308 128 128v0c0 23.564 19.103 42.667 42.667 42.667s42.667-19.103 42.667-42.667v0c0-117.821-95.513-213.333-213.333-213.333v0zM512 362.667v0c-47.128 0-85.333 38.205-85.333 85.333v0c0 47.128 38.205 85.333 85.333 85.333s85.333-38.205 85.333-85.333c0-47.128-38.205-85.333-85.333-85.333zM512 277.333c94.257 0 170.667 76.41 170.667 170.667s-76.41 170.667-170.667 170.667c-94.257 0-170.667-76.41-170.667-170.667v0c0-94.257 76.41-170.667 170.667-170.667v0z" />
<glyph unicode="&#xe922;" glyph-name="icons-Bank-Filled" d="M170.667 405.333c0 23.564 19.103 42.667 42.667 42.667v0h85.333c23.564 0 42.667-19.103 42.667-42.667v0-170.667h85.333v170.667c0 23.564 19.103 42.667 42.667 42.667v0h85.333c23.564 0 42.667-19.103 42.667-42.667v0-170.667h85.333v170.667c0 23.564 19.103 42.667 42.667 42.667v0h85.333c23.564 0 42.667-19.103 42.667-42.667v0-170.667c47.128 0 85.333-38.205 85.333-85.333v0-42.667c0-47.128-38.205-85.333-85.333-85.333v0h-682.667c-47.128 0-85.333 38.205-85.333 85.333v0 42.667c0 47.128 38.205 85.333 85.333 85.333v0zM85.333 646.229c0 0.002 0 0.004 0 0.006 0 35.709 21.933 66.294 53.062 79.020l0.57 0.206 341.333 136.533c9.386 3.864 20.282 6.107 31.701 6.107s22.316-2.243 32.271-6.313l-0.57 0.206 341.333-136.533c31.699-12.932 53.632-43.518 53.632-79.226 0-0.002 0-0.004 0-0.006v0-27.563c0-47.128-38.205-85.333-85.333-85.333v0h-682.667c-47.128 0-85.333 38.205-85.333 85.333v0z" />
<glyph unicode="&#xe923;" glyph-name="icons-Bank-Line" d="M469.333 192v384h-256v-384zM384 490.667v-213.333h-85.333v213.333zM810.667 192v384h-256v-384zM725.333 490.667v-213.333h-85.333v213.333zM810.667 192v0c23.564 0 42.667-19.103 42.667-42.667s-19.103-42.667-42.667-42.667h-597.333c-23.564 0-42.667 19.103-42.667 42.667s19.103 42.667 42.667 42.667h597.333zM213.333 277.333c-70.692 0-128-57.308-128-128s57.308-128 128-128v0h597.333c70.692 0 128 57.308 128 128s-57.308 128-128 128v0zM853.333 618.667v0c0-23.564-19.103-42.667-42.667-42.667h-597.333c-23.564 0-42.667 19.103-42.667 42.667v32.767c0 0.006 0 0.011 0 0.017 0 19.182 12.658 35.407 30.379 40.859l298.365 89.52c3.973 1.223 8.194 1.881 12.569 1.881s8.595-0.658 12.267-1.801l298.969-89.68c17.441-5.358 30.119-21.594 30.119-40.792 0-0.001 0-0.002 0-0.003v-32.768zM176.555 774.016c-53.2-16.326-91.212-65.014-91.221-122.58v-32.769c0-70.692 57.308-128 128-128h597.333c70.692 0 128 57.308 128 128v0 32.768c-0.010 57.568-38.022 106.255-90.314 122.341l-0.907 0.24-298.667 89.6c-11.007 3.425-23.663 5.398-36.779 5.398s-25.771-1.973-37.685-5.638l0.907 0.24z" />
<glyph unicode="&#xe924;" glyph-name="icons-Bar-01-Average-Filled" d="M298.667 149.333c0 47.128 38.205 85.333 85.333 85.333v0h426.667c47.128 0 85.333-38.205 85.333-85.333s-38.205-85.333-85.333-85.333v0h-426.667c-47.128 0-85.333 38.205-85.333 85.333v0zM298.667 448c0 47.128 38.205 85.333 85.333 85.333v0h85.333c47.128 0 85.333-38.205 85.333-85.333s-38.205-85.333-85.333-85.333v0h-85.333c-47.128 0-85.333 38.205-85.333 85.333v0zM298.667 746.667c0 47.128 38.205 85.333 85.333 85.333v0h213.333c47.128 0 85.333-38.205 85.333-85.333s-38.205-85.333-85.333-85.333v0h-213.333c-47.128 0-85.333 38.205-85.333 85.333v0zM170.667 917.333c23.564 0 42.667-19.103 42.667-42.667v0-853.333c0-23.564-19.103-42.667-42.667-42.667s-42.667 19.103-42.667 42.667v0 853.333c0 23.564 19.103 42.667 42.667 42.667v0z" />
<glyph unicode="&#xe925;" glyph-name="icons-Bar-01-Average-Line" d="M768 234.667c70.692 0 128-57.308 128-128s-57.308-128-128-128v0h-426.667c-23.564 0-42.667 19.103-42.667 42.667s19.103 42.667 42.667 42.667v0h426.667c23.564 0 42.667 19.103 42.667 42.667s-19.103 42.667-42.667 42.667v0h-426.667c-23.564 0-42.667 19.103-42.667 42.667s19.103 42.667 42.667 42.667v0zM384 576c70.692 0 128-57.308 128-128s-57.308-128-128-128v0h-42.667c-23.564 0-42.667 19.103-42.667 42.667s19.103 42.667 42.667 42.667v0h42.667c23.564 0 42.667 19.103 42.667 42.667s-19.103 42.667-42.667 42.667v0h-42.667c-23.564 0-42.667 19.103-42.667 42.667s19.103 42.667 42.667 42.667v0zM554.667 917.333c70.692 0 128-57.308 128-128s-57.308-128-128-128v0h-213.333c-23.564 0-42.667 19.103-42.667 42.667s19.103 42.667 42.667 42.667v0h213.333c23.564 0 42.667 19.103 42.667 42.667s-19.103 42.667-42.667 42.667v0h-213.333c-23.564 0-42.667 19.103-42.667 42.667s19.103 42.667 42.667 42.667v0zM170.667 917.333c23.564 0 42.667-19.103 42.667-42.667v0-853.333c0-23.564-19.103-42.667-42.667-42.667s-42.667 19.103-42.667 42.667v0 853.333c0 23.564 19.103 42.667 42.667 42.667v0z" />
<glyph unicode="&#xe926;" glyph-name="icons-Bar-01-Down-Filled" d="M298.667 149.333c0 47.128 38.205 85.333 85.333 85.333v0h426.667c47.128 0 85.333-38.205 85.333-85.333s-38.205-85.333-85.333-85.333v0h-426.667c-47.128 0-85.333 38.205-85.333 85.333v0zM298.667 448c0 47.128 38.205 85.333 85.333 85.333v0h213.333c47.128 0 85.333-38.205 85.333-85.333s-38.205-85.333-85.333-85.333v0h-213.333c-47.128 0-85.333 38.205-85.333 85.333v0zM298.667 746.667c0 47.128 38.205 85.333 85.333 85.333v0h85.333c47.128 0 85.333-38.205 85.333-85.333s-38.205-85.333-85.333-85.333v0h-85.333c-47.128 0-85.333 38.205-85.333 85.333v0zM170.667 917.333c23.564 0 42.667-19.103 42.667-42.667v0-853.333c0-23.564-19.103-42.667-42.667-42.667s-42.667 19.103-42.667 42.667v0 853.333c0 23.564 19.103 42.667 42.667 42.667v0z" />
<glyph unicode="&#xe927;" glyph-name="icons-Bar-01-Down-Line" d="M768 234.667c70.692 0 128-57.308 128-128s-57.308-128-128-128v0h-426.667c-23.564 0-42.667 19.103-42.667 42.667s19.103 42.667 42.667 42.667v0h426.667c23.564 0 42.667 19.103 42.667 42.667s-19.103 42.667-42.667 42.667v0h-426.667c-23.564 0-42.667 19.103-42.667 42.667s19.103 42.667 42.667 42.667v0zM554.667 576c70.692 0 128-57.308 128-128s-57.308-128-128-128v0h-213.333c-23.564 0-42.667 19.103-42.667 42.667s19.103 42.667 42.667 42.667v0h213.333c23.564 0 42.667 19.103 42.667 42.667s-19.103 42.667-42.667 42.667v0h-213.333c-23.564 0-42.667 19.103-42.667 42.667s19.103 42.667 42.667 42.667v0zM384 917.333c70.692 0 128-57.308 128-128s-57.308-128-128-128v0h-42.667c-23.564 0-42.667 19.103-42.667 42.667s19.103 42.667 42.667 42.667v0h42.667c23.564 0 42.667 19.103 42.667 42.667s-19.103 42.667-42.667 42.667v0h-42.667c-23.564 0-42.667 19.103-42.667 42.667s19.103 42.667 42.667 42.667v0zM170.667 917.333c23.564 0 42.667-19.103 42.667-42.667v0-853.333c0-23.564-19.103-42.667-42.667-42.667s-42.667 19.103-42.667 42.667v0 853.333c0 23.564 19.103 42.667 42.667 42.667v0z" />
<glyph unicode="&#xe928;" glyph-name="icons-Bar-01-Up-Filled" d="M298.667 149.333c0 47.128 38.205 85.333 85.333 85.333v0h85.333c47.128 0 85.333-38.205 85.333-85.333s-38.205-85.333-85.333-85.333v0h-85.333c-47.128 0-85.333 38.205-85.333 85.333v0zM298.667 448c0 47.128 38.205 85.333 85.333 85.333v0h213.333c47.128 0 85.333-38.205 85.333-85.333s-38.205-85.333-85.333-85.333v0h-213.333c-47.128 0-85.333 38.205-85.333 85.333v0zM298.667 746.667c0 47.128 38.205 85.333 85.333 85.333v0h426.667c47.128 0 85.333-38.205 85.333-85.333s-38.205-85.333-85.333-85.333v0h-426.667c-47.128 0-85.333 38.205-85.333 85.333v0zM170.667 917.333c23.564 0 42.667-19.103 42.667-42.667v0-853.333c0-23.564-19.103-42.667-42.667-42.667s-42.667 19.103-42.667 42.667v0 853.333c0 23.564 19.103 42.667 42.667 42.667v0z" />
<glyph unicode="&#xe929;" glyph-name="icons-Bar-01-Up-Line" d="M384 234.667c70.692 0 128-57.308 128-128s-57.308-128-128-128v0h-42.667c-23.564 0-42.667 19.103-42.667 42.667s19.103 42.667 42.667 42.667v0h42.667c23.564 0 42.667 19.103 42.667 42.667s-19.103 42.667-42.667 42.667v0h-42.667c-23.564 0-42.667 19.103-42.667 42.667s19.103 42.667 42.667 42.667v0zM554.667 576c70.692 0 128-57.308 128-128s-57.308-128-128-128v0h-213.333c-23.564 0-42.667 19.103-42.667 42.667s19.103 42.667 42.667 42.667v0h213.333c23.564 0 42.667 19.103 42.667 42.667s-19.103 42.667-42.667 42.667v0h-213.333c-23.564 0-42.667 19.103-42.667 42.667s19.103 42.667 42.667 42.667v0zM768 917.333c70.692 0 128-57.308 128-128s-57.308-128-128-128v0h-426.667c-23.564 0-42.667 19.103-42.667 42.667s19.103 42.667 42.667 42.667v0h426.667c23.564 0 42.667 19.103 42.667 42.667s-19.103 42.667-42.667 42.667v0h-426.667c-23.564 0-42.667 19.103-42.667 42.667s19.103 42.667 42.667 42.667v0zM170.667 917.333c23.564 0 42.667-19.103 42.667-42.667v0-853.333c0-23.564-19.103-42.667-42.667-42.667s-42.667 19.103-42.667 42.667v0 853.333c0 23.564 19.103 42.667 42.667 42.667v0z" />
<glyph unicode="&#xe92a;" glyph-name="icons-Bar-02-Average-Filled" d="M85.333 789.333c0 47.128 38.205 85.333 85.333 85.333v0h682.667c47.128 0 85.333-38.205 85.333-85.333v0-682.667c0-47.128-38.205-85.333-85.333-85.333v0h-682.667c-47.128 0-85.333 38.205-85.333 85.333v0zM213.333 533.333c0 23.564 19.103 42.667 42.667 42.667v0h170.667c23.564 0 42.667-19.103 42.667-42.667s-19.103-42.667-42.667-42.667v0h-170.667c-23.564 0-42.667 19.103-42.667 42.667v0zM256 405.333c-23.564 0-42.667-19.103-42.667-42.667s19.103-42.667 42.667-42.667v0h512c23.564 0 42.667 19.103 42.667 42.667s-19.103 42.667-42.667 42.667v0zM213.333 192c0 23.564 19.103 42.667 42.667 42.667v0h341.333c23.564 0 42.667-19.103 42.667-42.667s-19.103-42.667-42.667-42.667v0h-341.333c-23.564 0-42.667 19.103-42.667 42.667v0zM256 746.667c-23.564 0-42.667-19.103-42.667-42.667s19.103-42.667 42.667-42.667v0h426.667c23.564 0 42.667 19.103 42.667 42.667s-19.103 42.667-42.667 42.667v0z" />
<glyph unicode="&#xe92b;" glyph-name="icons-Bar-02-Average-Line" d="M298.667 746.667c-23.564 0-42.667-19.103-42.667-42.667s19.103-42.667 42.667-42.667v0h512c23.564 0 42.667 19.103 42.667 42.667s-19.103 42.667-42.667 42.667v0zM298.667 576c-23.564 0-42.667-19.103-42.667-42.667s19.103-42.667 42.667-42.667v0h256c23.564 0 42.667 19.103 42.667 42.667s-19.103 42.667-42.667 42.667v0zM298.667 405.333c-23.564 0-42.667-19.103-42.667-42.667s19.103-42.667 42.667-42.667v0h597.333c23.564 0 42.667 19.103 42.667 42.667s-19.103 42.667-42.667 42.667v0zM256 192c0 23.564 19.103 42.667 42.667 42.667v0h426.667c23.564 0 42.667-19.103 42.667-42.667s-19.103-42.667-42.667-42.667v0h-426.667c-23.564 0-42.667 19.103-42.667 42.667v0zM128 874.667c23.564 0 42.667-19.103 42.667-42.667v0-768c0-23.564-19.103-42.667-42.667-42.667s-42.667 19.103-42.667 42.667v0 768c0 23.564 19.103 42.667 42.667 42.667v0z" />
<glyph unicode="&#xe92c;" glyph-name="icons-Bar-02-Down-Filled" d="M85.333 106.667c0-47.128 38.205-85.333 85.333-85.333v0h682.667c47.128 0 85.333 38.205 85.333 85.333v0 682.667c0 47.128-38.205 85.333-85.333 85.333v0h-682.667c-47.128 0-85.333-38.205-85.333-85.333v0zM213.333 192c0-23.564 19.103-42.667 42.667-42.667v0h170.667c23.564 0 42.667 19.103 42.667 42.667v0c0 23.564-19.103 42.667-42.667 42.667v0h-170.667c-23.564 0-42.667-19.103-42.667-42.667v0zM256 661.333c-23.564 0-42.667 19.103-42.667 42.667v0c0 23.564 19.103 42.667 42.667 42.667v0h512c23.564 0 42.667-19.103 42.667-42.667v0c0-23.564-19.103-42.667-42.667-42.667v0zM213.333 533.333c0-23.564 19.103-42.667 42.667-42.667v0h341.333c23.564 0 42.667 19.103 42.667 42.667v0c0 23.564-19.103 42.667-42.667 42.667v0h-341.333c-23.564 0-42.667-19.103-42.667-42.667v0zM256 320c-23.564 0-42.667 19.103-42.667 42.667v0c0 23.564 19.103 42.667 42.667 42.667v0h426.667c23.564 0 42.667-19.103 42.667-42.667v0c0-23.564-19.103-42.667-42.667-42.667v0z" />
<glyph unicode="&#xe92d;" glyph-name="icons-Bar-02-Down-Line" d="M298.667 746.667c-23.564 0-42.667-19.103-42.667-42.667s19.103-42.667 42.667-42.667v0h597.333c23.564 0 42.667 19.103 42.667 42.667s-19.103 42.667-42.667 42.667v0zM298.667 234.667c-23.564 0-42.667-19.103-42.667-42.667s19.103-42.667 42.667-42.667v0h256c23.564 0 42.667 19.103 42.667 42.667s-19.103 42.667-42.667 42.667v0zM256 533.333c0 23.564 19.103 42.667 42.667 42.667v0h426.667c23.564 0 42.667-19.103 42.667-42.667s-19.103-42.667-42.667-42.667v0h-426.667c-23.564 0-42.667 19.103-42.667 42.667v0zM298.667 405.333c-23.564 0-42.667-19.103-42.667-42.667s19.103-42.667 42.667-42.667v0h512c23.564 0 42.667 19.103 42.667 42.667s-19.103 42.667-42.667 42.667v0zM128 874.667c23.564 0 42.667-19.103 42.667-42.667v0-768c0-23.564-19.103-42.667-42.667-42.667s-42.667 19.103-42.667 42.667v0 768c0 23.564 19.103 42.667 42.667 42.667v0z" />
<glyph unicode="&#xe92e;" glyph-name="icons-Bar-02-Up-Filled" d="M85.333 789.333c0 47.128 38.205 85.333 85.333 85.333v0h682.667c47.128 0 85.333-38.205 85.333-85.333v0-682.667c0-47.128-38.205-85.333-85.333-85.333v0h-682.667c-47.128 0-85.333 38.205-85.333 85.333v0zM213.333 704c0 23.564 19.103 42.667 42.667 42.667v0h170.667c23.564 0 42.667-19.103 42.667-42.667s-19.103-42.667-42.667-42.667v0h-170.667c-23.564 0-42.667 19.103-42.667 42.667v0zM256 234.667c-23.564 0-42.667-19.103-42.667-42.667s19.103-42.667 42.667-42.667v0h512c23.564 0 42.667 19.103 42.667 42.667s-19.103 42.667-42.667 42.667v0zM213.333 362.667c0 23.564 19.103 42.667 42.667 42.667v0h341.333c23.564 0 42.667-19.103 42.667-42.667s-19.103-42.667-42.667-42.667v0h-341.333c-23.564 0-42.667 19.103-42.667 42.667v0zM256 576c-23.564 0-42.667-19.103-42.667-42.667s19.103-42.667 42.667-42.667v0h426.667c23.564 0 42.667 19.103 42.667 42.667s-19.103 42.667-42.667 42.667v0z" />
<glyph unicode="&#xe92f;" glyph-name="icons-Bar-02-Up-Line" d="M298.667 746.667c-23.564 0-42.667-19.103-42.667-42.667s19.103-42.667 42.667-42.667v0h256c23.564 0 42.667 19.103 42.667 42.667s-19.103 42.667-42.667 42.667v0zM298.667 234.667c-23.564 0-42.667-19.103-42.667-42.667s19.103-42.667 42.667-42.667v0h597.333c23.564 0 42.667 19.103 42.667 42.667s-19.103 42.667-42.667 42.667v0zM256 362.667c0 23.564 19.103 42.667 42.667 42.667v0h426.667c23.564 0 42.667-19.103 42.667-42.667s-19.103-42.667-42.667-42.667v0h-426.667c-23.564 0-42.667 19.103-42.667 42.667v0zM298.667 576c-23.564 0-42.667-19.103-42.667-42.667s19.103-42.667 42.667-42.667v0h512c23.564 0 42.667 19.103 42.667 42.667s-19.103 42.667-42.667 42.667v0zM128 874.667c23.564 0 42.667-19.103 42.667-42.667v0-768c0-23.564-19.103-42.667-42.667-42.667s-42.667 19.103-42.667 42.667v0 768c0 23.564 19.103 42.667 42.667 42.667v0z" />
<glyph unicode="&#xe930;" glyph-name="icons-Barcode-Filled" d="M0 661.333c0 70.692 57.308 128 128 128v0h768c70.692 0 128-57.308 128-128v0-426.667c0-70.692-57.308-128-128-128v0h-768c-70.692 0-128 57.308-128 128v0zM725.333 576c0 23.564 19.103 42.667 42.667 42.667v0h42.667c23.564 0 42.667-19.103 42.667-42.667v0-256c0-23.564-19.103-42.667-42.667-42.667v0h-42.667c-23.564 0-42.667 19.103-42.667 42.667v0zM213.333 618.667c-23.564 0-42.667-19.103-42.667-42.667v0-256c0-23.564 19.103-42.667 42.667-42.667s42.667 19.103 42.667 42.667v0 256c0 23.564-19.103 42.667-42.667 42.667v0zM341.333 576c0 23.564 19.103 42.667 42.667 42.667v0h42.667c23.564 0 42.667-19.103 42.667-42.667v0-256c0-23.564-19.103-42.667-42.667-42.667v0h-42.667c-23.564 0-42.667 19.103-42.667 42.667v0zM597.333 618.667c-23.564 0-42.667-19.103-42.667-42.667v0-256c0-23.564 19.103-42.667 42.667-42.667s42.667 19.103 42.667 42.667v0 256c0 23.564-19.103 42.667-42.667 42.667v0z" />
<glyph unicode="&#xe931;" glyph-name="icons-Barcode-Line" d="M85.333 661.333c0 23.564 19.103 42.667 42.667 42.667v0h85.333c23.564 0 42.667 19.103 42.667 42.667s-19.103 42.667-42.667 42.667v0h-85.333c-70.692 0-128-57.308-128-128v0-85.333c0-23.564 19.103-42.667 42.667-42.667s42.667 19.103 42.667 42.667v0zM938.667 234.667c0-23.564-19.103-42.667-42.667-42.667v0h-85.333c-23.564 0-42.667-19.103-42.667-42.667s19.103-42.667 42.667-42.667v0h85.333c70.692 0 128 57.308 128 128v0 85.333c0 23.564-19.103 42.667-42.667 42.667s-42.667-19.103-42.667-42.667v0zM85.333 234.667c0-23.564 19.103-42.667 42.667-42.667v0h85.333c23.564 0 42.667-19.103 42.667-42.667s-19.103-42.667-42.667-42.667v0h-85.333c-70.692 0-128 57.308-128 128v0 85.333c0 23.564 19.103 42.667 42.667 42.667s42.667-19.103 42.667-42.667v0zM896 704c23.564 0 42.667-19.103 42.667-42.667v0-85.333c0-23.564 19.103-42.667 42.667-42.667s42.667 19.103 42.667 42.667v0 85.333c0 70.692-57.308 128-128 128v0h-85.333c-23.564 0-42.667-19.103-42.667-42.667s19.103-42.667 42.667-42.667v0zM213.333 618.667c-23.564 0-42.667-19.103-42.667-42.667v0-256c0-23.564 19.103-42.667 42.667-42.667s42.667 19.103 42.667 42.667v0 256c0 23.564-19.103 42.667-42.667 42.667v0zM768 618.667c-23.564 0-42.667-19.103-42.667-42.667v0-256c0-23.564 19.103-42.667 42.667-42.667v0h42.667c23.564 0 42.667 19.103 42.667 42.667v0 256c0 23.564-19.103 42.667-42.667 42.667v0zM341.333 576c0 23.564 19.103 42.667 42.667 42.667v0h42.667c23.564 0 42.667-19.103 42.667-42.667v0-256c0-23.564-19.103-42.667-42.667-42.667v0h-42.667c-23.564 0-42.667 19.103-42.667 42.667v0zM597.333 618.667c-23.564 0-42.667-19.103-42.667-42.667v0-256c0-23.564 19.103-42.667 42.667-42.667s42.667 19.103 42.667 42.667v0 256c0 23.564-19.103 42.667-42.667 42.667v0z" />
<glyph unicode="&#xe932;" glyph-name="icons-Baseball-Ball-Filled" d="M279.253 90.325c-5.536 3.907-9.107 10.278-9.107 17.482 0 6.717 3.104 12.709 7.956 16.619l0.041 0.032c91.16 78.531 148.523 194.113 148.523 323.093 0 0.158 0 0.316 0 0.473v-0.025c0 0.135 0 0.295 0 0.455 0 129-57.38 244.597-148.010 322.662l-0.555 0.467c-4.893 3.942-7.997 9.934-7.997 16.651 0 7.204 3.571 13.575 9.040 17.437l0.067 0.045c65.665 43.264 146.198 69.015 232.747 69.015s167.082-25.751 234.357-70.010l-1.61 0.995c5.536-3.907 9.107-10.278 9.107-17.482 0-6.717-3.104-12.709-7.956-16.619l-0.041-0.032c-91.182-78.703-148.545-194.434-148.545-323.563s57.363-244.859 147.997-323.1l0.548-0.463c4.893-3.942 7.997-9.934 7.997-16.651 0-7.204-3.571-13.575-9.040-17.437l-0.067-0.045c-65.665-43.264-146.198-69.015-232.747-69.015s-167.082 25.751-234.357 70.010l1.61-0.995zM207.275 719.019c-3.282 2.52-7.449 4.039-11.97 4.039-6.222 0-11.772-2.876-15.393-7.372l-0.030-0.038c-58.896-72.555-94.56-166.043-94.56-267.861s35.665-195.306 95.183-268.654l-0.623 0.792c3.651-4.534 9.201-7.41 15.422-7.41 4.521 0 8.687 1.519 12.017 4.074l-0.047-0.035c81.835 62.893 134.059 160.807 134.059 270.919 0 0.185 0 0.37 0 0.555v-0.029c0 0.030 0 0.065 0 0.1 0 110.112-52.224 208.026-133.255 270.325l-0.804 0.594zM816.725 719.019c3.282 2.52 7.449 4.039 11.97 4.039 6.222 0 11.772-2.876 15.393-7.372l0.030-0.038c58.883-72.332 94.55-165.608 94.55-267.215 0-0.152 0-0.305 0-0.457v0.024c0-0.192 0-0.419 0-0.646 0-101.607-35.667-194.883-95.163-267.993l0.613 0.777c-3.651-4.534-9.201-7.41-15.422-7.41-4.521 0-8.687 1.519-12.017 4.074l0.047-0.035c-81.79 63.002-133.97 160.97-133.97 271.125s52.18 208.123 133.172 270.534l0.798 0.591z" />
<glyph unicode="&#xe933;" glyph-name="icons-Baseball-Ball-Line" d="M512 106.667v0c-188.513 0-341.333 152.82-341.333 341.333v0c0 188.513 152.82 341.333 341.333 341.333s341.333-152.82 341.333-341.333c0-188.513-152.82-341.333-341.333-341.333zM512 21.333c235.641 0 426.667 191.025 426.667 426.667s-191.025 426.667-426.667 426.667c-235.641 0-426.667-191.025-426.667-426.667v0c0-235.641 191.025-426.667 426.667-426.667v0zM256 106.709c104.088 78.542 170.667 202.002 170.667 341.013 0 0.113 0 0.225 0 0.338v-0.018c0 0.095 0 0.208 0 0.32 0 139.011-66.579 262.472-169.589 340.234l-1.077 0.779c-23.791-17.98-44.742-37.388-63.609-58.686l-0.391-0.45c90.645-62.211 149.333-165.268 149.333-282.033 0-0.058 0-0.116 0-0.173v0.009c0-0.074 0-0.162 0-0.25 0-116.764-58.688-219.821-148.176-281.282l-1.157-0.751c19.259-21.712 40.21-41.093 62.921-58.269l1.079-0.782zM768 789.376c-104.095-78.667-170.667-202.226-170.667-341.333s66.571-262.666 169.593-340.556l1.073-0.778c23.789 17.982 44.74 37.391 63.609 58.687l0.391 0.449c-90.672 62.281-149.372 165.406-149.372 282.24s58.7 219.958 148.216 281.489l1.156 0.751c-19.258 21.713-40.209 41.094-62.921 58.269l-1.079 0.782z" />
<glyph unicode="&#xe934;" glyph-name="icons-Basketball-Ball-Filled" d="M445.952 26.411c0.859-0.128 1.851-0.201 2.86-0.201 11.311 0 20.48 9.169 20.48 20.48 0 0.086-0.001 0.171-0.002 0.256v-0.013 337.067c0 11.782-9.551 21.333-21.333 21.333v0h-46.933c-11.065-0.138-20.165-8.37-21.661-19.040l-0.013-0.117c-14.495-97.286-60.064-181.981-126.114-245.544l-0.136-0.13c-4.3-3.917-6.988-9.54-6.988-15.79 0-6.685 3.075-12.652 7.887-16.563l0.039-0.031c53.562-41.119 118.594-70.028 189.489-81.386l2.426-0.32zM162.475 203.221c3.573-5.124 9.439-8.435 16.078-8.435 5.214 0 9.952 2.042 13.456 5.371l-0.008-0.008c49.971 47.306 85.558 109.34 99.807 179.139l0.374 2.194c0.209 1.092 0.329 2.347 0.329 3.631 0 11.169-9.055 20.224-20.224 20.224-0.146 0-0.291-0.002-0.436-0.005h-160.874c-0.087 0.001-0.189 0.002-0.292 0.002-11.311 0-20.48-9.169-20.48-20.48 0-1.024 0.075-2.031 0.22-3.015l-0.014 0.111c10.788-67.826 36.203-128.238 72.95-180.047l-0.886 1.316zM90.411 514.048c-0.132-0.872-0.207-1.879-0.207-2.903 0-11.311 9.169-20.48 20.48-20.48 0.103 0 0.205 0.001 0.308 0.002h160.838c0.123-0.003 0.268-0.004 0.414-0.004 11.169 0 20.224 9.055 20.224 20.224 0 1.284-0.12 2.539-0.348 3.756l0.020-0.125c-14.611 71.99-50.184 134.024-99.983 181.187l-0.156 0.146c-3.491 3.3-8.215 5.329-13.412 5.329-6.661 0-12.544-3.333-16.071-8.422l-0.042-0.065c-35.85-50.469-61.262-110.85-71.743-176.22l-0.321-2.425zM254.037 787.925c-4.852-3.942-7.926-9.909-7.926-16.594 0-6.25 2.688-11.873 6.971-15.775l0.017-0.015c66.251-63.675 111.877-148.371 126.132-243.333l0.289-2.341c1.49-10.806 10.597-19.059 21.66-19.2h46.948c11.782 0 21.333 9.551 21.333 21.333v0 337.024c0.002 0.092 0.002 0.202 0.002 0.311 0 11.311-9.169 20.48-20.48 20.48-1.070 0-2.121-0.082-3.146-0.24l0.114 0.015c-73.317-11.665-138.35-40.56-192.927-82.409l1.012 0.745zM770.901 140.501c4.3-3.917 6.988-9.54 6.988-15.79 0-6.685-3.075-12.652-7.887-16.563l-0.039-0.031c-53.586-41.132-118.649-70.043-189.577-81.387l-2.423-0.319c-0.846-0.124-1.824-0.195-2.817-0.195-11.311 0-20.48 9.169-20.48 20.48 0 0.083 0 0.167 0.001 0.25v-0.013 337.067c0 11.782 9.551 21.333 21.333 21.333v0h46.933c10.922-0.31 19.843-8.482 21.32-19.041l0.013-0.117c14.605-97.327 60.304-182.023 126.488-245.535l0.146-0.14zM831.957 200.149c3.496-3.32 8.233-5.363 13.447-5.363 6.639 0 12.505 3.311 16.036 8.371l0.042 0.064c35.877 50.489 61.306 110.901 71.786 176.306l0.32 2.425c0.132 0.872 0.207 1.879 0.207 2.903 0 11.311-9.169 20.48-20.48 20.48-0.103 0-0.205-0.001-0.308-0.002h-160.881c-0.123 0.003-0.268 0.004-0.414 0.004-11.169 0-20.224-9.055-20.224-20.224 0-1.284 0.12-2.539 0.348-3.756l-0.020 0.125c14.611-71.99 50.184-134.024 99.983-181.187l0.156-0.146zM913.024 490.667c0.087-0.001 0.189-0.002 0.292-0.002 11.311 0 20.48 9.169 20.48 20.48 0 1.024-0.075 2.031-0.22 3.015l0.014-0.111c-10.8 67.796-36.213 128.178-72.95 179.961l0.886-1.316c-3.568 5.168-9.459 8.511-16.13 8.511-5.21 0-9.943-2.039-13.446-5.362l0.009 0.008c-49.955-47.31-85.528-109.344-99.765-179.14l-0.374-2.193c-0.209-1.092-0.329-2.347-0.329-3.631 0-11.169 9.055-20.224 20.224-20.224 0.146 0 0.291 0.002 0.436 0.005h-0.022zM770.901 755.499c4.3 3.917 6.988 9.54 6.988 15.79 0 6.685-3.075 12.652-7.887 16.563l-0.039 0.031c-53.562 41.119-118.594 70.028-189.489 81.386l-2.426 0.32c-0.872 0.132-1.879 0.207-2.903 0.207-11.311 0-20.48-9.169-20.48-20.48 0-0.103 0.001-0.205 0.002-0.308v0.015-337.067c0-11.782 9.551-21.333 21.333-21.333v0h46.933c11.077 0.141 20.185 8.394 21.662 19.084l0.013 0.116c14.507 97.291 60.090 181.986 126.156 245.543l0.138 0.132z" />
<glyph unicode="&#xe935;" glyph-name="icons-Basketball-Ball-Line" d="M234.667 772.267c81.166-69.595 135.625-168.316 147.091-279.783l0.151-1.817h87.424v381.909q21.035 2.091 42.667 2.091t42.667-2.091v-381.909h87.424c11.618 113.284 66.077 212.005 146.67 281.12l0.573 0.48c21.739-18.677 41.116-38.906 58.396-60.862l0.697-0.919c-64.801-54.079-109.005-130.932-120.268-218.113l-0.18-1.706h208.597q2.091-21.035 2.091-42.667t-2.091-42.667h-208.597c11.454-88.87 55.656-165.707 119.905-219.335l0.543-0.441c-17.977-22.893-37.354-43.136-58.527-61.348l-0.566-0.476c-81.166 69.595-135.625 168.316-147.091 279.783l-0.151 1.817h-87.424v-381.909q-21.035-2.091-42.667-2.091t-42.667 2.091v381.909h-87.424c-11.618-113.284-66.077-212.005-146.67-281.12l-0.573-0.48c-21.74 18.676-41.116 38.905-58.396 60.862l-0.697 0.919c64.801 54.079 109.005 130.932 120.268 218.113l0.18 1.706h-208.597q-2.091 21.035-2.091 42.667t2.091 42.667h208.597c-11.454 88.87-55.656 165.707-119.905 219.335l-0.543 0.441c17.978 22.893 37.355 43.136 58.528 61.349l0.565 0.475zM512 106.667v0c-188.513 0-341.333 152.82-341.333 341.333v0c0 188.513 152.82 341.333 341.333 341.333s341.333-152.82 341.333-341.333c0-188.513-152.82-341.333-341.333-341.333zM512 21.333c235.641 0 426.667 191.025 426.667 426.667s-191.025 426.667-426.667 426.667c-235.641 0-426.667-191.025-426.667-426.667v0c0-235.641 191.025-426.667 426.667-426.667v0z" />
<glyph unicode="&#xe936;" glyph-name="icons-Basketball-Hoop-Filled" d="M298.667 277.333v-213.333c0-23.564 19.103-42.667 42.667-42.667s42.667 19.103 42.667 42.667v0 42.667h85.333v-42.667c0-23.564 19.103-42.667 42.667-42.667s42.667 19.103 42.667 42.667v0 42.667h85.333v-42.667c0-23.564 19.103-42.667 42.667-42.667s42.667 19.103 42.667 42.667v0 213.333h-85.333v-85.333h-85.333v85.333h-85.333v-85.333h-85.333v85.333zM170.667 874.667c-47.128 0-85.333-38.205-85.333-85.333v0-426.667c0-47.128 38.205-85.333 85.333-85.333v0h128v170.667c-23.564 0-42.667 19.103-42.667 42.667s19.103 42.667 42.667 42.667v0h426.667c23.564 0 42.667-19.103 42.667-42.667s-19.103-42.667-42.667-42.667v0-170.667h128c47.128 0 85.333 38.205 85.333 85.333v0 426.667c0 47.128-38.205 85.333-85.333 85.333v0zM384 448h85.333v-85.333h-85.333zM554.667 448v-85.333h85.333v85.333z" />
<glyph unicode="&#xe937;" glyph-name="icons-Basketball-Hoop-Line" d="M810.667 789.333v0c23.564 0 42.667-19.103 42.667-42.667v-341.333c0-23.564-19.103-42.667-42.667-42.667h-597.333c-23.564 0-42.667 19.103-42.667 42.667v341.333c0 23.564 19.103 42.667 42.667 42.667h597.333zM213.333 874.667c-70.692 0-128-57.308-128-128v0-341.333c0-70.692 57.308-128 128-128v0h597.333c70.692 0 128 57.308 128 128v0 341.333c0 70.692-57.308 128-128 128v0zM725.333 533.333v0c23.564 0 42.667-19.103 42.667-42.667s-19.103-42.667-42.667-42.667v-384c0-23.564-19.103-42.667-42.667-42.667s-42.667 19.103-42.667 42.667v42.667h-85.333v-42.667c0-23.564-19.103-42.667-42.667-42.667s-42.667 19.103-42.667 42.667v42.667h-85.333v-42.667c0-23.564-19.103-42.667-42.667-42.667s-42.667 19.103-42.667 42.667v384c-23.564 0-42.667 19.103-42.667 42.667s19.103 42.667 42.667 42.667zM469.333 448h-85.333v-85.333h85.333zM554.667 362.667v85.333h85.333v-85.333zM469.333 277.333h-85.333v-85.333h85.333zM554.667 192v85.333h85.333v-85.333z" />
<glyph unicode="&#xe938;" glyph-name="icons-Battery-100-Filled" d="M938.667 661.333v0c0 70.692-57.308 128-128 128h-682.667c-70.692 0-128-57.308-128-128v-426.667c0-70.692 57.308-128 128-128h682.667c70.692 0 128 57.308 128 128v42.667l38.629 19.296c27.715 14.095 46.703 42.883 46.704 76.107v150.528c-0.001 33.223-18.989 62.012-47.189 76.331l-38.144 19.072v42.667zM170.667 576c0 23.564 19.103 42.667 42.667 42.667s42.667-19.103 42.667-42.667v0-256c0-23.564-19.103-42.667-42.667-42.667s-42.667 19.103-42.667 42.667v0zM341.333 576c0 23.564 19.103 42.667 42.667 42.667s42.667-19.103 42.667-42.667v0-256c0-23.564-19.103-42.667-42.667-42.667s-42.667 19.103-42.667 42.667v0zM512 576c0 23.564 19.103 42.667 42.667 42.667s42.667-19.103 42.667-42.667v0-256c0-23.564-19.103-42.667-42.667-42.667s-42.667 19.103-42.667 42.667v0zM682.667 576c0 23.564 19.103 42.667 42.667 42.667s42.667-19.103 42.667-42.667v0-256c0-23.564-19.103-42.667-42.667-42.667s-42.667 19.103-42.667 42.667v0z" />
<glyph unicode="&#xe939;" glyph-name="icons-Battery-100-Line" d="M853.333 565.931v52.736c0 47.128-38.205 85.333-85.333 85.333v0h-597.333c-47.128 0-85.333-38.205-85.333-85.333v0-341.333c0-47.128 38.205-85.333 85.333-85.333v0h597.333c47.128 0 85.333 38.205 85.333 85.333v0 52.736l61.739 30.891c14.094 7.156 23.586 21.541 23.595 38.143v97.793c-0.009 16.603-9.501 30.988-23.352 38.032l-0.243 0.112zM938.667 618.667l14.592-7.296c42.277-21.486 70.74-64.656 70.741-114.474v0-97.792c-0.002-49.819-28.464-92.989-70.014-114.139l-0.727-0.336-14.592-7.296c0-94.257-76.41-170.667-170.667-170.667v0h-597.333c-94.257 0-170.667 76.41-170.667 170.667v0 341.333c0 94.257 76.41 170.667 170.667 170.667v0h597.333c94.257 0 170.667-76.41 170.667-170.667v0zM213.333 618.667c-23.564 0-42.667-19.103-42.667-42.667v0-256c0-23.564 19.103-42.667 42.667-42.667s42.667 19.103 42.667 42.667v0 256c0 23.564-19.103 42.667-42.667 42.667v0zM384 618.667c-23.564 0-42.667-19.103-42.667-42.667v0-256c0-23.564 19.103-42.667 42.667-42.667s42.667 19.103 42.667 42.667v0 256c0 23.564-19.103 42.667-42.667 42.667v0zM512 576c0 23.564 19.103 42.667 42.667 42.667s42.667-19.103 42.667-42.667v0-256c0-23.564-19.103-42.667-42.667-42.667s-42.667 19.103-42.667 42.667v0zM725.333 618.667c-23.564 0-42.667-19.103-42.667-42.667v0-256c0-23.564 19.103-42.667 42.667-42.667s42.667 19.103 42.667 42.667v0 256c0 23.564-19.103 42.667-42.667 42.667v0z" />
<glyph unicode="&#xe93a;" glyph-name="icons-Beaker-Filled" d="M682.667 661.333v0c23.564 0 42.667 19.103 42.667 42.667s-19.103 42.667-42.667 42.667h-341.333c-23.564 0-42.667-19.103-42.667-42.667s19.103-42.667 42.667-42.667v-159.325c-0.028-7.856-2.18-15.212-5.803-21.325l-180.24-308.91c-11.291-19.075-17.771-41.334-17.771-65.106 0-70.631 57.208-127.9 127.825-128h493.138c0.025 0 0.049 0 0.074 0 70.692 0 128 57.308 128 128 0 23.824-6.509 46.129-17.521 64.64l-180.456 309.349c-3.731 6.311-5.883 13.667-5.911 21.532v159.147zM614.784 437.717l180.565-309.717c3.594-6.12 5.716-13.479 5.716-21.333 0-23.534-19.053-42.617-42.576-42.667h-493.146c-23.527 0.049-42.58 19.133-42.58 42.667 0 7.855 2.123 15.214 5.825 21.535l-0.109-0.201 180.779 309.717c10.942 18.466 17.408 40.701 17.408 64.447 0 0.008 0 0.016 0 0.024v-0.001 159.147h170.667v-159.147c0.010-23.758 6.491-46.001 17.776-65.063l-0.325 0.594zM807.211 277.333h-590.293l-61.952-106.155c-10.965-18.481-17.446-40.74-17.446-64.512 0-70.631 57.208-127.9 127.815-128h493.151c0.011 0 0.025 0 0.038 0 70.692 0 128 57.308 128 128 0 23.772-6.48 46.031-17.771 65.106l0.325-0.594zM597.333 832c23.564 0 42.667 19.103 42.667 42.667s-19.103 42.667-42.667 42.667c-23.564 0-42.667-19.103-42.667-42.667v0c0-23.564 19.103-42.667 42.667-42.667v0zM426.667 789.333c23.564 0 42.667 19.103 42.667 42.667s-19.103 42.667-42.667 42.667c-23.564 0-42.667-19.103-42.667-42.667v0c0-23.564 19.103-42.667 42.667-42.667v0z" />
<glyph unicode="&#xe93b;" glyph-name="icons-Beaker-Line" d="M682.667 661.333v0c23.564 0 42.667 19.103 42.667 42.667s-19.103 42.667-42.667 42.667h-341.333c-23.564 0-42.667-19.103-42.667-42.667s19.103-42.667 42.667-42.667v-159.325c-0.028-7.856-2.18-15.212-5.803-21.325l-180.24-308.91c-11.291-19.075-17.771-41.334-17.771-65.106 0-70.631 57.208-127.9 127.825-128h493.138c0.025 0 0.049 0 0.074 0 70.692 0 128 57.308 128 128 0 23.824-6.509 46.129-17.521 64.64l-180.456 309.349c-3.731 6.311-5.883 13.667-5.911 21.532v159.147zM614.784 437.717l180.565-309.717c3.594-6.12 5.716-13.479 5.716-21.333 0-23.534-19.053-42.617-42.576-42.667h-493.146c-23.527 0.049-42.58 19.133-42.58 42.667 0 7.855 2.123 15.214 5.825 21.535l-0.109-0.201 180.779 309.717c10.942 18.466 17.408 40.701 17.408 64.447 0 0.008 0 0.016 0 0.024v-0.001 159.147h170.667v-159.147c0.010-23.758 6.491-46.001 17.776-65.063l-0.325 0.594zM213.333 234.667c0 23.564 19.103 42.667 42.667 42.667v0h512c23.564 0 42.667-19.103 42.667-42.667s-19.103-42.667-42.667-42.667v0h-512c-23.564 0-42.667 19.103-42.667 42.667v0zM597.333 832c23.564 0 42.667 19.103 42.667 42.667s-19.103 42.667-42.667 42.667c-23.564 0-42.667-19.103-42.667-42.667v0c0-23.564 19.103-42.667 42.667-42.667v0zM426.667 789.333c23.564 0 42.667 19.103 42.667 42.667s-19.103 42.667-42.667 42.667c-23.564 0-42.667-19.103-42.667-42.667v0c0-23.564 19.103-42.667 42.667-42.667v0z" />
<glyph unicode="&#xe93c;" glyph-name="Icons-Behance-Filled" d="M725.333 789.333c-23.564 0-42.667-19.103-42.667-42.667s19.103-42.667 42.667-42.667v0h170.667c23.564 0 42.667 19.103 42.667 42.667s-19.103 42.667-42.667 42.667v0zM597.333 405.333c0 117.821 95.513 213.333 213.333 213.333s213.333-95.513 213.333-213.333v0-42.667c0-23.564-19.103-42.667-42.667-42.667v0h-298.667c0-0.007 0-0.015 0-0.023 0-70.692 57.308-128 128-128 29.886 0 57.38 10.243 79.163 27.409l-0.273-0.207c10.519 9.049 24.112 14.791 39.025 15.483l0.143 0.005c36.565 0 59.947-37.76 34.389-64-38.758-39.569-92.739-64.1-152.448-64.1-117.821 0-213.333 95.513-213.333 213.333 0 0.035 0 0.070 0 0.105v-0.006zM418.133 496.768c31.619 31.001 51.219 74.161 51.219 121.899 0 94.257-76.41 170.667-170.667 170.667-0.006 0-0.013 0-0.019 0h-230.399c-37.703 0-68.267-30.564-68.267-68.267v0-541.269c0-40.389 32.742-73.131 73.131-73.131v0h225.536c0.010 0 0.022 0 0.034 0 117.821 0 213.333 95.513 213.333 213.333 0 73.252-36.92 137.881-93.166 176.294l-0.735 0.474z" />
<glyph unicode="&#xe93d;" glyph-name="Icons-Behance-Line" d="M725.333 789.333c-23.564 0-42.667-19.103-42.667-42.667s19.103-42.667 42.667-42.667v0h170.667c23.564 0 42.667 19.103 42.667 42.667s-19.103 42.667-42.667 42.667v0zM597.333 405.333c0 117.821 95.513 213.333 213.333 213.333s213.333-95.513 213.333-213.333v0-42.667c0-23.564-19.103-42.667-42.667-42.667v0h-298.667c0-0.007 0-0.015 0-0.023 0-70.692 57.308-128 128-128 29.886 0 57.38 10.243 79.163 27.409l-0.273-0.207c10.519 9.049 24.112 14.791 39.025 15.483l0.143 0.005c36.565 0 59.947-37.76 34.389-64-38.758-39.569-92.739-64.1-152.448-64.1-117.821 0-213.333 95.513-213.333 213.333 0 0.035 0 0.070 0 0.105v-0.006zM810.667 533.333c-70.692 0-128-57.308-128-128v0h256c0 70.692-57.308 128-128 128v0zM298.667 704v0c47.128 0 85.333-38.205 85.333-85.333s-38.205-85.333-85.333-85.333h-213.333v170.667zM418.133 496.768l0.735-0.474c56.246-38.413 93.166-103.042 93.166-176.294 0-117.821-95.513-213.333-213.333-213.333-0.012 0-0.024 0-0.034 0h-225.536c-40.389 0-73.131 32.742-73.131 73.131v541.269c0 37.703 30.564 68.267 68.267 68.267h230.399c0.006 0 0.013 0 0.019 0 94.257 0 170.667-76.41 170.667-170.667 0-47.738-19.6-90.897-51.219-121.899zM85.333 448v-256h213.333c70.692 0 128 57.308 128 128s-57.308 128-128 128v0z" />
<glyph unicode="&#xe93e;" glyph-name="icons-Bell-Line" d="M896 191.019c0-20.831-16.887-37.717-37.717-37.717v0h-692.565c-20.278 0.704-36.449 17.311-36.449 37.696s16.171 36.992 36.385 37.694l0.064 0.002h0.683v262.784c1.445 188.379 154.491 340.532 343.073 340.532 0.888 0 1.776-0.003 2.663-0.010l-0.136 0.001c0.751 0.006 1.638 0.009 2.527 0.009 188.582 0 341.628-152.153 343.072-340.394l0.001-0.137v-262.784h0.683c20.816 0 37.693-16.862 37.717-37.672v-0.002zM243.2 228.736h537.6v262.741c0 148.454-120.346 268.8-268.8 268.8s-268.8-120.346-268.8-268.8v0zM425.643 74.453c-10.453 21.333 9.472 41.173 33.024 41.173h106.667c23.552 0 43.477-20.053 33.024-41.173-4.92-9.882-11.098-18.336-18.463-25.588l-0.012-0.012c-17.505-17.080-41.463-27.617-67.883-27.617s-50.378 10.536-67.902 27.636l0.020-0.019c-7.374 7.252-13.552 15.692-18.228 25.014l-0.247 0.543z" />
<glyph unicode="&#xe93f;" glyph-name="icons-Bluetooth-Filled" d="M469.333 867.413c0.118 47.039 38.278 85.126 85.333 85.126 21.23 0 40.649-7.752 55.58-20.581l-0.113 0.095 228.309-195.627c9.152-7.872 14.912-19.466 14.912-32.405s-5.76-24.533-14.856-32.358l-0.056-0.047-260.864-223.616 223.061-191.232c18.289-15.743 29.798-38.922 29.798-64.789s-11.509-49.046-29.687-64.695l-0.112-0.094-190.507-163.2c-14.818-12.733-34.237-20.486-55.467-20.486-47.115 0-85.312 38.184-85.333 85.294v326.615l-228.224-195.797c-7.275-5.946-16.667-9.549-26.901-9.549-23.564 0-42.667 19.103-42.667 42.667 0 12.56 5.427 23.852 14.064 31.66l0.037 0.033 260.779 223.573-260.864 223.616c-9.653 7.885-15.766 19.787-15.766 33.118 0 23.564 19.103 42.667 42.667 42.667 11.004 0 21.036-4.166 28.603-11.007l-0.037 0.033 228.309-195.627z" />
<glyph unicode="&#xe940;" glyph-name="icons-Bluetooth-Line" d="M469.333 540.8l-228.272 195.594c-7.567 6.841-17.599 11.007-28.603 11.007-23.564 0-42.667-19.103-42.667-42.667 0-13.331 6.113-25.233 15.766-33.118l260.864-223.616-260.807-223.641c-8.416-7.793-13.685-18.938-13.685-31.313 0-23.564 19.103-42.667 42.667-42.667 10.059 0 19.304 3.481 26.513 9.237l228.224 195.797v-326.615c0.021-47.11 38.218-85.294 85.333-85.294 21.23 0 40.648 7.752 55.467 20.486l190.619 163.337c18.177 15.649 29.687 38.828 29.687 64.695s-11.509 49.046-29.798 64.789l-223.061 191.189 260.92 223.663c9.096 7.825 14.856 19.419 14.856 32.358s-5.76 24.533-14.912 32.405l-228.196 195.532c-14.932 12.828-34.351 20.581-55.58 20.581-47.055 0-85.215-38.087-85.333-85.126zM554.667 355.413l190.421-163.243-190.421-163.371zM554.667 540.8v326.613l190.421-163.413z" />
<glyph unicode="&#xe941;" glyph-name="icons-Bookmark-Filled" d="M290.603 910.976c-84.328-4.256-151.533-71.95-154.997-156.092l-0.011-0.324c-4.139-69.717-7.595-169.088-7.595-306.56 0-214.443 8.533-361.515 14.677-441.216 1.594-21.19 19.179-37.78 40.638-37.78 9.080 0 17.465 2.97 24.239 7.991l-0.11-0.078 279.936 197.589c6.845 4.881 15.38 7.804 24.597 7.804s17.752-2.923 24.728-7.892l-0.131 0.088 279.936-197.589c6.664-4.943 15.050-7.913 24.13-7.913 21.46 0 39.045 16.589 40.63 37.643l0.008 0.136c6.187 79.701 14.72 226.773 14.72 441.216 0 137.472-3.456 236.843-7.595 306.56-3.475 84.466-70.68 152.16-154.619 156.4l-0.389 0.016c-55.552 3.541-128.683 6.357-221.397 6.357s-165.845-2.816-221.397-6.357z" />
<glyph unicode="&#xe942;" glyph-name="icons-Bookmark-Line" d="M585.813 244.352l0.392-0.265c-20.931 14.917-46.544 23.692-74.205 23.692s-53.274-8.774-73.813-23.427l-215.723-152.277c-4.864 83.072-9.131 201.728-9.131 355.925 0 136.064 3.413 233.728 7.424 301.483l0.001 0.078c0.82 41.388 33.931 74.857 75.305 76.252 53.803 3.456 124.928 6.187 215.936 6.187s162.133-2.731 215.936-6.187l0.129-0.003c41.23-1.391 74.333-34.837 75.178-76.285 4.011-67.797 7.424-165.461 7.424-301.525 0-154.197-4.267-272.853-9.131-355.925zM290.603 910.976c-84.328-4.256-151.533-71.95-154.997-156.092l-0.011-0.324c-4.139-69.717-7.595-169.088-7.595-306.56 0-214.443 8.533-361.515 14.677-441.216 1.594-21.19 19.179-37.78 40.638-37.78 9.080 0 17.465 2.97 24.239 7.991l-0.11-0.078 279.936 197.589c6.845 4.881 15.38 7.804 24.597 7.804s17.752-2.923 24.728-7.892l-0.131 0.088 279.936-197.589c6.664-4.943 15.050-7.913 24.13-7.913 21.46 0 39.045 16.589 40.63 37.643l0.008 0.136c6.187 79.701 14.72 226.773 14.72 441.216 0 137.472-3.456 236.843-7.595 306.56-3.475 84.466-70.68 152.16-154.619 156.4l-0.389 0.016c-55.552 3.541-128.683 6.357-221.397 6.357s-165.845-2.816-221.397-6.357z" />
<glyph unicode="&#xe943;" glyph-name="icons-Bowling-Ball-Filled" d="M938.667 448c0-235.641-191.025-426.667-426.667-426.667s-426.667 191.025-426.667 426.667c0 235.641 191.025 426.667 426.667 426.667v0c235.641 0 426.667-191.025 426.667-426.667v0zM512 576c23.564 0 42.667 19.103 42.667 42.667s-19.103 42.667-42.667 42.667c-23.564 0-42.667-19.103-42.667-42.667v0c0-23.564 19.103-42.667 42.667-42.667v0zM469.333 490.667c0-23.564-19.103-42.667-42.667-42.667s-42.667 19.103-42.667 42.667c0 23.564 19.103 42.667 42.667 42.667v0c23.564 0 42.667-19.103 42.667-42.667v0zM597.333 448c23.564 0 42.667 19.103 42.667 42.667s-19.103 42.667-42.667 42.667c-23.564 0-42.667-19.103-42.667-42.667v0c0-23.564 19.103-42.667 42.667-42.667v0z" />
<glyph unicode="&#xe944;" glyph-name="icons-Bowling-Ball-Line" d="M512 106.667v0c-188.513 0-341.333 152.82-341.333 341.333v0c0 188.513 152.82 341.333 341.333 341.333s341.333-152.82 341.333-341.333c0-188.513-152.82-341.333-341.333-341.333zM512 21.333c235.641 0 426.667 191.025 426.667 426.667s-191.025 426.667-426.667 426.667c-235.641 0-426.667-191.025-426.667-426.667v0c0-235.641 191.025-426.667 426.667-426.667v0zM512 576c23.564 0 42.667 19.103 42.667 42.667s-19.103 42.667-42.667 42.667c-23.564 0-42.667-19.103-42.667-42.667v0c0-23.564 19.103-42.667 42.667-42.667v0zM469.333 490.667c0-23.564-19.103-42.667-42.667-42.667s-42.667 19.103-42.667 42.667c0 23.564 19.103 42.667 42.667 42.667v0c23.564 0 42.667-19.103 42.667-42.667v0zM640 490.667c0-23.564-19.103-42.667-42.667-42.667s-42.667 19.103-42.667 42.667c0 23.564 19.103 42.667 42.667 42.667v0c23.564 0 42.667-19.103 42.667-42.667v0z" />
<glyph unicode="&#xe945;" glyph-name="icons-Boxes-Filled" d="M640 405.333c-47.128 0-85.333-38.205-85.333-85.333v0-256c0-47.128 38.205-85.333 85.333-85.333v0h256c47.128 0 85.333 38.205 85.333 85.333v0 256c0 47.128-38.205 85.333-85.333 85.333v0h-64c-11.782 0-21.333-9.551-21.333-21.333v0-64c0-23.564-19.103-42.667-42.667-42.667s-42.667 19.103-42.667 42.667v0 64c0 11.782-9.551 21.333-21.333 21.333v0zM128 405.333c-47.128 0-85.333-38.205-85.333-85.333v0-256c0-47.128 38.205-85.333 85.333-85.333v0h256c47.128 0 85.333 38.205 85.333 85.333v0 256c0 47.128-38.205 85.333-85.333 85.333v0h-64c-11.782 0-21.333-9.551-21.333-21.333v0-64c0-23.564-19.103-42.667-42.667-42.667s-42.667 19.103-42.667 42.667v0 64c0 11.782-9.551 21.333-21.333 21.333v0zM384 917.333c-47.128 0-85.333-38.205-85.333-85.333v0-256c0-47.128 38.205-85.333 85.333-85.333v0h256c47.128 0 85.333 38.205 85.333 85.333v0 256c0 47.128-38.205 85.333-85.333 85.333v0h-64c-11.782 0-21.333-9.551-21.333-21.333v0-64c0-23.564-19.103-42.667-42.667-42.667s-42.667 19.103-42.667 42.667v0 64c0 11.782-9.551 21.333-21.333 21.333v0z" />
<glyph unicode="&#xe946;" glyph-name="icons-Boxes-Line" d="M853.333 405.333v0c23.564 0 42.667-19.103 42.667-42.667v-256c0-23.564-19.103-42.667-42.667-42.667h-277.333c-11.782 0-21.333 9.551-21.333 21.333v298.667c0 11.782 9.551 21.333 21.333 21.333h277.333zM469.333 490.667v-512h384c70.692 0 128 57.308 128 128v0 256c0 70.692-57.308 128-128 128v0zM682.667 490.667h85.333v-128c0-23.564-19.103-42.667-42.667-42.667s-42.667 19.103-42.667 42.667v0zM469.333 85.333v0c0-11.782-9.551-21.333-21.333-21.333h-277.333c-23.564 0-42.667 19.103-42.667 42.667v256c0 23.564 19.103 42.667 42.667 42.667h277.333c11.782 0 21.333-9.551 21.333-21.333zM170.667 490.667c-70.692 0-128-57.308-128-128v0-256c0-70.692 57.308-128 128-128v0h384v512zM256 490.667h85.333v-128c0-23.564-19.103-42.667-42.667-42.667s-42.667 19.103-42.667 42.667v0zM640 832v0c23.564 0 42.667-19.103 42.667-42.667v-298.667h-341.333v298.667c0 23.564 19.103 42.667 42.667 42.667h256zM384 917.333c-70.692 0-128-57.308-128-128v0-384h512v384c0 70.692-57.308 128-128 128v0zM469.333 917.333h85.333v-128c0-23.564-19.103-42.667-42.667-42.667s-42.667 19.103-42.667 42.667v0z" />
<glyph unicode="&#xe947;" glyph-name="icons-Briefcase-Filled" d="M85.333 533.333c0 70.692 57.308 128 128 128v0h597.333c70.692 0 128-57.308 128-128v0-384c0-70.692-57.308-128-128-128v0h-597.333c-70.692 0-128 57.308-128 128v0zM384 789.333c-23.564 0-42.667-19.103-42.667-42.667v0-128c0-23.564-19.103-42.667-42.667-42.667s-42.667 19.103-42.667 42.667v0 128c0 70.692 57.308 128 128 128v0h256c70.692 0 128-57.308 128-128v0-128c0-23.564-19.103-42.667-42.667-42.667s-42.667 19.103-42.667 42.667v0 128c0 23.564-19.103 42.667-42.667 42.667v0z" />
<glyph unicode="&#xe948;" glyph-name="icons-Briefcase-Line" d="M853.333 192v0c0-47.128-38.205-85.333-85.333-85.333h-512c-47.128 0-85.333 38.205-85.333 85.333v298.667c0 47.128 38.205 85.333 85.333 85.333h512c47.128 0 85.333-38.205 85.333-85.333v-298.667zM256 661.333c-94.257 0-170.667-76.41-170.667-170.667v0-298.667c0-94.257 76.41-170.667 170.667-170.667v0h512c94.257 0 170.667 76.41 170.667 170.667v0 298.667c0 94.257-76.41 170.667-170.667 170.667v0zM384 789.333c-23.564 0-42.667-19.103-42.667-42.667v0-128c0-23.564-19.103-42.667-42.667-42.667s-42.667 19.103-42.667 42.667v0 128c0 70.692 57.308 128 128 128v0h256c70.692 0 128-57.308 128-128v0-128c0-23.564-19.103-42.667-42.667-42.667s-42.667 19.103-42.667 42.667v0 128c0 23.564-19.103 42.667-42.667 42.667v0z" />
<glyph unicode="&#xe949;" glyph-name="icons-Brightness-Down-Filled" d="M512 874.667c-23.564 0-42.667-19.103-42.667-42.667s19.103-42.667 42.667-42.667c23.564 0 42.667 19.103 42.667 42.667v0c0 23.564-19.103 42.667-42.667 42.667v0zM512 106.667c-23.564 0-42.667-19.103-42.667-42.667s19.103-42.667 42.667-42.667c23.564 0 42.667 19.103 42.667 42.667v0c0 23.564-19.103 42.667-42.667 42.667v0zM896 490.667c23.564 0 42.667-19.103 42.667-42.667s-19.103-42.667-42.667-42.667c-23.564 0-42.667 19.103-42.667 42.667v0c0 23.564 19.103 42.667 42.667 42.667v0zM170.667 448c0 23.564-19.103 42.667-42.667 42.667s-42.667-19.103-42.667-42.667c0-23.564 19.103-42.667 42.667-42.667v0c23.564 0 42.667 19.103 42.667 42.667v0zM753.365 749.696c7.722 7.724 18.39 12.501 30.174 12.501 23.564 0 42.667-19.103 42.667-42.667s-19.103-42.667-42.667-42.667c-11.784 0-22.453 4.777-30.174 12.501v0c-7.718 7.721-12.492 18.386-12.492 30.165s4.774 22.445 12.492 30.165v0zM270.635 206.635c-7.722 7.724-18.39 12.501-30.174 12.501-23.564 0-42.667-19.103-42.667-42.667s19.103-42.667 42.667-42.667c11.784 0 22.453 4.777 30.174 12.501v0c7.718 7.721 12.492 18.386 12.492 30.165s-4.774 22.445-12.492 30.165v0zM813.696 206.635c7.724-7.722 12.501-18.39 12.501-30.174 0-23.564-19.103-42.667-42.667-42.667s-42.667 19.103-42.667 42.667c0 11.784 4.777 22.453 12.501 30.174v0c7.721 7.718 18.386 12.492 30.165 12.492s22.445-4.774 30.165-12.492v0zM270.635 689.365c7.724 7.722 12.501 18.39 12.501 30.174 0 23.564-19.103 42.667-42.667 42.667s-42.667-19.103-42.667-42.667c0-11.784 4.777-22.453 12.501-30.174v0c7.721-7.718 18.386-12.492 30.165-12.492s22.445 4.774 30.165 12.492v0zM682.667 448c0-94.257-76.41-170.667-170.667-170.667s-170.667 76.41-170.667 170.667c0 94.257 76.41 170.667 170.667 170.667v0c94.257 0 170.667-76.41 170.667-170.667v0z" />
<glyph unicode="&#xe94a;" glyph-name="icons-Brightness-Down-Line" d="M512 874.667c-23.564 0-42.667-19.103-42.667-42.667s19.103-42.667 42.667-42.667c23.564 0 42.667 19.103 42.667 42.667v0c0 23.564-19.103 42.667-42.667 42.667v0zM512 106.667c-23.564 0-42.667-19.103-42.667-42.667s19.103-42.667 42.667-42.667c23.564 0 42.667 19.103 42.667 42.667v0c0 23.564-19.103 42.667-42.667 42.667v0zM896 490.667c23.564 0 42.667-19.103 42.667-42.667s-19.103-42.667-42.667-42.667c-23.564 0-42.667 19.103-42.667 42.667v0c0 23.564 19.103 42.667 42.667 42.667v0zM170.667 448c0 23.564-19.103 42.667-42.667 42.667s-42.667-19.103-42.667-42.667c0-23.564 19.103-42.667 42.667-42.667v0c23.564 0 42.667 19.103 42.667 42.667v0zM753.365 749.696c7.722 7.724 18.39 12.501 30.174 12.501 23.564 0 42.667-19.103 42.667-42.667s-19.103-42.667-42.667-42.667c-11.784 0-22.453 4.777-30.174 12.501v0c-7.718 7.721-12.492 18.386-12.492 30.165s4.774 22.445 12.492 30.165v0zM270.635 206.635c-7.722 7.724-18.39 12.501-30.174 12.501-23.564 0-42.667-19.103-42.667-42.667s19.103-42.667 42.667-42.667c11.784 0 22.453 4.777 30.174 12.501v0c7.718 7.721 12.492 18.386 12.492 30.165s-4.774 22.445-12.492 30.165v0zM813.696 206.635c7.724-7.722 12.501-18.39 12.501-30.174 0-23.564-19.103-42.667-42.667-42.667s-42.667 19.103-42.667 42.667c0 11.784 4.777 22.453 12.501 30.174v0c7.721 7.718 18.386 12.492 30.165 12.492s22.445-4.774 30.165-12.492v0zM270.635 689.365c7.724 7.722 12.501 18.39 12.501 30.174 0 23.564-19.103 42.667-42.667 42.667s-42.667-19.103-42.667-42.667c0-11.784 4.777-22.453 12.501-30.174v0c7.721-7.718 18.386-12.492 30.165-12.492s22.445 4.774 30.165 12.492v0zM512 362.667v0c-47.128 0-85.333 38.205-85.333 85.333v0c0 47.128 38.205 85.333 85.333 85.333s85.333-38.205 85.333-85.333c0-47.128-38.205-85.333-85.333-85.333zM512 277.333c94.257 0 170.667 76.41 170.667 170.667s-76.41 170.667-170.667 170.667c-94.257 0-170.667-76.41-170.667-170.667v0c0-94.257 76.41-170.667 170.667-170.667v0z" />
<glyph unicode="&#xe94b;" glyph-name="icons-Brightness-Up-Filled" d="M512 874.667c-23.564 0-42.667-19.103-42.667-42.667v0-85.333c0-23.564 19.103-42.667 42.667-42.667s42.667 19.103 42.667 42.667v0 85.333c0 23.564-19.103 42.667-42.667 42.667v0zM512 192c-23.564 0-42.667-19.103-42.667-42.667v0-85.333c0-23.564 19.103-42.667 42.667-42.667s42.667 19.103 42.667 42.667v0 85.333c0 23.564-19.103 42.667-42.667 42.667v0zM896 490.667c23.564 0 42.667-19.103 42.667-42.667s-19.103-42.667-42.667-42.667v0h-85.333c-23.564 0-42.667 19.103-42.667 42.667s19.103 42.667 42.667 42.667v0zM256 448c0 23.564-19.103 42.667-42.667 42.667v0h-85.333c-23.564 0-42.667-19.103-42.667-42.667s19.103-42.667 42.667-42.667v0h85.333c23.564 0 42.667 19.103 42.667 42.667v0zM753.365 749.696c7.769 8.036 18.647 13.026 30.69 13.026 23.564 0 42.667-19.103 42.667-42.667 0-12.043-4.989-22.92-13.014-30.678l-60.343-60.343c-7.769-8.036-18.647-13.026-30.69-13.026-23.564 0-42.667 19.103-42.667 42.667 0 12.043 4.989 22.92 13.014 30.678l0.012 0.012zM330.965 266.965c-7.721 7.718-18.386 12.492-30.165 12.492s-22.445-4.774-30.165-12.492l-60.331-60.331c-7.41-7.665-11.977-18.12-11.977-29.641 0-23.564 19.103-42.667 42.667-42.667 11.521 0 21.976 4.567 29.653 11.989l60.319 60.319c7.718 7.721 12.492 18.386 12.492 30.165s-4.774 22.445-12.492 30.165v0zM813.696 206.635c7.41-7.665 11.977-18.12 11.977-29.641 0-23.564-19.103-42.667-42.667-42.667-11.521 0-21.976 4.567-29.653 11.989l-60.319 60.319c-7.41 7.665-11.977 18.12-11.977 29.641 0 23.564 19.103 42.667 42.667 42.667 11.521 0 21.976-4.567 29.653-11.989l-0.012 0.012zM330.965 629.035c7.718 7.721 12.492 18.386 12.492 30.165s-4.774 22.445-12.492 30.165l-60.331 60.331c-7.665 7.41-18.12 11.977-29.641 11.977-23.564 0-42.667-19.103-42.667-42.667 0-11.521 4.567-21.976 11.989-29.653l60.319-60.319c7.721-7.718 18.386-12.492 30.165-12.492s22.445 4.774 30.165 12.492v0zM682.667 448c0-94.257-76.41-170.667-170.667-170.667s-170.667 76.41-170.667 170.667c0 94.257 76.41 170.667 170.667 170.667v0c94.257 0 170.667-76.41 170.667-170.667v0z" />
<glyph unicode="&#xe94c;" glyph-name="icons-Brightness-Up-Line" d="M512 874.667c-23.564 0-42.667-19.103-42.667-42.667v0-85.333c0-23.564 19.103-42.667 42.667-42.667s42.667 19.103 42.667 42.667v0 85.333c0 23.564-19.103 42.667-42.667 42.667v0zM512 192c-23.564 0-42.667-19.103-42.667-42.667v0-85.333c0-23.564 19.103-42.667 42.667-42.667s42.667 19.103 42.667 42.667v0 85.333c0 23.564-19.103 42.667-42.667 42.667v0zM896 490.667c23.564 0 42.667-19.103 42.667-42.667s-19.103-42.667-42.667-42.667v0h-85.333c-23.564 0-42.667 19.103-42.667 42.667s19.103 42.667 42.667 42.667v0zM256 448c0 23.564-19.103 42.667-42.667 42.667v0h-85.333c-23.564 0-42.667-19.103-42.667-42.667s19.103-42.667 42.667-42.667v0h85.333c23.564 0 42.667 19.103 42.667 42.667v0zM753.365 749.696c7.769 8.036 18.647 13.026 30.69 13.026 23.564 0 42.667-19.103 42.667-42.667 0-12.043-4.989-22.92-13.014-30.678l-60.343-60.343c-7.769-8.036-18.647-13.026-30.69-13.026-23.564 0-42.667 19.103-42.667 42.667 0 12.043 4.989 22.92 13.014 30.678l0.012 0.012zM330.965 266.965c-7.721 7.718-18.386 12.492-30.165 12.492s-22.445-4.774-30.165-12.492l-60.331-60.331c-7.41-7.665-11.977-18.12-11.977-29.641 0-23.564 19.103-42.667 42.667-42.667 11.521 0 21.976 4.567 29.653 11.989l60.319 60.319c7.718 7.721 12.492 18.386 12.492 30.165s-4.774 22.445-12.492 30.165v0zM813.696 206.635c7.41-7.665 11.977-18.12 11.977-29.641 0-23.564-19.103-42.667-42.667-42.667-11.521 0-21.976 4.567-29.653 11.989l-60.319 60.319c-7.41 7.665-11.977 18.12-11.977 29.641 0 23.564 19.103 42.667 42.667 42.667 11.521 0 21.976-4.567 29.653-11.989l-0.012 0.012zM330.965 629.035c7.718 7.721 12.492 18.386 12.492 30.165s-4.774 22.445-12.492 30.165l-60.331 60.331c-7.665 7.41-18.12 11.977-29.641 11.977-23.564 0-42.667-19.103-42.667-42.667 0-11.521 4.567-21.976 11.989-29.653l60.319-60.319c7.721-7.718 18.386-12.492 30.165-12.492s22.445 4.774 30.165 12.492v0zM512 362.667v0c-47.128 0-85.333 38.205-85.333 85.333v0c0 47.128 38.205 85.333 85.333 85.333s85.333-38.205 85.333-85.333c0-47.128-38.205-85.333-85.333-85.333zM512 277.333c94.257 0 170.667 76.41 170.667 170.667s-76.41 170.667-170.667 170.667c-94.257 0-170.667-76.41-170.667-170.667v0c0-94.257 76.41-170.667 170.667-170.667v0z" />
<glyph unicode="&#xe94d;" glyph-name="icons-Brush-Filled" d="M412.032 256.853l-128.555-179.968c-18.768-26.453-49.277-43.508-83.77-43.508-56.554 0-102.4 45.846-102.4 102.4 0 34.45 17.012 64.926 43.093 83.487l0.315 0.213 180.139 128.555c5.431 3.917 8.925 10.227 8.925 17.353 0 5.885-2.383 11.214-6.237 15.074v0l-92.544 92.544c-15.437 15.441-24.984 36.771-24.984 60.331s9.548 44.889 24.985 60.331v0l31.232 31.275c3.86 3.859 9.193 6.246 15.083 6.246s11.222-2.387 15.083-6.246l396.501-396.501c3.859-3.86 6.246-9.193 6.246-15.083s-2.387-11.222-6.246-15.083l-31.232-31.232c-15.441-15.437-36.771-24.984-60.331-24.984s-44.889 9.548-60.331 24.985l-92.544 92.501c-3.859 3.854-9.188 6.237-15.073 6.237-7.126 0-13.436-3.494-17.31-8.862l-0.043-0.063zM752.896 292.437l-396.501 396.501c-3.859 3.86-6.246 9.193-6.246 15.083s2.387 11.222 6.246 15.083l116.608 116.565c15.441 15.437 36.771 24.984 60.331 24.984s44.889-9.548 60.331-24.985l306.005-306.005c15.437-15.441 24.984-36.771 24.984-60.331s-9.548-44.889-24.985-60.331l-116.565-116.565c-3.862-3.872-9.203-6.267-15.104-6.267s-11.242 2.396-15.104 6.267v0z" />
<glyph unicode="&#xe94e;" glyph-name="icons-Brush-Line" d="M277.333 640l426.667-426.667 186.837 186.837c23.168 23.164 37.498 55.167 37.498 90.517s-14.33 67.353-37.498 90.517l-245.675 245.59c-23.164 23.168-55.167 37.498-90.517 37.498s-67.353-14.33-90.517-37.498v0zM401.664 643.669l122.837 122.795c7.721 7.718 18.386 12.492 30.165 12.492s22.445-4.774 30.165-12.492l245.675-245.632c7.718-7.721 12.492-18.386 12.492-30.165s-4.774-22.445-12.492-30.165l-122.837-122.837zM768 277.333l-426.667 426.667-80.086-80.128c-23.168-23.164-37.498-55.167-37.498-90.517s14.33-67.353 37.498-90.517l20.309-20.309c3.859-3.86 6.246-9.193 6.246-15.083 0-6.869-3.246-12.979-8.337-16.917l-126.929-97.615c-34.494-26.647-56.709-68.418-56.709-115.378 0-80.472 65.235-145.707 145.707-145.707 46.96 0 88.731 22.215 115.628 57.047l97.401 126.684c3.902 5.042 10.012 8.288 16.881 8.288 5.89 0 11.222-2.387 15.083-6.246l20.309-20.437c23.164-23.168 55.167-37.498 90.517-37.498s67.353 14.33 90.517 37.498zM386.901 267.435l-97.365-126.635c-11.145-14.422-28.447-23.619-47.896-23.619-33.343 0-60.373 27.030-60.373 60.373 0 19.45 9.197 36.751 23.48 47.793l0.139 0.104 126.549 97.451c25.411 19.694 41.611 50.221 41.611 84.531 0 29.456-11.94 56.123-31.243 75.426l-20.309 20.309c-7.718 7.721-12.492 18.386-12.492 30.165s4.774 22.445 12.492 30.165l16.171 16.171 306.005-306.005-16.171-16.171c-7.721-7.718-18.386-12.492-30.165-12.492s-22.445 4.774-30.165 12.492l-20.309 20.309c-19.303 19.304-45.97 31.243-75.426 31.243-34.311 0-64.838-16.2-84.35-41.368l-0.181-0.243z" />
<glyph unicode="&#xe94f;" glyph-name="icons-Bubble-Race-Filled" d="M981.333 597.333c0-129.603-105.064-234.667-234.667-234.667s-234.667 105.064-234.667 234.667c0 129.603 105.064 234.667 234.667 234.667v0c129.603 0 234.667-105.064 234.667-234.667v0zM341.333 597.333c0-82.475-66.859-149.333-149.333-149.333s-149.333 66.859-149.333 149.333c0 82.475 66.859 149.333 149.333 149.333v0c82.475 0 149.333-66.859 149.333-149.333v0zM554.667 234.667c0-94.257-76.41-170.667-170.667-170.667s-170.667 76.41-170.667 170.667c0 94.257 76.41 170.667 170.667 170.667v0c94.257 0 170.667-76.41 170.667-170.667v0z" />
</font>
</defs>
</svg>
