<svg xmlns="http://www.w3.org/2000/svg" width="13.333" height="13.333" viewBox="0 0 13.333 13.333"><g transform="translate(-1.333 -1.333)"><path d="M6.667,12A5.333,5.333,0,1,0,1.333,6.667,5.333,5.333,0,0,0,6.667,12Zm0,1.333A6.667,6.667,0,1,0,0,6.667,6.667,6.667,0,0,0,6.667,13.333Z" transform="translate(1.333 1.333)" fill="#777e90" fill-rule="evenodd"/><path d="M4.5,10.784a9.5,9.5,0,0,0,.836-4.118A9.5,9.5,0,0,0,4.5,2.549C3.965,1.484,3.477,1.333,3.333,1.333S2.7,1.484,2.169,2.549a9.5,9.5,0,0,0-.836,4.118,9.5,9.5,0,0,0,.836,4.118C2.7,11.849,3.19,12,3.333,12S3.965,11.849,4.5,10.784ZM3.333,13.333c1.841,0,3.333-2.985,3.333-6.667S5.174,0,3.333,0,0,2.985,0,6.667,1.492,13.333,3.333,13.333Z" transform="translate(4.667 1.333)" fill="#777e90" fill-rule="evenodd"/><path d="M13.3,1.333q.033-.329.033-.667T13.3,0H.033Q0,.329,0,.667t.033.667Z" transform="translate(1.333 7.333)" fill="#777e90"/></g></svg>